<svg xmlns="http://www.w3.org/2000/svg" xmlns:xlink="http://www.w3.org/1999/xlink" width="500" zoomAndPan="magnify" viewBox="0 0 375 374.999991" height="500" preserveAspectRatio="xMidYMid meet" version="1.0"><defs><clipPath id="1f26d3ea31"><path d="M 140.480469 179.300781 L 234.519531 179.300781 L 234.519531 273.339844 L 140.480469 273.339844 Z M 140.480469 179.300781 " clip-rule="nonzero"/></clipPath><clipPath id="98dbf31424"><path d="M 187.5 179.300781 C 161.53125 179.300781 140.480469 200.351562 140.480469 226.320312 C 140.480469 252.289062 161.53125 273.339844 187.5 273.339844 C 213.46875 273.339844 234.519531 252.289062 234.519531 226.320312 C 234.519531 200.351562 213.46875 179.300781 187.5 179.300781 Z M 187.5 179.300781 " clip-rule="nonzero"/></clipPath><clipPath id="78e22904e4"><path d="M 273.941406 180.519531 L 375 180.519531 L 375 215.523438 L 273.941406 215.523438 Z M 273.941406 180.519531 " clip-rule="nonzero"/></clipPath><clipPath id="924832cf3b"><path d="M 0 180.519531 L 100.308594 180.519531 L 100.308594 215.523438 L 0 215.523438 Z M 0 180.519531 " clip-rule="nonzero"/></clipPath><clipPath id="66b41019e8"><path d="M 74.421875 55.003906 L 114.496094 55.003906 L 114.496094 135.835938 L 74.421875 135.835938 Z M 74.421875 55.003906 " clip-rule="nonzero"/></clipPath><clipPath id="42058756ad"><path d="M 140.058594 178.257812 L 235 178.257812 L 235 273 L 140.058594 273 Z M 140.058594 178.257812 " clip-rule="nonzero"/></clipPath></defs><path stroke-linecap="butt" transform="matrix(0, 0.75, -0.75, 0, 74.999224, 215.523063)" fill="none" stroke-linejoin="miter" d="M 0.000499804 24.998967 L 187.547387 24.998967 " stroke="#545454" stroke-width="50" stroke-opacity="1" stroke-miterlimit="4"/><path stroke-linecap="butt" transform="matrix(-0.555957, 0.503401, -0.503401, -0.555957, 213.368882, 52.075873)" fill="none" stroke-linejoin="miter" d="M -0.00232698 25.000009 L 310.187349 25.002232 " stroke="#545454" stroke-width="50" stroke-opacity="1" stroke-miterlimit="4"/><path stroke-linecap="butt" transform="matrix(0.553026, 0.506618, -0.506618, 0.553026, 189.117518, 24.350786)" fill="none" stroke-linejoin="miter" d="M 0.000445053 24.998396 L 307.621248 25.000934 " stroke="#545454" stroke-width="50" stroke-opacity="1" stroke-miterlimit="4"/><path stroke-linecap="butt" transform="matrix(0.000000001309, 0.75, -0.75, 0.000000001309, 337.49919, 215.523063)" fill="none" stroke-linejoin="miter" d="M 0.00049976 24.998922 L 187.547387 24.998922 " stroke="#545454" stroke-width="50" stroke-opacity="1" stroke-miterlimit="4"/><path stroke-linecap="butt" transform="matrix(-0.75, 0, 0, -0.75, 323.966496, 237.195877)" fill="none" stroke-linejoin="miter" d="M 0.00220304 14.500754 L 164.549089 14.500754 " stroke="#545454" stroke-width="29" stroke-opacity="1" stroke-miterlimit="4"/><path stroke-linecap="butt" transform="matrix(-0.75, 0, 0, -0.75, 301.766615, 356.249977)" fill="none" stroke-linejoin="miter" d="M 0.00132011 24.99997 L 303.136757 24.99997 " stroke="#545454" stroke-width="50" stroke-opacity="1" stroke-miterlimit="4"/><g clip-path="url(#1f26d3ea31)"><g clip-path="url(#98dbf31424)"><path fill="#ffc107" d="M 140.480469 179.300781 L 234.519531 179.300781 L 234.519531 273.339844 L 140.480469 273.339844 Z M 140.480469 179.300781 " fill-opacity="1" fill-rule="nonzero"/></g></g><g clip-path="url(#78e22904e4)"><path fill="#ffffff" d="M 273.941406 180.519531 L 375.253906 180.519531 L 375.253906 215.523438 L 273.941406 215.523438 Z M 273.941406 180.519531 " fill-opacity="1" fill-rule="nonzero"/></g><g clip-path="url(#924832cf3b)"><path fill="#ffffff" d="M -1.015625 180.519531 L 100.296875 180.519531 L 100.296875 215.523438 L -1.015625 215.523438 Z M -1.015625 180.519531 " fill-opacity="1" fill-rule="nonzero"/></g><g clip-path="url(#66b41019e8)"><path fill="#545454" d="M 74.421875 55.003906 L 114.496094 55.003906 L 114.496094 135.777344 L 74.421875 135.777344 Z M 74.421875 55.003906 " fill-opacity="1" fill-rule="nonzero"/></g><path fill="#545454" d="M 228 240.433594 L 227.574219 240.769531 C 227.707031 240.917969 227.878906 241.003906 228.070312 241.03125 C 228.054688 240.832031 228.035156 240.632812 228 240.433594 Z M 228 240.433594 " fill-opacity="1" fill-rule="nonzero"/><path fill="#545454" d="M 227.609375 241.207031 L 227.863281 241.464844 C 227.453125 241.628906 227.742188 241.925781 228.011719 242.03125 C 227.765625 242.011719 227.621094 242.117188 227.566406 242.34375 L 227.984375 242.742188 L 227.628906 242.699219 C 227.679688 242.890625 227.757812 243.082031 227.855469 243.261719 L 227.585938 243.652344 L 227.949219 243.863281 C 228.140625 243.382812 227.984375 242.863281 228.027344 242.378906 C 228.019531 242.082031 228.113281 241.777344 227.992188 241.492188 L 228.210938 241.222656 L 227.621094 241.222656 Z M 227.609375 241.207031 " fill-opacity="1" fill-rule="nonzero"/><path fill="#545454" d="M 228.296875 241.160156 C 228.277344 241.378906 228.277344 241.597656 228.289062 241.8125 L 228.738281 241.8125 C 228.800781 241.492188 228.601562 241.238281 228.296875 241.160156 Z M 228.296875 241.160156 " fill-opacity="1" fill-rule="nonzero"/><path fill="#545454" d="M 228.324219 242.636719 L 228.738281 242.550781 L 228.738281 242.03125 L 228.269531 241.988281 C 228.296875 242.421875 228.289062 242.847656 228.246094 243.28125 C 228.246094 243.523438 228.261719 243.773438 228.269531 244.027344 L 228.601562 243.90625 C 228.617188 243.730469 228.636719 243.566406 228.652344 243.402344 L 228.304688 243.402344 L 228.324219 243.296875 L 228.652344 243.210938 C 229 242.96875 228.460938 242.785156 228.324219 242.636719 Z M 228.324219 242.636719 " fill-opacity="1" fill-rule="nonzero"/><path fill="#545454" d="M 228.289062 239.878906 C 228.78125 240.121094 228.609375 239.496094 228.671875 239.253906 C 228.382812 239.207031 228.167969 239.296875 228.132812 239.632812 L 228.523438 239.554688 Z M 228.289062 239.878906 " fill-opacity="1" fill-rule="nonzero"/><path fill="#545454" d="M 228.425781 240.613281 C 227.992188 240.605469 228.4375 241.464844 228.695312 241.03125 C 228.921875 240.867188 228.617188 240.570312 228.425781 240.613281 Z M 228.425781 240.613281 " fill-opacity="1" fill-rule="nonzero"/><path fill="#545454" d="M 227.238281 240.589844 C 226.976562 240.625 227.027344 241.09375 227.308594 240.972656 C 227.585938 240.847656 227.542969 240.441406 227.238281 240.589844 Z M 227.238281 240.589844 " fill-opacity="1" fill-rule="nonzero"/><path fill="#545454" d="M 227.097656 241.628906 C 226.90625 241.847656 227.296875 242.066406 227.445312 241.855469 C 227.59375 241.648438 227.238281 241.386719 227.097656 241.628906 Z M 227.097656 241.628906 " fill-opacity="1" fill-rule="nonzero"/><path fill="#545454" d="M 226.792969 240.449219 C 226.960938 240.328125 226.96875 240.199219 226.820312 240.058594 C 226.550781 240.171875 226.542969 240.300781 226.792969 240.449219 Z M 226.792969 240.449219 " fill-opacity="1" fill-rule="nonzero"/><path fill="#545454" d="M 226.585938 243.992188 C 226.515625 244.226562 226.605469 244.304688 226.855469 244.226562 C 226.917969 243.976562 226.828125 243.898438 226.585938 243.992188 Z M 226.585938 243.992188 " fill-opacity="1" fill-rule="nonzero"/><path fill="#545454" d="M 226.648438 244.921875 C 226.550781 245.171875 226.628906 245.269531 226.863281 245.207031 C 226.949219 244.957031 226.871094 244.859375 226.648438 244.921875 Z M 226.648438 244.921875 " fill-opacity="1" fill-rule="nonzero"/><path fill="#545454" d="M 228.339844 240.128906 C 228.167969 240.355469 228.582031 240.492188 228.730469 240.355469 C 228.878906 240.214844 228.480469 239.988281 228.339844 240.128906 Z M 228.339844 240.128906 " fill-opacity="1" fill-rule="nonzero"/><path fill="#545454" d="M 225.726562 247.289062 L 225.726562 247.367188 L 226.167969 247.367188 L 226.167969 247.289062 Z M 225.726562 247.289062 " fill-opacity="1" fill-rule="nonzero"/><path fill="#545454" d="M 228.515625 239.097656 C 228.773438 238.992188 228.644531 238.707031 228.652344 238.496094 L 228.253906 238.523438 C 228.140625 238.707031 228.199219 238.941406 228.382812 239.042969 C 228.425781 239.070312 228.46875 239.085938 228.515625 239.097656 Z M 228.515625 239.097656 " fill-opacity="1" fill-rule="nonzero"/><path fill="#545454" d="M 161.757812 242.585938 C 161.730469 242.300781 161.382812 242.472656 161.210938 242.457031 C 161.226562 242.722656 161.253906 242.992188 161.203125 243.261719 L 161.246094 243.296875 C 161.402344 243.082031 161.617188 242.941406 161.835938 242.792969 L 161.28125 242.714844 C 161.4375 242.664062 161.59375 242.621094 161.757812 242.585938 Z M 161.757812 242.585938 " fill-opacity="1" fill-rule="nonzero"/><path fill="#545454" d="M 178.40625 194.8125 C 178.199219 195.863281 177.617188 196.863281 177.679688 197.957031 C 177.992188 198.730469 179.144531 198.617188 179.640625 198.078125 C 180.507812 197.148438 180.699219 195.726562 181.742188 194.945312 C 182.0625 194.667969 182.488281 194.613281 182.878906 194.535156 C 182.332031 194.015625 181.695312 193.597656 181.003906 193.3125 C 180.515625 193.730469 179.945312 194.03125 179.320312 194.1875 C 178.980469 194.320312 178.460938 194.363281 178.40625 194.8125 Z M 178.40625 194.8125 " fill-opacity="1" fill-rule="nonzero"/><path fill="#545454" d="M 208.902344 243.523438 C 208.972656 243.324219 208.921875 243.183594 208.746094 243.125 C 208.695312 243.90625 208.695312 244.695312 208.738281 245.476562 L 208.957031 245.492188 C 208.921875 244.835938 208.867188 244.183594 208.902344 243.523438 Z M 208.902344 243.523438 " fill-opacity="1" fill-rule="nonzero"/><path fill="#545454" d="M 180.679688 193.128906 C 180.265625 192.886719 179.832031 192.6875 179.378906 192.523438 C 179.265625 193.027344 179.144531 193.53125 179.023438 194.03125 C 179.613281 193.851562 180.34375 193.6875 180.679688 193.128906 Z M 180.679688 193.128906 " fill-opacity="1" fill-rule="nonzero"/><path fill="#545454" d="M 200.144531 196.167969 C 200.265625 194.371094 200.238281 192.539062 199.796875 190.785156 C 199.179688 188.113281 197.574219 185.621094 195.230469 184.144531 C 193.84375 183.320312 192.3125 182.773438 190.714844 182.523438 C 188.605469 182.199219 186.332031 182.304688 184.414062 183.320312 C 182.496094 184.335938 181.132812 185.855469 180.074219 187.617188 C 179.578125 188.460938 179.207031 189.371094 178.773438 190.246094 C 178.257812 190.167969 177.789062 189.945312 177.277344 189.890625 C 177.078125 189.855469 176.792969 189.925781 176.863281 190.1875 C 177.027344 190.59375 177.425781 190.820312 177.765625 191.0625 C 178.25 191.367188 178.71875 191.707031 179.230469 191.96875 C 181.226562 192.949219 183.164062 194.050781 185.203125 194.9375 C 185.820312 195.203125 186.410156 195.527344 187.011719 195.828125 C 189.789062 197.054688 192.488281 198.476562 195.203125 199.839844 C 195.984375 200.1875 196.722656 200.648438 197.546875 200.890625 C 198.972656 201.359375 200.40625 201.820312 201.84375 202.238281 C 202.324219 202.347656 202.800781 202.539062 203.304688 202.496094 C 202.332031 200.875 200.996094 199.5 200.015625 197.886719 C 199.890625 197.324219 200.117188 196.734375 200.144531 196.167969 Z M 199.519531 197.503906 C 198.269531 197.246094 197.046875 196.835938 195.769531 196.65625 C 195.414062 196.566406 194.988281 196.636719 194.726562 196.332031 C 194.980469 196.210938 195.257812 196.132812 195.542969 196.117188 L 195.457031 195.742188 C 196.472656 193.640625 196.324219 191.132812 195.492188 188.996094 C 194.761719 187.0625 193.292969 185.414062 191.417969 184.535156 C 189.953125 183.808594 188.242188 183.546875 186.644531 183.980469 C 183.980469 184.554688 181.84375 186.585938 180.613281 188.945312 C 180.464844 189.335938 180.167969 189.746094 180.273438 190.179688 C 180.535156 189.960938 180.613281 189.542969 180.863281 189.285156 C 181.664062 189.355469 182.289062 189.953125 183.078125 190.101562 C 183.214844 190.457031 183.214844 190.847656 183.269531 191.21875 C 183.320312 191.59375 183.726562 191.558594 183.980469 191.679688 C 185.214844 192.210938 186.429688 192.792969 187.652344 193.347656 C 187.914062 192.972656 188.191406 192.617188 188.46875 192.261719 C 189.449219 192.722656 190.527344 193.050781 191.429688 193.625 C 191.117188 194.433594 190.820312 195.273438 190.351562 196.011719 L 190.167969 196.0625 C 190.238281 195.351562 190.683594 194.703125 190.925781 194.023438 C 190.074219 193.808594 189.328125 193.3125 188.546875 192.9375 C 188.277344 193.269531 188.09375 193.667969 187.800781 193.980469 C 187.410156 193.5625 186.863281 193.40625 186.367188 193.171875 L 182.957031 191.628906 C 182.824219 191.28125 182.867188 190.90625 182.84375 190.550781 C 182.320312 190.855469 182.417969 191.585938 182.253906 192.097656 L 182.027344 192 C 182.105469 191.515625 182.226562 191.039062 182.347656 190.558594 C 181.914062 190.316406 181.523438 189.96875 181.039062 189.847656 L 180.871094 189.933594 C 180.613281 190.550781 180.535156 191.273438 180.089844 191.800781 C 180.066406 191.316406 180.300781 190.820312 180.222656 190.359375 L 179.789062 190.335938 C 180.210938 188.78125 181.082031 187.367188 182.148438 186.167969 C 183.746094 184.378906 186.039062 183.371094 188.433594 183.398438 C 190.046875 183.519531 191.59375 184.066406 192.929688 184.980469 C 194.796875 186.238281 195.960938 188.347656 196.394531 190.527344 C 196.664062 192.019531 196.644531 193.609375 196.082031 195.039062 C 195.960938 195.328125 195.855469 195.628906 195.628906 195.847656 C 195.59375 195.96875 195.570312 196.097656 195.542969 196.21875 C 196.265625 196.125 196.976562 196.367188 197.679688 196.507812 C 198.382812 196.644531 199.066406 196.757812 199.578125 197.226562 Z M 199.519531 197.503906 " fill-opacity="1" fill-rule="nonzero"/><path fill="#545454" d="M 188.171875 196.714844 C 187.714844 196.515625 187.234375 196.351562 186.765625 196.160156 C 186.878906 196.394531 187 196.628906 187.121094 196.863281 C 187.46875 196.785156 187.816406 196.757812 188.171875 196.714844 Z M 188.171875 196.714844 " fill-opacity="1" fill-rule="nonzero"/><path fill="#545454" d="M 195.300781 201.5 C 194.746094 201.332031 194.242188 200.988281 193.660156 200.910156 C 193.371094 200.847656 193.058594 200.847656 192.824219 200.648438 C 193.808594 200.550781 194.917969 200.734375 195.683594 201.378906 L 196.03125 201.203125 L 196.195312 200.820312 C 194.761719 200.023438 193.269531 199.363281 191.808594 198.609375 C 190.761719 198.042969 189.699219 197.515625 188.625 197.019531 C 188.042969 196.96875 187.46875 197.253906 186.871094 197.203125 C 186.644531 196.777344 186.464844 196.289062 186.089844 195.976562 C 185.507812 195.621094 184.847656 195.421875 184.214844 195.203125 C 183.371094 194.925781 182.339844 194.9375 181.671875 195.59375 C 180.90625 196.4375 180.714844 197.679688 179.832031 198.425781 C 179.429688 198.78125 178.875 198.859375 178.355469 198.886719 C 178.148438 200.292969 177.738281 201.679688 177.007812 202.914062 C 175.828125 204.925781 174.066406 206.757812 171.738281 207.339844 C 172.710938 207.488281 173.648438 207.816406 174.507812 208.304688 C 175.847656 209.058594 177.121094 209.9375 178.226562 211.003906 C 178.527344 211.300781 178.851562 211.578125 179.050781 211.960938 C 178.425781 211.578125 177.914062 211.023438 177.242188 210.691406 C 177.476562 211.066406 177.808594 211.367188 178.050781 211.742188 C 178.589844 212.480469 178.996094 213.367188 179.796875 213.878906 C 180.785156 214.546875 181.765625 215.273438 182.878906 215.726562 C 183.226562 214.695312 184.050781 213.9375 184.664062 213.070312 C 185.28125 212.203125 185.996094 211.316406 186.628906 210.414062 C 187.367188 211.167969 188.292969 211.707031 189.320312 211.96875 C 189.917969 212.089844 190.628906 212.238281 191.152344 211.828125 C 191.671875 211.421875 191.574219 210.621094 191.515625 210.023438 C 191.445312 210.769531 191.027344 211.757812 190.125 211.664062 C 190.402344 211.257812 190.820312 210.945312 190.976562 210.457031 C 191.132812 209.972656 191.253906 209.390625 191.777344 209.191406 C 192.296875 208.988281 192.644531 209.085938 193.070312 208.957031 C 192.367188 208.851562 192.027344 208.191406 191.671875 207.652344 C 192.253906 207.75 192.636719 208.183594 192.980469 208.617188 C 193.347656 208.660156 193.085938 208.007812 193.199219 207.835938 C 193.527344 208.242188 194.078125 207.722656 194.007812 207.304688 C 193.851562 207.496094 193.71875 207.695312 193.574219 207.886719 C 192.921875 207.445312 191.976562 207.738281 191.316406 207.332031 C 192.011719 207.269531 192.722656 207.289062 193.390625 207.480469 C 193.496094 207.125 193.589844 206.769531 193.695312 206.410156 C 194.378906 206.28125 194.960938 206.992188 195.664062 206.800781 C 195.984375 206.742188 196.34375 206.507812 196.324219 206.144531 C 196.273438 205.527344 196.109375 204.925781 195.925781 204.347656 C 195.996094 204.988281 196.265625 205.613281 196.1875 206.265625 C 195.839844 206.722656 195.195312 206.636719 194.726562 206.457031 C 194.257812 206.273438 193.816406 206.308594 193.355469 206.28125 C 193.261719 206.054688 193.078125 205.699219 193.382812 205.550781 C 194.007812 205.285156 194.3125 206.054688 194.867188 206.160156 C 195.152344 206.230469 195.550781 206.464844 195.769531 206.160156 C 195.742188 204.746094 195.421875 203.355469 195.300781 201.949219 C 195.761719 201.90625 196.203125 201.8125 196.636719 201.65625 C 196.742188 201.464844 196.800781 201.253906 196.828125 201.039062 C 196.523438 201.28125 196.28125 201.613281 195.90625 201.75 C 195.71875 201.636719 195.515625 201.550781 195.300781 201.5 Z M 177.140625 203.894531 C 177.824219 202.707031 178.617188 201.578125 179.1875 200.328125 C 179.050781 201.734375 178.136719 202.941406 177.140625 203.894531 Z M 183.660156 199.136719 C 183.667969 199.5625 184.058594 199.8125 184.195312 200.195312 C 183.980469 200.160156 183.667969 200.257812 183.589844 199.980469 C 183.277344 199.222656 183.199219 198.355469 183.484375 197.582031 C 183.695312 197.175781 183.945312 196.609375 184.507812 196.734375 C 184.25 197.191406 183.851562 197.582031 183.683594 198.09375 C 183.597656 198.425781 183.632812 198.78125 183.660156 199.136719 Z M 185.046875 199.101562 C 184.769531 198.84375 184.640625 198.242188 184.152344 198.46875 C 184.890625 198.128906 185.386719 197.0625 184.839844 196.375 C 184.378906 195.882812 183.589844 196.21875 183.335938 196.765625 C 182.914062 197.703125 183.078125 198.765625 183.085938 199.761719 C 183.101562 200.5 183.804688 200.890625 184.1875 201.429688 C 184.039062 201.8125 183.570312 201.558594 183.414062 201.324219 C 183.035156 200.8125 182.6875 200.230469 182.695312 199.578125 C 182.667969 198.695312 182.644531 197.792969 182.78125 196.914062 C 182.886719 196.28125 183.476562 195.777344 184.117188 195.761719 C 184.585938 195.875 185.152344 196.089844 185.308594 196.601562 C 185.464844 197.113281 185.109375 197.816406 184.742188 198.304688 C 184.945312 198.503906 185.152344 198.710938 185.335938 198.929688 Z M 194.058594 202.445312 C 193.753906 202.046875 193.347656 201.707031 193.164062 201.238281 L 193.859375 201.222656 C 193.859375 201.457031 193.859375 201.691406 193.867188 201.925781 L 194.328125 201.734375 L 194.007812 201.644531 L 194.023438 201.421875 C 194.300781 201.515625 194.589844 201.578125 194.875 201.59375 C 194.378906 201.59375 194.277344 202.113281 194.058594 202.4375 Z M 194.058594 202.445312 " fill-opacity="1" fill-rule="nonzero"/><path fill="#545454" d="M 152.15625 212.90625 C 152.035156 215.015625 152.113281 217.140625 152.085938 219.261719 C 152.058594 227.464844 152.136719 235.667969 152.085938 243.871094 L 153.09375 244.027344 C 153.066406 233.417969 153.085938 222.808594 153.023438 212.203125 C 152.746094 212.445312 152.441406 212.652344 152.15625 212.90625 Z M 152.15625 212.90625 " fill-opacity="1" fill-rule="nonzero"/><path fill="#545454" d="M 188.78125 224.476562 C 188.753906 223.226562 188.839844 221.941406 188.449219 220.734375 C 188.304688 220.144531 187.914062 219.675781 187.703125 219.113281 C 187.609375 218.714844 187.078125 218.738281 186.933594 218.382812 C 186.664062 217.84375 186.53125 217.210938 186.054688 216.804688 C 186.230469 217.871094 186.464844 218.949219 186.316406 220.03125 C 186.003906 219.105469 185.949219 218.113281 185.707031 217.167969 C 185.558594 215.96875 184.988281 214.902344 184.632812 213.765625 C 184.164062 214.425781 183.726562 215.109375 183.277344 215.789062 C 183.929688 216.117188 184.699219 216.222656 185.246094 216.714844 C 184.976562 216.734375 184.699219 216.734375 184.429688 216.699219 C 182.601562 216.265625 181.011719 215.195312 179.464844 214.164062 C 179.753906 214.683594 180.160156 215.136719 180.402344 215.683594 C 180.890625 216.578125 181.21875 217.550781 181.679688 218.453125 C 183.789062 219.632812 185.257812 221.699219 186.160156 223.902344 C 186.210938 223.644531 186.273438 223.390625 186.351562 223.140625 C 186.835938 221.726562 187.042969 220.25 187.347656 218.792969 C 187.566406 219.3125 187.488281 219.894531 187.433594 220.441406 C 187.269531 221.65625 186.933594 222.84375 186.496094 223.992188 C 186.339844 224.433594 186.230469 224.886719 186.167969 225.355469 C 185.792969 224.496094 185.558594 223.574219 185.089844 222.757812 C 184.222656 221.167969 183.058594 219.582031 181.316406 218.894531 C 180.222656 216.160156 178.894531 213.460938 177.019531 211.167969 C 175.664062 209.605469 173.980469 208.175781 171.90625 207.722656 C 171.019531 207.515625 170.117188 207.722656 169.222656 207.75 C 168.882812 207.75 168.554688 207.851562 168.285156 208.050781 C 168.859375 208.007812 169.421875 207.878906 170.003906 207.886719 L 169.863281 207.992188 C 167.808594 208.722656 165.6875 209.570312 164.171875 211.195312 C 164.640625 210.976562 165.039062 210.65625 165.5 210.421875 C 167 209.597656 168.769531 209.078125 170.480469 209.449219 C 172.589844 209.988281 174.285156 211.492188 175.644531 213.121094 C 177.902344 215.953125 179.398438 219.320312 180.308594 222.800781 C 181.117188 225.804688 181.148438 228.964844 180.8125 232.046875 C 180.492188 234.390625 179.976562 236.726562 179.050781 238.90625 C 179.507812 239.609375 179.875 240.363281 180.335938 241.058594 C 181.019531 241.777344 181.886719 242.289062 182.667969 242.890625 C 184.398438 244.210938 186.339844 245.199219 188.148438 246.414062 C 188.09375 245.9375 188.269531 245.484375 188.355469 245.015625 C 188.625 243.453125 188.902344 241.898438 189.085938 240.328125 C 189.527344 236.796875 189.890625 233.191406 189.355469 229.640625 C 189.171875 227.933594 188.761719 226.222656 188.78125 224.476562 Z M 184.996094 226.527344 C 184.535156 226.535156 184.242188 226.136719 184.03125 225.789062 C 184.710938 225.867188 185.378906 226.058594 186.046875 226.167969 C 186.394531 226.246094 186.820312 226.308594 186.976562 226.671875 C 186.324219 226.65625 185.664062 226.535156 184.996094 226.527344 Z M 184.996094 226.527344 " fill-opacity="1" fill-rule="nonzero"/><path fill="#545454" d="M 176.488281 223.296875 C 176.679688 223.035156 176.628906 222.6875 176.664062 222.386719 C 176.75 220.777344 176.4375 219.058594 175.5 217.730469 C 175.828125 218.921875 176.160156 220.128906 176.289062 221.359375 C 176.367188 222.003906 176.367188 222.652344 176.488281 223.296875 Z M 176.488281 223.296875 " fill-opacity="1" fill-rule="nonzero"/><path fill="#545454" d="M 176.035156 224.476562 C 176.027344 222.152344 175.679688 219.832031 175.082031 217.585938 C 174.71875 216.246094 174.082031 214.988281 173.222656 213.894531 C 172.609375 213.097656 171.785156 212.351562 170.734375 212.253906 C 168.738281 212.089844 166.800781 213.007812 165.34375 214.3125 C 163.882812 215.613281 162.953125 217.644531 162.269531 219.554688 C 161.90625 220.632812 161.539062 221.839844 161.972656 222.949219 C 162.164062 223.445312 162.539062 223.992188 163.121094 224.027344 C 163.882812 223.980469 164.492188 223.46875 165.167969 223.175781 C 164.683594 223.894531 163.867188 224.285156 163.25 224.867188 C 162.910156 225.207031 162.296875 225.511719 162.40625 226.082031 C 163.3125 225.882812 164.171875 225.492188 165.082031 225.308594 C 167.695312 224.773438 170.464844 224.902344 173 225.753906 C 174.066406 226.082031 175.066406 226.613281 175.933594 227.316406 C 175.785156 227.03125 175.566406 226.75 175.621094 226.414062 C 175.65625 225.753906 176.070312 225.164062 176.035156 224.476562 Z M 176.035156 224.476562 " fill-opacity="1" fill-rule="nonzero"/><path fill="#545454" d="M 194.292969 248.949219 C 194.882812 248.742188 195.605469 248.742188 196.046875 248.226562 C 194.839844 248.695312 193.277344 248.601562 192.390625 249.679688 C 193.035156 249.46875 193.632812 249.113281 194.292969 248.949219 Z M 194.292969 248.949219 " fill-opacity="1" fill-rule="nonzero"/><path fill="#545454" d="M 196.644531 245.539062 C 196.464844 245.476562 196.117188 245.460938 196.011719 245.648438 C 196.195312 245.71875 196.566406 245.746094 196.644531 245.539062 Z M 196.644531 245.539062 " fill-opacity="1" fill-rule="nonzero"/><g clip-path="url(#42058756ad)"><path fill="#545454" d="M 232.636719 213.382812 C 229.503906 202.183594 222.074219 192.289062 212.273438 186.039062 C 204.050781 180.769531 194.101562 178.257812 184.351562 179.007812 C 179.101562 179.378906 173.902344 180.613281 169.074219 182.738281 C 160.59375 186.394531 153.355469 192.695312 148.300781 200.394531 C 144.003906 206.941406 141.398438 214.441406 140.714844 222.238281 C 140.070312 229.183594 141.164062 236.25 143.632812 242.769531 C 147.78125 253.453125 155.964844 262.550781 166.234375 267.671875 C 171.628906 270.355469 177.53125 272.023438 183.539062 272.472656 C 193.808594 273.332031 204.3125 270.6875 212.976562 265.121094 C 220.128906 260.503906 226.074219 253.949219 229.753906 246.257812 C 231.820312 242.019531 233.289062 237.472656 233.957031 232.800781 C 234.921875 226.324219 234.382812 219.675781 232.636719 213.382812 Z M 158.980469 250.234375 C 158.933594 250.546875 159.046875 250.917969 158.824219 251.1875 C 158.734375 248.792969 158.839844 246.398438 158.804688 244 C 158.832031 243.054688 158.761719 242.109375 158.832031 241.160156 L 158.96875 241.613281 C 159.03125 244.488281 158.855469 247.359375 158.980469 250.234375 Z M 159.125 251.171875 C 159.101562 250.640625 159.25 250.113281 159.109375 249.589844 L 159.308594 249.53125 C 159.316406 250.070312 159.550781 250.773438 159.125 251.171875 Z M 185.917969 256.335938 C 186.652344 256.265625 187.402344 256.292969 188.136719 256.25 C 189.839844 256.230469 191.53125 255.945312 193.234375 256.101562 C 193.496094 256.144531 193.816406 256.1875 193.910156 256.484375 C 191.246094 256.542969 188.582031 256.457031 185.917969 256.34375 Z M 200.066406 256.789062 L 200.351562 256.320312 C 200.214844 255.996094 199.910156 255.789062 199.703125 255.519531 C 198.738281 254.417969 197.714844 253.246094 197.347656 251.804688 C 197.808594 251.890625 197.9375 252.386719 198.164062 252.726562 C 198.816406 253.957031 199.769531 254.980469 200.75 255.953125 C 201.003906 256.40625 200.484375 256.796875 200.066406 256.789062 Z M 194.570312 250.773438 C 195.214844 250 196.308594 249.710938 197.28125 249.722656 C 197.0625 250.09375 196.898438 250.546875 196.5 250.761719 C 196.5 250.632812 196.507812 250.363281 196.507812 250.226562 C 195.839844 250.292969 195.195312 250.519531 194.570312 250.773438 Z M 196.921875 248.695312 C 197.417969 248.445312 197.957031 248.296875 198.484375 248.160156 C 198.042969 248.515625 197.488281 248.707031 196.921875 248.695312 Z M 202.445312 255.703125 C 202.566406 255.496094 202.878906 255.242188 202.628906 255.007812 C 201.777344 254.054688 201.046875 253.003906 200.222656 252.03125 C 199.859375 251.597656 199.378906 251.207031 199.277344 250.617188 C 199.789062 250.929688 200.152344 251.40625 200.550781 251.847656 C 201.421875 252.785156 202.183594 253.808594 203.019531 254.773438 C 203.347656 255.199219 202.894531 255.703125 202.445312 255.703125 Z M 216.707031 252.925781 C 216.691406 250.761719 216.648438 248.59375 216.699219 246.429688 L 216.882812 246.273438 C 216.925781 248.488281 216.898438 250.710938 216.90625 252.925781 L 216.699219 252.925781 Z M 218.21875 252.976562 C 217.957031 252.863281 218.035156 252.558594 218.019531 252.335938 C 218.035156 250.414062 218.007812 248.496094 217.984375 246.578125 L 218.199219 246.71875 C 218.191406 248.808594 218.277344 250.894531 218.21875 252.976562 Z M 218.234375 245.746094 C 217.730469 245.738281 217.238281 245.695312 216.742188 245.625 C 216.679688 242.757812 216.707031 239.894531 216.707031 237.03125 L 216.90625 237.046875 C 216.933594 239.851562 216.914062 242.65625 216.941406 245.460938 L 218.113281 245.554688 C 218.019531 242.855469 218.121094 240.15625 218.0625 237.457031 C 218.199219 237.550781 218.269531 237.714844 218.242188 237.878906 C 218.21875 240.503906 218.261719 243.125 218.234375 245.746094 Z M 216.757812 236.335938 C 216.714844 236.058594 216.699219 235.769531 216.707031 235.492188 C 216.734375 233.183594 216.636719 230.882812 216.714844 228.574219 L 216.898438 228.792969 C 216.933594 231.214844 216.890625 233.644531 216.941406 236.066406 C 217.195312 236.40625 217.695312 236.292969 218.070312 236.371094 C 218.085938 233.949219 218.078125 231.527344 218.007812 229.113281 L 218.210938 229.09375 C 218.242188 231.570312 218.183594 234.050781 218.277344 236.527344 C 217.765625 236.535156 217.253906 236.472656 216.757812 236.335938 Z M 219.546875 250.539062 C 219.519531 247.585938 219.589844 244.644531 219.519531 241.699219 L 219.703125 241.699219 C 219.695312 244.867188 219.710938 248.039062 219.710938 251.207031 C 219.460938 251.074219 219.589844 250.761719 219.546875 250.539062 Z M 220.242188 251.101562 L 220.058594 251.179688 C 220.066406 248.878906 220.023438 246.585938 220.015625 244.289062 C 220.023438 243.4375 219.875 242.59375 219.964844 241.753906 C 220.179688 242.523438 220.136719 243.339844 220.171875 244.132812 C 220.179688 246.457031 220.300781 248.785156 220.242188 251.101562 Z M 221.101562 251.171875 C 221.117188 247.585938 221.179688 244 221.152344 240.40625 C 221.152344 239.980469 221.125 239.546875 221.1875 239.121094 L 221.414062 239.042969 C 221.414062 241.960938 221.386719 244.878906 221.449219 247.792969 C 221.4375 248.496094 221.421875 249.191406 221.429688 249.894531 L 221.230469 250.113281 C 221.292969 250.171875 221.378906 250.191406 221.457031 250.171875 C 221.351562 250.511719 221.613281 251.164062 221.101562 251.171875 Z M 222.246094 244.765625 L 222.074219 244.589844 C 222.082031 242.4375 222.019531 240.285156 222.097656 238.132812 C 222.351562 238.246094 222.238281 238.558594 222.273438 238.765625 C 222.261719 240.769531 222.316406 242.777344 222.246094 244.765625 Z M 225.484375 249.339844 C 225.414062 249.085938 225.746094 248.976562 225.925781 249.085938 C 226.109375 249.199219 225.589844 249.695312 225.484375 249.339844 Z M 225.492188 248.929688 C 225.476562 248.523438 226.066406 248.652344 226.222656 248.871094 Z M 227.722656 245.882812 L 227.621094 245.867188 C 227.621094 245.816406 227.609375 245.710938 227.609375 245.660156 L 227.707031 245.617188 L 227.785156 245.746094 Z M 229.007812 243.125 C 228.871094 243.4375 228.75 243.75 228.652344 244.078125 L 228.027344 244.15625 C 228.183594 244.253906 228.339844 244.332031 228.515625 244.390625 C 228.402344 244.496094 228.304688 244.617188 228.246094 244.757812 C 228.148438 244.886719 228.113281 245.078125 227.976562 245.15625 C 227.84375 244.746094 228.027344 244.3125 227.984375 243.898438 L 227.636719 244.164062 L 227.828125 244.382812 C 227.445312 244.601562 228.113281 245.3125 227.332031 245.078125 C 227.359375 244.886719 227.386719 244.6875 227.550781 244.554688 L 227.082031 244.445312 C 227.195312 244.773438 227.125 245.128906 227.238281 245.460938 C 226.996094 245.382812 226.734375 245.335938 226.472656 245.328125 C 226.542969 245.511719 226.691406 245.660156 226.871094 245.726562 C 226.394531 245.816406 226.683594 246.386719 226.664062 246.71875 L 227.183594 246.664062 C 227.054688 246.597656 226.925781 246.527344 226.792969 246.476562 C 226.785156 246.371094 226.785156 246.164062 226.777344 246.058594 L 227.003906 246.058594 C 226.996094 245.902344 226.96875 245.589844 226.960938 245.441406 L 227.28125 245.71875 L 227.488281 245.554688 L 227.261719 245.328125 L 227.59375 245.171875 L 227.90625 245.371094 L 227.984375 245.460938 C 227.601562 245.46875 227.410156 245.824219 227.082031 245.953125 L 227.238281 246.363281 C 227.332031 246.230469 227.410156 246.09375 227.472656 245.945312 C 227.644531 246.308594 227.273438 246.597656 227.132812 246.898438 C 226.855469 246.882812 226.542969 246.804688 226.308594 247.03125 C 226.570312 247.074219 226.839844 247.082031 227.097656 247.039062 L 226.996094 247.265625 C 226.683594 247.125 226.4375 247.195312 226.257812 247.472656 L 226.976562 247.378906 C 226.792969 247.707031 226.34375 247.621094 226.03125 247.621094 L 225.71875 247.863281 L 226.628906 247.890625 C 226.515625 248.070312 226.429688 248.253906 226.351562 248.453125 L 225.535156 248.453125 L 225.554688 248.226562 C 225.839844 248.226562 226.359375 248.4375 226.421875 248.019531 L 225.5625 248.019531 C 225.667969 247.75 225.65625 247.464844 225.613281 247.1875 L 226.246094 247.222656 L 226.230469 246.996094 L 225.492188 246.925781 C 225.761719 246.742188 226.082031 246.847656 226.386719 246.867188 C 226.464844 246.25 226.378906 245.632812 226.480469 245.015625 C 226.449219 244.878906 226.421875 244.730469 226.414062 244.582031 L 226.839844 244.800781 L 226.949219 244.320312 L 226.378906 244.433594 C 226.558594 244.085938 226.4375 243.671875 226.480469 243.289062 L 226.671875 243.558594 L 226.515625 243.820312 L 226.949219 243.792969 L 226.839844 243.296875 C 227.125 243.375 227.105469 243.730469 227.375 243.84375 C 227.246094 243.984375 227.039062 244.078125 227.054688 244.320312 C 227.351562 244.339844 227.507812 244.15625 227.59375 243.914062 C 227.453125 243.6875 227.453125 243.425781 227.453125 243.167969 C 227.21875 243.210938 226.949219 243.28125 226.75 243.105469 L 226.464844 243.246094 L 226.464844 242.835938 L 226.839844 243.070312 L 226.882812 242.714844 C 227.039062 242.933594 227.28125 243.0625 227.542969 243.082031 L 227.429688 242.5 L 227.542969 241.976562 C 227.324219 242.039062 227.105469 242.117188 227.011719 242.332031 L 227.332031 242.535156 C 227.160156 242.855469 226.707031 242.515625 226.421875 242.613281 C 226.421875 242.542969 226.429688 242.402344 226.4375 242.34375 L 226.976562 242.429688 L 226.847656 242.039062 C 226.707031 242.054688 226.578125 242.109375 226.464844 242.175781 L 226.402344 241.882812 C 226.648438 241.890625 227.011719 241.960938 226.941406 241.5625 L 226.414062 241.613281 L 226.4375 241.335938 L 226.683594 241.441406 C 226.863281 241.300781 227.105469 241.316406 227.308594 241.414062 L 227.574219 241.414062 L 227.472656 241.066406 C 227.160156 241.285156 226.769531 241.144531 226.421875 241.136719 C 226.421875 241.074219 226.421875 240.960938 226.421875 240.902344 C 226.65625 241.023438 226.820312 240.972656 226.90625 240.738281 C 226.828125 240.414062 226.570312 240.667969 226.402344 240.753906 C 226.492188 240.457031 226.492188 240.15625 226.414062 239.859375 C 226.699219 239.859375 226.996094 239.851562 227.28125 239.816406 C 227.125 240 227.019531 240.234375 226.996094 240.476562 C 227.445312 240.582031 227.566406 240.214844 227.410156 239.886719 L 227.601562 239.632812 C 227.21875 239.703125 226.828125 239.703125 226.449219 239.652344 C 226.480469 239.398438 226.480469 239.148438 226.4375 238.90625 L 226.769531 239.050781 L 226.613281 239.460938 C 226.804688 239.417969 227.003906 239.433594 227.183594 239.503906 C 227.464844 239.6875 227.445312 239.285156 227.410156 239.140625 C 227.21875 239.3125 227.019531 239.332031 226.8125 239.183594 C 226.90625 238.941406 226.917969 238.671875 226.839844 238.417969 L 226.605469 238.453125 L 226.683594 238.765625 L 226.472656 238.765625 C 226.5 238.574219 226.449219 238.367188 226.558594 238.203125 L 226.890625 238.296875 C 226.890625 238.035156 226.890625 237.785156 226.90625 237.523438 C 227.289062 237.664062 226.855469 238.304688 227.332031 238.359375 L 227.472656 237.878906 L 227.488281 238.148438 L 227.777344 238.148438 L 227.730469 238.828125 C 227.488281 238.722656 227.386719 238.425781 227.082031 238.460938 L 227.167969 239.078125 C 227.359375 239.035156 227.699219 238.738281 227.800781 239.0625 C 227.90625 239.382812 227.550781 239.695312 227.863281 239.886719 C 227.75 240.050781 227.644531 240.214844 227.558594 240.390625 L 227.992188 240.371094 C 228.078125 239.867188 227.941406 239.339844 228.019531 238.828125 C 227.90625 238.636719 228.375 238.359375 227.90625 238.382812 L 228.042969 238.175781 L 228.515625 238.203125 C 228.53125 237.003906 228.488281 235.796875 228.558594 234.609375 C 228.722656 234.25 228.894531 234.710938 228.84375 234.875 C 228.929688 237.507812 228.816406 240.136719 228.851562 242.769531 C 228.957031 242.878906 229.128906 242.992188 229.007812 243.125 Z M 226.65625 237.429688 C 226.691406 237.636719 226.714844 237.855469 226.734375 238.0625 C 226.402344 237.992188 226.5 237.628906 226.65625 237.429688 Z M 231.144531 237.585938 C 230.996094 235.503906 231.125 233.402344 231.101562 231.316406 C 231.136719 229.617188 231.046875 227.90625 231.136719 226.214844 C 231.203125 226.359375 231.25 226.515625 231.238281 226.683594 C 231.222656 229.121094 231.257812 231.5625 231.203125 233.992188 C 231.171875 235.207031 231.351562 236.414062 231.144531 237.585938 Z M 232.003906 233.367188 C 231.847656 234.234375 231.796875 235.15625 231.421875 235.960938 C 231.40625 232.679688 231.4375 229.390625 231.394531 226.117188 C 230.519531 225.136719 229.617188 224.15625 228.652344 223.253906 C 228.609375 222.90625 228.714844 222.480469 228.402344 222.238281 C 228.355469 226.351562 228.347656 230.46875 228.390625 234.589844 C 227.296875 235.660156 226.03125 236.597656 224.996094 237.714844 C 224.996094 239.660156 225.074219 241.613281 224.980469 243.558594 C 224.554688 243.480469 224.503906 243.898438 224.363281 244.183594 C 224.320312 239.390625 224.390625 234.597656 224.390625 229.808594 L 224.234375 229.78125 C 224.070312 231.628906 224.242188 233.488281 224.15625 235.335938 L 224.09375 235.527344 C 224.042969 233.851562 224.085938 232.175781 224.078125 230.5 C 223.261719 231.203125 222.550781 232.019531 221.734375 232.734375 C 221.515625 232.878906 221.605469 233.167969 221.585938 233.390625 C 221.578125 234.875 221.65625 236.371094 221.535156 237.863281 C 221.101562 237.976562 220.648438 238.046875 220.214844 238.148438 C 220.152344 238.773438 219.683594 239.226562 219.113281 239.417969 C 218.992188 239.886719 219.015625 240.378906 218.921875 240.859375 C 218.6875 240.121094 219.050781 239.375 219 238.617188 C 218.964844 235.109375 219 231.605469 218.945312 228.105469 C 217.714844 226.847656 216.359375 225.726562 215.128906 224.46875 C 214.960938 221.578125 215.109375 218.652344 215.015625 215.761719 C 213.453125 214.085938 211.855469 212.445312 210.316406 210.753906 C 210.292969 210.300781 210.363281 209.851562 210.292969 209.398438 C 210.160156 209.207031 209.945312 209.09375 209.769531 208.945312 C 209.824219 218.140625 209.769531 227.332031 209.761719 236.535156 L 209.554688 236.820312 C 209.320312 236.65625 209.40625 236.335938 209.390625 236.09375 C 209.414062 235.050781 209.371094 234 209.398438 232.957031 C 209.371094 232.714844 209.503906 232.375 209.207031 232.238281 C 209.398438 233.757812 209.078125 235.300781 209.3125 236.8125 L 208.964844 236.8125 C 209.136719 235.3125 208.980469 233.78125 209.101562 232.273438 C 208.632812 231.925781 208.175781 231.5625 207.679688 231.25 C 207.191406 231.648438 206.679688 232.019531 206.152344 232.359375 C 206.167969 233.367188 206.117188 234.375 206.203125 235.371094 C 206.394531 235.457031 206.757812 235.449219 206.707031 235.753906 C 206.777344 237.957031 206.691406 240.171875 206.679688 242.378906 L 207.027344 242.585938 C 206.835938 242.621094 206.644531 242.578125 206.488281 242.464844 C 206.515625 240.378906 206.542969 238.296875 206.535156 236.222656 C 206.488281 236.058594 206.613281 235.546875 206.316406 235.667969 C 206.230469 237.777344 206.316406 239.894531 206.273438 242.011719 L 206.175781 242.03125 C 206.210938 239.84375 206.144531 237.664062 206.210938 235.476562 C 206.054688 235.15625 205.699219 235 205.40625 234.832031 C 205.128906 235.355469 204.726562 235.796875 204.234375 236.117188 C 204.136719 237.203125 204.222656 238.304688 204.207031 239.398438 L 203.453125 239.878906 C 203.488281 237.167969 203.433594 234.46875 203.453125 231.761719 C 203.519531 231.222656 202.949219 230.980469 202.652344 230.640625 C 202.15625 230.101562 201.601562 229.617188 201.097656 229.078125 C 200.804688 228.828125 201.011719 228.332031 200.671875 228.105469 C 200.648438 232.011719 200.671875 235.910156 200.671875 239.816406 C 200.734375 240.09375 200.449219 240.085938 200.265625 240.085938 C 200.160156 237.613281 200.238281 235.136719 200.203125 232.65625 C 200.214844 229.148438 200.171875 225.648438 200.230469 222.140625 L 200.046875 222.140625 C 200.046875 222.417969 200.039062 222.699219 200.039062 222.976562 C 199.3125 223.644531 198.675781 224.398438 197.964844 225.074219 C 197.792969 225.265625 197.558594 225.414062 197.453125 225.648438 C 197.445312 230.746094 197.460938 235.839844 197.4375 240.9375 L 196.933594 240.972656 C 196.941406 240.300781 196.976562 239.632812 196.871094 238.972656 L 196.558594 238.894531 C 196.828125 240.546875 196.785156 242.222656 196.792969 243.894531 L 196.132812 243.914062 C 196.210938 243.582031 196.289062 243.253906 196.351562 242.925781 C 196.636719 243.054688 196.480469 243.417969 196.523438 243.660156 L 196.609375 243.660156 C 196.480469 242.722656 196.65625 241.769531 196.550781 240.824219 C 196.5 241.492188 196.53125 242.167969 196.507812 242.847656 L 196.296875 242.863281 C 196.34375 241.527344 196.375 240.179688 196.367188 238.84375 C 196.359375 238.652344 196.351562 238.460938 196.34375 238.28125 C 195.457031 238.089844 194.625 237.734375 193.746094 237.507812 C 193.703125 238.671875 193.710938 239.824219 193.71875 240.988281 C 193.710938 241.230469 193.730469 241.484375 193.640625 241.71875 C 193.46875 241.597656 193.3125 241.449219 193.15625 241.316406 C 192.902344 241.761719 192.773438 242.253906 192.539062 242.707031 C 191.800781 240.875 190.300781 239.382812 189.960938 237.394531 C 189.867188 237.074219 190.222656 236.898438 190.394531 236.699219 C 191.132812 236.058594 191.820312 235.128906 191.644531 234.085938 C 191.472656 233.046875 190.707031 232.125 189.8125 231.542969 C 190.03125 233.539062 189.902344 235.5625 189.746094 237.558594 C 189.5625 240.007812 189.152344 242.4375 188.753906 244.859375 C 188.660156 245.433594 188.484375 245.996094 188.390625 246.570312 C 189.363281 247.179688 190.316406 247.828125 191.316406 248.394531 C 191.777344 247.984375 192.347656 248.417969 192.78125 248.652344 C 193.539062 248.316406 194.355469 248.183594 195.144531 247.960938 L 194.8125 247.691406 L 195.195312 247.507812 L 194.8125 247.335938 C 194.996094 247.273438 195.203125 247.246094 195.300781 247.054688 L 194.8125 247.054688 C 195.023438 246.945312 195.136719 246.769531 195.039062 246.519531 L 195.214844 246.640625 L 194.902344 246.25 C 195.160156 246.214844 195.421875 246.230469 195.671875 246.308594 C 196.011719 246.328125 196.644531 246.101562 196.742188 246.570312 L 196.898438 246.535156 C 196.8125 246.648438 196.734375 246.769531 196.664062 246.890625 C 196.488281 246.734375 196.375 246.875 196.28125 247.023438 C 196.480469 247.011719 196.664062 247.109375 196.777344 247.273438 C 196.765625 247.394531 196.75 247.628906 196.734375 247.75 C 197.191406 247.90625 197.644531 247.679688 198.105469 247.671875 L 198.050781 247.210938 C 198.21875 247.011719 197.957031 246.726562 198.15625 246.570312 L 197.9375 246.320312 L 198.6875 246.257812 L 198 246.195312 L 198 245.972656 C 198.25 245.929688 198.511719 245.902344 198.738281 245.796875 L 198.808594 245.773438 L 198.953125 245.710938 L 199.023438 245.675781 L 199.335938 245.660156 C 199.355469 245.335938 199.371094 244.539062 198.84375 244.824219 C 198.945312 244.546875 198.910156 244.253906 198.875 243.964844 L 199.3125 244.007812 L 199.34375 243.707031 L 198.789062 243.722656 C 198.929688 243.574219 199.066406 243.4375 199.199219 243.289062 L 198.851562 243.417969 L 198.851562 243.113281 C 199.242188 243.027344 199.265625 243.375 199.328125 243.652344 L 199.398438 243.160156 L 199.554688 243.105469 L 199.484375 243.609375 L 199.917969 243.550781 L 199.875 243.773438 L 199.40625 243.6875 L 199.34375 244.007812 L 200.015625 243.964844 L 199.703125 244.277344 L 199.910156 244.3125 C 199.917969 244.460938 199.917969 244.617188 199.925781 244.765625 L 199.589844 244.722656 L 199.847656 244.902344 L 199.691406 245.199219 L 199.996094 245.433594 L 199.648438 245.511719 L 199.859375 245.554688 L 199.902344 245.71875 L 199.917969 245.789062 L 200.023438 246.1875 L 199.65625 246.101562 L 199.980469 246.285156 C 199.945312 246.710938 200.015625 247.125 200.015625 247.550781 L 199.789062 247.578125 C 199.804688 247.351562 199.832031 247.117188 199.859375 246.890625 L 199.734375 246.875 C 199.753906 247.117188 199.769531 247.359375 199.796875 247.601562 L 199.265625 247.386719 L 199.171875 247.585938 C 199.824219 247.550781 200.257812 248.097656 200.664062 248.523438 C 201.167969 248.359375 201.707031 248.117188 202.246094 248.261719 C 202.972656 248.460938 203.53125 249.019531 204.269531 249.21875 C 205.003906 249.417969 205.441406 249.902344 206.003906 250.285156 C 207.453125 250.675781 208.957031 250.851562 210.429688 251.117188 L 216.074219 252.03125 L 216.179688 252.34375 C 214.484375 252.167969 212.808594 251.8125 211.125 251.605469 C 209.597656 251.40625 208.105469 250.996094 206.558594 250.9375 C 207.210938 251.265625 207.984375 251.441406 208.476562 252.011719 C 208.824219 252.480469 208.519531 253.0625 208.503906 253.585938 C 208.488281 254.105469 208.46875 254.714844 208.078125 255.121094 C 207.878906 254.183594 208.121094 253.21875 208.175781 252.289062 C 207.617188 251.613281 206.550781 251.726562 205.988281 251.039062 C 205.421875 250.355469 204.847656 249.894531 204.042969 249.746094 C 204.9375 251.074219 205.628906 252.558594 205.898438 254.148438 C 206.480469 254.433594 206.984375 254.902344 207.671875 254.9375 C 207.617188 255.25 207.28125 255.269531 207.019531 255.269531 C 206.601562 255.269531 206.273438 254.992188 205.941406 254.792969 C 206.03125 255.09375 205.527344 255.371094 205.507812 254.949219 C 205.492188 254.523438 205.40625 253.84375 205.160156 253.339844 C 204.9375 253.125 204.570312 253.105469 204.347656 252.890625 C 203.597656 251.664062 202.28125 250.953125 201.324219 249.914062 C 200.570312 249.234375 199.988281 248.203125 198.902344 248.027344 C 197.816406 247.855469 196.765625 248.429688 195.828125 248.941406 C 195.101562 249.269531 194.34375 249.601562 193.816406 250.226562 C 193.285156 250.851562 192.800781 251.023438 192.355469 251.5 C 192.714844 251.640625 193.085938 251.542969 193.449219 251.476562 C 193.953125 251.34375 194.484375 251.457031 194.988281 251.335938 C 194.667969 251.898438 194.414062 252.542969 193.921875 252.984375 C 193.746094 252.917969 193.589844 252.828125 193.433594 252.726562 C 193.640625 252.378906 193.851562 252.046875 194.066406 251.710938 C 192.800781 252.066406 191.628906 252.691406 190.492188 253.339844 C 190.628906 252.882812 190.933594 252.457031 190.90625 251.96875 C 190.265625 252.734375 189.386719 253.777344 189.890625 254.824219 C 190.246094 254.878906 190.578125 254.730469 190.917969 254.679688 C 191.957031 254.582031 192.992188 254.835938 194.03125 254.746094 C 194.433594 254.746094 194.710938 254.339844 195.101562 254.355469 C 195.671875 254.644531 196.097656 255.136719 196.578125 255.546875 C 197.054688 255.953125 197.566406 256.414062 198.015625 256.910156 C 197.792969 256.882812 197.546875 256.890625 197.359375 256.746094 C 196.480469 256.152344 195.796875 255.339844 194.988281 254.660156 C 194.96875 254.851562 194.960938 255.050781 194.945312 255.242188 C 193.449219 255.339844 191.878906 254.636719 190.457031 255.347656 C 189.945312 255.582031 189.378906 255.171875 189.292969 254.660156 C 189.230469 254.089844 189.308594 253.507812 189.519531 252.96875 C 190.046875 251.328125 191.332031 250.113281 192.433594 248.851562 C 191.921875 248.707031 191.367188 248.828125 190.96875 249.175781 C 190.160156 249.859375 189.648438 250.804688 189.09375 251.691406 C 188.71875 252.34375 188.339844 253.019531 188.269531 253.777344 C 188.355469 254.226562 188.597656 254.636719 188.964844 254.921875 L 189.066406 254.367188 C 189.03125 254.660156 189.03125 254.949219 189.058594 255.242188 C 188.652344 255.261719 188.242188 255.261719 187.835938 255.242188 C 187.070312 254.679688 186.976562 253.558594 187.375 252.75 C 187.964844 251.5625 188.652344 250.40625 189.414062 249.320312 C 189.171875 249.289062 188.953125 249.191406 188.761719 249.035156 C 187.644531 248.195312 186.316406 247.65625 184.960938 247.351562 C 183.867188 247.125 182.808594 246.777344 181.792969 246.328125 C 180.089844 245.570312 178.328125 244.972656 176.566406 244.367188 L 176.425781 244.21875 C 177.738281 244.382812 178.988281 244.824219 180.257812 245.207031 C 181.898438 245.796875 183.441406 246.664062 185.179688 246.96875 C 186.542969 247.210938 187.792969 247.847656 188.996094 248.515625 C 189.464844 248.792969 189.96875 248.984375 190.527344 248.949219 C 190.195312 249.390625 189.71875 249.710938 189.449219 250.199219 C 188.875 251.136719 188.355469 252.101562 187.878906 253.089844 C 187.574219 253.730469 187.695312 254.738281 188.433594 255.015625 C 188.113281 254.402344 187.808594 253.707031 188.070312 253.003906 C 188.539062 252.003906 189.074219 251.039062 189.675781 250.121094 C 189.925781 249.703125 190.34375 249.417969 190.558594 248.984375 L 190.941406 248.695312 C 190.429688 248.472656 189.910156 248.253906 189.476562 247.898438 C 188.617188 247.179688 187.601562 246.683594 186.6875 246.050781 C 184.855469 244.9375 183.015625 243.816406 181.316406 242.5 C 180.757812 242.019531 179.976562 241.734375 179.699219 241.003906 C 179.015625 239.503906 177.921875 238.203125 176.628906 237.1875 C 176.054688 236.71875 175.410156 236.335938 174.890625 235.804688 C 174.933594 234.207031 175.253906 232.628906 175.210938 231.023438 C 175.230469 230.101562 175.003906 229.21875 174.785156 228.332031 C 174.941406 228.3125 175.089844 228.402344 175.144531 228.546875 C 175.636719 229.453125 175.671875 230.511719 175.664062 231.507812 C 177.261719 231.4375 178.910156 230.71875 179.839844 229.382812 C 180.578125 228.183594 180.550781 226.699219 180.359375 225.355469 C 179.839844 221.925781 178.648438 218.625 176.871094 215.648438 C 175.558594 213.523438 173.910156 211.457031 171.609375 210.351562 C 169.578125 209.328125 167.078125 209.851562 165.273438 211.101562 C 164.109375 211.863281 163.257812 213 162.46875 214.128906 C 161.367188 215.742188 160.421875 217.53125 160.109375 219.484375 C 159.796875 221.4375 159.941406 223.53125 160.308594 225.519531 C 160.59375 227.0625 161.070312 228.609375 161.957031 229.929688 C 162.3125 230.433594 162.609375 230.988281 163.109375 231.359375 C 162.773438 230.34375 162.675781 229.269531 162.703125 228.203125 C 162.660156 228.070312 162.738281 227.933594 162.875 227.890625 C 162.886719 227.890625 162.902344 227.878906 162.910156 227.878906 C 163.257812 231.160156 164.394531 234.3125 165.835938 237.265625 C 166.523438 238.738281 167.355469 240.179688 167.652344 241.804688 C 167.832031 242.769531 168.214844 243.765625 168.996094 244.398438 C 170.351562 245.121094 171.929688 245.136719 173.398438 245.433594 C 173.632812 245.460938 173.839844 245.597656 173.945312 245.804688 C 172.859375 245.851562 171.785156 245.597656 170.722656 245.398438 C 169.953125 245.207031 169.144531 245.058594 168.476562 244.617188 C 167.261719 243.289062 167.269531 241.378906 166.53125 239.816406 C 165.53125 237.65625 164.421875 235.546875 163.683594 233.28125 C 163.535156 232.898438 163.441406 232.480469 163.207031 232.140625 C 162.285156 231.222656 161.566406 230.128906 161.078125 228.921875 C 161.019531 229.582031 161.21875 230.222656 161.304688 230.875 C 161.480469 231.917969 161.53125 233.046875 162.183594 233.929688 C 162.832031 234.816406 163.285156 235.546875 163.691406 236.429688 C 164.300781 237.734375 165.296875 238.863281 165.609375 240.285156 C 165.921875 241.707031 165.742188 243.382812 165.472656 244.894531 C 165.203125 246.40625 165.601562 247.863281 165.132812 249.296875 C 164.925781 250.070312 164.394531 250.816406 163.589844 251.023438 C 163.121094 251.214844 162.441406 250.988281 162.15625 251.519531 C 161.964844 251.753906 161.992188 252.203125 161.617188 252.230469 C 161.652344 251.753906 161.851562 251.308594 162.183594 250.972656 C 161.949219 250.726562 161.609375 250.761719 161.304688 250.789062 L 161.253906 251.128906 C 161.253906 251.03125 161.261719 250.851562 161.261719 250.753906 L 161.027344 250.71875 C 161.027344 250.832031 161.027344 251.058594 161.027344 251.171875 L 160.890625 251.144531 L 160.6875 251.058594 C 160.585938 251.128906 160.445312 251.117188 160.34375 251.050781 L 160.109375 251.195312 C 160.117188 250.917969 160.117188 250.632812 160.097656 250.355469 C 160.039062 250.597656 159.996094 250.851562 159.976562 251.101562 L 159.777344 251.117188 C 159.777344 251.066406 159.777344 250.953125 159.785156 250.894531 L 159.457031 251.144531 C 159.449219 250.035156 159.8125 248.949219 159.613281 247.828125 C 159.515625 248.445312 159.71875 249.097656 159.4375 249.6875 C 159.238281 249.019531 159.4375 248.296875 159.230469 247.636719 C 159.28125 248.105469 159.25 248.574219 159.257812 249.042969 C 159.316406 249.253906 159.230469 249.453125 159.089844 249.601562 C 159.023438 247.125 159.1875 244.660156 159.171875 242.195312 C 159.089844 241.820312 159.152344 241.441406 159.335938 241.109375 C 159.472656 242.558594 159.308594 244.019531 159.351562 245.46875 C 159.371094 245.945312 159.292969 246.414062 159.230469 246.882812 C 159.292969 246.683594 159.34375 246.484375 159.414062 246.285156 L 159.671875 246.34375 C 159.335938 246.1875 159.507812 245.761719 159.472656 245.476562 C 159.515625 244.914062 159.421875 244.320312 159.59375 243.785156 C 159.585938 243.089844 159.585938 242.394531 159.515625 241.699219 C 159.5625 241.507812 159.59375 241.316406 159.628906 241.128906 L 159.691406 241.507812 L 159.941406 241.152344 C 159.941406 241.265625 159.941406 241.5 159.953125 241.613281 C 160.230469 241.605469 160.265625 241.328125 160.367188 241.136719 C 160.375 241.292969 160.386719 241.613281 160.386719 241.769531 C 160.550781 241.640625 160.644531 241.441406 160.644531 241.230469 C 160.777344 241.265625 160.914062 241.273438 161.046875 241.238281 L 160.984375 241.605469 C 161.375 241.585938 161.269531 241.128906 161.3125 240.875 C 161.304688 238.289062 161.347656 235.691406 161.253906 233.105469 C 160.0625 233.773438 158.890625 234.460938 157.738281 235.171875 C 157.746094 236.128906 157.746094 237.074219 157.753906 238.027344 C 157.484375 238.226562 157.085938 238.339844 156.929688 238.636719 C 156.921875 241.910156 156.886719 245.179688 156.902344 248.460938 C 156.886719 249.347656 156.957031 250.234375 156.878906 251.117188 L 156.660156 251.207031 C 156.617188 244.929688 156.6875 238.652344 156.667969 232.375 C 156.644531 232.175781 156.703125 231.953125 156.609375 231.769531 C 155.742188 230.761719 154.585938 230.015625 153.832031 228.914062 C 153.789062 232.507812 153.839844 236.09375 153.804688 239.675781 C 153.824219 241.316406 153.746094 242.96875 153.867188 244.609375 C 153.1875 244.425781 152.496094 244.3125 151.800781 244.164062 C 151.800781 234.207031 151.765625 224.25 151.808594 214.304688 C 149.636719 216.117188 147.539062 218.011719 145.394531 219.851562 C 145.316406 222.976562 145.367188 226.117188 145.359375 229.242188 C 145.367188 233.0625 145.367188 236.882812 145.367188 240.710938 C 145.367188 241.414062 145.417969 242.109375 145.523438 242.800781 C 144.863281 240.675781 144.066406 238.582031 143.605469 236.394531 C 141.980469 229.808594 142 222.84375 143.519531 216.246094 C 145.175781 208.84375 148.789062 201.898438 153.796875 196.203125 C 159.179688 190.003906 166.269531 185.300781 174.101562 182.808594 C 181.039062 180.621094 188.511719 180.132812 195.664062 181.453125 C 201.601562 182.546875 207.332031 184.839844 212.324219 188.242188 C 217.027344 191.410156 221.089844 195.429688 224.320312 200.09375 C 227.808594 205.128906 230.363281 210.839844 231.605469 216.847656 C 232.734375 222.289062 232.871094 227.890625 232.003906 233.367188 Z M 209.144531 245.226562 L 209.050781 245.511719 C 209.613281 245.292969 210.222656 245.390625 210.8125 245.363281 C 212.566406 245.398438 214.320312 245.347656 216.074219 245.390625 C 214.128906 245.519531 212.175781 245.398438 210.230469 245.46875 L 209.960938 245.910156 C 209.546875 245.867188 209.136719 245.859375 208.722656 245.875 C 208.488281 244.886719 208.609375 243.828125 208.609375 242.8125 C 208.730469 242.878906 208.867188 242.90625 209.007812 242.890625 C 208.988281 241.925781 209.078125 240.960938 209 240 L 208.84375 240.023438 C 208.816406 240.804688 208.878906 241.585938 208.824219 242.378906 C 208.765625 241.542969 208.765625 240.71875 208.816406 239.886719 L 208.902344 239.800781 L 209.015625 239.703125 C 208.816406 239.675781 208.625 239.566406 208.511719 239.398438 C 211.089844 239.363281 213.660156 239.226562 216.238281 239.128906 L 216.132812 239.417969 C 215.507812 239.503906 214.882812 239.488281 214.25 239.503906 C 212.558594 239.519531 210.863281 239.695312 209.164062 239.644531 C 209.113281 241.5 209.085938 243.359375 209.144531 245.226562 Z M 214.597656 216.238281 L 214.796875 216.074219 C 214.875 219.171875 214.78125 222.273438 214.882812 225.363281 C 214.910156 228.625 214.9375 231.882812 214.875 235.144531 L 214.625 235.328125 C 214.597656 228.964844 214.648438 222.601562 214.597656 216.238281 Z M 216.179688 236.179688 C 215.007812 236.464844 213.773438 236.386719 212.585938 236.535156 C 211.90625 236.621094 211.203125 236.585938 210.550781 236.804688 C 210.40625 237.464844 209.484375 237.332031 209.058594 237.066406 C 209.527344 236.890625 209.988281 236.691406 210.492188 236.65625 C 212.375 236.414062 214.277344 236.34375 216.167969 236.179688 Z M 216.003906 238.253906 L 216.003906 238.550781 C 215.320312 238.488281 214.632812 238.617188 213.945312 238.695312 C 214.582031 238.367188 215.328125 238.472656 216.003906 238.253906 Z M 210.386719 238.417969 C 209.738281 238.460938 209.085938 238.503906 208.433594 238.515625 C 209.042969 238.296875 209.746094 238.324219 210.386719 238.417969 Z M 207.785156 246.917969 C 208.285156 246.769531 208.824219 246.855469 209.347656 246.910156 C 208.824219 246.960938 208.296875 246.96875 207.785156 246.917969 Z M 209.945312 247.1875 C 209.269531 247.246094 208.589844 247.257812 207.914062 247.222656 C 208.566406 247.046875 209.269531 247.1875 209.945312 247.1875 Z M 215.988281 248.148438 L 215.925781 248.394531 C 213.523438 248.382812 211.117188 248.125 208.703125 248.0625 C 208.417969 248.027344 208.050781 248.097656 207.84375 247.847656 C 210.5625 247.828125 213.269531 248.132812 215.988281 248.148438 Z M 213.757812 247.59375 C 214.441406 247.367188 215.179688 247.515625 215.890625 247.4375 L 215.847656 247.636719 C 215.144531 247.542969 214.441406 247.601562 213.757812 247.59375 Z M 205.238281 248.148438 L 205.003906 248.253906 C 205.015625 246.074219 205.023438 243.898438 204.996094 241.71875 L 205.230469 241.820312 C 205.292969 243.921875 205.195312 246.039062 205.238281 248.148438 Z M 204.207031 241.988281 C 204.355469 242.046875 204.457031 242.195312 204.46875 242.359375 C 204.527344 244.289062 204.40625 246.230469 204.503906 248.160156 L 204.222656 248.160156 C 204.25 246.109375 204.191406 244.042969 204.207031 241.988281 Z M 203.675781 247.871094 L 203.859375 248.203125 C 203.597656 248.175781 203.496094 247.960938 203.519531 247.726562 C 203.574219 245.476562 203.460938 243.21875 203.554688 240.972656 C 203.859375 241.117188 203.695312 241.5 203.738281 241.761719 C 203.746094 243.488281 203.6875 245.214844 203.753906 246.945312 L 203.816406 246.996094 L 203.972656 246.917969 C 204.015625 245.738281 203.945312 244.554688 204.035156 243.382812 C 204.058594 244.773438 204.128906 246.171875 204.015625 247.550781 C 204.007812 247.671875 203.972656 247.785156 203.902344 247.890625 C 203.902344 247.671875 203.867188 247.464844 203.789062 247.265625 C 203.539062 247.335938 203.730469 247.691406 203.675781 247.871094 Z M 203.105469 231.335938 L 203.285156 231.507812 C 203.242188 234.328125 203.375 237.152344 203.3125 239.972656 L 203.140625 239.773438 C 203.15625 236.960938 203.097656 234.148438 203.105469 231.335938 Z M 201.429688 247.152344 C 201.707031 247.179688 202.019531 247.160156 201.898438 246.777344 L 201.515625 246.945312 C 201.53125 246.699219 201.828125 246.734375 201.984375 246.648438 C 201.984375 246.882812 201.984375 247.117188 201.984375 247.351562 L 201.195312 247.308594 C 201.34375 246.742188 201.21875 246.171875 201.203125 245.597656 C 201.578125 245.460938 200.90625 244.816406 201.464844 244.957031 C 201.53125 245.148438 201.515625 245.363281 201.542969 245.570312 C 201.714844 245.554688 201.957031 245.433594 201.984375 245.703125 L 201.480469 245.726562 L 201.445312 245.882812 L 202 245.902344 C 202.019531 246.171875 202.035156 246.96875 201.628906 246.492188 L 201.601562 246.441406 L 201.515625 246.074219 L 201.324219 246.144531 C 201.550781 246.449219 201.429688 246.820312 201.429688 247.152344 Z M 201.152344 243.289062 L 201.59375 243.167969 L 201.289062 243.046875 C 201.351562 242.941406 201.4375 242.855469 201.53125 242.792969 L 201.132812 242.792969 C 201.152344 242.628906 201.203125 242.316406 201.21875 242.152344 L 201.59375 242.152344 L 201.160156 242.089844 L 201.160156 241.882812 L 201.609375 241.882812 C 201.402344 241.890625 201.210938 241.785156 201.089844 241.621094 C 201.386719 241.5625 201.6875 241.464844 201.984375 241.585938 C 201.949219 241.875 201.921875 242.167969 201.898438 242.457031 C 201.871094 242.742188 201.898438 243.160156 201.914062 243.503906 L 201.351562 243.488281 C 201.445312 243.785156 201.820312 243.460938 201.949219 243.730469 C 202.078125 244 201.507812 244.105469 201.921875 244.210938 C 201.871094 244.625 202 245.070312 201.835938 245.460938 L 201.644531 245.433594 C 201.566406 245.085938 201.664062 244.730469 201.679688 244.382812 L 201.5 244.765625 L 201.515625 244.878906 L 201.402344 244.945312 L 201.253906 244.773438 L 201.132812 244.816406 C 201.1875 244.3125 201.195312 243.800781 201.152344 243.289062 Z M 201.152344 241.023438 L 201.445312 240.832031 L 201.421875 241.328125 L 201.558594 241.328125 C 201.53125 240.925781 201.4375 240.519531 201.578125 240.136719 L 201.699219 240.136719 L 201.664062 240.632812 L 202.011719 240.46875 L 202.011719 240.78125 L 201.679688 240.703125 L 201.707031 240.988281 L 202.019531 240.910156 L 201.984375 241.152344 L 201.636719 241.265625 L 202.019531 241.316406 L 202.019531 241.421875 C 201.714844 241.414062 201.421875 241.414062 201.117188 241.421875 L 201.367188 241.238281 Z M 201.265625 240.390625 C 201.054688 240.363281 201.175781 240.023438 201.34375 240.023438 C 201.507812 240.023438 201.464844 240.40625 201.265625 240.390625 Z M 201.195312 240.570312 C 201.59375 240.257812 201.265625 241.082031 201.195312 240.570312 Z M 201.863281 240.128906 C 202.347656 240.179688 201.621094 240.582031 201.863281 240.128906 Z M 199.902344 243.550781 L 199.789062 243.550781 C 199.796875 242.601562 199.804688 241.65625 199.796875 240.71875 C 199.804688 240.371094 199.71875 240.007812 199.847656 239.675781 C 199.988281 240.953125 199.867188 242.253906 199.902344 243.550781 Z M 199.40625 242.933594 C 199.449219 242.28125 199.433594 241.628906 199.34375 240.988281 L 199.285156 240.894531 C 199.234375 241.5625 199.449219 242.308594 199.179688 242.914062 C 199.164062 242.210938 199.222656 241.5 199.222656 240.796875 L 199.179688 240.71875 C 199.164062 240.347656 199.15625 239.957031 199.335938 239.609375 C 199.832031 239.765625 199.675781 240.3125 199.683594 240.710938 C 199.675781 241.441406 199.683594 242.175781 199.667969 242.914062 L 199.414062 242.914062 Z M 198.304688 245.414062 C 198.546875 245.363281 199.042969 245.257812 199.1875 245.476562 C 198.972656 245.597656 198.433594 245.648438 198.304688 245.414062 Z M 198.320312 245.761719 C 198.78125 245.527344 198.339844 246.25 198.320312 245.761719 Z M 198.183594 245.121094 C 198.484375 245.058594 198.851562 244.9375 199.144531 245.050781 C 199.03125 245.320312 198.355469 245.269531 198.183594 245.121094 Z M 198.710938 244.867188 C 198.511719 244.992188 198.269531 245.035156 198.042969 244.980469 L 198.199219 244.660156 C 197.84375 244.21875 198.347656 243.765625 198.816406 243.871094 C 198.808594 244.199219 198.964844 244.589844 198.710938 244.867188 Z M 198.199219 243.550781 C 198.417969 243.472656 198.476562 243.539062 198.382812 243.757812 C 198.164062 243.828125 198.105469 243.757812 198.199219 243.550781 Z M 198.285156 243.238281 C 198.667969 243.027344 198.921875 243.488281 198.660156 243.773438 C 198.574219 243.695312 198.519531 243.582031 198.503906 243.472656 C 198.453125 243.359375 198.007812 243.347656 198.285156 243.238281 Z M 198.050781 243.035156 C 198.207031 242.863281 198.441406 242.925781 198.652344 242.890625 L 198.746094 242.550781 L 198.796875 242.941406 C 199.078125 242.847656 199.257812 242.914062 199.34375 243.132812 C 198.921875 243.070312 198.484375 243.035156 198.050781 243.035156 Z M 198.183594 242.566406 C 198.398438 242.472656 198.460938 242.542969 198.363281 242.757812 C 198.15625 242.847656 198.09375 242.777344 198.183594 242.566406 Z M 196.800781 244.277344 C 196.644531 244.78125 196.734375 245.320312 196.777344 245.832031 C 196.601562 245.683594 196.324219 245.703125 196.386719 245.980469 L 196.671875 246.195312 L 195.796875 246.195312 C 195.828125 246.015625 195.855469 245.824219 195.882812 245.640625 C 195.605469 245.726562 195.335938 245.851562 195.066406 245.945312 C 195.101562 245.503906 195.101562 245.058594 195.066406 244.617188 L 195.984375 244.660156 L 195.90625 244.382812 C 195.5625 244.390625 195.203125 244.425781 194.859375 244.382812 C 195.171875 244.191406 195.542969 244.175781 195.90625 244.253906 C 196.011719 243.515625 195.820312 242.742188 195.996094 242.019531 C 196.011719 242.699219 196.074219 243.382812 196.109375 244.0625 L 196.8125 244.027344 L 196.785156 244.183594 C 196.515625 244.199219 196.238281 244.191406 195.96875 244.15625 L 195.941406 244.382812 C 196.230469 244.367188 196.515625 244.332031 196.800781 244.277344 Z M 195.535156 246.164062 C 195.421875 246.265625 195.046875 246.308594 195.066406 246.09375 C 195.082031 245.875 195.5625 245.9375 195.535156 246.164062 Z M 176.496094 227.992188 L 176.28125 228.15625 C 175.457031 227.265625 174.335938 226.699219 173.207031 226.300781 C 169.925781 225.144531 166.191406 225.128906 162.964844 226.464844 C 162.640625 226.570312 162.191406 226.691406 161.972656 226.351562 C 161.261719 225.398438 161.183594 224.128906 161.132812 222.984375 C 161.027344 220.761719 161.800781 218.582031 162.953125 216.714844 C 163.546875 215.664062 164.214844 214.625 165.152344 213.84375 C 166.679688 212.539062 168.675781 211.648438 170.714844 211.804688 C 171.894531 211.890625 172.859375 212.707031 173.570312 213.589844 C 174.285156 214.476562 174.699219 215.320312 175.253906 216.1875 C 176.59375 218.269531 177.261719 220.824219 176.957031 223.289062 C 176.84375 224.242188 176.425781 225.121094 176.113281 226.023438 C 175.914062 226.707031 176.238281 227.375 176.496094 227.992188 Z M 176.496094 227.992188 " fill-opacity="1" fill-rule="nonzero"/></g><path fill="#545454" d="M 196.628906 244.878906 L 196.296875 244.800781 C 196.230469 244.722656 196.21875 244.261719 196.109375 244.566406 C 196.109375 244.6875 196.109375 244.914062 196.109375 245.035156 C 196.246094 245.121094 196.578125 245.050781 196.628906 244.878906 Z M 196.628906 244.878906 " fill-opacity="1" fill-rule="nonzero"/><path fill="#545454" d="M 196.402344 245.199219 C 196.429688 245.703125 196.84375 244.9375 196.402344 245.199219 Z M 196.402344 245.199219 " fill-opacity="1" fill-rule="nonzero"/><path fill="#545454" d="M 195.535156 244.800781 L 195.535156 244.921875 L 195.769531 244.921875 L 195.769531 244.808594 L 195.535156 244.808594 Z M 195.535156 244.800781 " fill-opacity="1" fill-rule="nonzero"/><path fill="#545454" d="M 195.535156 245.09375 C 195.5625 245.570312 196.019531 244.886719 195.535156 245.09375 Z M 195.535156 245.09375 " fill-opacity="1" fill-rule="nonzero"/><path fill="#545454" d="M 180.621094 228.800781 C 179.789062 230.710938 177.667969 231.847656 175.644531 231.90625 C 175.644531 233.191406 175.421875 234.460938 175.316406 235.746094 C 176.695312 236.441406 177.824219 237.515625 178.867188 238.628906 C 179.023438 237.8125 179.335938 237.039062 179.535156 236.230469 C 180.195312 233.808594 180.507812 231.308594 180.621094 228.800781 Z M 180.621094 228.800781 " fill-opacity="1" fill-rule="nonzero"/><path fill="#545454" d="M 161.269531 246.34375 L 161.296875 246.300781 L 161.234375 246.351562 Z M 161.269531 246.34375 " fill-opacity="1" fill-rule="nonzero"/><path fill="#545454" d="M 196.664062 247.265625 C 196.480469 247.1875 196.28125 247.195312 196.109375 247.28125 L 196.074219 247.34375 C 196.238281 247.429688 196.558594 247.492188 196.664062 247.265625 Z M 196.664062 247.265625 " fill-opacity="1" fill-rule="nonzero"/><path fill="#545454" d="M 161.714844 249.355469 L 161.78125 249.132812 L 161.324219 249.078125 C 161.367188 249.253906 161.53125 249.375 161.714844 249.355469 Z M 161.714844 249.355469 " fill-opacity="1" fill-rule="nonzero"/><path fill="#545454" d="M 162.328125 242.707031 C 162.269531 242.933594 162.207031 243.160156 162.128906 243.382812 L 162.390625 243.496094 L 161.828125 243.59375 L 162.25 243.671875 L 162.285156 243.851562 C 161.90625 243.835938 161.523438 243.863281 161.148438 243.929688 C 161.558594 244.019531 162.050781 243.851562 162.398438 244.15625 C 162.007812 244.183594 161.625 244.183594 161.234375 244.191406 L 161.523438 244.339844 L 161.757812 244.304688 L 162.269531 244.242188 L 162.25 244.546875 C 162.296875 245.070312 162.304688 245.589844 162.261719 246.109375 L 162.261719 246.195312 C 162.304688 247.167969 162.390625 248.195312 162.148438 249.140625 C 162.140625 249.425781 162.085938 249.722656 162.191406 250 L 162.339844 250.304688 L 161.894531 250.285156 L 161.992188 250.425781 L 162.25 250.511719 L 162.382812 250.804688 C 162.953125 250.71875 163.625 250.78125 164.066406 250.328125 C 164.707031 249.6875 164.898438 248.742188 164.933594 247.863281 C 164.917969 246.726562 164.847656 245.570312 165.046875 244.445312 C 165.308594 243.035156 165.289062 241.585938 165.152344 240.164062 L 165.003906 240.164062 C 165.0625 241.351562 165.019531 242.550781 165.019531 243.75 L 164.875 243.558594 C 164.804688 242.445312 164.882812 241.335938 164.828125 240.222656 L 164.984375 239.964844 C 164.855469 238.992188 164.160156 238.253906 163.683594 237.4375 C 163.363281 236.820312 162.5625 236.976562 162 236.839844 C 161.972656 238.738281 161.964844 240.632812 161.972656 242.535156 Z M 162.328125 242.707031 " fill-opacity="1" fill-rule="nonzero"/><path fill="#545454" d="M 160.054688 245.078125 C 159.863281 245.121094 159.890625 245.441406 159.96875 245.582031 C 160.195312 245.605469 160.1875 245.179688 160.054688 245.078125 Z M 160.054688 245.078125 " fill-opacity="1" fill-rule="nonzero"/><path fill="#545454" d="M 162.027344 249.886719 L 161.957031 249.867188 L 162 249.957031 Z M 162.027344 249.886719 " fill-opacity="1" fill-rule="nonzero"/><path fill="#545454" d="M 160.046875 248.054688 C 160.074219 248.375 160.074219 248.6875 160.046875 249.007812 C 160.359375 248.898438 160.359375 248.167969 160.046875 248.054688 Z M 160.046875 248.054688 " fill-opacity="1" fill-rule="nonzero"/><path fill="#545454" d="M 160.039062 245.875 L 159.839844 246.09375 C 159.960938 246.335938 160.289062 245.980469 160.039062 245.875 Z M 160.039062 245.875 " fill-opacity="1" fill-rule="nonzero"/><path fill="#545454" d="M 160.203125 246.195312 L 160.21875 246.429688 C 160.34375 246.484375 160.488281 246.421875 160.53125 246.292969 C 160.542969 246.273438 160.542969 246.257812 160.550781 246.25 C 160.585938 246.015625 160.253906 246.007812 160.203125 246.195312 Z M 160.203125 246.195312 " fill-opacity="1" fill-rule="nonzero"/><path fill="#545454" d="M 201.90625 249.945312 C 202.390625 249.730469 202.914062 249.625 203.417969 249.46875 C 203.113281 249.253906 202.816406 248.992188 202.453125 248.886719 C 202.089844 248.785156 201.445312 248.921875 200.953125 248.957031 C 201.195312 249.355469 201.53125 249.667969 201.90625 249.945312 Z M 201.90625 249.945312 " fill-opacity="1" fill-rule="nonzero"/><path fill="#545454" d="M 199.65625 244.625 L 199.476562 244.503906 C 199.476562 244.566406 199.46875 244.695312 199.46875 244.757812 L 199.554688 244.738281 Z M 199.65625 244.625 " fill-opacity="1" fill-rule="nonzero"/><path fill="#545454" d="M 161.921875 247.828125 L 162.007812 247.855469 L 161.957031 247.742188 Z M 161.921875 247.828125 " fill-opacity="1" fill-rule="nonzero"/><path fill="#545454" d="M 199.449219 247.1875 C 199.597656 247.03125 199.5625 246.945312 199.328125 246.925781 C 199.179688 247.074219 199.214844 247.160156 199.449219 247.1875 Z M 199.449219 247.1875 " fill-opacity="1" fill-rule="nonzero"/><path fill="#545454" d="M 199.144531 244.476562 C 198.921875 244.921875 199.65625 244.503906 199.144531 244.476562 Z M 199.144531 244.476562 " fill-opacity="1" fill-rule="nonzero"/><path fill="#545454" d="M 161.191406 242.367188 C 161.375 242.324219 161.558594 242.289062 161.75 242.265625 C 161.738281 242.074219 161.757812 241.882812 161.800781 241.691406 L 161.304688 241.855469 C 161.246094 242.019531 161.226562 242.195312 161.191406 242.367188 Z M 161.191406 242.367188 " fill-opacity="1" fill-rule="nonzero"/><path fill="#545454" d="M 202.226562 250.121094 C 202.871094 250.796875 203.652344 251.328125 204.277344 252.011719 C 204.511719 252.273438 204.640625 252.699219 205.058594 252.671875 C 204.703125 251.761719 204.300781 250.804688 203.625 250.085938 C 203.15625 250.035156 202.6875 250.050781 202.226562 250.121094 Z M 202.226562 250.121094 " fill-opacity="1" fill-rule="nonzero"/><path fill="#545454" d="M 161.714844 241.550781 L 161.714844 241.457031 C 161.28125 241.207031 161.296875 241.925781 161.714844 241.550781 Z M 161.714844 241.550781 " fill-opacity="1" fill-rule="nonzero"/></svg>