<svg xmlns="http://www.w3.org/2000/svg" xmlns:xlink="http://www.w3.org/1999/xlink" width="500" zoomAndPan="magnify" viewBox="0 0 375 374.999991" height="500" preserveAspectRatio="xMidYMid meet" version="1.0"><defs><clipPath id="ce4c3c2eb5"><path d="M 66.316406 42.496094 L 109.273438 42.496094 L 109.273438 129.140625 L 66.316406 129.140625 Z M 66.316406 42.496094 " clip-rule="nonzero"/></clipPath><clipPath id="8d5d4434f9"><path d="M 311.429688 177.039062 L 375 177.039062 L 375 214.558594 L 311.429688 214.558594 Z M 311.429688 177.039062 " clip-rule="nonzero"/></clipPath><clipPath id="93463673d6"><path d="M 0 177.039062 L 68.140625 177.039062 L 68.140625 214.558594 L 0 214.558594 Z M 0 177.039062 " clip-rule="nonzero"/></clipPath><clipPath id="abc356c2a8"><path d="M 138.535156 175.730469 L 239.335938 175.730469 L 239.335938 276.53125 L 138.535156 276.53125 Z M 138.535156 175.730469 " clip-rule="nonzero"/></clipPath><clipPath id="7ad9c8c792"><path d="M 188.933594 175.730469 C 161.097656 175.730469 138.535156 198.296875 138.535156 226.132812 C 138.535156 253.96875 161.097656 276.53125 188.933594 276.53125 C 216.769531 276.53125 239.335938 253.96875 239.335938 226.132812 C 239.335938 198.296875 216.769531 175.730469 188.933594 175.730469 Z M 188.933594 175.730469 " clip-rule="nonzero"/></clipPath><clipPath id="52ed232ddf"><path d="M 138.082031 175 L 240 175 L 240 276 L 138.082031 276 Z M 138.082031 175 " clip-rule="nonzero"/></clipPath></defs><path stroke-linecap="butt" transform="matrix(-0.555957, 0.503401, -0.503401, -0.555957, 215.36274, 39.467814)" fill="none" stroke-linejoin="miter" d="M 0.00141764 27.0012 L 332.488482 26.999748 " stroke="#545454" stroke-width="54" stroke-opacity="1" stroke-miterlimit="4"/><path stroke-linecap="butt" transform="matrix(0.554794, 0.504682, -0.504682, 0.554794, 188.025885, 9.477656)" fill="none" stroke-linejoin="miter" d="M -0.00107318 27.000877 L 331.007261 27.002311 " stroke="#545454" stroke-width="54" stroke-opacity="1" stroke-miterlimit="4"/><g clip-path="url(#ce4c3c2eb5)"><path fill="#545454" d="M 66.316406 42.496094 L 109.273438 42.496094 L 109.273438 129.078125 L 66.316406 129.078125 Z M 66.316406 42.496094 " fill-opacity="1" fill-rule="nonzero"/></g><g clip-path="url(#8d5d4434f9)"><path fill="#ffffff" d="M 311.429688 177.039062 L 375.035156 177.039062 L 375.035156 214.558594 L 311.429688 214.558594 Z M 311.429688 177.039062 " fill-opacity="1" fill-rule="nonzero"/></g><g clip-path="url(#93463673d6)"><path fill="#ffffff" d="M -0.0546875 177.039062 L 68.09375 177.039062 L 68.09375 214.558594 L -0.0546875 214.558594 Z M -0.0546875 177.039062 " fill-opacity="1" fill-rule="nonzero"/></g><path stroke-linecap="butt" transform="matrix(0, 0.75, -0.75, 0, 68.495712, 214.558184)" fill="none" stroke-linejoin="miter" d="M 0.000546986 26.999493 L 201.037019 26.999493 " stroke="#545454" stroke-width="54" stroke-opacity="1" stroke-miterlimit="4"/><path stroke-linecap="butt" transform="matrix(0.000000001309, 0.75, -0.75, 0.000000001309, 349.871026, 214.558184)" fill="none" stroke-linejoin="miter" d="M 0.000546939 26.999912 L 201.037018 26.999912 " stroke="#545454" stroke-width="54" stroke-opacity="1" stroke-miterlimit="4"/><path stroke-linecap="butt" transform="matrix(-0.75, 0, 0, -0.75, 335.211134, 237.756913)" fill="none" stroke-linejoin="miter" d="M 0.000261584 15.498802 L 176.380481 15.498802 " stroke="#545454" stroke-width="31" stroke-opacity="1" stroke-miterlimit="4"/><path stroke-linecap="butt" transform="matrix(-0.75, 0, 0, -0.75, 311.41809, 365.555455)" fill="none" stroke-linejoin="miter" d="M 0.0001612 27.001025 L 324.937683 27.001025 " stroke="#545454" stroke-width="54" stroke-opacity="1" stroke-miterlimit="4"/><g clip-path="url(#abc356c2a8)"><g clip-path="url(#7ad9c8c792)"><path fill="#ffc107" d="M 138.535156 175.730469 L 239.335938 175.730469 L 239.335938 276.53125 L 138.535156 276.53125 Z M 138.535156 175.730469 " fill-opacity="1" fill-rule="nonzero"/></g></g><path fill="#545454" d="M 232.351562 241.261719 L 231.894531 241.625 C 232.035156 241.785156 232.21875 241.878906 232.425781 241.90625 C 232.40625 241.691406 232.386719 241.476562 232.351562 241.261719 Z M 232.351562 241.261719 " fill-opacity="1" fill-rule="nonzero"/><path fill="#545454" d="M 231.933594 242.089844 L 232.203125 242.371094 C 231.765625 242.546875 232.070312 242.863281 232.359375 242.976562 C 232.097656 242.957031 231.941406 243.070312 231.886719 243.3125 L 232.332031 243.738281 L 231.949219 243.691406 C 232.007812 243.898438 232.089844 244.101562 232.191406 244.296875 L 231.902344 244.714844 L 232.296875 244.9375 C 232.5 244.425781 232.332031 243.867188 232.378906 243.347656 C 232.371094 243.03125 232.472656 242.707031 232.339844 242.398438 L 232.574219 242.109375 L 231.941406 242.109375 Z M 231.933594 242.089844 " fill-opacity="1" fill-rule="nonzero"/><path fill="#545454" d="M 232.667969 242.046875 C 232.648438 242.277344 232.648438 242.511719 232.65625 242.742188 L 233.140625 242.742188 C 233.207031 242.398438 232.992188 242.128906 232.667969 242.046875 Z M 232.667969 242.046875 " fill-opacity="1" fill-rule="nonzero"/><path fill="#545454" d="M 232.695312 243.628906 L 233.140625 243.535156 L 233.140625 242.976562 L 232.640625 242.929688 C 232.667969 243.394531 232.65625 243.851562 232.609375 244.316406 C 232.609375 244.578125 232.628906 244.847656 232.640625 245.117188 L 232.992188 244.984375 C 233.011719 244.800781 233.03125 244.621094 233.046875 244.445312 L 232.675781 244.445312 L 232.695312 244.335938 L 233.046875 244.242188 C 233.421875 243.980469 232.84375 243.785156 232.695312 243.628906 Z M 232.695312 243.628906 " fill-opacity="1" fill-rule="nonzero"/><path fill="#545454" d="M 232.65625 240.667969 C 233.1875 240.929688 233.003906 240.257812 233.066406 239.996094 C 232.761719 239.953125 232.527344 240.042969 232.492188 240.40625 L 232.910156 240.324219 Z M 232.65625 240.667969 " fill-opacity="1" fill-rule="nonzero"/><path fill="#545454" d="M 232.808594 241.457031 C 232.339844 241.449219 232.816406 242.371094 233.09375 241.90625 C 233.335938 241.730469 233.011719 241.414062 232.808594 241.457031 Z M 232.808594 241.457031 " fill-opacity="1" fill-rule="nonzero"/><path fill="#545454" d="M 231.53125 241.429688 C 231.253906 241.46875 231.308594 241.96875 231.605469 241.839844 C 231.902344 241.710938 231.859375 241.273438 231.53125 241.429688 Z M 231.53125 241.429688 " fill-opacity="1" fill-rule="nonzero"/><path fill="#545454" d="M 231.382812 242.546875 C 231.179688 242.78125 231.597656 243.011719 231.753906 242.789062 C 231.914062 242.566406 231.53125 242.285156 231.382812 242.546875 Z M 231.382812 242.546875 " fill-opacity="1" fill-rule="nonzero"/><path fill="#545454" d="M 231.058594 241.28125 C 231.234375 241.152344 231.242188 241.011719 231.085938 240.863281 C 230.796875 240.984375 230.789062 241.125 231.058594 241.28125 Z M 231.058594 241.28125 " fill-opacity="1" fill-rule="nonzero"/><path fill="#545454" d="M 230.832031 245.078125 C 230.757812 245.328125 230.851562 245.414062 231.121094 245.328125 C 231.1875 245.058594 231.09375 244.976562 230.832031 245.078125 Z M 230.832031 245.078125 " fill-opacity="1" fill-rule="nonzero"/><path fill="#545454" d="M 230.898438 246.074219 C 230.796875 246.34375 230.878906 246.445312 231.132812 246.382812 C 231.226562 246.113281 231.140625 246.007812 230.898438 246.074219 Z M 230.898438 246.074219 " fill-opacity="1" fill-rule="nonzero"/><path fill="#545454" d="M 232.714844 240.9375 C 232.527344 241.179688 232.972656 241.328125 233.132812 241.179688 C 233.289062 241.03125 232.863281 240.789062 232.714844 240.9375 Z M 232.714844 240.9375 " fill-opacity="1" fill-rule="nonzero"/><path fill="#545454" d="M 229.914062 248.613281 L 229.914062 248.699219 L 230.386719 248.699219 L 230.386719 248.613281 Z M 229.914062 248.613281 " fill-opacity="1" fill-rule="nonzero"/><path fill="#545454" d="M 232.898438 239.832031 C 233.179688 239.71875 233.039062 239.410156 233.046875 239.1875 L 232.621094 239.214844 C 232.5 239.410156 232.566406 239.664062 232.761719 239.773438 C 232.808594 239.800781 232.851562 239.820312 232.898438 239.832031 Z M 232.898438 239.832031 " fill-opacity="1" fill-rule="nonzero"/><path fill="#545454" d="M 161.335938 243.570312 C 161.308594 243.265625 160.9375 243.449219 160.75 243.429688 C 160.769531 243.71875 160.796875 244.007812 160.742188 244.296875 L 160.789062 244.335938 C 160.957031 244.101562 161.1875 243.953125 161.421875 243.792969 L 160.824219 243.710938 C 160.992188 243.65625 161.160156 243.609375 161.335938 243.570312 Z M 161.335938 243.570312 " fill-opacity="1" fill-rule="nonzero"/><path fill="#545454" d="M 179.1875 192.359375 C 178.964844 193.488281 178.339844 194.558594 178.40625 195.730469 C 178.738281 196.558594 179.976562 196.4375 180.507812 195.859375 C 181.4375 194.863281 181.644531 193.339844 182.757812 192.5 C 183.105469 192.203125 183.558594 192.148438 183.980469 192.0625 C 183.390625 191.503906 182.714844 191.058594 181.96875 190.75 C 181.449219 191.199219 180.832031 191.523438 180.164062 191.691406 C 179.800781 191.832031 179.242188 191.878906 179.1875 192.359375 Z M 179.1875 192.359375 " fill-opacity="1" fill-rule="nonzero"/><path fill="#545454" d="M 211.878906 244.578125 C 211.953125 244.363281 211.894531 244.214844 211.710938 244.148438 C 211.65625 244.984375 211.65625 245.832031 211.699219 246.671875 L 211.933594 246.6875 C 211.894531 245.980469 211.839844 245.285156 211.878906 244.578125 Z M 211.878906 244.578125 " fill-opacity="1" fill-rule="nonzero"/><path fill="#545454" d="M 181.625 190.554688 C 181.179688 190.296875 180.710938 190.082031 180.230469 189.902344 C 180.109375 190.445312 179.976562 190.984375 179.847656 191.523438 C 180.480469 191.328125 181.261719 191.152344 181.625 190.554688 Z M 181.625 190.554688 " fill-opacity="1" fill-rule="nonzero"/><path fill="#545454" d="M 202.488281 193.8125 C 202.617188 191.886719 202.589844 189.921875 202.117188 188.042969 C 201.457031 185.175781 199.734375 182.507812 197.222656 180.925781 C 195.730469 180.039062 194.09375 179.453125 192.382812 179.183594 C 190.121094 178.839844 187.683594 178.953125 185.625 180.039062 C 183.570312 181.128906 182.109375 182.757812 180.972656 184.644531 C 180.441406 185.550781 180.042969 186.527344 179.578125 187.464844 C 179.027344 187.382812 178.527344 187.140625 177.976562 187.085938 C 177.761719 187.046875 177.457031 187.121094 177.53125 187.402344 C 177.707031 187.839844 178.132812 188.082031 178.496094 188.339844 C 179.019531 188.667969 179.519531 189.03125 180.070312 189.308594 C 182.210938 190.359375 184.285156 191.542969 186.472656 192.492188 C 187.132812 192.78125 187.765625 193.125 188.410156 193.449219 C 191.386719 194.761719 194.28125 196.289062 197.191406 197.75 C 198.03125 198.121094 198.820312 198.613281 199.707031 198.875 C 201.230469 199.378906 202.765625 199.871094 204.3125 200.316406 C 204.824219 200.4375 205.335938 200.644531 205.875 200.597656 C 204.832031 198.855469 203.398438 197.386719 202.347656 195.65625 C 202.21875 195.050781 202.460938 194.417969 202.488281 193.8125 Z M 201.816406 195.246094 C 200.476562 194.964844 199.164062 194.527344 197.796875 194.332031 C 197.417969 194.242188 196.960938 194.316406 196.679688 193.988281 C 196.953125 193.859375 197.25 193.777344 197.554688 193.757812 L 197.464844 193.355469 C 198.550781 191.105469 198.394531 188.414062 197.5 186.125 C 196.71875 184.050781 195.144531 182.28125 193.136719 181.34375 C 191.5625 180.5625 189.730469 180.28125 188.015625 180.746094 C 185.160156 181.363281 182.871094 183.539062 181.550781 186.070312 C 181.390625 186.488281 181.074219 186.925781 181.1875 187.390625 C 181.464844 187.160156 181.550781 186.710938 181.820312 186.433594 C 182.675781 186.507812 183.347656 187.148438 184.191406 187.308594 C 184.339844 187.6875 184.339844 188.109375 184.398438 188.507812 C 184.453125 188.910156 184.890625 188.871094 185.160156 189 C 186.480469 189.570312 187.785156 190.191406 189.097656 190.789062 C 189.375 190.386719 189.675781 190.007812 189.972656 189.625 C 191.023438 190.117188 192.175781 190.472656 193.144531 191.085938 C 192.808594 191.953125 192.492188 192.855469 191.992188 193.644531 L 191.796875 193.699219 C 191.871094 192.9375 192.34375 192.238281 192.605469 191.515625 C 191.695312 191.28125 190.894531 190.75 190.054688 190.351562 C 189.765625 190.703125 189.570312 191.132812 189.253906 191.46875 C 188.835938 191.019531 188.25 190.851562 187.71875 190.601562 L 184.0625 188.945312 C 183.921875 188.574219 183.96875 188.171875 183.941406 187.792969 C 183.382812 188.117188 183.484375 188.898438 183.308594 189.449219 L 183.066406 189.347656 C 183.152344 188.824219 183.28125 188.3125 183.410156 187.800781 C 182.945312 187.539062 182.527344 187.167969 182.007812 187.039062 L 181.828125 187.132812 C 181.550781 187.792969 181.464844 188.5625 180.992188 189.132812 C 180.964844 188.609375 181.214844 188.082031 181.132812 187.585938 L 180.664062 187.558594 C 181.121094 185.894531 182.050781 184.375 183.195312 183.09375 C 184.910156 181.175781 187.367188 180.097656 189.933594 180.125 C 191.664062 180.253906 193.320312 180.839844 194.753906 181.816406 C 196.753906 183.167969 198.003906 185.429688 198.46875 187.765625 C 198.757812 189.363281 198.738281 191.066406 198.132812 192.601562 C 198.003906 192.910156 197.890625 193.234375 197.648438 193.46875 C 197.613281 193.597656 197.585938 193.738281 197.554688 193.867188 C 198.328125 193.765625 199.089844 194.027344 199.84375 194.175781 C 200.597656 194.324219 201.335938 194.445312 201.882812 194.949219 Z M 201.816406 195.246094 " fill-opacity="1" fill-rule="nonzero"/><path fill="#545454" d="M 189.65625 194.398438 C 189.164062 194.183594 188.648438 194.007812 188.148438 193.804688 C 188.269531 194.054688 188.398438 194.304688 188.53125 194.558594 C 188.902344 194.472656 189.273438 194.445312 189.65625 194.398438 Z M 189.65625 194.398438 " fill-opacity="1" fill-rule="nonzero"/><path fill="#545454" d="M 197.296875 199.527344 C 196.699219 199.351562 196.160156 198.976562 195.535156 198.894531 C 195.230469 198.828125 194.894531 198.828125 194.644531 198.613281 C 195.695312 198.511719 196.886719 198.707031 197.703125 199.394531 L 198.078125 199.210938 L 198.253906 198.800781 C 196.71875 197.945312 195.117188 197.238281 193.554688 196.425781 C 192.429688 195.824219 191.292969 195.253906 190.140625 194.726562 C 189.515625 194.667969 188.902344 194.976562 188.257812 194.921875 C 188.015625 194.464844 187.820312 193.941406 187.421875 193.609375 C 186.796875 193.226562 186.089844 193.011719 185.410156 192.78125 C 184.507812 192.480469 183.402344 192.492188 182.683594 193.199219 C 181.867188 194.101562 181.660156 195.433594 180.710938 196.230469 C 180.285156 196.613281 179.6875 196.699219 179.128906 196.726562 C 178.90625 198.234375 178.46875 199.722656 177.6875 201.042969 C 176.421875 203.203125 174.535156 205.164062 172.039062 205.789062 C 173.082031 205.949219 174.085938 206.300781 175.007812 206.824219 C 176.441406 207.632812 177.808594 208.570312 178.992188 209.714844 C 179.316406 210.03125 179.660156 210.332031 179.875 210.738281 C 179.203125 210.332031 178.65625 209.734375 177.9375 209.382812 C 178.191406 209.78125 178.542969 210.105469 178.804688 210.507812 C 179.382812 211.296875 179.820312 212.246094 180.675781 212.796875 C 181.734375 213.511719 182.789062 214.296875 183.980469 214.777344 C 184.351562 213.671875 185.234375 212.863281 185.894531 211.929688 C 186.554688 211 187.320312 210.050781 188 209.082031 C 188.789062 209.894531 189.785156 210.46875 190.882812 210.75 C 191.527344 210.878906 192.289062 211.039062 192.847656 210.601562 C 193.40625 210.164062 193.304688 209.308594 193.238281 208.664062 C 193.164062 209.464844 192.71875 210.527344 191.75 210.421875 C 192.046875 209.984375 192.492188 209.652344 192.660156 209.128906 C 192.828125 208.609375 192.957031 207.984375 193.515625 207.773438 C 194.074219 207.558594 194.449219 207.660156 194.902344 207.519531 C 194.148438 207.410156 193.789062 206.703125 193.40625 206.125 C 194.027344 206.226562 194.4375 206.691406 194.8125 207.15625 C 195.203125 207.203125 194.921875 206.507812 195.042969 206.320312 C 195.398438 206.757812 195.984375 206.199219 195.910156 205.753906 C 195.742188 205.957031 195.601562 206.171875 195.445312 206.375 C 194.746094 205.902344 193.730469 206.21875 193.023438 205.78125 C 193.769531 205.714844 194.53125 205.734375 195.25 205.9375 C 195.359375 205.558594 195.460938 205.175781 195.574219 204.792969 C 196.308594 204.652344 196.933594 205.417969 197.6875 205.210938 C 198.03125 205.148438 198.414062 204.894531 198.394531 204.503906 C 198.335938 203.84375 198.160156 203.203125 197.964844 202.578125 C 198.039062 203.265625 198.328125 203.9375 198.246094 204.636719 C 197.871094 205.128906 197.183594 205.035156 196.679688 204.839844 C 196.179688 204.644531 195.703125 204.683594 195.210938 204.652344 C 195.109375 204.410156 194.914062 204.03125 195.238281 203.871094 C 195.910156 203.582031 196.234375 204.410156 196.832031 204.523438 C 197.136719 204.597656 197.566406 204.847656 197.796875 204.523438 C 197.769531 203.007812 197.425781 201.519531 197.296875 200.011719 C 197.789062 199.964844 198.261719 199.863281 198.730469 199.695312 C 198.839844 199.488281 198.90625 199.265625 198.933594 199.035156 C 198.609375 199.292969 198.347656 199.648438 197.945312 199.796875 C 197.742188 199.675781 197.527344 199.582031 197.296875 199.527344 Z M 177.828125 202.09375 C 178.5625 200.820312 179.410156 199.609375 180.023438 198.269531 C 179.875 199.777344 178.898438 201.070312 177.828125 202.09375 Z M 184.816406 196.996094 C 184.824219 197.453125 185.246094 197.722656 185.394531 198.128906 C 185.160156 198.09375 184.824219 198.195312 184.742188 197.898438 C 184.40625 197.089844 184.324219 196.15625 184.628906 195.328125 C 184.855469 194.890625 185.125 194.289062 185.726562 194.417969 C 185.449219 194.910156 185.019531 195.328125 184.84375 195.878906 C 184.75 196.230469 184.789062 196.613281 184.816406 196.996094 Z M 186.304688 196.957031 C 186.007812 196.679688 185.867188 196.035156 185.347656 196.277344 C 186.136719 195.914062 186.667969 194.769531 186.082031 194.035156 C 185.589844 193.503906 184.742188 193.867188 184.472656 194.453125 C 184.015625 195.460938 184.191406 196.59375 184.203125 197.664062 C 184.222656 198.457031 184.972656 198.875 185.382812 199.453125 C 185.226562 199.863281 184.722656 199.589844 184.554688 199.339844 C 184.144531 198.792969 183.773438 198.167969 183.785156 197.46875 C 183.753906 196.519531 183.726562 195.554688 183.875 194.613281 C 183.988281 193.933594 184.621094 193.394531 185.308594 193.375 C 185.8125 193.496094 186.417969 193.730469 186.585938 194.277344 C 186.753906 194.828125 186.371094 195.582031 185.980469 196.101562 C 186.195312 196.316406 186.417969 196.539062 186.613281 196.773438 Z M 195.964844 200.539062 C 195.640625 200.113281 195.203125 199.75 195.007812 199.246094 L 195.75 199.230469 C 195.75 199.480469 195.75 199.730469 195.761719 199.984375 L 196.253906 199.777344 L 195.910156 199.683594 L 195.925781 199.441406 C 196.226562 199.546875 196.53125 199.609375 196.839844 199.628906 C 196.308594 199.628906 196.199219 200.1875 195.964844 200.53125 Z M 195.964844 200.539062 " fill-opacity="1" fill-rule="nonzero"/><path fill="#545454" d="M 151.046875 211.753906 C 150.914062 214.015625 151 216.296875 150.972656 218.566406 C 150.941406 227.359375 151.027344 236.15625 150.972656 244.949219 L 152.050781 245.117188 C 152.023438 233.746094 152.042969 222.371094 151.976562 211 C 151.679688 211.261719 151.351562 211.484375 151.046875 211.753906 Z M 151.046875 211.753906 " fill-opacity="1" fill-rule="nonzero"/><path fill="#545454" d="M 190.308594 224.160156 C 190.277344 222.820312 190.371094 221.441406 189.953125 220.148438 C 189.796875 219.515625 189.375 219.011719 189.152344 218.40625 C 189.050781 217.980469 188.484375 218.007812 188.324219 217.625 C 188.035156 217.050781 187.898438 216.371094 187.386719 215.933594 C 187.570312 217.078125 187.820312 218.230469 187.664062 219.394531 C 187.328125 218.398438 187.273438 217.339844 187.011719 216.324219 C 186.855469 215.039062 186.238281 213.894531 185.859375 212.675781 C 185.355469 213.382812 184.890625 214.117188 184.40625 214.84375 C 185.105469 215.199219 185.933594 215.308594 186.519531 215.839844 C 186.230469 215.859375 185.933594 215.859375 185.644531 215.820312 C 183.679688 215.355469 181.976562 214.210938 180.320312 213.105469 C 180.628906 213.664062 181.066406 214.144531 181.328125 214.730469 C 181.847656 215.691406 182.203125 216.734375 182.695312 217.699219 C 184.957031 218.964844 186.527344 221.179688 187.496094 223.546875 C 187.550781 223.265625 187.617188 222.996094 187.699219 222.726562 C 188.222656 221.210938 188.445312 219.628906 188.769531 218.0625 C 189.003906 218.621094 188.921875 219.246094 188.863281 219.832031 C 188.6875 221.132812 188.324219 222.410156 187.859375 223.636719 C 187.691406 224.113281 187.570312 224.597656 187.503906 225.097656 C 187.105469 224.179688 186.855469 223.191406 186.351562 222.316406 C 185.421875 220.613281 184.175781 218.910156 182.304688 218.175781 C 181.132812 215.242188 179.707031 212.351562 177.699219 209.894531 C 176.246094 208.21875 174.441406 206.683594 172.214844 206.199219 C 171.265625 205.976562 170.300781 206.199219 169.339844 206.226562 C 168.976562 206.226562 168.625 206.339844 168.335938 206.550781 C 168.949219 206.507812 169.554688 206.367188 170.179688 206.375 L 170.03125 206.488281 C 167.824219 207.269531 165.554688 208.179688 163.925781 209.921875 C 164.425781 209.6875 164.855469 209.34375 165.347656 209.09375 C 166.957031 208.207031 168.855469 207.652344 170.691406 208.050781 C 172.953125 208.628906 174.765625 210.238281 176.226562 211.988281 C 178.648438 215.019531 180.246094 218.632812 181.222656 222.363281 C 182.089844 225.582031 182.125 228.96875 181.765625 232.273438 C 181.417969 234.785156 180.871094 237.289062 179.875 239.625 C 180.367188 240.378906 180.757812 241.1875 181.253906 241.933594 C 181.988281 242.707031 182.917969 243.253906 183.753906 243.898438 C 185.605469 245.3125 187.691406 246.371094 189.628906 247.675781 C 189.570312 247.164062 189.757812 246.679688 189.851562 246.175781 C 190.140625 244.5 190.4375 242.835938 190.632812 241.152344 C 191.105469 237.363281 191.496094 233.503906 190.921875 229.695312 C 190.726562 227.863281 190.289062 226.03125 190.308594 224.160156 Z M 186.25 226.355469 C 185.757812 226.363281 185.441406 225.9375 185.214844 225.5625 C 185.941406 225.648438 186.660156 225.851562 187.375 225.972656 C 187.746094 226.058594 188.203125 226.121094 188.371094 226.511719 C 187.671875 226.496094 186.964844 226.363281 186.25 226.355469 Z M 186.25 226.355469 " fill-opacity="1" fill-rule="nonzero"/><path fill="#545454" d="M 177.128906 222.894531 C 177.335938 222.613281 177.277344 222.242188 177.316406 221.917969 C 177.410156 220.195312 177.074219 218.351562 176.070312 216.929688 C 176.421875 218.203125 176.777344 219.496094 176.914062 220.816406 C 177 221.507812 177 222.203125 177.128906 222.894531 Z M 177.128906 222.894531 " fill-opacity="1" fill-rule="nonzero"/><path fill="#545454" d="M 176.644531 224.160156 C 176.636719 221.664062 176.265625 219.179688 175.621094 216.769531 C 175.230469 215.335938 174.550781 213.988281 173.628906 212.816406 C 172.96875 211.960938 172.085938 211.160156 170.960938 211.054688 C 168.820312 210.878906 166.746094 211.867188 165.179688 213.261719 C 163.617188 214.65625 162.621094 216.835938 161.886719 218.882812 C 161.496094 220.035156 161.105469 221.332031 161.570312 222.519531 C 161.773438 223.050781 162.175781 223.636719 162.796875 223.675781 C 163.617188 223.628906 164.269531 223.078125 164.996094 222.761719 C 164.472656 223.535156 163.597656 223.953125 162.9375 224.578125 C 162.574219 224.941406 161.914062 225.265625 162.035156 225.878906 C 163.003906 225.667969 163.925781 225.246094 164.902344 225.050781 C 167.703125 224.476562 170.671875 224.613281 173.390625 225.527344 C 174.535156 225.878906 175.605469 226.449219 176.535156 227.203125 C 176.375 226.894531 176.144531 226.597656 176.199219 226.234375 C 176.234375 225.527344 176.683594 224.894531 176.644531 224.160156 Z M 176.644531 224.160156 " fill-opacity="1" fill-rule="nonzero"/><path fill="#545454" d="M 196.214844 250.390625 C 196.847656 250.167969 197.621094 250.167969 198.097656 249.621094 C 196.800781 250.121094 195.128906 250.019531 194.179688 251.175781 C 194.867188 250.949219 195.507812 250.570312 196.214844 250.390625 Z M 196.214844 250.390625 " fill-opacity="1" fill-rule="nonzero"/><path fill="#545454" d="M 198.738281 246.734375 C 198.542969 246.671875 198.171875 246.652344 198.058594 246.855469 C 198.253906 246.929688 198.652344 246.957031 198.738281 246.734375 Z M 198.738281 246.734375 " fill-opacity="1" fill-rule="nonzero"/><g clip-path="url(#52ed232ddf)"><path fill="#545454" d="M 237.320312 212.265625 C 233.960938 200.261719 225.996094 189.652344 215.488281 182.953125 C 206.675781 177.304688 196.011719 174.613281 185.5625 175.414062 C 179.929688 175.816406 174.355469 177.136719 169.183594 179.417969 C 160.089844 183.335938 152.328125 190.089844 146.914062 198.34375 C 142.308594 205.359375 139.515625 213.402344 138.78125 221.757812 C 138.089844 229.203125 139.265625 236.777344 141.90625 243.765625 C 146.355469 255.222656 155.128906 264.976562 166.140625 270.464844 C 171.917969 273.339844 178.246094 275.128906 184.6875 275.613281 C 195.695312 276.53125 206.953125 273.695312 216.242188 267.730469 C 223.910156 262.777344 230.285156 255.753906 234.230469 247.507812 C 236.445312 242.964844 238.019531 238.089844 238.734375 233.082031 C 239.765625 226.140625 239.191406 219.011719 237.320312 212.265625 Z M 158.359375 251.769531 C 158.3125 252.105469 158.433594 252.503906 158.191406 252.792969 C 158.097656 250.226562 158.210938 247.65625 158.171875 245.089844 C 158.203125 244.074219 158.128906 243.058594 158.203125 242.046875 L 158.351562 242.527344 C 158.414062 245.609375 158.230469 248.6875 158.359375 251.769531 Z M 158.519531 252.773438 C 158.488281 252.207031 158.648438 251.640625 158.5 251.082031 L 158.714844 251.015625 C 158.722656 251.59375 158.972656 252.347656 158.519531 252.773438 Z M 187.234375 258.3125 C 188.027344 258.238281 188.828125 258.265625 189.617188 258.21875 C 191.441406 258.199219 193.257812 257.894531 195.082031 258.058594 C 195.359375 258.105469 195.703125 258.152344 195.804688 258.46875 C 192.949219 258.535156 190.09375 258.441406 187.234375 258.320312 Z M 202.40625 258.796875 L 202.710938 258.292969 C 202.5625 257.949219 202.238281 257.726562 202.011719 257.4375 C 200.980469 256.253906 199.882812 255 199.492188 253.453125 C 199.984375 253.546875 200.125 254.078125 200.367188 254.441406 C 201.0625 255.761719 202.089844 256.859375 203.140625 257.902344 C 203.410156 258.386719 202.851562 258.804688 202.40625 258.796875 Z M 196.515625 252.347656 C 197.203125 251.519531 198.375 251.210938 199.417969 251.21875 C 199.183594 251.621094 199.007812 252.105469 198.578125 252.335938 C 198.578125 252.199219 198.589844 251.910156 198.589844 251.761719 C 197.871094 251.835938 197.183594 252.078125 196.515625 252.347656 Z M 199.035156 250.121094 C 199.566406 249.851562 200.144531 249.695312 200.710938 249.546875 C 200.234375 249.925781 199.640625 250.132812 199.035156 250.121094 Z M 204.953125 257.632812 C 205.085938 257.410156 205.417969 257.140625 205.148438 256.886719 C 204.238281 255.863281 203.457031 254.738281 202.570312 253.695312 C 202.179688 253.230469 201.667969 252.8125 201.558594 252.179688 C 202.105469 252.515625 202.496094 253.027344 202.925781 253.5 C 203.855469 254.503906 204.675781 255.605469 205.570312 256.636719 C 205.921875 257.09375 205.4375 257.632812 204.953125 257.632812 Z M 220.242188 254.65625 C 220.226562 252.335938 220.179688 250.011719 220.234375 247.695312 L 220.429688 247.527344 C 220.476562 249.898438 220.449219 252.28125 220.457031 254.65625 L 220.234375 254.65625 Z M 221.863281 254.710938 C 221.582031 254.589844 221.667969 254.261719 221.648438 254.023438 C 221.667969 251.964844 221.640625 249.910156 221.613281 247.851562 L 221.84375 248 C 221.835938 250.242188 221.929688 252.476562 221.863281 254.710938 Z M 221.882812 246.957031 C 221.34375 246.949219 220.8125 246.902344 220.28125 246.828125 C 220.214844 243.757812 220.242188 240.6875 220.242188 237.617188 L 220.457031 237.632812 C 220.484375 240.640625 220.46875 243.644531 220.496094 246.652344 L 221.75 246.753906 C 221.648438 243.859375 221.761719 240.964844 221.695312 238.070312 C 221.84375 238.171875 221.917969 238.351562 221.890625 238.527344 C 221.863281 241.335938 221.910156 244.148438 221.882812 246.957031 Z M 220.300781 236.871094 C 220.253906 236.574219 220.234375 236.265625 220.242188 235.96875 C 220.273438 233.492188 220.167969 231.027344 220.253906 228.550781 L 220.449219 228.785156 C 220.484375 231.378906 220.4375 233.984375 220.496094 236.582031 C 220.765625 236.945312 221.304688 236.824219 221.703125 236.910156 C 221.722656 234.3125 221.714844 231.714844 221.640625 229.128906 L 221.855469 229.109375 C 221.890625 231.761719 221.824219 234.421875 221.929688 237.074219 C 221.378906 237.085938 220.832031 237.019531 220.300781 236.871094 Z M 223.285156 252.09375 C 223.257812 248.929688 223.332031 245.777344 223.257812 242.621094 L 223.453125 242.621094 C 223.445312 246.019531 223.464844 249.414062 223.464844 252.8125 C 223.195312 252.671875 223.332031 252.335938 223.285156 252.09375 Z M 224.03125 252.699219 L 223.835938 252.785156 C 223.84375 250.316406 223.796875 247.859375 223.789062 245.394531 C 223.796875 244.484375 223.640625 243.582031 223.734375 242.679688 C 223.964844 243.507812 223.917969 244.378906 223.957031 245.226562 C 223.964844 247.722656 224.097656 250.214844 224.03125 252.699219 Z M 224.953125 252.773438 C 224.972656 248.929688 225.035156 245.089844 225.007812 241.234375 C 225.007812 240.78125 224.980469 240.3125 225.046875 239.859375 L 225.289062 239.773438 C 225.289062 242.902344 225.257812 246.027344 225.324219 249.15625 C 225.316406 249.910156 225.296875 250.652344 225.304688 251.40625 L 225.09375 251.640625 C 225.15625 251.703125 225.25 251.722656 225.335938 251.703125 C 225.222656 252.066406 225.5 252.765625 224.953125 252.773438 Z M 226.179688 245.90625 L 225.996094 245.722656 C 226.003906 243.414062 225.9375 241.105469 226.023438 238.796875 C 226.292969 238.917969 226.171875 239.253906 226.207031 239.476562 C 226.199219 241.625 226.253906 243.777344 226.179688 245.90625 Z M 229.652344 250.8125 C 229.578125 250.542969 229.929688 250.421875 230.125 250.542969 C 230.320312 250.664062 229.765625 251.191406 229.652344 250.8125 Z M 229.660156 250.375 C 229.644531 249.9375 230.277344 250.074219 230.441406 250.308594 Z M 232.054688 247.109375 L 231.941406 247.089844 C 231.941406 247.03125 231.933594 246.921875 231.933594 246.867188 L 232.035156 246.820312 L 232.117188 246.957031 Z M 233.429688 244.148438 C 233.28125 244.484375 233.152344 244.816406 233.046875 245.171875 L 232.378906 245.253906 C 232.546875 245.359375 232.714844 245.441406 232.898438 245.507812 C 232.777344 245.617188 232.675781 245.75 232.613281 245.898438 C 232.507812 246.039062 232.472656 246.242188 232.324219 246.324219 C 232.183594 245.886719 232.378906 245.421875 232.332031 244.976562 L 231.960938 245.265625 L 232.164062 245.496094 C 231.753906 245.730469 232.472656 246.492188 231.632812 246.242188 C 231.664062 246.039062 231.691406 245.824219 231.867188 245.683594 L 231.363281 245.5625 C 231.484375 245.917969 231.410156 246.296875 231.53125 246.652344 C 231.269531 246.566406 230.992188 246.519531 230.714844 246.511719 C 230.789062 246.707031 230.945312 246.867188 231.140625 246.941406 C 230.628906 247.03125 230.9375 247.648438 230.917969 248 L 231.476562 247.945312 C 231.335938 247.871094 231.195312 247.796875 231.058594 247.742188 C 231.046875 247.628906 231.046875 247.40625 231.039062 247.292969 L 231.28125 247.292969 C 231.269531 247.125 231.242188 246.792969 231.234375 246.632812 L 231.578125 246.929688 L 231.800781 246.753906 L 231.558594 246.511719 L 231.914062 246.34375 L 232.25 246.558594 L 232.332031 246.652344 C 231.921875 246.660156 231.71875 247.042969 231.363281 247.183594 L 231.53125 247.621094 C 231.632812 247.480469 231.71875 247.332031 231.78125 247.171875 C 231.96875 247.5625 231.570312 247.871094 231.421875 248.195312 C 231.121094 248.175781 230.789062 248.09375 230.535156 248.335938 C 230.816406 248.382812 231.105469 248.390625 231.382812 248.34375 L 231.269531 248.585938 C 230.9375 248.4375 230.675781 248.511719 230.480469 248.808594 L 231.253906 248.707031 C 231.058594 249.0625 230.574219 248.96875 230.238281 248.96875 L 229.902344 249.230469 L 230.878906 249.257812 C 230.757812 249.453125 230.667969 249.648438 230.582031 249.863281 L 229.707031 249.863281 L 229.726562 249.621094 C 230.035156 249.621094 230.59375 249.84375 230.65625 249.398438 L 229.734375 249.398438 C 229.847656 249.109375 229.839844 248.800781 229.792969 248.503906 L 230.472656 248.539062 L 230.453125 248.296875 L 229.660156 248.222656 C 229.949219 248.027344 230.292969 248.140625 230.621094 248.160156 C 230.703125 247.5 230.609375 246.835938 230.722656 246.175781 C 230.683594 246.027344 230.65625 245.871094 230.648438 245.710938 L 231.105469 245.945312 L 231.226562 245.433594 L 230.609375 245.554688 C 230.804688 245.179688 230.675781 244.734375 230.722656 244.324219 L 230.925781 244.613281 L 230.757812 244.894531 L 231.226562 244.863281 L 231.105469 244.335938 C 231.410156 244.417969 231.390625 244.800781 231.679688 244.921875 C 231.542969 245.070312 231.316406 245.171875 231.335938 245.433594 C 231.652344 245.449219 231.820312 245.253906 231.914062 244.996094 C 231.765625 244.753906 231.765625 244.472656 231.765625 244.195312 C 231.511719 244.242188 231.226562 244.316406 231.011719 244.128906 L 230.703125 244.277344 L 230.703125 243.839844 L 231.105469 244.09375 L 231.148438 243.710938 C 231.316406 243.945312 231.578125 244.082031 231.859375 244.101562 L 231.738281 243.476562 L 231.859375 242.917969 C 231.625 242.984375 231.390625 243.070312 231.289062 243.300781 L 231.632812 243.515625 C 231.449219 243.859375 230.964844 243.496094 230.65625 243.597656 C 230.65625 243.523438 230.667969 243.375 230.675781 243.3125 L 231.253906 243.402344 L 231.113281 242.984375 C 230.964844 243.003906 230.824219 243.058594 230.703125 243.132812 L 230.636719 242.816406 C 230.898438 242.828125 231.289062 242.902344 231.214844 242.472656 L 230.648438 242.527344 L 230.675781 242.230469 L 230.9375 242.34375 C 231.132812 242.195312 231.390625 242.210938 231.605469 242.316406 L 231.894531 242.316406 L 231.78125 241.941406 C 231.449219 242.175781 231.03125 242.027344 230.65625 242.015625 C 230.65625 241.953125 230.65625 241.832031 230.65625 241.765625 C 230.910156 241.894531 231.085938 241.839844 231.179688 241.589844 C 231.09375 241.246094 230.816406 241.515625 230.636719 241.609375 C 230.730469 241.292969 230.730469 240.964844 230.648438 240.648438 C 230.953125 240.648438 231.269531 240.640625 231.578125 240.601562 C 231.410156 240.796875 231.300781 241.050781 231.269531 241.308594 C 231.753906 241.421875 231.886719 241.03125 231.71875 240.675781 L 231.921875 240.40625 C 231.511719 240.480469 231.09375 240.480469 230.683594 240.425781 C 230.722656 240.15625 230.722656 239.886719 230.675781 239.625 L 231.03125 239.785156 L 230.863281 240.222656 C 231.066406 240.175781 231.28125 240.191406 231.476562 240.269531 C 231.773438 240.464844 231.753906 240.035156 231.71875 239.875 C 231.511719 240.0625 231.300781 240.082031 231.074219 239.921875 C 231.179688 239.664062 231.1875 239.375 231.105469 239.105469 L 230.851562 239.140625 L 230.9375 239.476562 L 230.714844 239.476562 C 230.742188 239.273438 230.683594 239.046875 230.804688 238.871094 L 231.160156 238.972656 C 231.160156 238.695312 231.160156 238.425781 231.179688 238.144531 C 231.585938 238.292969 231.121094 238.984375 231.632812 239.039062 L 231.78125 238.527344 L 231.800781 238.816406 L 232.109375 238.816406 L 232.0625 239.542969 C 231.800781 239.429688 231.691406 239.113281 231.363281 239.152344 L 231.457031 239.8125 C 231.664062 239.765625 232.023438 239.449219 232.136719 239.792969 C 232.25 240.136719 231.867188 240.472656 232.203125 240.675781 C 232.082031 240.855469 231.96875 241.03125 231.875 241.21875 L 232.339844 241.199219 C 232.433594 240.660156 232.285156 240.089844 232.371094 239.542969 C 232.25 239.335938 232.75 239.039062 232.25 239.066406 L 232.398438 238.84375 L 232.898438 238.871094 C 232.917969 237.585938 232.871094 236.292969 232.945312 235.019531 C 233.125 234.636719 233.308594 235.128906 233.253906 235.308594 C 233.347656 238.128906 233.226562 240.945312 233.261719 243.765625 C 233.375 243.886719 233.558594 244.007812 233.429688 244.148438 Z M 230.910156 238.042969 C 230.945312 238.265625 230.972656 238.5 230.992188 238.722656 C 230.636719 238.648438 230.742188 238.257812 230.910156 238.042969 Z M 235.71875 238.210938 C 235.5625 235.976562 235.699219 233.726562 235.671875 231.492188 C 235.710938 229.667969 235.617188 227.835938 235.710938 226.019531 C 235.785156 226.179688 235.832031 226.347656 235.820312 226.523438 C 235.804688 229.136719 235.839844 231.753906 235.785156 234.359375 C 235.746094 235.660156 235.941406 236.953125 235.71875 238.210938 Z M 236.640625 233.6875 C 236.472656 234.617188 236.417969 235.605469 236.015625 236.472656 C 236 232.953125 236.035156 229.425781 235.988281 225.917969 C 235.050781 224.867188 234.082031 223.816406 233.046875 222.847656 C 233.003906 222.476562 233.113281 222.019531 232.777344 221.757812 C 232.730469 226.167969 232.722656 230.582031 232.769531 235 C 231.597656 236.144531 230.238281 237.148438 229.132812 238.351562 C 229.132812 240.433594 229.214844 242.527344 229.113281 244.613281 C 228.65625 244.53125 228.601562 244.976562 228.453125 245.285156 C 228.40625 240.148438 228.480469 235.011719 228.480469 229.871094 L 228.3125 229.84375 C 228.136719 231.828125 228.320312 233.820312 228.226562 235.800781 L 228.164062 236.003906 C 228.105469 234.210938 228.152344 232.414062 228.144531 230.617188 C 227.269531 231.371094 226.507812 232.246094 225.632812 233.007812 C 225.398438 233.167969 225.492188 233.472656 225.472656 233.714844 C 225.464844 235.308594 225.546875 236.90625 225.417969 238.507812 C 224.953125 238.628906 224.46875 238.703125 224.003906 238.816406 C 223.9375 239.484375 223.4375 239.96875 222.820312 240.175781 C 222.691406 240.675781 222.71875 241.207031 222.617188 241.71875 C 222.367188 240.929688 222.757812 240.128906 222.699219 239.320312 C 222.664062 235.558594 222.699219 231.800781 222.644531 228.050781 C 221.324219 226.699219 219.871094 225.5 218.550781 224.148438 C 218.375 221.050781 218.53125 217.914062 218.429688 214.816406 C 216.753906 213.019531 215.042969 211.261719 213.394531 209.445312 C 213.367188 208.960938 213.441406 208.480469 213.367188 207.996094 C 213.226562 207.789062 212.996094 207.667969 212.808594 207.511719 C 212.863281 217.367188 212.808594 227.222656 212.800781 237.085938 L 212.574219 237.390625 C 212.324219 237.214844 212.417969 236.871094 212.398438 236.609375 C 212.425781 235.492188 212.378906 234.367188 212.410156 233.25 C 212.378906 232.992188 212.519531 232.628906 212.203125 232.480469 C 212.410156 234.105469 212.0625 235.761719 212.316406 237.382812 L 211.941406 237.382812 C 212.128906 235.773438 211.960938 234.136719 212.09375 232.515625 C 211.589844 232.144531 211.097656 231.753906 210.566406 231.417969 C 210.042969 231.847656 209.496094 232.246094 208.929688 232.609375 C 208.945312 233.6875 208.890625 234.769531 208.984375 235.839844 C 209.1875 235.929688 209.578125 235.921875 209.523438 236.246094 C 209.597656 238.609375 209.503906 240.984375 209.496094 243.347656 L 209.867188 243.570312 C 209.664062 243.609375 209.457031 243.5625 209.289062 243.441406 C 209.320312 241.207031 209.347656 238.972656 209.335938 236.75 C 209.289062 236.574219 209.421875 236.023438 209.105469 236.15625 C 209.011719 238.414062 209.105469 240.6875 209.058594 242.957031 L 208.957031 242.976562 C 208.992188 240.628906 208.917969 238.292969 208.992188 235.949219 C 208.824219 235.605469 208.445312 235.4375 208.128906 235.261719 C 207.828125 235.820312 207.402344 236.292969 206.871094 236.636719 C 206.769531 237.800781 206.863281 238.984375 206.84375 240.15625 L 206.035156 240.667969 C 206.070312 237.765625 206.015625 234.871094 206.035156 231.964844 C 206.109375 231.390625 205.492188 231.128906 205.175781 230.765625 C 204.648438 230.1875 204.050781 229.667969 203.511719 229.089844 C 203.195312 228.820312 203.417969 228.289062 203.054688 228.050781 C 203.027344 232.238281 203.054688 236.414062 203.054688 240.601562 C 203.121094 240.902344 202.8125 240.890625 202.617188 240.890625 C 202.507812 238.238281 202.589844 235.585938 202.554688 232.925781 C 202.5625 229.164062 202.515625 225.414062 202.582031 221.65625 L 202.386719 221.65625 C 202.386719 221.953125 202.375 222.25 202.375 222.550781 C 201.59375 223.265625 200.914062 224.074219 200.152344 224.800781 C 199.964844 225.007812 199.714844 225.164062 199.601562 225.414062 C 199.59375 230.878906 199.613281 236.339844 199.585938 241.804688 L 199.046875 241.839844 C 199.054688 241.125 199.089844 240.40625 198.980469 239.699219 L 198.644531 239.617188 C 198.933594 241.382812 198.886719 243.179688 198.894531 244.976562 L 198.1875 244.996094 C 198.273438 244.640625 198.355469 244.289062 198.421875 243.933594 C 198.730469 244.074219 198.5625 244.464844 198.609375 244.726562 L 198.699219 244.726562 C 198.5625 243.71875 198.746094 242.695312 198.636719 241.683594 C 198.578125 242.398438 198.617188 243.125 198.589844 243.851562 L 198.367188 243.867188 C 198.414062 242.4375 198.449219 240.992188 198.441406 239.558594 C 198.429688 239.355469 198.421875 239.152344 198.414062 238.957031 C 197.464844 238.75 196.570312 238.371094 195.628906 238.128906 C 195.582031 239.375 195.59375 240.613281 195.601562 241.859375 C 195.59375 242.121094 195.609375 242.390625 195.519531 242.640625 C 195.332031 242.511719 195.164062 242.351562 194.996094 242.210938 C 194.726562 242.6875 194.585938 243.21875 194.335938 243.703125 C 193.546875 241.738281 191.933594 240.136719 191.574219 238.007812 C 191.46875 237.660156 191.851562 237.476562 192.039062 237.261719 C 192.828125 236.574219 193.5625 235.578125 193.378906 234.460938 C 193.191406 233.34375 192.371094 232.359375 191.414062 231.734375 C 191.648438 233.875 191.507812 236.042969 191.339844 238.183594 C 191.144531 240.808594 190.707031 243.414062 190.277344 246.007812 C 190.175781 246.625 189.992188 247.226562 189.886719 247.84375 C 190.929688 248.492188 191.953125 249.191406 193.023438 249.796875 C 193.515625 249.359375 194.132812 249.824219 194.597656 250.074219 C 195.40625 249.714844 196.28125 249.574219 197.128906 249.332031 L 196.773438 249.042969 L 197.183594 248.847656 L 196.773438 248.660156 C 196.96875 248.597656 197.191406 248.570312 197.296875 248.363281 L 196.773438 248.363281 C 196.996094 248.242188 197.117188 248.054688 197.015625 247.785156 L 197.203125 247.917969 L 196.867188 247.5 C 197.148438 247.460938 197.425781 247.480469 197.695312 247.5625 C 198.058594 247.582031 198.738281 247.339844 198.839844 247.84375 L 199.007812 247.804688 C 198.914062 247.925781 198.832031 248.054688 198.757812 248.1875 C 198.570312 248.019531 198.449219 248.167969 198.347656 248.328125 C 198.5625 248.316406 198.757812 248.417969 198.878906 248.597656 C 198.867188 248.726562 198.847656 248.976562 198.832031 249.109375 C 199.324219 249.277344 199.808594 249.035156 200.300781 249.023438 L 200.246094 248.53125 C 200.421875 248.316406 200.144531 248.011719 200.355469 247.84375 L 200.125 247.574219 L 200.925781 247.507812 L 200.191406 247.441406 L 200.191406 247.199219 C 200.460938 247.152344 200.738281 247.125 200.980469 247.015625 L 201.054688 246.988281 L 201.214844 246.921875 L 201.289062 246.882812 L 201.621094 246.867188 C 201.640625 246.519531 201.660156 245.664062 201.09375 245.972656 C 201.203125 245.675781 201.167969 245.359375 201.128906 245.050781 L 201.59375 245.097656 L 201.632812 244.773438 L 201.035156 244.789062 C 201.183594 244.632812 201.335938 244.484375 201.472656 244.324219 L 201.101562 244.464844 L 201.101562 244.140625 C 201.519531 244.046875 201.546875 244.417969 201.613281 244.714844 L 201.6875 244.183594 L 201.855469 244.128906 L 201.78125 244.667969 L 202.246094 244.605469 L 202.199219 244.847656 L 201.695312 244.753906 L 201.632812 245.097656 L 202.347656 245.050781 L 202.011719 245.386719 L 202.238281 245.421875 C 202.246094 245.582031 202.246094 245.75 202.253906 245.90625 L 201.894531 245.859375 L 202.171875 246.054688 L 202.003906 246.371094 L 202.328125 246.625 L 201.957031 246.707031 L 202.179688 246.753906 L 202.226562 246.929688 L 202.246094 247.003906 L 202.359375 247.433594 L 201.96875 247.339844 L 202.3125 247.535156 C 202.273438 247.992188 202.347656 248.4375 202.347656 248.894531 L 202.105469 248.921875 C 202.125 248.679688 202.152344 248.429688 202.179688 248.1875 L 202.050781 248.167969 C 202.070312 248.429688 202.089844 248.6875 202.117188 248.949219 L 201.546875 248.71875 L 201.445312 248.929688 C 202.144531 248.894531 202.609375 249.480469 203.046875 249.9375 C 203.585938 249.757812 204.164062 249.5 204.738281 249.65625 C 205.523438 249.871094 206.117188 250.46875 206.910156 250.679688 C 207.699219 250.894531 208.164062 251.417969 208.769531 251.824219 C 210.324219 252.246094 211.933594 252.429688 213.515625 252.71875 L 219.566406 253.695312 L 219.675781 254.03125 C 217.863281 253.84375 216.066406 253.464844 214.261719 253.238281 C 212.621094 253.027344 211.023438 252.589844 209.367188 252.523438 C 210.0625 252.878906 210.890625 253.0625 211.421875 253.675781 C 211.792969 254.179688 211.46875 254.804688 211.449219 255.363281 C 211.429688 255.921875 211.414062 256.570312 210.992188 257.007812 C 210.78125 256.003906 211.039062 254.972656 211.097656 253.976562 C 210.5 253.25 209.355469 253.371094 208.75 252.636719 C 208.144531 251.898438 207.53125 251.40625 206.667969 251.25 C 207.625 252.671875 208.371094 254.261719 208.65625 255.964844 C 209.28125 256.273438 209.820312 256.777344 210.554688 256.8125 C 210.5 257.148438 210.136719 257.167969 209.859375 257.167969 C 209.410156 257.167969 209.058594 256.871094 208.703125 256.65625 C 208.796875 256.980469 208.257812 257.277344 208.238281 256.824219 C 208.21875 256.367188 208.128906 255.640625 207.867188 255.101562 C 207.625 254.867188 207.234375 254.851562 206.992188 254.617188 C 206.191406 253.304688 204.777344 252.542969 203.753906 251.425781 C 202.945312 250.699219 202.320312 249.59375 201.15625 249.40625 C 199.996094 249.21875 198.867188 249.835938 197.863281 250.382812 C 197.082031 250.738281 196.273438 251.089844 195.703125 251.761719 C 195.136719 252.429688 194.617188 252.617188 194.140625 253.128906 C 194.523438 253.277344 194.921875 253.175781 195.3125 253.101562 C 195.851562 252.960938 196.421875 253.082031 196.960938 252.953125 C 196.617188 253.554688 196.347656 254.246094 195.816406 254.71875 C 195.628906 254.644531 195.460938 254.550781 195.292969 254.441406 C 195.519531 254.066406 195.742188 253.714844 195.972656 253.351562 C 194.617188 253.734375 193.359375 254.402344 192.140625 255.101562 C 192.289062 254.609375 192.613281 254.152344 192.585938 253.628906 C 191.898438 254.449219 190.957031 255.566406 191.496094 256.691406 C 191.878906 256.75 192.234375 256.589844 192.597656 256.535156 C 193.710938 256.433594 194.820312 256.703125 195.9375 256.609375 C 196.363281 256.609375 196.664062 256.171875 197.082031 256.191406 C 197.695312 256.496094 198.152344 257.027344 198.664062 257.464844 C 199.175781 257.902344 199.722656 258.394531 200.207031 258.925781 C 199.964844 258.898438 199.707031 258.90625 199.5 258.75 C 198.5625 258.117188 197.824219 257.242188 196.960938 256.515625 C 196.941406 256.71875 196.933594 256.933594 196.914062 257.140625 C 195.3125 257.242188 193.628906 256.488281 192.101562 257.25 C 191.554688 257.503906 190.949219 257.066406 190.855469 256.515625 C 190.789062 255.902344 190.875 255.277344 191.097656 254.699219 C 191.664062 252.941406 193.042969 251.640625 194.222656 250.289062 C 193.675781 250.132812 193.078125 250.261719 192.652344 250.632812 C 191.785156 251.371094 191.238281 252.382812 190.640625 253.332031 C 190.242188 254.03125 189.832031 254.757812 189.757812 255.566406 C 189.851562 256.050781 190.113281 256.488281 190.503906 256.792969 L 190.613281 256.199219 C 190.578125 256.515625 190.578125 256.824219 190.605469 257.140625 C 190.167969 257.15625 189.730469 257.15625 189.292969 257.140625 C 188.472656 256.535156 188.371094 255.332031 188.800781 254.46875 C 189.433594 253.195312 190.167969 251.957031 190.984375 250.792969 C 190.726562 250.753906 190.492188 250.652344 190.289062 250.484375 C 189.085938 249.582031 187.664062 249.003906 186.210938 248.679688 C 185.039062 248.4375 183.90625 248.066406 182.816406 247.582031 C 180.992188 246.773438 179.101562 246.128906 177.214844 245.480469 L 177.066406 245.320312 C 178.46875 245.496094 179.808594 245.972656 181.167969 246.382812 C 182.925781 247.015625 184.582031 247.945312 186.445312 248.269531 C 187.90625 248.53125 189.246094 249.210938 190.539062 249.925781 C 191.042969 250.226562 191.582031 250.429688 192.175781 250.390625 C 191.824219 250.867188 191.3125 251.210938 191.023438 251.734375 C 190.410156 252.738281 189.851562 253.769531 189.339844 254.832031 C 189.011719 255.519531 189.144531 256.597656 189.933594 256.898438 C 189.589844 256.238281 189.265625 255.492188 189.542969 254.738281 C 190.046875 253.667969 190.625 252.636719 191.265625 251.648438 C 191.535156 251.203125 191.980469 250.894531 192.214844 250.429688 L 192.625 250.121094 C 192.074219 249.878906 191.515625 249.648438 191.050781 249.265625 C 190.128906 248.492188 189.042969 247.964844 188.0625 247.285156 C 186.101562 246.09375 184.128906 244.894531 182.304688 243.476562 C 181.707031 242.964844 180.871094 242.660156 180.574219 241.878906 C 179.835938 240.269531 178.664062 238.871094 177.277344 237.78125 C 176.664062 237.28125 175.976562 236.871094 175.417969 236.304688 C 175.464844 234.589844 175.808594 232.898438 175.761719 231.175781 C 175.78125 230.1875 175.539062 229.238281 175.304688 228.289062 C 175.472656 228.273438 175.632812 228.367188 175.6875 228.523438 C 176.21875 229.492188 176.253906 230.625 176.246094 231.695312 C 177.957031 231.621094 179.726562 230.851562 180.722656 229.417969 C 181.511719 228.132812 181.484375 226.542969 181.28125 225.097656 C 180.722656 221.421875 179.445312 217.886719 177.539062 214.695312 C 176.132812 212.414062 174.367188 210.199219 171.898438 209.019531 C 169.722656 207.921875 167.042969 208.480469 165.105469 209.820312 C 163.859375 210.636719 162.949219 211.855469 162.101562 213.066406 C 160.917969 214.796875 159.90625 216.714844 159.570312 218.808594 C 159.234375 220.902344 159.394531 223.144531 159.785156 225.277344 C 160.089844 226.933594 160.601562 228.589844 161.550781 230.003906 C 161.933594 230.542969 162.25 231.136719 162.789062 231.539062 C 162.425781 230.449219 162.324219 229.296875 162.351562 228.152344 C 162.304688 228.011719 162.390625 227.863281 162.539062 227.816406 C 162.546875 227.816406 162.566406 227.808594 162.574219 227.808594 C 162.949219 231.324219 164.167969 234.703125 165.710938 237.867188 C 166.445312 239.449219 167.339844 240.992188 167.65625 242.734375 C 167.851562 243.765625 168.261719 244.835938 169.097656 245.515625 C 170.550781 246.289062 172.242188 246.308594 173.816406 246.625 C 174.066406 246.652344 174.292969 246.800781 174.402344 247.023438 C 173.238281 247.070312 172.085938 246.800781 170.949219 246.585938 C 170.121094 246.382812 169.257812 246.222656 168.539062 245.75 C 167.238281 244.324219 167.246094 242.277344 166.457031 240.601562 C 165.386719 238.285156 164.195312 236.023438 163.402344 233.59375 C 163.246094 233.1875 163.144531 232.738281 162.890625 232.375 C 161.90625 231.390625 161.132812 230.21875 160.613281 228.921875 C 160.546875 229.632812 160.761719 230.320312 160.855469 231.019531 C 161.039062 232.132812 161.09375 233.34375 161.792969 234.292969 C 162.492188 235.242188 162.976562 236.023438 163.414062 236.972656 C 164.0625 238.371094 165.132812 239.578125 165.46875 241.105469 C 165.804688 242.632812 165.609375 244.425781 165.320312 246.046875 C 165.03125 247.664062 165.460938 249.230469 164.957031 250.765625 C 164.734375 251.59375 164.167969 252.394531 163.300781 252.617188 C 162.796875 252.820312 162.074219 252.578125 161.765625 253.148438 C 161.5625 253.398438 161.589844 253.882812 161.1875 253.910156 C 161.226562 253.398438 161.441406 252.921875 161.792969 252.5625 C 161.542969 252.300781 161.179688 252.335938 160.855469 252.367188 L 160.796875 252.726562 C 160.796875 252.625 160.808594 252.429688 160.808594 252.328125 L 160.554688 252.289062 C 160.554688 252.410156 160.554688 252.652344 160.554688 252.773438 L 160.40625 252.746094 L 160.191406 252.652344 C 160.082031 252.726562 159.933594 252.71875 159.820312 252.644531 L 159.570312 252.800781 C 159.578125 252.503906 159.578125 252.199219 159.558594 251.898438 C 159.496094 252.160156 159.449219 252.429688 159.429688 252.699219 L 159.214844 252.71875 C 159.214844 252.664062 159.214844 252.542969 159.226562 252.476562 L 158.871094 252.746094 C 158.863281 251.554688 159.253906 250.390625 159.039062 249.191406 C 158.9375 249.851562 159.152344 250.550781 158.851562 251.183594 C 158.640625 250.46875 158.851562 249.695312 158.628906 248.988281 C 158.683594 249.488281 158.648438 249.992188 158.65625 250.496094 C 158.722656 250.71875 158.628906 250.933594 158.480469 251.089844 C 158.40625 248.4375 158.582031 245.796875 158.566406 243.152344 C 158.480469 242.753906 158.546875 242.34375 158.742188 241.988281 C 158.890625 243.542969 158.714844 245.105469 158.761719 246.660156 C 158.777344 247.171875 158.695312 247.675781 158.628906 248.175781 C 158.695312 247.964844 158.75 247.75 158.824219 247.535156 L 159.105469 247.601562 C 158.742188 247.433594 158.925781 246.976562 158.890625 246.671875 C 158.9375 246.066406 158.835938 245.433594 159.019531 244.855469 C 159.011719 244.109375 159.011719 243.367188 158.9375 242.621094 C 158.984375 242.417969 159.019531 242.210938 159.058594 242.007812 L 159.121094 242.417969 L 159.394531 242.035156 C 159.394531 242.15625 159.394531 242.40625 159.402344 242.527344 C 159.699219 242.519531 159.738281 242.222656 159.847656 242.015625 C 159.859375 242.183594 159.867188 242.527344 159.867188 242.695312 C 160.042969 242.558594 160.144531 242.34375 160.144531 242.121094 C 160.285156 242.15625 160.433594 242.167969 160.574219 242.128906 L 160.507812 242.519531 C 160.929688 242.5 160.816406 242.007812 160.863281 241.738281 C 160.855469 238.964844 160.898438 236.183594 160.796875 233.410156 C 159.523438 234.125 158.265625 234.859375 157.027344 235.625 C 157.039062 236.648438 157.039062 237.660156 157.046875 238.6875 C 156.757812 238.898438 156.332031 239.019531 156.164062 239.335938 C 156.152344 242.84375 156.117188 246.355469 156.136719 249.871094 C 156.117188 250.820312 156.191406 251.769531 156.109375 252.71875 L 155.875 252.8125 C 155.828125 246.082031 155.902344 239.355469 155.882812 232.628906 C 155.855469 232.414062 155.921875 232.171875 155.820312 231.976562 C 154.886719 230.898438 153.652344 230.097656 152.839844 228.914062 C 152.792969 232.765625 152.851562 236.609375 152.8125 240.453125 C 152.832031 242.210938 152.75 243.980469 152.878906 245.738281 C 152.152344 245.542969 151.410156 245.421875 150.664062 245.265625 C 150.664062 234.589844 150.625 223.917969 150.671875 213.253906 C 148.347656 215.199219 146.09375 217.226562 143.796875 219.199219 C 143.710938 222.550781 143.769531 225.917969 143.757812 229.269531 C 143.769531 233.363281 143.769531 237.457031 143.769531 241.5625 C 143.769531 242.316406 143.824219 243.058594 143.9375 243.804688 C 143.226562 241.523438 142.371094 239.28125 141.878906 236.9375 C 140.140625 229.871094 140.15625 222.410156 141.785156 215.335938 C 143.5625 207.398438 147.433594 199.953125 152.804688 193.851562 C 158.574219 187.207031 166.175781 182.160156 174.570312 179.492188 C 182.007812 177.144531 190.019531 176.625 197.6875 178.039062 C 204.050781 179.210938 210.195312 181.667969 215.542969 185.316406 C 220.589844 188.714844 224.941406 193.023438 228.40625 198.019531 C 232.144531 203.417969 234.882812 209.539062 236.210938 215.980469 C 237.421875 221.8125 237.570312 227.816406 236.640625 233.6875 Z M 212.136719 246.398438 L 212.035156 246.707031 C 212.640625 246.476562 213.292969 246.578125 213.925781 246.550781 C 215.804688 246.585938 217.683594 246.53125 219.566406 246.578125 C 217.480469 246.714844 215.386719 246.585938 213.300781 246.660156 L 213.011719 247.136719 C 212.566406 247.089844 212.128906 247.078125 211.683594 247.097656 C 211.429688 246.039062 211.5625 244.902344 211.5625 243.8125 C 211.691406 243.886719 211.839844 243.914062 211.988281 243.898438 C 211.972656 242.863281 212.0625 241.832031 211.980469 240.796875 L 211.8125 240.824219 C 211.785156 241.664062 211.851562 242.5 211.792969 243.347656 C 211.730469 242.453125 211.730469 241.570312 211.785156 240.675781 L 211.878906 240.585938 L 212 240.480469 C 211.785156 240.453125 211.578125 240.332031 211.460938 240.15625 C 214.222656 240.117188 216.976562 239.96875 219.742188 239.867188 L 219.628906 240.175781 C 218.960938 240.269531 218.289062 240.25 217.609375 240.269531 C 215.796875 240.285156 213.980469 240.472656 212.15625 240.417969 C 212.101562 242.40625 212.074219 244.398438 212.136719 246.398438 Z M 217.984375 215.328125 L 218.195312 215.152344 C 218.28125 218.472656 218.179688 221.796875 218.289062 225.109375 C 218.316406 228.605469 218.34375 232.097656 218.28125 235.597656 L 218.011719 235.792969 C 217.984375 228.96875 218.039062 222.148438 217.984375 215.328125 Z M 219.675781 236.703125 C 218.417969 237.011719 217.097656 236.925781 215.824219 237.085938 C 215.097656 237.179688 214.34375 237.140625 213.644531 237.375 C 213.488281 238.082031 212.5 237.941406 212.046875 237.652344 C 212.546875 237.464844 213.042969 237.253906 213.582031 237.214844 C 215.601562 236.953125 217.636719 236.878906 219.667969 236.703125 Z M 219.488281 238.925781 L 219.488281 239.242188 C 218.753906 239.179688 218.019531 239.320312 217.285156 239.402344 C 217.964844 239.046875 218.765625 239.160156 219.488281 238.925781 Z M 213.46875 239.105469 C 212.769531 239.152344 212.074219 239.199219 211.375 239.207031 C 212.027344 238.972656 212.78125 239.003906 213.46875 239.105469 Z M 210.675781 248.214844 C 211.21875 248.058594 211.792969 248.148438 212.351562 248.207031 C 211.792969 248.261719 211.226562 248.269531 210.675781 248.214844 Z M 212.996094 248.503906 C 212.269531 248.570312 211.542969 248.578125 210.816406 248.539062 C 211.515625 248.355469 212.269531 248.503906 212.996094 248.503906 Z M 219.472656 249.535156 L 219.40625 249.796875 C 216.828125 249.789062 214.25 249.507812 211.664062 249.441406 C 211.355469 249.40625 210.964844 249.480469 210.742188 249.210938 C 213.65625 249.191406 216.558594 249.519531 219.472656 249.535156 Z M 217.078125 248.941406 C 217.816406 248.699219 218.605469 248.855469 219.367188 248.773438 L 219.324219 248.988281 C 218.570312 248.886719 217.816406 248.949219 217.078125 248.941406 Z M 207.949219 249.535156 L 207.699219 249.648438 C 207.707031 247.3125 207.71875 244.976562 207.691406 242.640625 L 207.941406 242.753906 C 208.007812 245.003906 207.902344 247.273438 207.949219 249.535156 Z M 206.84375 242.929688 C 207 242.996094 207.113281 243.152344 207.121094 243.328125 C 207.1875 245.394531 207.058594 247.480469 207.160156 249.546875 L 206.863281 249.546875 C 206.890625 247.347656 206.824219 245.132812 206.84375 242.929688 Z M 206.277344 249.238281 L 206.472656 249.59375 C 206.191406 249.5625 206.082031 249.332031 206.109375 249.082031 C 206.164062 246.671875 206.042969 244.25 206.144531 241.839844 C 206.472656 242 206.292969 242.40625 206.339844 242.6875 C 206.351562 244.539062 206.285156 246.390625 206.359375 248.242188 L 206.425781 248.296875 L 206.59375 248.214844 C 206.636719 246.949219 206.5625 245.683594 206.65625 244.425781 C 206.683594 245.917969 206.757812 247.414062 206.636719 248.894531 C 206.628906 249.023438 206.59375 249.144531 206.519531 249.257812 C 206.519531 249.023438 206.480469 248.800781 206.398438 248.585938 C 206.125 248.660156 206.332031 249.042969 206.277344 249.238281 Z M 205.660156 231.511719 L 205.855469 231.695312 C 205.808594 234.722656 205.949219 237.746094 205.886719 240.769531 L 205.699219 240.554688 C 205.71875 237.539062 205.652344 234.527344 205.660156 231.511719 Z M 203.867188 248.464844 C 204.164062 248.492188 204.5 248.476562 204.367188 248.066406 L 203.957031 248.242188 C 203.976562 247.980469 204.292969 248.019531 204.460938 247.925781 C 204.460938 248.175781 204.460938 248.429688 204.460938 248.679688 L 203.613281 248.632812 C 203.773438 248.027344 203.640625 247.414062 203.625 246.800781 C 204.023438 246.652344 203.308594 245.960938 203.902344 246.113281 C 203.976562 246.316406 203.957031 246.550781 203.988281 246.773438 C 204.171875 246.753906 204.433594 246.625 204.460938 246.910156 L 203.921875 246.941406 L 203.882812 247.109375 L 204.480469 247.125 C 204.5 247.414062 204.515625 248.269531 204.078125 247.757812 L 204.050781 247.703125 L 203.957031 247.3125 L 203.753906 247.386719 C 203.996094 247.710938 203.867188 248.113281 203.867188 248.464844 Z M 203.566406 244.324219 L 204.042969 244.195312 L 203.714844 244.0625 C 203.78125 243.953125 203.875 243.859375 203.976562 243.792969 L 203.550781 243.792969 C 203.566406 243.617188 203.625 243.28125 203.640625 243.105469 L 204.042969 243.105469 L 203.578125 243.039062 L 203.578125 242.816406 L 204.0625 242.816406 C 203.835938 242.828125 203.632812 242.714844 203.503906 242.539062 C 203.820312 242.472656 204.144531 242.371094 204.460938 242.5 C 204.421875 242.808594 204.394531 243.125 204.367188 243.429688 C 204.339844 243.738281 204.367188 244.183594 204.386719 244.558594 L 203.78125 244.539062 C 203.882812 244.855469 204.285156 244.511719 204.421875 244.800781 C 204.5625 245.089844 203.949219 245.199219 204.394531 245.3125 C 204.339844 245.757812 204.480469 246.234375 204.304688 246.652344 L 204.097656 246.625 C 204.015625 246.25 204.117188 245.871094 204.136719 245.496094 L 203.941406 245.90625 L 203.957031 246.027344 L 203.835938 246.101562 L 203.679688 245.917969 L 203.550781 245.960938 C 203.605469 245.421875 203.613281 244.875 203.566406 244.324219 Z M 203.566406 241.894531 L 203.882812 241.691406 L 203.855469 242.222656 L 204.003906 242.222656 C 203.976562 241.792969 203.875 241.355469 204.023438 240.945312 L 204.152344 240.945312 L 204.117188 241.476562 L 204.488281 241.300781 L 204.488281 241.636719 L 204.136719 241.550781 L 204.164062 241.859375 L 204.5 241.773438 L 204.460938 242.035156 L 204.089844 242.15625 L 204.5 242.210938 L 204.5 242.324219 C 204.171875 242.316406 203.855469 242.316406 203.53125 242.324219 L 203.800781 242.128906 Z M 203.6875 241.21875 C 203.464844 241.1875 203.59375 240.824219 203.773438 240.824219 C 203.949219 240.824219 203.902344 241.234375 203.6875 241.21875 Z M 203.613281 241.414062 C 204.042969 241.078125 203.6875 241.960938 203.613281 241.414062 Z M 204.332031 240.9375 C 204.851562 240.992188 204.070312 241.421875 204.332031 240.9375 Z M 202.226562 244.605469 L 202.105469 244.605469 C 202.117188 243.589844 202.125 242.574219 202.117188 241.570312 C 202.125 241.199219 202.03125 240.808594 202.171875 240.453125 C 202.320312 241.820312 202.191406 243.21875 202.226562 244.605469 Z M 201.695312 243.945312 C 201.742188 243.246094 201.726562 242.546875 201.632812 241.859375 L 201.566406 241.757812 C 201.511719 242.472656 201.742188 243.273438 201.457031 243.925781 C 201.4375 243.171875 201.5 242.40625 201.5 241.652344 L 201.457031 241.570312 C 201.4375 241.171875 201.425781 240.75 201.621094 240.378906 C 202.152344 240.546875 201.984375 241.132812 201.996094 241.5625 C 201.984375 242.34375 201.996094 243.132812 201.976562 243.925781 L 201.707031 243.925781 Z M 200.515625 246.605469 C 200.777344 246.550781 201.304688 246.4375 201.464844 246.671875 C 201.230469 246.800781 200.65625 246.855469 200.515625 246.605469 Z M 200.535156 246.976562 C 201.027344 246.726562 200.550781 247.5 200.535156 246.976562 Z M 200.386719 246.289062 C 200.710938 246.222656 201.101562 246.09375 201.417969 246.214844 C 201.296875 246.503906 200.570312 246.445312 200.386719 246.289062 Z M 200.953125 246.019531 C 200.738281 246.148438 200.476562 246.195312 200.234375 246.140625 L 200.402344 245.796875 C 200.023438 245.320312 200.5625 244.835938 201.0625 244.949219 C 201.054688 245.300781 201.222656 245.722656 200.953125 246.019531 Z M 200.402344 244.605469 C 200.636719 244.519531 200.703125 244.59375 200.597656 244.828125 C 200.367188 244.902344 200.300781 244.828125 200.402344 244.605469 Z M 200.496094 244.269531 C 200.90625 244.046875 201.175781 244.539062 200.898438 244.847656 C 200.804688 244.761719 200.746094 244.640625 200.730469 244.519531 C 200.671875 244.398438 200.199219 244.390625 200.496094 244.269531 Z M 200.246094 244.054688 C 200.414062 243.867188 200.664062 243.933594 200.886719 243.898438 L 200.988281 243.535156 L 201.046875 243.953125 C 201.34375 243.851562 201.539062 243.925781 201.632812 244.15625 C 201.175781 244.09375 200.710938 244.054688 200.246094 244.054688 Z M 200.386719 243.550781 C 200.617188 243.449219 200.683594 243.523438 200.582031 243.757812 C 200.355469 243.851562 200.292969 243.777344 200.386719 243.550781 Z M 198.90625 245.386719 C 198.738281 245.925781 198.832031 246.503906 198.878906 247.050781 C 198.691406 246.894531 198.394531 246.910156 198.457031 247.210938 L 198.765625 247.441406 L 197.824219 247.441406 C 197.863281 247.246094 197.890625 247.042969 197.917969 246.847656 C 197.621094 246.941406 197.332031 247.070312 197.042969 247.171875 C 197.082031 246.699219 197.082031 246.222656 197.042969 245.75 L 198.03125 245.796875 L 197.945312 245.496094 C 197.574219 245.507812 197.191406 245.542969 196.820312 245.496094 C 197.15625 245.292969 197.554688 245.273438 197.945312 245.359375 C 198.058594 244.566406 197.855469 243.738281 198.039062 242.964844 C 198.058594 243.691406 198.125 244.425781 198.160156 245.152344 L 198.914062 245.117188 L 198.886719 245.285156 C 198.597656 245.300781 198.300781 245.292969 198.011719 245.253906 L 197.984375 245.496094 C 198.292969 245.480469 198.597656 245.441406 198.90625 245.386719 Z M 197.546875 247.40625 C 197.425781 247.515625 197.027344 247.5625 197.042969 247.332031 C 197.0625 247.097656 197.574219 247.164062 197.546875 247.40625 Z M 177.140625 227.929688 L 176.90625 228.105469 C 176.023438 227.144531 174.820312 226.542969 173.613281 226.113281 C 170.09375 224.875 166.09375 224.855469 162.632812 226.289062 C 162.285156 226.402344 161.804688 226.53125 161.570312 226.167969 C 160.808594 225.144531 160.722656 223.785156 160.667969 222.558594 C 160.554688 220.175781 161.382812 217.839844 162.621094 215.839844 C 163.253906 214.714844 163.972656 213.597656 164.976562 212.757812 C 166.613281 211.363281 168.753906 210.40625 170.941406 210.574219 C 172.207031 210.664062 173.238281 211.539062 174.003906 212.488281 C 174.765625 213.4375 175.210938 214.339844 175.808594 215.273438 C 177.242188 217.503906 177.957031 220.242188 177.632812 222.882812 C 177.511719 223.90625 177.066406 224.847656 176.730469 225.816406 C 176.515625 226.550781 176.859375 227.265625 177.140625 227.929688 Z M 177.140625 227.929688 " fill-opacity="1" fill-rule="nonzero"/></g><path fill="#545454" d="M 198.71875 246.027344 L 198.367188 245.945312 C 198.292969 245.859375 198.28125 245.367188 198.160156 245.691406 C 198.160156 245.824219 198.160156 246.066406 198.160156 246.195312 C 198.308594 246.289062 198.664062 246.214844 198.71875 246.027344 Z M 198.71875 246.027344 " fill-opacity="1" fill-rule="nonzero"/><path fill="#545454" d="M 198.476562 246.371094 C 198.503906 246.910156 198.953125 246.09375 198.476562 246.371094 Z M 198.476562 246.371094 " fill-opacity="1" fill-rule="nonzero"/><path fill="#545454" d="M 197.546875 245.945312 L 197.546875 246.074219 L 197.796875 246.074219 L 197.796875 245.953125 L 197.546875 245.953125 Z M 197.546875 245.945312 " fill-opacity="1" fill-rule="nonzero"/><path fill="#545454" d="M 197.546875 246.261719 C 197.574219 246.773438 198.066406 246.039062 197.546875 246.261719 Z M 197.546875 246.261719 " fill-opacity="1" fill-rule="nonzero"/><path fill="#545454" d="M 181.558594 228.792969 C 180.664062 230.839844 178.394531 232.058594 176.226562 232.125 C 176.226562 233.503906 175.984375 234.859375 175.875 236.238281 C 177.351562 236.984375 178.5625 238.136719 179.679688 239.328125 C 179.847656 238.453125 180.183594 237.625 180.394531 236.757812 C 181.101562 234.164062 181.4375 231.484375 181.558594 228.792969 Z M 181.558594 228.792969 " fill-opacity="1" fill-rule="nonzero"/><path fill="#545454" d="M 160.816406 247.601562 L 160.84375 247.554688 L 160.777344 247.609375 Z M 160.816406 247.601562 " fill-opacity="1" fill-rule="nonzero"/><path fill="#545454" d="M 198.757812 248.585938 C 198.5625 248.503906 198.347656 248.511719 198.160156 248.605469 L 198.125 248.671875 C 198.300781 248.765625 198.644531 248.828125 198.757812 248.585938 Z M 198.757812 248.585938 " fill-opacity="1" fill-rule="nonzero"/><path fill="#545454" d="M 161.292969 250.828125 L 161.367188 250.585938 L 160.871094 250.53125 C 160.917969 250.71875 161.09375 250.847656 161.292969 250.828125 Z M 161.292969 250.828125 " fill-opacity="1" fill-rule="nonzero"/><path fill="#545454" d="M 161.953125 243.703125 C 161.886719 243.945312 161.820312 244.183594 161.738281 244.425781 L 162.015625 244.546875 L 161.410156 244.652344 L 161.867188 244.734375 L 161.90625 244.929688 C 161.496094 244.910156 161.085938 244.9375 160.6875 245.011719 C 161.125 245.105469 161.652344 244.929688 162.027344 245.253906 C 161.609375 245.285156 161.199219 245.285156 160.777344 245.292969 L 161.085938 245.449219 L 161.335938 245.414062 L 161.886719 245.347656 L 161.867188 245.675781 C 161.914062 246.234375 161.925781 246.792969 161.878906 247.347656 L 161.878906 247.441406 C 161.925781 248.484375 162.015625 249.582031 161.757812 250.597656 C 161.746094 250.902344 161.691406 251.21875 161.804688 251.519531 L 161.960938 251.84375 L 161.488281 251.824219 L 161.589844 251.972656 L 161.867188 252.066406 L 162.007812 252.382812 C 162.621094 252.289062 163.339844 252.355469 163.8125 251.871094 C 164.5 251.183594 164.707031 250.167969 164.742188 249.230469 C 164.726562 248.011719 164.652344 246.773438 164.863281 245.5625 C 165.144531 244.054688 165.125 242.5 164.976562 240.976562 L 164.816406 240.976562 C 164.882812 242.25 164.835938 243.535156 164.835938 244.816406 L 164.679688 244.613281 C 164.605469 243.421875 164.6875 242.230469 164.632812 241.039062 L 164.800781 240.761719 C 164.660156 239.71875 163.914062 238.925781 163.402344 238.054688 C 163.058594 237.390625 162.203125 237.558594 161.597656 237.410156 C 161.570312 239.449219 161.5625 241.476562 161.570312 243.515625 Z M 161.953125 243.703125 " fill-opacity="1" fill-rule="nonzero"/><path fill="#545454" d="M 159.511719 246.242188 C 159.308594 246.289062 159.335938 246.632812 159.421875 246.78125 C 159.664062 246.808594 159.652344 246.355469 159.511719 246.242188 Z M 159.511719 246.242188 " fill-opacity="1" fill-rule="nonzero"/><path fill="#545454" d="M 161.625 251.398438 L 161.550781 251.378906 L 161.597656 251.472656 Z M 161.625 251.398438 " fill-opacity="1" fill-rule="nonzero"/><path fill="#545454" d="M 159.503906 249.433594 C 159.53125 249.777344 159.53125 250.113281 159.503906 250.457031 C 159.839844 250.335938 159.839844 249.554688 159.503906 249.433594 Z M 159.503906 249.433594 " fill-opacity="1" fill-rule="nonzero"/><path fill="#545454" d="M 159.496094 247.097656 L 159.28125 247.332031 C 159.410156 247.589844 159.765625 247.210938 159.496094 247.097656 Z M 159.496094 247.097656 " fill-opacity="1" fill-rule="nonzero"/><path fill="#545454" d="M 159.671875 247.441406 L 159.691406 247.695312 C 159.820312 247.75 159.980469 247.683594 160.027344 247.542969 C 160.035156 247.527344 160.035156 247.507812 160.042969 247.5 C 160.082031 247.246094 159.726562 247.238281 159.671875 247.441406 Z M 159.671875 247.441406 " fill-opacity="1" fill-rule="nonzero"/><path fill="#545454" d="M 204.378906 251.460938 C 204.898438 251.230469 205.457031 251.117188 205.996094 250.949219 C 205.671875 250.71875 205.355469 250.4375 204.964844 250.328125 C 204.574219 250.214844 203.882812 250.363281 203.355469 250.402344 C 203.613281 250.828125 203.976562 251.164062 204.378906 251.460938 Z M 204.378906 251.460938 " fill-opacity="1" fill-rule="nonzero"/><path fill="#545454" d="M 201.96875 245.757812 L 201.773438 245.628906 C 201.773438 245.691406 201.761719 245.832031 201.761719 245.898438 L 201.855469 245.878906 Z M 201.96875 245.757812 " fill-opacity="1" fill-rule="nonzero"/><path fill="#545454" d="M 161.515625 249.191406 L 161.609375 249.21875 L 161.550781 249.097656 Z M 161.515625 249.191406 " fill-opacity="1" fill-rule="nonzero"/><path fill="#545454" d="M 201.742188 248.503906 C 201.902344 248.335938 201.863281 248.242188 201.613281 248.222656 C 201.457031 248.382812 201.492188 248.476562 201.742188 248.503906 Z M 201.742188 248.503906 " fill-opacity="1" fill-rule="nonzero"/><path fill="#545454" d="M 201.417969 245.601562 C 201.175781 246.074219 201.96875 245.628906 201.417969 245.601562 Z M 201.417969 245.601562 " fill-opacity="1" fill-rule="nonzero"/><path fill="#545454" d="M 160.734375 243.339844 C 160.929688 243.292969 161.125 243.253906 161.328125 243.226562 C 161.320312 243.023438 161.335938 242.816406 161.382812 242.613281 L 160.855469 242.789062 C 160.789062 242.964844 160.769531 243.152344 160.734375 243.339844 Z M 160.734375 243.339844 " fill-opacity="1" fill-rule="nonzero"/><path fill="#545454" d="M 204.722656 251.648438 C 205.410156 252.375 206.246094 252.941406 206.917969 253.675781 C 207.167969 253.957031 207.308594 254.414062 207.753906 254.382812 C 207.375 253.40625 206.945312 252.382812 206.21875 251.613281 C 205.71875 251.554688 205.214844 251.574219 204.722656 251.648438 Z M 204.722656 251.648438 " fill-opacity="1" fill-rule="nonzero"/><path fill="#545454" d="M 161.292969 242.464844 L 161.292969 242.363281 C 160.824219 242.089844 160.84375 242.863281 161.292969 242.464844 Z M 161.292969 242.464844 " fill-opacity="1" fill-rule="nonzero"/></svg>