<svg xmlns="http://www.w3.org/2000/svg" xmlns:xlink="http://www.w3.org/1999/xlink" width="486" zoomAndPan="magnify" viewBox="0 0 364.5 98.249997" height="131" preserveAspectRatio="xMidYMid meet" version="1.0"><defs><g/><clipPath id="554e10c28b"><path d="M 8 56 L 17 56 L 17 92.070312 L 8 92.070312 Z M 8 56 " clip-rule="nonzero"/></clipPath><clipPath id="e51e23443b"><path d="M 1.132812 16.894531 L 76.308594 16.894531 L 76.308594 92.070312 L 1.132812 92.070312 Z M 1.132812 16.894531 " clip-rule="nonzero"/></clipPath><clipPath id="d28cd896f1"><path d="M 61 56 L 69 56 L 69 92.070312 L 61 92.070312 Z M 61 56 " clip-rule="nonzero"/></clipPath><clipPath id="e4ad21742c"><path d="M 29.292969 52.839844 L 48.148438 52.839844 L 48.148438 71.691406 L 29.292969 71.691406 Z M 29.292969 52.839844 " clip-rule="nonzero"/></clipPath><clipPath id="e066a82f28"><path d="M 38.71875 52.839844 C 33.515625 52.839844 29.292969 57.058594 29.292969 62.265625 C 29.292969 67.472656 33.515625 71.691406 38.71875 71.691406 C 43.925781 71.691406 48.148438 67.472656 48.148438 62.265625 C 48.148438 57.058594 43.925781 52.839844 38.71875 52.839844 Z M 38.71875 52.839844 " clip-rule="nonzero"/></clipPath><clipPath id="b156b971df"><path d="M 56.050781 53.085938 L 76.308594 53.085938 L 76.308594 60.101562 L 56.050781 60.101562 Z M 56.050781 53.085938 " clip-rule="nonzero"/></clipPath><clipPath id="e65287166e"><path d="M 1.132812 53.085938 L 21.242188 53.085938 L 21.242188 60.101562 L 1.132812 60.101562 Z M 1.132812 53.085938 " clip-rule="nonzero"/></clipPath><clipPath id="62ac40ee07"><path d="M 16.050781 27.921875 L 24.085938 27.921875 L 24.085938 44.125 L 16.050781 44.125 Z M 16.050781 27.921875 " clip-rule="nonzero"/></clipPath><clipPath id="af50c8cc7c"><path d="M 29.210938 52.628906 L 48.242188 52.628906 L 48.242188 71.625 L 29.210938 71.625 Z M 29.210938 52.628906 " clip-rule="nonzero"/></clipPath></defs><g clip-path="url(#554e10c28b)"><path stroke-linecap="butt" transform="matrix(0, 0.150352, -0.150352, 0, 16.167652, 60.101326)" fill="none" stroke-linejoin="miter" d="M 0.00157245 24.991285 L 187.555921 24.991285 " stroke="#545454" stroke-width="50" stroke-opacity="1" stroke-miterlimit="4"/></g><g clip-path="url(#e51e23443b)"><path stroke-linecap="butt" transform="matrix(-0.111453, 0.100917, -0.100917, -0.111453, 43.90657, 27.335123)" fill="none" stroke-linejoin="miter" d="M -0.00449191 25.013296 L 310.185916 25.001497 " stroke="#545454" stroke-width="50" stroke-opacity="1" stroke-miterlimit="4"/><path stroke-linecap="butt" transform="matrix(0.110865, 0.101562, -0.101562, 0.110865, 39.044912, 21.777084)" fill="none" stroke-linejoin="miter" d="M 0.00127366 24.982301 L 307.624725 25.012819 " stroke="#545454" stroke-width="50" stroke-opacity="1" stroke-miterlimit="4"/></g><g clip-path="url(#d28cd896f1)"><path stroke-linecap="butt" transform="matrix(0.000000000262415, 0.150352, -0.150352, 0.000000000262415, 68.790932, 60.101326)" fill="none" stroke-linejoin="miter" d="M 0.00157241 25.005827 L 187.555921 25.005827 " stroke="#545454" stroke-width="50" stroke-opacity="1" stroke-miterlimit="4"/></g><path stroke-linecap="butt" transform="matrix(-0.150352, 0, 0, -0.150352, 66.078037, 64.446072)" fill="none" stroke-linejoin="miter" d="M -0.000585784 14.502255 L 164.560883 14.502255 " stroke="#545454" stroke-width="29" stroke-opacity="1" stroke-miterlimit="4"/><path stroke-linecap="butt" transform="matrix(-0.150352, 0, 0, -0.150352, 61.627634, 88.312808)" fill="none" stroke-linejoin="miter" d="M -0.00846317 24.995436 L 303.13382 24.995436 " stroke="#545454" stroke-width="50" stroke-opacity="1" stroke-miterlimit="4"/><g clip-path="url(#e4ad21742c)"><g clip-path="url(#e066a82f28)"><path fill="#ffc107" d="M 29.292969 52.839844 L 48.148438 52.839844 L 48.148438 71.691406 L 29.292969 71.691406 Z M 29.292969 52.839844 " fill-opacity="1" fill-rule="nonzero"/></g></g><g clip-path="url(#b156b971df)"><path fill="#ffffff" d="M 56.050781 53.085938 L 76.359375 53.085938 L 76.359375 60.101562 L 56.050781 60.101562 Z M 56.050781 53.085938 " fill-opacity="1" fill-rule="nonzero"/></g><g clip-path="url(#e65287166e)"><path fill="#ffffff" d="M 0.929688 53.085938 L 21.238281 53.085938 L 21.238281 60.101562 L 0.929688 60.101562 Z M 0.929688 53.085938 " fill-opacity="1" fill-rule="nonzero"/></g><g clip-path="url(#62ac40ee07)"><path fill="#545454" d="M 16.050781 27.921875 L 24.085938 27.921875 L 24.085938 44.113281 L 16.050781 44.113281 Z M 16.050781 27.921875 " fill-opacity="1" fill-rule="nonzero"/></g><path fill="#545454" d="M 46.839844 65.09375 L 46.753906 65.164062 C 46.78125 65.191406 46.816406 65.210938 46.855469 65.214844 C 46.851562 65.175781 46.847656 65.136719 46.839844 65.09375 Z M 46.839844 65.09375 " fill-opacity="1" fill-rule="nonzero"/><path fill="#545454" d="M 46.761719 65.25 L 46.8125 65.300781 C 46.730469 65.335938 46.789062 65.394531 46.84375 65.414062 C 46.792969 65.410156 46.765625 65.433594 46.753906 65.476562 L 46.835938 65.558594 L 46.765625 65.550781 C 46.777344 65.585938 46.792969 65.625 46.8125 65.660156 L 46.757812 65.742188 L 46.828125 65.78125 C 46.867188 65.6875 46.835938 65.582031 46.84375 65.484375 C 46.84375 65.425781 46.863281 65.363281 46.839844 65.308594 L 46.882812 65.253906 L 46.765625 65.253906 Z M 46.761719 65.25 " fill-opacity="1" fill-rule="nonzero"/><path fill="#545454" d="M 46.898438 65.242188 C 46.894531 65.285156 46.894531 65.328125 46.898438 65.371094 L 46.988281 65.371094 C 47 65.308594 46.960938 65.257812 46.898438 65.242188 Z M 46.898438 65.242188 " fill-opacity="1" fill-rule="nonzero"/><path fill="#545454" d="M 46.90625 65.535156 L 46.988281 65.519531 L 46.988281 65.414062 L 46.894531 65.40625 C 46.898438 65.492188 46.898438 65.578125 46.890625 65.664062 C 46.890625 65.714844 46.890625 65.765625 46.894531 65.816406 L 46.960938 65.792969 C 46.964844 65.757812 46.96875 65.722656 46.96875 65.691406 L 46.902344 65.691406 L 46.90625 65.667969 L 46.96875 65.652344 C 47.039062 65.601562 46.933594 65.566406 46.90625 65.535156 Z M 46.90625 65.535156 " fill-opacity="1" fill-rule="nonzero"/><path fill="#545454" d="M 46.898438 64.984375 C 46.996094 65.03125 46.960938 64.90625 46.972656 64.859375 C 46.917969 64.847656 46.875 64.867188 46.867188 64.933594 L 46.945312 64.917969 Z M 46.898438 64.984375 " fill-opacity="1" fill-rule="nonzero"/><path fill="#545454" d="M 46.925781 65.132812 C 46.839844 65.128906 46.925781 65.300781 46.980469 65.214844 C 47.023438 65.183594 46.964844 65.121094 46.925781 65.132812 Z M 46.925781 65.132812 " fill-opacity="1" fill-rule="nonzero"/><path fill="#545454" d="M 46.6875 65.125 C 46.632812 65.132812 46.644531 65.226562 46.699219 65.203125 C 46.757812 65.179688 46.746094 65.097656 46.6875 65.125 Z M 46.6875 65.125 " fill-opacity="1" fill-rule="nonzero"/><path fill="#545454" d="M 46.660156 65.335938 C 46.621094 65.378906 46.699219 65.421875 46.726562 65.378906 C 46.757812 65.339844 46.6875 65.285156 46.660156 65.335938 Z M 46.660156 65.335938 " fill-opacity="1" fill-rule="nonzero"/><path fill="#545454" d="M 46.597656 65.097656 C 46.632812 65.074219 46.632812 65.046875 46.601562 65.019531 C 46.550781 65.042969 46.546875 65.070312 46.597656 65.097656 Z M 46.597656 65.097656 " fill-opacity="1" fill-rule="nonzero"/><path fill="#545454" d="M 46.554688 65.808594 C 46.542969 65.855469 46.558594 65.871094 46.609375 65.855469 C 46.621094 65.804688 46.605469 65.789062 46.554688 65.808594 Z M 46.554688 65.808594 " fill-opacity="1" fill-rule="nonzero"/><path fill="#545454" d="M 46.570312 65.996094 C 46.550781 66.046875 46.566406 66.066406 46.613281 66.050781 C 46.628906 66 46.613281 65.980469 46.570312 65.996094 Z M 46.570312 65.996094 " fill-opacity="1" fill-rule="nonzero"/><path fill="#545454" d="M 46.90625 65.035156 C 46.875 65.078125 46.957031 65.105469 46.984375 65.078125 C 47.015625 65.050781 46.9375 65.007812 46.90625 65.035156 Z M 46.90625 65.035156 " fill-opacity="1" fill-rule="nonzero"/><path fill="#545454" d="M 46.382812 66.46875 L 46.382812 66.484375 L 46.472656 66.484375 L 46.472656 66.46875 Z M 46.382812 66.46875 " fill-opacity="1" fill-rule="nonzero"/><path fill="#545454" d="M 46.941406 64.828125 C 46.996094 64.804688 46.96875 64.75 46.96875 64.707031 L 46.890625 64.710938 C 46.867188 64.75 46.878906 64.796875 46.917969 64.816406 C 46.925781 64.820312 46.933594 64.824219 46.941406 64.828125 Z M 46.941406 64.828125 " fill-opacity="1" fill-rule="nonzero"/><path fill="#545454" d="M 33.558594 65.527344 C 33.554688 65.46875 33.484375 65.503906 33.449219 65.5 C 33.453125 65.554688 33.460938 65.609375 33.449219 65.660156 L 33.457031 65.667969 C 33.488281 65.625 33.53125 65.597656 33.574219 65.566406 L 33.464844 65.550781 C 33.496094 65.542969 33.527344 65.535156 33.558594 65.527344 Z M 33.558594 65.527344 " fill-opacity="1" fill-rule="nonzero"/><path fill="#545454" d="M 36.898438 55.949219 C 36.855469 56.160156 36.738281 56.359375 36.753906 56.578125 C 36.816406 56.734375 37.046875 56.710938 37.144531 56.605469 C 37.320312 56.417969 37.355469 56.132812 37.566406 55.976562 C 37.628906 55.921875 37.714844 55.910156 37.792969 55.894531 C 37.683594 55.789062 37.558594 55.707031 37.417969 55.648438 C 37.320312 55.734375 37.207031 55.792969 37.082031 55.824219 C 37.011719 55.851562 36.910156 55.859375 36.898438 55.949219 Z M 36.898438 55.949219 " fill-opacity="1" fill-rule="nonzero"/><path fill="#545454" d="M 43.011719 65.714844 C 43.023438 65.675781 43.015625 65.644531 42.980469 65.632812 C 42.96875 65.792969 42.96875 65.949219 42.976562 66.105469 L 43.023438 66.109375 C 43.015625 65.976562 43.003906 65.847656 43.011719 65.714844 Z M 43.011719 65.714844 " fill-opacity="1" fill-rule="nonzero"/><path fill="#545454" d="M 37.351562 55.613281 C 37.269531 55.5625 37.183594 55.523438 37.09375 55.492188 C 37.070312 55.589844 37.046875 55.691406 37.019531 55.792969 C 37.140625 55.757812 37.285156 55.722656 37.351562 55.613281 Z M 37.351562 55.613281 " fill-opacity="1" fill-rule="nonzero"/><path fill="#545454" d="M 41.253906 56.222656 C 41.28125 55.859375 41.273438 55.492188 41.1875 55.140625 C 41.0625 54.605469 40.738281 54.105469 40.269531 53.8125 C 39.992188 53.644531 39.683594 53.535156 39.363281 53.484375 C 38.941406 53.421875 38.488281 53.441406 38.101562 53.644531 C 37.71875 53.847656 37.445312 54.152344 37.230469 54.507812 C 37.132812 54.675781 37.058594 54.859375 36.972656 55.035156 C 36.867188 55.019531 36.773438 54.972656 36.671875 54.960938 C 36.632812 54.957031 36.574219 54.96875 36.589844 55.023438 C 36.621094 55.105469 36.699219 55.148438 36.769531 55.199219 C 36.867188 55.257812 36.960938 55.328125 37.0625 55.378906 C 37.464844 55.574219 37.851562 55.796875 38.261719 55.972656 C 38.382812 56.027344 38.503906 56.09375 38.621094 56.152344 C 39.179688 56.398438 39.71875 56.683594 40.265625 56.957031 C 40.421875 57.027344 40.570312 57.121094 40.734375 57.167969 C 41.019531 57.261719 41.308594 57.355469 41.597656 57.4375 C 41.691406 57.460938 41.789062 57.5 41.890625 57.488281 C 41.695312 57.164062 41.425781 56.890625 41.230469 56.566406 C 41.203125 56.453125 41.25 56.335938 41.253906 56.222656 Z M 41.128906 56.488281 C 40.878906 56.4375 40.632812 56.355469 40.378906 56.320312 C 40.308594 56.300781 40.222656 56.316406 40.167969 56.253906 C 40.21875 56.230469 40.277344 56.214844 40.332031 56.210938 L 40.316406 56.136719 C 40.519531 55.714844 40.488281 55.210938 40.324219 54.785156 C 40.175781 54.394531 39.882812 54.066406 39.507812 53.890625 C 39.210938 53.742188 38.871094 53.691406 38.550781 53.777344 C 38.015625 53.894531 37.585938 54.300781 37.339844 54.773438 C 37.308594 54.851562 37.25 54.933594 37.273438 55.019531 C 37.324219 54.976562 37.339844 54.894531 37.390625 54.839844 C 37.550781 54.855469 37.675781 54.976562 37.835938 55.003906 C 37.863281 55.078125 37.863281 55.15625 37.871094 55.230469 C 37.882812 55.304688 37.964844 55.296875 38.015625 55.320312 C 38.261719 55.429688 38.507812 55.542969 38.75 55.65625 C 38.804688 55.582031 38.859375 55.507812 38.914062 55.4375 C 39.113281 55.53125 39.328125 55.597656 39.507812 55.710938 C 39.445312 55.875 39.386719 56.042969 39.292969 56.191406 L 39.253906 56.199219 C 39.269531 56.058594 39.359375 55.925781 39.40625 55.792969 C 39.238281 55.75 39.085938 55.648438 38.929688 55.574219 C 38.875 55.640625 38.839844 55.71875 38.78125 55.78125 C 38.703125 55.699219 38.59375 55.667969 38.492188 55.621094 L 37.808594 55.3125 C 37.785156 55.242188 37.792969 55.167969 37.789062 55.09375 C 37.683594 55.15625 37.703125 55.300781 37.667969 55.40625 L 37.625 55.386719 C 37.640625 55.289062 37.664062 55.191406 37.6875 55.097656 C 37.601562 55.046875 37.523438 54.976562 37.425781 54.953125 L 37.390625 54.972656 C 37.339844 55.09375 37.324219 55.238281 37.234375 55.347656 C 37.230469 55.25 37.277344 55.148438 37.261719 55.058594 L 37.175781 55.050781 C 37.257812 54.742188 37.433594 54.457031 37.648438 54.214844 C 37.96875 53.859375 38.429688 53.65625 38.90625 53.660156 C 39.230469 53.6875 39.542969 53.796875 39.808594 53.976562 C 40.183594 54.230469 40.417969 54.652344 40.503906 55.089844 C 40.558594 55.390625 40.554688 55.707031 40.441406 55.996094 C 40.417969 56.054688 40.394531 56.113281 40.351562 56.15625 C 40.34375 56.179688 40.339844 56.207031 40.332031 56.230469 C 40.476562 56.210938 40.621094 56.261719 40.761719 56.289062 C 40.902344 56.316406 41.039062 56.339844 41.140625 56.433594 Z M 41.128906 56.488281 " fill-opacity="1" fill-rule="nonzero"/><path fill="#545454" d="M 38.855469 56.332031 C 38.765625 56.289062 38.667969 56.257812 38.574219 56.21875 C 38.597656 56.265625 38.621094 56.3125 38.644531 56.359375 C 38.714844 56.34375 38.785156 56.339844 38.855469 56.332031 Z M 38.855469 56.332031 " fill-opacity="1" fill-rule="nonzero"/><path fill="#545454" d="M 40.285156 57.289062 C 40.171875 57.257812 40.070312 57.1875 39.957031 57.171875 C 39.898438 57.160156 39.835938 57.160156 39.789062 57.121094 C 39.984375 57.101562 40.207031 57.136719 40.359375 57.265625 L 40.429688 57.230469 L 40.464844 57.152344 C 40.175781 56.992188 39.878906 56.863281 39.585938 56.710938 C 39.375 56.597656 39.160156 56.492188 38.945312 56.390625 C 38.828125 56.382812 38.714844 56.4375 38.59375 56.429688 C 38.550781 56.34375 38.511719 56.246094 38.4375 56.183594 C 38.320312 56.113281 38.1875 56.070312 38.0625 56.027344 C 37.894531 55.972656 37.6875 55.972656 37.550781 56.105469 C 37.398438 56.273438 37.359375 56.523438 37.183594 56.675781 C 37.101562 56.746094 36.992188 56.761719 36.886719 56.765625 C 36.847656 57.046875 36.765625 57.324219 36.617188 57.574219 C 36.378906 57.976562 36.027344 58.34375 35.5625 58.460938 C 35.757812 58.492188 35.945312 58.554688 36.117188 58.652344 C 36.382812 58.804688 36.640625 58.980469 36.863281 59.195312 C 36.921875 59.253906 36.988281 59.308594 37.027344 59.386719 C 36.902344 59.308594 36.800781 59.199219 36.664062 59.132812 C 36.710938 59.207031 36.777344 59.269531 36.828125 59.34375 C 36.933594 59.492188 37.015625 59.667969 37.175781 59.773438 C 37.375 59.90625 37.570312 60.050781 37.792969 60.140625 C 37.863281 59.933594 38.027344 59.785156 38.152344 59.609375 C 38.277344 59.4375 38.417969 59.257812 38.546875 59.078125 C 38.695312 59.226562 38.878906 59.335938 39.085938 59.390625 C 39.207031 59.414062 39.347656 59.441406 39.453125 59.359375 C 39.558594 59.277344 39.539062 59.117188 39.527344 59 C 39.511719 59.148438 39.429688 59.347656 39.246094 59.328125 C 39.300781 59.246094 39.386719 59.183594 39.417969 59.085938 C 39.449219 58.988281 39.472656 58.871094 39.578125 58.832031 C 39.683594 58.792969 39.753906 58.8125 39.835938 58.785156 C 39.695312 58.765625 39.628906 58.632812 39.558594 58.523438 C 39.671875 58.542969 39.75 58.628906 39.820312 58.71875 C 39.894531 58.726562 39.839844 58.59375 39.863281 58.558594 C 39.929688 58.640625 40.039062 58.539062 40.023438 58.453125 C 39.992188 58.492188 39.96875 58.53125 39.9375 58.570312 C 39.808594 58.480469 39.617188 58.539062 39.484375 58.460938 C 39.625 58.445312 39.769531 58.449219 39.902344 58.488281 C 39.921875 58.417969 39.941406 58.347656 39.960938 58.273438 C 40.101562 58.25 40.214844 58.390625 40.355469 58.351562 C 40.421875 58.339844 40.492188 58.292969 40.488281 58.222656 C 40.480469 58.097656 40.445312 57.976562 40.410156 57.859375 C 40.425781 57.988281 40.476562 58.113281 40.460938 58.246094 C 40.390625 58.335938 40.261719 58.320312 40.167969 58.285156 C 40.074219 58.246094 39.988281 58.253906 39.894531 58.25 C 39.875 58.203125 39.839844 58.132812 39.898438 58.101562 C 40.023438 58.050781 40.085938 58.203125 40.199219 58.222656 C 40.253906 58.238281 40.335938 58.285156 40.378906 58.222656 C 40.371094 57.941406 40.308594 57.660156 40.285156 57.378906 C 40.375 57.371094 40.464844 57.351562 40.550781 57.320312 C 40.574219 57.28125 40.585938 57.242188 40.589844 57.199219 C 40.53125 57.246094 40.480469 57.3125 40.40625 57.339844 C 40.367188 57.316406 40.328125 57.300781 40.285156 57.289062 Z M 36.644531 57.769531 C 36.78125 57.53125 36.941406 57.304688 37.054688 57.054688 C 37.027344 57.335938 36.84375 57.578125 36.644531 57.769531 Z M 37.949219 56.816406 C 37.953125 56.902344 38.03125 56.953125 38.058594 57.027344 C 38.015625 57.023438 37.953125 57.042969 37.9375 56.984375 C 37.875 56.832031 37.859375 56.660156 37.914062 56.503906 C 37.957031 56.421875 38.007812 56.308594 38.121094 56.335938 C 38.070312 56.425781 37.988281 56.503906 37.957031 56.605469 C 37.9375 56.675781 37.945312 56.746094 37.949219 56.816406 Z M 38.230469 56.808594 C 38.171875 56.757812 38.148438 56.636719 38.050781 56.683594 C 38.199219 56.613281 38.296875 56.402344 38.1875 56.261719 C 38.09375 56.164062 37.9375 56.230469 37.886719 56.339844 C 37.800781 56.527344 37.835938 56.742188 37.835938 56.941406 C 37.839844 57.089844 37.980469 57.167969 38.054688 57.277344 C 38.027344 57.351562 37.933594 57.300781 37.902344 57.253906 C 37.824219 57.152344 37.757812 57.035156 37.757812 56.90625 C 37.753906 56.726562 37.746094 56.546875 37.773438 56.371094 C 37.796875 56.242188 37.914062 56.144531 38.042969 56.140625 C 38.136719 56.164062 38.25 56.207031 38.28125 56.308594 C 38.3125 56.410156 38.242188 56.550781 38.167969 56.648438 C 38.207031 56.691406 38.25 56.730469 38.285156 56.773438 Z M 40.035156 57.480469 C 39.972656 57.398438 39.894531 57.332031 39.855469 57.238281 L 39.996094 57.234375 C 39.996094 57.28125 39.996094 57.328125 39.996094 57.375 L 40.089844 57.335938 L 40.023438 57.320312 L 40.027344 57.273438 C 40.085938 57.292969 40.140625 57.304688 40.199219 57.308594 C 40.101562 57.308594 40.078125 57.414062 40.035156 57.476562 Z M 40.035156 57.480469 " fill-opacity="1" fill-rule="nonzero"/><path fill="#545454" d="M 31.636719 59.578125 C 31.609375 60 31.625 60.425781 31.621094 60.851562 C 31.617188 62.496094 31.632812 64.140625 31.621094 65.785156 L 31.824219 65.816406 C 31.816406 63.6875 31.820312 61.5625 31.808594 59.4375 C 31.753906 59.484375 31.691406 59.527344 31.636719 59.578125 Z M 31.636719 59.578125 " fill-opacity="1" fill-rule="nonzero"/><path fill="#545454" d="M 38.976562 61.894531 C 38.972656 61.644531 38.988281 61.386719 38.910156 61.144531 C 38.882812 61.027344 38.804688 60.933594 38.761719 60.820312 C 38.742188 60.742188 38.636719 60.746094 38.605469 60.675781 C 38.554688 60.566406 38.527344 60.441406 38.429688 60.359375 C 38.464844 60.570312 38.511719 60.789062 38.484375 61.003906 C 38.421875 60.820312 38.410156 60.621094 38.359375 60.429688 C 38.332031 60.191406 38.21875 59.976562 38.144531 59.75 C 38.050781 59.882812 37.964844 60.019531 37.875 60.15625 C 38.003906 60.21875 38.160156 60.242188 38.269531 60.339844 C 38.214844 60.34375 38.160156 60.34375 38.105469 60.335938 C 37.738281 60.25 37.421875 60.035156 37.109375 59.828125 C 37.167969 59.933594 37.25 60.023438 37.296875 60.132812 C 37.394531 60.3125 37.460938 60.507812 37.554688 60.6875 C 37.976562 60.925781 38.269531 61.339844 38.453125 61.78125 C 38.460938 61.730469 38.476562 61.679688 38.492188 61.628906 C 38.585938 61.34375 38.628906 61.050781 38.691406 60.757812 C 38.734375 60.859375 38.71875 60.976562 38.707031 61.085938 C 38.675781 61.332031 38.605469 61.570312 38.519531 61.800781 C 38.488281 61.886719 38.464844 61.976562 38.453125 62.074219 C 38.378906 61.898438 38.332031 61.714844 38.238281 61.550781 C 38.0625 61.234375 37.832031 60.914062 37.480469 60.777344 C 37.261719 60.230469 36.996094 59.6875 36.621094 59.226562 C 36.347656 58.914062 36.011719 58.628906 35.59375 58.539062 C 35.417969 58.496094 35.234375 58.539062 35.054688 58.542969 C 34.988281 58.542969 34.921875 58.5625 34.867188 58.601562 C 34.984375 58.59375 35.097656 58.570312 35.214844 58.570312 L 35.183594 58.589844 C 34.773438 58.738281 34.347656 58.90625 34.042969 59.234375 C 34.136719 59.191406 34.21875 59.125 34.308594 59.078125 C 34.609375 58.914062 34.964844 58.808594 35.308594 58.882812 C 35.730469 58.992188 36.070312 59.292969 36.34375 59.621094 C 36.796875 60.1875 37.097656 60.863281 37.277344 61.558594 C 37.441406 62.164062 37.449219 62.796875 37.378906 63.414062 C 37.316406 63.882812 37.210938 64.351562 37.027344 64.789062 C 37.117188 64.929688 37.191406 65.082031 37.285156 65.21875 C 37.421875 65.363281 37.59375 65.46875 37.753906 65.585938 C 38.097656 65.851562 38.488281 66.050781 38.851562 66.292969 C 38.839844 66.199219 38.875 66.109375 38.890625 66.015625 C 38.945312 65.699219 39 65.390625 39.039062 65.074219 C 39.128906 64.367188 39.199219 63.644531 39.09375 62.929688 C 39.054688 62.589844 38.972656 62.246094 38.976562 61.894531 Z M 38.21875 62.308594 C 38.125 62.308594 38.066406 62.230469 38.023438 62.160156 C 38.160156 62.175781 38.296875 62.214844 38.429688 62.234375 C 38.5 62.25 38.585938 62.261719 38.617188 62.335938 C 38.484375 62.332031 38.351562 62.308594 38.21875 62.308594 Z M 38.21875 62.308594 " fill-opacity="1" fill-rule="nonzero"/><path fill="#545454" d="M 36.511719 61.660156 C 36.550781 61.605469 36.542969 61.539062 36.546875 61.476562 C 36.566406 61.15625 36.503906 60.808594 36.316406 60.542969 C 36.378906 60.78125 36.449219 61.023438 36.472656 61.269531 C 36.488281 61.402344 36.488281 61.53125 36.511719 61.660156 Z M 36.511719 61.660156 " fill-opacity="1" fill-rule="nonzero"/><path fill="#545454" d="M 36.421875 61.894531 C 36.421875 61.429688 36.351562 60.964844 36.230469 60.515625 C 36.160156 60.246094 36.03125 59.992188 35.859375 59.773438 C 35.734375 59.613281 35.570312 59.464844 35.359375 59.445312 C 34.960938 59.414062 34.570312 59.597656 34.277344 59.859375 C 33.984375 60.121094 33.800781 60.527344 33.664062 60.910156 C 33.589844 61.125 33.515625 61.367188 33.601562 61.589844 C 33.640625 61.691406 33.714844 61.800781 33.832031 61.804688 C 33.984375 61.796875 34.109375 61.695312 34.242188 61.636719 C 34.148438 61.78125 33.984375 61.859375 33.859375 61.972656 C 33.792969 62.042969 33.667969 62.105469 33.691406 62.21875 C 33.871094 62.179688 34.042969 62.101562 34.226562 62.0625 C 34.75 61.957031 35.304688 61.980469 35.8125 62.152344 C 36.027344 62.21875 36.226562 62.324219 36.402344 62.464844 C 36.371094 62.410156 36.328125 62.351562 36.339844 62.285156 C 36.347656 62.152344 36.429688 62.035156 36.421875 61.894531 Z M 36.421875 61.894531 " fill-opacity="1" fill-rule="nonzero"/><path fill="#545454" d="M 40.082031 66.800781 C 40.199219 66.761719 40.34375 66.761719 40.433594 66.65625 C 40.191406 66.75 39.878906 66.734375 39.699219 66.949219 C 39.832031 66.90625 39.949219 66.835938 40.082031 66.800781 Z M 40.082031 66.800781 " fill-opacity="1" fill-rule="nonzero"/><path fill="#545454" d="M 40.554688 66.117188 C 40.519531 66.105469 40.449219 66.101562 40.425781 66.140625 C 40.464844 66.15625 40.539062 66.160156 40.554688 66.117188 Z M 40.554688 66.117188 " fill-opacity="1" fill-rule="nonzero"/><g clip-path="url(#af50c8cc7c)"><path fill="#545454" d="M 47.769531 59.671875 C 47.140625 57.425781 45.652344 55.445312 43.6875 54.191406 C 42.039062 53.132812 40.042969 52.628906 38.089844 52.78125 C 37.035156 52.855469 35.996094 53.101562 35.027344 53.527344 C 33.328125 54.261719 31.875 55.523438 30.863281 57.070312 C 30 58.382812 29.480469 59.882812 29.339844 61.449219 C 29.210938 62.839844 29.433594 64.257812 29.925781 65.5625 C 30.757812 67.707031 32.398438 69.527344 34.457031 70.554688 C 35.539062 71.09375 36.722656 71.429688 37.925781 71.519531 C 39.984375 71.691406 42.089844 71.160156 43.828125 70.042969 C 45.261719 69.117188 46.453125 67.804688 47.191406 66.261719 C 47.605469 65.414062 47.898438 64.5 48.035156 63.566406 C 48.226562 62.265625 48.121094 60.933594 47.769531 59.671875 Z M 33.003906 67.058594 C 32.992188 67.121094 33.015625 67.195312 32.972656 67.25 C 32.953125 66.769531 32.976562 66.289062 32.96875 65.808594 C 32.972656 65.621094 32.960938 65.429688 32.972656 65.242188 L 33 65.332031 C 33.011719 65.90625 32.976562 66.484375 33.003906 67.058594 Z M 33.03125 67.246094 C 33.027344 67.140625 33.058594 67.035156 33.027344 66.929688 L 33.070312 66.917969 C 33.070312 67.027344 33.117188 67.167969 33.03125 67.246094 Z M 38.402344 68.28125 C 38.550781 68.269531 38.699219 68.273438 38.847656 68.265625 C 39.191406 68.261719 39.527344 68.203125 39.871094 68.234375 C 39.921875 68.246094 39.988281 68.253906 40.003906 68.3125 C 39.472656 68.324219 38.9375 68.308594 38.402344 68.285156 Z M 41.238281 68.375 L 41.296875 68.28125 C 41.269531 68.214844 41.207031 68.171875 41.167969 68.121094 C 40.972656 67.898438 40.769531 67.664062 40.695312 67.375 C 40.789062 67.390625 40.8125 67.492188 40.859375 67.558594 C 40.988281 67.804688 41.179688 68.011719 41.375 68.207031 C 41.429688 68.296875 41.324219 68.375 41.238281 68.375 Z M 40.136719 67.167969 C 40.265625 67.011719 40.488281 66.953125 40.679688 66.957031 C 40.636719 67.03125 40.605469 67.121094 40.523438 67.164062 C 40.523438 67.140625 40.527344 67.085938 40.527344 67.058594 C 40.390625 67.070312 40.261719 67.117188 40.136719 67.167969 Z M 40.609375 66.75 C 40.707031 66.703125 40.816406 66.671875 40.921875 66.644531 C 40.835938 66.714844 40.722656 66.753906 40.609375 66.75 Z M 41.714844 68.15625 C 41.742188 68.113281 41.804688 68.0625 41.753906 68.015625 C 41.582031 67.824219 41.4375 67.613281 41.269531 67.421875 C 41.199219 67.332031 41.101562 67.253906 41.082031 67.136719 C 41.183594 67.199219 41.257812 67.292969 41.335938 67.382812 C 41.511719 67.570312 41.664062 67.777344 41.832031 67.96875 C 41.898438 68.054688 41.808594 68.15625 41.714844 68.15625 Z M 44.574219 67.597656 C 44.574219 67.164062 44.5625 66.730469 44.574219 66.296875 L 44.609375 66.265625 C 44.621094 66.710938 44.613281 67.15625 44.617188 67.597656 Z M 44.878906 67.609375 C 44.828125 67.585938 44.84375 67.527344 44.839844 67.480469 C 44.84375 67.097656 44.835938 66.710938 44.832031 66.328125 L 44.875 66.355469 C 44.875 66.773438 44.890625 67.191406 44.878906 67.609375 Z M 44.882812 66.160156 C 44.78125 66.160156 44.683594 66.148438 44.582031 66.136719 C 44.570312 65.5625 44.574219 64.988281 44.574219 64.414062 L 44.617188 64.417969 C 44.621094 64.976562 44.617188 65.539062 44.621094 66.101562 L 44.859375 66.121094 C 44.839844 65.582031 44.859375 65.039062 44.847656 64.5 C 44.875 64.515625 44.890625 64.550781 44.882812 64.582031 C 44.878906 65.109375 44.886719 65.632812 44.882812 66.160156 Z M 44.585938 64.273438 C 44.578125 64.21875 44.574219 64.160156 44.574219 64.105469 C 44.582031 63.640625 44.5625 63.179688 44.578125 62.71875 L 44.613281 62.761719 C 44.621094 63.246094 44.613281 63.734375 44.621094 64.21875 C 44.671875 64.289062 44.773438 64.265625 44.847656 64.28125 C 44.851562 63.796875 44.851562 63.308594 44.835938 62.824219 L 44.878906 62.820312 C 44.882812 63.316406 44.871094 63.816406 44.890625 64.3125 C 44.789062 64.3125 44.683594 64.300781 44.585938 64.273438 Z M 45.144531 67.121094 C 45.140625 66.527344 45.152344 65.9375 45.140625 65.347656 L 45.175781 65.347656 C 45.175781 65.984375 45.179688 66.621094 45.179688 67.253906 C 45.128906 67.226562 45.152344 67.164062 45.144531 67.121094 Z M 45.285156 67.234375 L 45.246094 67.25 C 45.25 66.789062 45.242188 66.328125 45.238281 65.867188 C 45.242188 65.699219 45.210938 65.527344 45.230469 65.359375 C 45.273438 65.515625 45.261719 65.679688 45.269531 65.835938 C 45.273438 66.300781 45.296875 66.769531 45.285156 67.234375 Z M 45.457031 67.246094 C 45.460938 66.527344 45.472656 65.808594 45.46875 65.089844 C 45.46875 65.003906 45.460938 64.917969 45.472656 64.832031 L 45.519531 64.816406 C 45.519531 65.402344 45.515625 65.984375 45.527344 66.570312 C 45.523438 66.710938 45.519531 66.851562 45.523438 66.992188 L 45.484375 67.035156 C 45.496094 67.046875 45.511719 67.050781 45.527344 67.046875 C 45.507812 67.117188 45.558594 67.246094 45.457031 67.246094 Z M 45.6875 65.964844 L 45.652344 65.929688 C 45.652344 65.496094 45.640625 65.066406 45.65625 64.632812 C 45.707031 64.65625 45.683594 64.71875 45.691406 64.761719 C 45.6875 65.164062 45.699219 65.566406 45.6875 65.964844 Z M 46.335938 66.878906 C 46.320312 66.828125 46.386719 66.808594 46.425781 66.828125 C 46.460938 66.851562 46.355469 66.953125 46.335938 66.878906 Z M 46.335938 66.796875 C 46.332031 66.71875 46.453125 66.742188 46.484375 66.785156 Z M 46.785156 66.1875 L 46.765625 66.183594 C 46.765625 66.175781 46.761719 66.152344 46.761719 66.144531 L 46.78125 66.132812 L 46.796875 66.160156 Z M 47.042969 65.632812 C 47.015625 65.699219 46.988281 65.761719 46.96875 65.824219 L 46.84375 65.839844 C 46.875 65.859375 46.90625 65.875 46.941406 65.886719 C 46.921875 65.910156 46.902344 65.933594 46.890625 65.960938 C 46.871094 65.988281 46.863281 66.027344 46.835938 66.042969 C 46.808594 65.960938 46.84375 65.871094 46.835938 65.789062 L 46.765625 65.84375 L 46.804688 65.886719 C 46.726562 65.929688 46.863281 66.074219 46.707031 66.027344 C 46.710938 65.988281 46.714844 65.949219 46.75 65.921875 L 46.65625 65.898438 C 46.679688 65.964844 46.664062 66.035156 46.6875 66.101562 C 46.636719 66.085938 46.585938 66.078125 46.535156 66.078125 C 46.546875 66.113281 46.578125 66.144531 46.613281 66.15625 C 46.519531 66.175781 46.574219 66.289062 46.570312 66.355469 L 46.675781 66.34375 C 46.648438 66.332031 46.625 66.316406 46.597656 66.304688 C 46.597656 66.285156 46.597656 66.242188 46.59375 66.222656 L 46.640625 66.222656 C 46.636719 66.191406 46.632812 66.128906 46.632812 66.097656 L 46.695312 66.15625 L 46.738281 66.121094 L 46.691406 66.078125 L 46.757812 66.046875 L 46.820312 66.085938 L 46.835938 66.101562 C 46.761719 66.105469 46.722656 66.175781 46.65625 66.203125 L 46.6875 66.285156 C 46.707031 66.257812 46.722656 66.230469 46.734375 66.199219 C 46.769531 66.273438 46.695312 66.332031 46.664062 66.390625 C 46.609375 66.386719 46.546875 66.371094 46.5 66.417969 C 46.554688 66.425781 46.605469 66.429688 46.660156 66.417969 L 46.636719 66.464844 C 46.574219 66.4375 46.527344 66.449219 46.492188 66.507812 L 46.632812 66.488281 C 46.597656 66.554688 46.507812 66.535156 46.445312 66.535156 L 46.382812 66.585938 L 46.566406 66.589844 C 46.542969 66.625 46.523438 66.664062 46.507812 66.703125 L 46.34375 66.703125 L 46.347656 66.65625 C 46.40625 66.65625 46.511719 66.699219 46.523438 66.617188 L 46.351562 66.617188 C 46.371094 66.5625 46.371094 66.503906 46.359375 66.449219 L 46.488281 66.457031 L 46.484375 66.410156 L 46.335938 66.398438 C 46.390625 66.359375 46.457031 66.382812 46.515625 66.386719 C 46.53125 66.261719 46.515625 66.136719 46.535156 66.015625 C 46.527344 65.984375 46.523438 65.957031 46.523438 65.925781 L 46.605469 65.96875 L 46.628906 65.875 L 46.515625 65.898438 C 46.550781 65.828125 46.527344 65.746094 46.535156 65.667969 L 46.574219 65.722656 L 46.542969 65.773438 L 46.628906 65.769531 L 46.605469 65.667969 C 46.664062 65.683594 46.660156 65.757812 46.714844 65.777344 C 46.6875 65.808594 46.648438 65.824219 46.648438 65.875 C 46.710938 65.878906 46.742188 65.839844 46.757812 65.792969 C 46.730469 65.746094 46.730469 65.695312 46.730469 65.644531 C 46.683594 65.652344 46.628906 65.664062 46.589844 65.628906 L 46.53125 65.660156 L 46.53125 65.578125 L 46.605469 65.625 L 46.617188 65.550781 C 46.648438 65.597656 46.695312 65.621094 46.746094 65.625 L 46.726562 65.507812 L 46.746094 65.40625 C 46.703125 65.417969 46.660156 65.433594 46.640625 65.476562 L 46.707031 65.515625 C 46.671875 65.582031 46.582031 65.511719 46.523438 65.53125 C 46.523438 65.519531 46.523438 65.488281 46.527344 65.476562 L 46.632812 65.496094 L 46.609375 65.417969 C 46.582031 65.421875 46.554688 65.429688 46.53125 65.445312 L 46.519531 65.386719 C 46.570312 65.386719 46.640625 65.402344 46.628906 65.320312 L 46.523438 65.332031 L 46.527344 65.277344 L 46.574219 65.296875 C 46.613281 65.269531 46.660156 65.273438 46.699219 65.292969 L 46.753906 65.292969 L 46.734375 65.222656 C 46.671875 65.265625 46.59375 65.238281 46.523438 65.234375 C 46.523438 65.222656 46.523438 65.199219 46.523438 65.1875 C 46.570312 65.214844 46.601562 65.203125 46.621094 65.15625 C 46.605469 65.089844 46.554688 65.140625 46.519531 65.160156 C 46.539062 65.101562 46.539062 65.039062 46.523438 64.980469 C 46.578125 64.980469 46.636719 64.976562 46.695312 64.972656 C 46.664062 65.007812 46.644531 65.054688 46.636719 65.105469 C 46.726562 65.125 46.753906 65.050781 46.722656 64.984375 L 46.761719 64.933594 C 46.683594 64.949219 46.605469 64.949219 46.527344 64.9375 C 46.535156 64.886719 46.535156 64.835938 46.527344 64.789062 L 46.59375 64.816406 L 46.5625 64.898438 C 46.601562 64.890625 46.640625 64.894531 46.675781 64.910156 C 46.730469 64.945312 46.726562 64.863281 46.722656 64.835938 C 46.683594 64.871094 46.644531 64.875 46.601562 64.84375 C 46.621094 64.796875 46.621094 64.742188 46.605469 64.691406 L 46.558594 64.699219 L 46.574219 64.761719 L 46.535156 64.761719 C 46.539062 64.722656 46.527344 64.679688 46.550781 64.648438 L 46.617188 64.667969 C 46.617188 64.613281 46.617188 64.5625 46.621094 64.511719 C 46.695312 64.539062 46.609375 64.667969 46.707031 64.679688 L 46.734375 64.582031 L 46.738281 64.636719 L 46.796875 64.636719 L 46.785156 64.773438 C 46.738281 64.753906 46.714844 64.691406 46.65625 64.699219 L 46.671875 64.824219 C 46.710938 64.816406 46.78125 64.753906 46.800781 64.820312 C 46.820312 64.882812 46.75 64.945312 46.8125 64.984375 C 46.789062 65.019531 46.769531 65.050781 46.75 65.085938 L 46.839844 65.082031 C 46.855469 64.980469 46.828125 64.875 46.84375 64.773438 C 46.820312 64.734375 46.914062 64.679688 46.820312 64.683594 L 46.847656 64.640625 L 46.941406 64.648438 C 46.945312 64.40625 46.9375 64.164062 46.953125 63.925781 C 46.984375 63.855469 47.019531 63.949219 47.007812 63.980469 C 47.027344 64.507812 47.003906 65.035156 47.011719 65.5625 C 47.03125 65.585938 47.066406 65.609375 47.042969 65.632812 Z M 46.570312 64.492188 C 46.578125 64.535156 46.582031 64.578125 46.585938 64.621094 C 46.519531 64.605469 46.539062 64.53125 46.570312 64.492188 Z M 47.46875 64.523438 C 47.441406 64.105469 47.464844 63.6875 47.460938 63.265625 C 47.46875 62.925781 47.449219 62.582031 47.46875 62.246094 C 47.480469 62.273438 47.492188 62.304688 47.488281 62.339844 C 47.484375 62.828125 47.492188 63.316406 47.480469 63.804688 C 47.476562 64.046875 47.511719 64.289062 47.46875 64.523438 Z M 47.640625 63.679688 C 47.609375 63.851562 47.601562 64.039062 47.527344 64.199219 C 47.523438 63.539062 47.527344 62.882812 47.519531 62.226562 C 47.34375 62.027344 47.164062 61.832031 46.96875 61.652344 C 46.960938 61.582031 46.984375 61.496094 46.921875 61.449219 C 46.910156 62.273438 46.910156 63.097656 46.917969 63.921875 C 46.699219 64.136719 46.445312 64.324219 46.238281 64.550781 C 46.238281 64.941406 46.253906 65.332031 46.234375 65.722656 C 46.148438 65.707031 46.140625 65.789062 46.109375 65.847656 C 46.101562 64.886719 46.117188 63.925781 46.117188 62.964844 L 46.085938 62.960938 C 46.050781 63.328125 46.085938 63.703125 46.070312 64.074219 L 46.054688 64.113281 C 46.046875 63.777344 46.054688 63.441406 46.054688 63.105469 C 45.890625 63.246094 45.746094 63.410156 45.582031 63.550781 C 45.539062 63.582031 45.558594 63.636719 45.554688 63.683594 C 45.550781 63.980469 45.566406 64.28125 45.542969 64.578125 C 45.457031 64.601562 45.367188 64.617188 45.277344 64.636719 C 45.265625 64.761719 45.171875 64.851562 45.058594 64.890625 C 45.035156 64.984375 45.039062 65.085938 45.019531 65.179688 C 44.972656 65.03125 45.046875 64.882812 45.035156 64.730469 C 45.027344 64.027344 45.035156 63.324219 45.023438 62.625 C 44.777344 62.371094 44.507812 62.148438 44.257812 61.894531 C 44.226562 61.316406 44.253906 60.730469 44.238281 60.148438 C 43.921875 59.8125 43.601562 59.484375 43.292969 59.144531 C 43.289062 59.054688 43.304688 58.964844 43.289062 58.875 C 43.261719 58.835938 43.21875 58.8125 43.183594 58.78125 C 43.195312 60.625 43.183594 62.46875 43.183594 64.3125 L 43.140625 64.371094 C 43.09375 64.339844 43.113281 64.273438 43.109375 64.226562 C 43.113281 64.015625 43.105469 63.804688 43.109375 63.597656 C 43.105469 63.546875 43.132812 63.480469 43.070312 63.453125 C 43.109375 63.757812 43.046875 64.066406 43.09375 64.371094 L 43.023438 64.371094 C 43.058594 64.070312 43.027344 63.761719 43.050781 63.460938 C 42.957031 63.390625 42.867188 63.316406 42.765625 63.253906 C 42.667969 63.332031 42.566406 63.410156 42.460938 63.476562 C 42.464844 63.679688 42.453125 63.878906 42.46875 64.082031 C 42.507812 64.097656 42.582031 64.097656 42.570312 64.15625 C 42.585938 64.597656 42.566406 65.042969 42.566406 65.484375 L 42.636719 65.527344 C 42.597656 65.535156 42.558594 65.523438 42.527344 65.503906 C 42.53125 65.085938 42.539062 64.667969 42.535156 64.25 C 42.527344 64.21875 42.550781 64.117188 42.492188 64.140625 C 42.476562 64.5625 42.492188 64.988281 42.484375 65.410156 L 42.464844 65.414062 C 42.472656 64.976562 42.457031 64.539062 42.472656 64.101562 C 42.441406 64.039062 42.367188 64.007812 42.308594 63.972656 C 42.253906 64.078125 42.175781 64.164062 42.074219 64.230469 C 42.054688 64.449219 42.074219 64.667969 42.070312 64.886719 L 41.917969 64.984375 C 41.925781 64.441406 41.914062 63.898438 41.917969 63.355469 C 41.933594 63.25 41.816406 63.199219 41.757812 63.132812 C 41.660156 63.023438 41.546875 62.925781 41.445312 62.820312 C 41.386719 62.769531 41.429688 62.667969 41.359375 62.625 C 41.355469 63.40625 41.359375 64.1875 41.359375 64.972656 C 41.375 65.027344 41.316406 65.027344 41.28125 65.027344 C 41.257812 64.53125 41.273438 64.035156 41.265625 63.535156 C 41.269531 62.832031 41.261719 62.132812 41.273438 61.429688 L 41.234375 61.429688 C 41.234375 61.484375 41.234375 61.539062 41.234375 61.59375 C 41.089844 61.730469 40.960938 61.878906 40.820312 62.015625 C 40.785156 62.054688 40.738281 62.085938 40.714844 62.132812 C 40.714844 63.152344 40.71875 64.175781 40.710938 65.195312 L 40.613281 65.203125 C 40.613281 65.070312 40.621094 64.933594 40.597656 64.800781 L 40.535156 64.785156 C 40.589844 65.117188 40.582031 65.453125 40.582031 65.789062 L 40.453125 65.792969 C 40.46875 65.726562 40.484375 65.660156 40.496094 65.59375 C 40.550781 65.621094 40.519531 65.695312 40.53125 65.742188 L 40.546875 65.742188 C 40.519531 65.554688 40.554688 65.363281 40.535156 65.171875 C 40.523438 65.308594 40.53125 65.441406 40.527344 65.578125 L 40.484375 65.582031 C 40.492188 65.3125 40.5 65.042969 40.5 64.777344 C 40.496094 64.738281 40.496094 64.699219 40.492188 64.664062 C 40.316406 64.625 40.148438 64.554688 39.972656 64.507812 C 39.964844 64.742188 39.964844 64.972656 39.96875 65.207031 C 39.964844 65.253906 39.96875 65.304688 39.953125 65.351562 C 39.917969 65.328125 39.886719 65.296875 39.855469 65.273438 C 39.804688 65.363281 39.777344 65.460938 39.730469 65.550781 C 39.582031 65.183594 39.28125 64.882812 39.214844 64.484375 C 39.195312 64.421875 39.265625 64.386719 39.300781 64.347656 C 39.449219 64.21875 39.585938 64.03125 39.550781 63.824219 C 39.515625 63.613281 39.363281 63.429688 39.183594 63.3125 C 39.226562 63.714844 39.203125 64.117188 39.171875 64.519531 C 39.132812 65.011719 39.050781 65.496094 38.972656 65.980469 C 38.953125 66.097656 38.917969 66.210938 38.898438 66.324219 C 39.09375 66.449219 39.285156 66.578125 39.484375 66.691406 C 39.578125 66.609375 39.691406 66.695312 39.78125 66.742188 C 39.929688 66.675781 40.09375 66.648438 40.253906 66.605469 L 40.1875 66.550781 L 40.261719 66.511719 L 40.1875 66.480469 C 40.222656 66.464844 40.265625 66.460938 40.285156 66.421875 L 40.1875 66.421875 C 40.230469 66.402344 40.25 66.367188 40.230469 66.316406 L 40.265625 66.339844 L 40.203125 66.261719 C 40.257812 66.253906 40.308594 66.257812 40.359375 66.273438 C 40.425781 66.277344 40.554688 66.230469 40.574219 66.324219 L 40.605469 66.316406 C 40.585938 66.339844 40.570312 66.367188 40.558594 66.390625 C 40.523438 66.359375 40.5 66.386719 40.480469 66.417969 C 40.519531 66.414062 40.558594 66.433594 40.582031 66.464844 C 40.578125 66.492188 40.574219 66.539062 40.570312 66.5625 C 40.664062 66.59375 40.753906 66.546875 40.847656 66.546875 L 40.835938 66.453125 C 40.871094 66.414062 40.816406 66.355469 40.855469 66.324219 L 40.8125 66.273438 L 40.964844 66.261719 L 40.824219 66.25 L 40.824219 66.207031 C 40.875 66.195312 40.929688 66.191406 40.972656 66.171875 L 40.988281 66.164062 L 41.015625 66.152344 L 41.03125 66.144531 L 41.09375 66.144531 C 41.097656 66.078125 41.101562 65.917969 40.996094 65.976562 C 41.015625 65.917969 41.007812 65.859375 41 65.804688 L 41.089844 65.8125 L 41.09375 65.75 L 40.984375 65.753906 C 41.011719 65.726562 41.039062 65.699219 41.066406 65.667969 L 40.996094 65.695312 L 40.996094 65.632812 C 41.074219 65.613281 41.078125 65.683594 41.09375 65.742188 L 41.105469 65.640625 L 41.136719 65.628906 L 41.125 65.730469 L 41.210938 65.71875 L 41.203125 65.765625 L 41.109375 65.746094 L 41.09375 65.8125 L 41.230469 65.804688 L 41.167969 65.867188 L 41.207031 65.871094 C 41.210938 65.902344 41.210938 65.933594 41.210938 65.964844 L 41.144531 65.953125 L 41.195312 65.992188 L 41.164062 66.050781 L 41.226562 66.097656 L 41.15625 66.113281 L 41.199219 66.121094 L 41.207031 66.15625 L 41.210938 66.167969 L 41.230469 66.25 L 41.15625 66.230469 L 41.222656 66.269531 C 41.214844 66.355469 41.230469 66.4375 41.230469 66.523438 L 41.183594 66.527344 C 41.1875 66.480469 41.191406 66.433594 41.199219 66.390625 L 41.171875 66.386719 C 41.175781 66.433594 41.179688 66.484375 41.1875 66.53125 L 41.078125 66.488281 L 41.058594 66.527344 C 41.191406 66.523438 41.277344 66.632812 41.359375 66.71875 C 41.460938 66.683594 41.570312 66.636719 41.675781 66.664062 C 41.824219 66.703125 41.933594 66.816406 42.082031 66.855469 C 42.230469 66.894531 42.316406 66.992188 42.429688 67.070312 C 42.71875 67.148438 43.023438 67.183594 43.316406 67.238281 L 44.449219 67.421875 L 44.46875 67.484375 C 44.128906 67.449219 43.792969 67.375 43.457031 67.335938 C 43.152344 67.292969 42.851562 67.210938 42.542969 67.199219 C 42.671875 67.265625 42.828125 67.300781 42.925781 67.417969 C 42.996094 67.511719 42.933594 67.625 42.929688 67.730469 C 42.929688 67.835938 42.925781 67.957031 42.847656 68.039062 C 42.804688 67.851562 42.855469 67.65625 42.867188 67.472656 C 42.753906 67.335938 42.539062 67.359375 42.425781 67.222656 C 42.3125 67.085938 42.199219 66.992188 42.035156 66.960938 C 42.214844 67.226562 42.355469 67.527344 42.410156 67.84375 C 42.527344 67.902344 42.625 67.996094 42.765625 68.003906 C 42.753906 68.066406 42.6875 68.070312 42.632812 68.070312 C 42.550781 68.070312 42.484375 68.015625 42.417969 67.972656 C 42.4375 68.035156 42.335938 68.089844 42.332031 68.003906 C 42.328125 67.917969 42.308594 67.785156 42.261719 67.683594 C 42.214844 67.640625 42.144531 67.636719 42.097656 67.59375 C 41.949219 67.347656 41.683594 67.203125 41.492188 66.996094 C 41.339844 66.859375 41.222656 66.652344 41.007812 66.617188 C 40.789062 66.582031 40.578125 66.699219 40.390625 66.800781 C 40.246094 66.867188 40.09375 66.933594 39.988281 67.058594 C 39.878906 67.183594 39.785156 67.21875 39.695312 67.3125 C 39.765625 67.34375 39.839844 67.320312 39.914062 67.308594 C 40.015625 67.28125 40.121094 67.304688 40.222656 67.28125 C 40.15625 67.394531 40.105469 67.523438 40.007812 67.609375 C 39.972656 67.597656 39.941406 67.578125 39.910156 67.558594 C 39.953125 67.488281 39.992188 67.421875 40.035156 67.355469 C 39.785156 67.425781 39.546875 67.550781 39.320312 67.683594 C 39.347656 67.589844 39.410156 67.503906 39.402344 67.40625 C 39.273438 67.5625 39.097656 67.769531 39.199219 67.980469 C 39.269531 67.992188 39.335938 67.960938 39.40625 67.949219 C 39.613281 67.929688 39.820312 67.980469 40.03125 67.964844 C 40.109375 67.964844 40.167969 67.882812 40.246094 67.886719 C 40.359375 67.945312 40.445312 68.042969 40.539062 68.125 C 40.636719 68.207031 40.738281 68.296875 40.828125 68.398438 C 40.785156 68.394531 40.734375 68.394531 40.695312 68.367188 C 40.519531 68.246094 40.382812 68.082031 40.222656 67.945312 C 40.21875 67.984375 40.214844 68.027344 40.214844 68.0625 C 39.914062 68.082031 39.597656 67.941406 39.3125 68.085938 C 39.210938 68.132812 39.097656 68.050781 39.082031 67.945312 C 39.066406 67.832031 39.082031 67.714844 39.125 67.609375 C 39.230469 67.277344 39.488281 67.035156 39.710938 66.78125 C 39.605469 66.753906 39.496094 66.777344 39.417969 66.847656 C 39.253906 66.984375 39.152344 67.175781 39.039062 67.351562 C 38.964844 67.484375 38.890625 67.617188 38.875 67.769531 C 38.890625 67.859375 38.941406 67.941406 39.015625 68 L 39.035156 67.886719 C 39.027344 67.945312 39.027344 68.003906 39.03125 68.0625 C 38.953125 68.066406 38.871094 68.066406 38.789062 68.0625 C 38.632812 67.949219 38.617188 67.726562 38.695312 67.5625 C 38.8125 67.324219 38.953125 67.09375 39.105469 66.875 C 39.054688 66.871094 39.011719 66.851562 38.972656 66.820312 C 38.75 66.652344 38.484375 66.542969 38.210938 66.480469 C 37.992188 66.4375 37.78125 66.367188 37.578125 66.277344 C 37.234375 66.125 36.882812 66.003906 36.527344 65.882812 L 36.5 65.855469 C 36.765625 65.886719 37.015625 65.976562 37.269531 66.050781 C 37.597656 66.171875 37.90625 66.34375 38.253906 66.40625 C 38.527344 66.453125 38.78125 66.582031 39.019531 66.714844 C 39.113281 66.769531 39.214844 66.808594 39.328125 66.800781 C 39.261719 66.890625 39.164062 66.953125 39.113281 67.054688 C 38.996094 67.242188 38.890625 67.433594 38.796875 67.632812 C 38.734375 67.761719 38.761719 67.960938 38.90625 68.019531 C 38.84375 67.894531 38.78125 67.757812 38.835938 67.613281 C 38.929688 67.414062 39.035156 67.222656 39.15625 67.039062 C 39.207031 66.953125 39.289062 66.894531 39.332031 66.808594 L 39.410156 66.75 C 39.308594 66.707031 39.203125 66.664062 39.117188 66.589844 C 38.945312 66.449219 38.742188 66.347656 38.558594 66.222656 C 38.191406 65.996094 37.820312 65.773438 37.480469 65.507812 C 37.367188 65.414062 37.210938 65.355469 37.15625 65.210938 C 37.019531 64.910156 36.800781 64.648438 36.542969 64.445312 C 36.425781 64.351562 36.296875 64.273438 36.191406 64.167969 C 36.203125 63.847656 36.265625 63.53125 36.257812 63.207031 C 36.261719 63.023438 36.214844 62.847656 36.171875 62.667969 C 36.203125 62.664062 36.234375 62.683594 36.242188 62.710938 C 36.34375 62.894531 36.347656 63.105469 36.347656 63.304688 C 36.667969 63.292969 37 63.148438 37.183594 62.878906 C 37.332031 62.640625 37.328125 62.34375 37.289062 62.074219 C 37.183594 61.386719 36.945312 60.722656 36.589844 60.125 C 36.328125 59.699219 35.996094 59.285156 35.535156 59.066406 C 35.128906 58.859375 34.625 58.964844 34.265625 59.214844 C 34.03125 59.367188 33.859375 59.59375 33.703125 59.820312 C 33.480469 60.144531 33.292969 60.503906 33.230469 60.894531 C 33.167969 61.285156 33.195312 61.707031 33.269531 62.105469 C 33.328125 62.414062 33.421875 62.726562 33.601562 62.988281 C 33.671875 63.089844 33.730469 63.203125 33.832031 63.277344 C 33.765625 63.074219 33.746094 62.855469 33.75 62.644531 C 33.742188 62.617188 33.757812 62.589844 33.785156 62.582031 C 33.785156 62.582031 33.789062 62.578125 33.792969 62.578125 C 33.859375 63.234375 34.089844 63.867188 34.378906 64.460938 C 34.515625 64.753906 34.683594 65.042969 34.742188 65.371094 C 34.777344 65.5625 34.855469 65.761719 35.011719 65.890625 C 35.28125 66.035156 35.597656 66.039062 35.894531 66.097656 C 35.941406 66.101562 35.980469 66.128906 36.003906 66.171875 C 35.785156 66.179688 35.570312 66.128906 35.355469 66.089844 C 35.203125 66.050781 35.039062 66.023438 34.90625 65.933594 C 34.664062 65.667969 34.664062 65.285156 34.515625 64.972656 C 34.316406 64.539062 34.09375 64.117188 33.945312 63.660156 C 33.917969 63.585938 33.898438 63.5 33.851562 63.433594 C 33.664062 63.25 33.523438 63.03125 33.425781 62.789062 C 33.414062 62.917969 33.453125 63.046875 33.46875 63.179688 C 33.503906 63.386719 33.515625 63.613281 33.644531 63.792969 C 33.777344 63.96875 33.867188 64.117188 33.949219 64.292969 C 34.070312 64.554688 34.269531 64.78125 34.332031 65.066406 C 34.394531 65.351562 34.359375 65.6875 34.304688 65.988281 C 34.25 66.292969 34.332031 66.585938 34.238281 66.871094 C 34.195312 67.027344 34.089844 67.175781 33.925781 67.21875 C 33.832031 67.257812 33.695312 67.210938 33.640625 67.316406 C 33.601562 67.363281 33.605469 67.453125 33.53125 67.460938 C 33.539062 67.363281 33.578125 67.273438 33.644531 67.207031 C 33.597656 67.160156 33.53125 67.164062 33.46875 67.171875 L 33.460938 67.238281 C 33.460938 67.21875 33.460938 67.183594 33.460938 67.164062 L 33.414062 67.15625 C 33.414062 67.179688 33.414062 67.226562 33.414062 67.246094 L 33.386719 67.242188 L 33.34375 67.226562 C 33.324219 67.238281 33.296875 67.238281 33.277344 67.222656 L 33.230469 67.253906 C 33.230469 67.195312 33.230469 67.140625 33.226562 67.085938 C 33.214844 67.132812 33.207031 67.183594 33.203125 67.234375 L 33.164062 67.238281 C 33.164062 67.226562 33.164062 67.203125 33.164062 67.191406 L 33.097656 67.242188 C 33.097656 67.019531 33.171875 66.800781 33.128906 66.578125 C 33.109375 66.703125 33.152344 66.832031 33.09375 66.949219 C 33.054688 66.816406 33.09375 66.671875 33.054688 66.539062 C 33.0625 66.632812 33.058594 66.726562 33.058594 66.820312 C 33.070312 66.863281 33.054688 66.902344 33.023438 66.933594 C 33.011719 66.4375 33.042969 65.941406 33.042969 65.449219 C 33.023438 65.375 33.039062 65.296875 33.074219 65.230469 C 33.101562 65.519531 33.070312 65.8125 33.078125 66.105469 C 33.082031 66.199219 33.066406 66.292969 33.054688 66.386719 C 33.066406 66.347656 33.074219 66.308594 33.089844 66.269531 L 33.140625 66.28125 C 33.074219 66.25 33.109375 66.164062 33.101562 66.105469 C 33.109375 65.992188 33.09375 65.875 33.125 65.765625 C 33.125 65.628906 33.125 65.488281 33.109375 65.347656 C 33.121094 65.308594 33.125 65.273438 33.132812 65.234375 L 33.144531 65.308594 L 33.195312 65.238281 C 33.195312 65.261719 33.195312 65.308594 33.199219 65.332031 C 33.253906 65.328125 33.261719 65.273438 33.28125 65.234375 C 33.28125 65.265625 33.285156 65.332031 33.285156 65.363281 C 33.316406 65.335938 33.335938 65.296875 33.335938 65.253906 C 33.363281 65.261719 33.390625 65.261719 33.417969 65.257812 L 33.40625 65.328125 C 33.484375 65.324219 33.460938 65.234375 33.472656 65.183594 C 33.46875 64.664062 33.476562 64.144531 33.460938 63.625 C 33.21875 63.761719 32.984375 63.898438 32.753906 64.039062 C 32.757812 64.230469 32.757812 64.421875 32.757812 64.613281 C 32.703125 64.652344 32.625 64.675781 32.59375 64.734375 C 32.589844 65.390625 32.582031 66.046875 32.585938 66.703125 C 32.582031 66.882812 32.597656 67.058594 32.582031 67.238281 L 32.539062 67.253906 C 32.53125 65.996094 32.542969 64.738281 32.539062 63.480469 C 32.535156 63.441406 32.546875 63.394531 32.527344 63.359375 C 32.355469 63.15625 32.121094 63.007812 31.972656 62.785156 C 31.960938 63.507812 31.972656 64.226562 31.964844 64.941406 C 31.96875 65.273438 31.953125 65.601562 31.976562 65.933594 C 31.84375 65.894531 31.703125 65.871094 31.5625 65.84375 C 31.5625 63.847656 31.558594 61.851562 31.566406 59.855469 C 31.128906 60.21875 30.710938 60.601562 30.28125 60.96875 C 30.265625 61.59375 30.273438 62.226562 30.273438 62.851562 C 30.273438 63.617188 30.273438 64.382812 30.273438 65.152344 C 30.273438 65.292969 30.285156 65.429688 30.304688 65.570312 C 30.171875 65.144531 30.011719 64.722656 29.921875 64.285156 C 29.59375 62.964844 29.597656 61.570312 29.902344 60.246094 C 30.234375 58.761719 30.960938 57.371094 31.964844 56.226562 C 33.042969 54.984375 34.464844 54.042969 36.035156 53.542969 C 37.425781 53.105469 38.921875 53.007812 40.355469 53.269531 C 41.546875 53.492188 42.695312 53.949219 43.695312 54.632812 C 44.640625 55.265625 45.453125 56.074219 46.101562 57.007812 C 46.800781 58.019531 47.3125 59.164062 47.5625 60.367188 C 47.789062 61.457031 47.816406 62.582031 47.640625 63.679688 Z M 43.058594 66.054688 L 43.039062 66.113281 C 43.152344 66.070312 43.277344 66.089844 43.394531 66.082031 C 43.746094 66.089844 44.097656 66.082031 44.449219 66.089844 C 44.058594 66.113281 43.667969 66.089844 43.277344 66.105469 L 43.222656 66.191406 C 43.140625 66.183594 43.058594 66.183594 42.976562 66.1875 C 42.929688 65.988281 42.953125 65.777344 42.953125 65.570312 C 42.976562 65.585938 43.003906 65.589844 43.03125 65.585938 C 43.027344 65.394531 43.046875 65.199219 43.03125 65.007812 L 43 65.011719 C 42.992188 65.167969 43.007812 65.324219 42.996094 65.484375 C 42.984375 65.316406 42.984375 65.152344 42.992188 64.984375 L 43.011719 64.96875 L 43.035156 64.949219 C 42.992188 64.941406 42.957031 64.921875 42.933594 64.886719 C 43.449219 64.878906 43.964844 64.851562 44.480469 64.832031 L 44.460938 64.890625 C 44.335938 64.910156 44.210938 64.90625 44.082031 64.910156 C 43.742188 64.910156 43.402344 64.945312 43.0625 64.9375 C 43.054688 65.308594 43.046875 65.683594 43.058594 66.054688 Z M 44.152344 60.246094 L 44.191406 60.210938 C 44.207031 60.832031 44.191406 61.453125 44.210938 62.074219 C 44.214844 62.726562 44.222656 63.382812 44.207031 64.035156 L 44.160156 64.070312 C 44.152344 62.796875 44.164062 61.519531 44.152344 60.246094 Z M 44.46875 64.242188 C 44.234375 64.300781 43.988281 64.285156 43.75 64.3125 C 43.613281 64.332031 43.472656 64.324219 43.339844 64.367188 C 43.3125 64.5 43.128906 64.472656 43.042969 64.421875 C 43.136719 64.386719 43.230469 64.34375 43.328125 64.339844 C 43.707031 64.289062 44.089844 64.273438 44.46875 64.242188 Z M 44.433594 64.65625 L 44.433594 64.71875 C 44.296875 64.707031 44.160156 64.730469 44.023438 64.746094 C 44.148438 64.679688 44.300781 64.703125 44.433594 64.65625 Z M 43.308594 64.691406 C 43.179688 64.699219 43.046875 64.707031 42.917969 64.710938 C 43.039062 64.667969 43.179688 64.671875 43.308594 64.691406 Z M 42.789062 66.394531 C 42.886719 66.367188 42.996094 66.382812 43.101562 66.394531 C 42.996094 66.402344 42.890625 66.40625 42.789062 66.394531 Z M 43.21875 66.449219 C 43.085938 66.460938 42.949219 66.464844 42.8125 66.457031 C 42.945312 66.421875 43.085938 66.449219 43.21875 66.449219 Z M 44.433594 66.640625 L 44.417969 66.691406 C 43.9375 66.6875 43.457031 66.636719 42.972656 66.625 C 42.914062 66.617188 42.839844 66.632812 42.800781 66.582031 C 43.34375 66.578125 43.886719 66.636719 44.433594 66.640625 Z M 43.984375 66.53125 C 44.121094 66.484375 44.269531 66.515625 44.410156 66.5 L 44.402344 66.539062 C 44.261719 66.519531 44.121094 66.53125 43.984375 66.53125 Z M 42.277344 66.640625 L 42.230469 66.664062 C 42.230469 66.226562 42.234375 65.789062 42.226562 65.351562 L 42.273438 65.375 C 42.289062 65.792969 42.269531 66.21875 42.277344 66.640625 Z M 42.070312 65.40625 C 42.101562 65.417969 42.121094 65.449219 42.121094 65.480469 C 42.132812 65.867188 42.109375 66.257812 42.128906 66.644531 L 42.074219 66.644531 C 42.078125 66.234375 42.066406 65.820312 42.070312 65.40625 Z M 41.964844 66.585938 L 42 66.652344 C 41.949219 66.648438 41.925781 66.605469 41.933594 66.558594 C 41.941406 66.105469 41.921875 65.652344 41.9375 65.203125 C 42 65.230469 41.96875 65.308594 41.976562 65.363281 C 41.976562 65.707031 41.964844 66.054688 41.980469 66.402344 L 41.992188 66.410156 L 42.023438 66.394531 C 42.03125 66.160156 42.015625 65.921875 42.035156 65.6875 C 42.039062 65.964844 42.054688 66.246094 42.03125 66.523438 C 42.03125 66.546875 42.023438 66.570312 42.007812 66.589844 C 42.007812 66.546875 42 66.503906 41.984375 66.464844 C 41.9375 66.480469 41.972656 66.550781 41.964844 66.585938 Z M 41.847656 63.269531 L 41.886719 63.304688 C 41.875 63.871094 41.902344 64.4375 41.890625 65.003906 L 41.855469 64.960938 C 41.859375 64.398438 41.847656 63.835938 41.847656 63.269531 Z M 41.511719 66.441406 C 41.570312 66.449219 41.632812 66.445312 41.605469 66.367188 L 41.53125 66.402344 C 41.535156 66.351562 41.59375 66.359375 41.625 66.339844 C 41.625 66.386719 41.625 66.433594 41.625 66.480469 L 41.464844 66.472656 C 41.496094 66.359375 41.472656 66.246094 41.46875 66.128906 C 41.542969 66.101562 41.40625 65.972656 41.519531 66 C 41.535156 66.039062 41.53125 66.082031 41.535156 66.125 C 41.570312 66.121094 41.617188 66.097656 41.625 66.152344 L 41.523438 66.15625 L 41.515625 66.1875 L 41.628906 66.191406 C 41.632812 66.246094 41.632812 66.40625 41.554688 66.308594 L 41.546875 66.300781 L 41.53125 66.226562 L 41.492188 66.238281 C 41.539062 66.300781 41.511719 66.375 41.511719 66.441406 Z M 41.457031 65.667969 L 41.546875 65.644531 L 41.484375 65.617188 C 41.496094 65.597656 41.515625 65.582031 41.535156 65.566406 L 41.453125 65.566406 C 41.457031 65.535156 41.46875 65.472656 41.472656 65.441406 L 41.546875 65.441406 L 41.460938 65.425781 L 41.460938 65.386719 L 41.550781 65.386719 C 41.507812 65.386719 41.46875 65.367188 41.445312 65.332031 C 41.503906 65.320312 41.566406 65.300781 41.625 65.324219 C 41.617188 65.382812 41.613281 65.441406 41.605469 65.5 C 41.601562 65.558594 41.605469 65.640625 41.609375 65.710938 L 41.496094 65.707031 C 41.515625 65.765625 41.589844 65.703125 41.617188 65.757812 C 41.644531 65.808594 41.527344 65.832031 41.613281 65.851562 C 41.601562 65.933594 41.628906 66.023438 41.59375 66.101562 L 41.554688 66.097656 C 41.539062 66.027344 41.558594 65.957031 41.5625 65.886719 L 41.527344 65.964844 L 41.53125 65.984375 L 41.507812 66 L 41.476562 65.964844 L 41.453125 65.972656 C 41.464844 65.871094 41.464844 65.769531 41.457031 65.667969 Z M 41.457031 65.214844 L 41.515625 65.175781 L 41.511719 65.273438 L 41.539062 65.273438 C 41.535156 65.195312 41.515625 65.113281 41.542969 65.035156 L 41.566406 65.035156 L 41.558594 65.136719 L 41.628906 65.101562 L 41.628906 65.164062 L 41.5625 65.148438 L 41.570312 65.207031 L 41.632812 65.191406 L 41.625 65.238281 L 41.554688 65.261719 L 41.632812 65.273438 L 41.632812 65.292969 C 41.570312 65.292969 41.511719 65.292969 41.449219 65.292969 L 41.5 65.257812 Z M 41.480469 65.085938 C 41.4375 65.082031 41.460938 65.011719 41.496094 65.011719 C 41.527344 65.011719 41.519531 65.089844 41.480469 65.085938 Z M 41.464844 65.121094 C 41.546875 65.058594 41.480469 65.226562 41.464844 65.121094 Z M 41.601562 65.035156 C 41.695312 65.042969 41.550781 65.125 41.601562 65.035156 Z M 41.207031 65.71875 L 41.183594 65.71875 C 41.1875 65.53125 41.1875 65.339844 41.1875 65.152344 C 41.1875 65.082031 41.171875 65.011719 41.195312 64.941406 C 41.222656 65.199219 41.199219 65.460938 41.207031 65.71875 Z M 41.109375 65.597656 C 41.117188 65.464844 41.113281 65.335938 41.09375 65.207031 L 41.082031 65.1875 C 41.074219 65.320312 41.117188 65.472656 41.0625 65.59375 C 41.058594 65.453125 41.070312 65.308594 41.070312 65.167969 L 41.0625 65.152344 C 41.058594 65.078125 41.058594 65 41.09375 64.929688 C 41.191406 64.960938 41.160156 65.070312 41.164062 65.152344 C 41.160156 65.296875 41.164062 65.445312 41.160156 65.59375 L 41.109375 65.59375 Z M 40.886719 66.09375 C 40.933594 66.082031 41.035156 66.0625 41.0625 66.105469 C 41.019531 66.128906 40.914062 66.140625 40.886719 66.09375 Z M 40.890625 66.164062 C 40.980469 66.117188 40.894531 66.261719 40.890625 66.164062 Z M 40.863281 66.035156 C 40.921875 66.023438 40.996094 65.996094 41.054688 66.019531 C 41.03125 66.074219 40.898438 66.066406 40.863281 66.035156 Z M 40.96875 65.984375 C 40.929688 66.007812 40.878906 66.019531 40.835938 66.007812 L 40.867188 65.941406 C 40.792969 65.855469 40.894531 65.761719 40.988281 65.785156 C 40.988281 65.851562 41.019531 65.929688 40.96875 65.984375 Z M 40.867188 65.71875 C 40.910156 65.703125 40.921875 65.71875 40.902344 65.761719 C 40.859375 65.777344 40.847656 65.761719 40.867188 65.71875 Z M 40.882812 65.65625 C 40.960938 65.613281 41.011719 65.707031 40.957031 65.765625 C 40.941406 65.75 40.929688 65.726562 40.925781 65.703125 C 40.917969 65.683594 40.828125 65.679688 40.882812 65.65625 Z M 40.835938 65.617188 C 40.867188 65.582031 40.914062 65.59375 40.957031 65.585938 L 40.976562 65.519531 L 40.984375 65.597656 C 41.042969 65.578125 41.078125 65.59375 41.09375 65.636719 C 41.011719 65.625 40.921875 65.617188 40.835938 65.617188 Z M 40.863281 65.523438 C 40.90625 65.503906 40.917969 65.519531 40.898438 65.5625 C 40.855469 65.578125 40.84375 65.566406 40.863281 65.523438 Z M 40.585938 65.867188 C 40.554688 65.964844 40.570312 66.074219 40.582031 66.175781 C 40.546875 66.148438 40.488281 66.152344 40.503906 66.207031 L 40.558594 66.25 L 40.382812 66.25 C 40.390625 66.214844 40.394531 66.175781 40.402344 66.140625 C 40.34375 66.15625 40.292969 66.179688 40.238281 66.199219 C 40.246094 66.113281 40.246094 66.023438 40.238281 65.933594 L 40.421875 65.941406 L 40.40625 65.886719 C 40.335938 65.886719 40.265625 65.894531 40.195312 65.886719 C 40.257812 65.847656 40.332031 65.84375 40.40625 65.859375 C 40.425781 65.714844 40.386719 65.558594 40.425781 65.414062 C 40.425781 65.550781 40.441406 65.6875 40.445312 65.824219 L 40.585938 65.816406 L 40.582031 65.847656 C 40.527344 65.851562 40.472656 65.847656 40.417969 65.839844 L 40.414062 65.886719 C 40.472656 65.882812 40.527344 65.875 40.585938 65.867188 Z M 40.332031 66.242188 C 40.308594 66.265625 40.234375 66.273438 40.238281 66.230469 C 40.242188 66.1875 40.335938 66.199219 40.332031 66.242188 Z M 36.515625 62.601562 L 36.472656 62.632812 C 36.304688 62.457031 36.082031 62.34375 35.855469 62.261719 C 35.199219 62.03125 34.449219 62.027344 33.800781 62.292969 C 33.738281 62.316406 33.648438 62.339844 33.601562 62.273438 C 33.460938 62.082031 33.445312 61.828125 33.433594 61.597656 C 33.414062 61.152344 33.570312 60.714844 33.800781 60.339844 C 33.917969 60.128906 34.050781 59.921875 34.242188 59.765625 C 34.546875 59.503906 34.945312 59.324219 35.355469 59.355469 C 35.59375 59.375 35.785156 59.535156 35.929688 59.714844 C 36.070312 59.890625 36.15625 60.0625 36.265625 60.234375 C 36.535156 60.652344 36.667969 61.164062 36.605469 61.65625 C 36.585938 61.847656 36.5 62.027344 36.4375 62.207031 C 36.398438 62.34375 36.464844 62.476562 36.515625 62.601562 Z M 36.515625 62.601562 " fill-opacity="1" fill-rule="nonzero"/></g><path fill="#545454" d="M 40.550781 65.984375 L 40.484375 65.96875 C 40.472656 65.953125 40.46875 65.863281 40.445312 65.921875 C 40.445312 65.949219 40.445312 65.992188 40.445312 66.019531 C 40.472656 66.035156 40.539062 66.019531 40.550781 65.984375 Z M 40.550781 65.984375 " fill-opacity="1" fill-rule="nonzero"/><path fill="#545454" d="M 40.503906 66.050781 C 40.511719 66.152344 40.59375 65.996094 40.503906 66.050781 Z M 40.503906 66.050781 " fill-opacity="1" fill-rule="nonzero"/><path fill="#545454" d="M 40.332031 65.96875 L 40.332031 65.996094 L 40.378906 65.996094 L 40.378906 65.972656 L 40.332031 65.972656 Z M 40.332031 65.96875 " fill-opacity="1" fill-rule="nonzero"/><path fill="#545454" d="M 40.332031 66.03125 C 40.335938 66.125 40.429688 65.988281 40.332031 66.03125 Z M 40.332031 66.03125 " fill-opacity="1" fill-rule="nonzero"/><path fill="#545454" d="M 37.339844 62.761719 C 37.175781 63.144531 36.75 63.375 36.34375 63.386719 C 36.34375 63.644531 36.300781 63.898438 36.277344 64.15625 C 36.554688 64.292969 36.78125 64.511719 36.988281 64.734375 C 37.019531 64.570312 37.085938 64.414062 37.125 64.253906 C 37.257812 63.765625 37.320312 63.265625 37.339844 62.761719 Z M 37.339844 62.761719 " fill-opacity="1" fill-rule="nonzero"/><path fill="#545454" d="M 33.460938 66.28125 L 33.46875 66.269531 L 33.457031 66.28125 Z M 33.460938 66.28125 " fill-opacity="1" fill-rule="nonzero"/><path fill="#545454" d="M 40.558594 66.464844 C 40.519531 66.449219 40.480469 66.449219 40.445312 66.46875 L 40.441406 66.480469 C 40.472656 66.496094 40.535156 66.511719 40.558594 66.464844 Z M 40.558594 66.464844 " fill-opacity="1" fill-rule="nonzero"/><path fill="#545454" d="M 33.550781 66.882812 L 33.566406 66.839844 L 33.472656 66.828125 C 33.480469 66.863281 33.515625 66.886719 33.550781 66.882812 Z M 33.550781 66.882812 " fill-opacity="1" fill-rule="nonzero"/><path fill="#545454" d="M 33.675781 65.550781 C 33.664062 65.597656 33.648438 65.640625 33.632812 65.6875 L 33.6875 65.710938 L 33.574219 65.730469 L 33.660156 65.746094 L 33.664062 65.78125 C 33.589844 65.777344 33.511719 65.78125 33.4375 65.796875 C 33.519531 65.8125 33.617188 65.78125 33.6875 65.839844 C 33.609375 65.847656 33.535156 65.847656 33.457031 65.847656 L 33.511719 65.878906 L 33.558594 65.871094 L 33.664062 65.859375 L 33.660156 65.917969 C 33.667969 66.023438 33.667969 66.128906 33.660156 66.234375 L 33.660156 66.25 C 33.667969 66.445312 33.6875 66.652344 33.636719 66.839844 C 33.636719 66.898438 33.625 66.957031 33.648438 67.011719 L 33.675781 67.074219 L 33.585938 67.070312 L 33.605469 67.097656 L 33.660156 67.117188 L 33.683594 67.175781 C 33.800781 67.15625 33.933594 67.167969 34.023438 67.078125 C 34.152344 66.949219 34.191406 66.761719 34.195312 66.585938 C 34.195312 66.355469 34.179688 66.125 34.21875 65.898438 C 34.273438 65.617188 34.269531 65.324219 34.242188 65.042969 L 34.210938 65.042969 C 34.222656 65.277344 34.214844 65.519531 34.214844 65.761719 L 34.183594 65.722656 C 34.171875 65.5 34.1875 65.277344 34.175781 65.054688 L 34.207031 65 C 34.179688 64.804688 34.042969 64.65625 33.945312 64.496094 C 33.882812 64.371094 33.722656 64.402344 33.609375 64.375 C 33.601562 64.753906 33.601562 65.136719 33.601562 65.515625 Z M 33.675781 65.550781 " fill-opacity="1" fill-rule="nonzero"/><path fill="#545454" d="M 33.21875 66.027344 C 33.179688 66.035156 33.1875 66.097656 33.203125 66.128906 C 33.246094 66.132812 33.246094 66.046875 33.21875 66.027344 Z M 33.21875 66.027344 " fill-opacity="1" fill-rule="nonzero"/><path fill="#545454" d="M 33.613281 66.988281 L 33.601562 66.984375 L 33.609375 67.003906 Z M 33.613281 66.988281 " fill-opacity="1" fill-rule="nonzero"/><path fill="#545454" d="M 33.21875 66.621094 C 33.222656 66.6875 33.222656 66.75 33.21875 66.8125 C 33.28125 66.792969 33.28125 66.644531 33.21875 66.621094 Z M 33.21875 66.621094 " fill-opacity="1" fill-rule="nonzero"/><path fill="#545454" d="M 33.214844 66.1875 L 33.175781 66.230469 C 33.199219 66.277344 33.265625 66.207031 33.214844 66.1875 Z M 33.214844 66.1875 " fill-opacity="1" fill-rule="nonzero"/><path fill="#545454" d="M 33.25 66.25 L 33.25 66.296875 C 33.277344 66.308594 33.304688 66.296875 33.3125 66.269531 C 33.316406 66.265625 33.316406 66.261719 33.316406 66.261719 C 33.324219 66.214844 33.257812 66.210938 33.25 66.25 Z M 33.25 66.25 " fill-opacity="1" fill-rule="nonzero"/><path fill="#545454" d="M 41.609375 67 C 41.707031 66.957031 41.8125 66.9375 41.910156 66.90625 C 41.851562 66.863281 41.792969 66.8125 41.71875 66.789062 C 41.644531 66.769531 41.515625 66.796875 41.417969 66.804688 C 41.464844 66.882812 41.535156 66.945312 41.609375 67 Z M 41.609375 67 " fill-opacity="1" fill-rule="nonzero"/><path fill="#545454" d="M 41.15625 65.933594 L 41.121094 65.910156 C 41.121094 65.921875 41.121094 65.949219 41.121094 65.960938 L 41.136719 65.957031 Z M 41.15625 65.933594 " fill-opacity="1" fill-rule="nonzero"/><path fill="#545454" d="M 33.59375 66.578125 L 33.609375 66.582031 L 33.601562 66.558594 Z M 33.59375 66.578125 " fill-opacity="1" fill-rule="nonzero"/><path fill="#545454" d="M 41.117188 66.449219 C 41.144531 66.417969 41.140625 66.402344 41.09375 66.398438 C 41.0625 66.425781 41.070312 66.445312 41.117188 66.449219 Z M 41.117188 66.449219 " fill-opacity="1" fill-rule="nonzero"/><path fill="#545454" d="M 41.054688 65.90625 C 41.011719 65.996094 41.15625 65.910156 41.054688 65.90625 Z M 41.054688 65.90625 " fill-opacity="1" fill-rule="nonzero"/><path fill="#545454" d="M 33.445312 65.484375 C 33.484375 65.472656 33.519531 65.46875 33.558594 65.460938 C 33.554688 65.425781 33.558594 65.386719 33.570312 65.347656 L 33.46875 65.378906 C 33.457031 65.414062 33.453125 65.449219 33.445312 65.484375 Z M 33.445312 65.484375 " fill-opacity="1" fill-rule="nonzero"/><path fill="#545454" d="M 41.671875 67.039062 C 41.800781 67.171875 41.957031 67.277344 42.085938 67.417969 C 42.132812 67.46875 42.15625 67.554688 42.242188 67.546875 C 42.167969 67.367188 42.089844 67.175781 41.953125 67.03125 C 41.859375 67.019531 41.765625 67.023438 41.671875 67.039062 Z M 41.671875 67.039062 " fill-opacity="1" fill-rule="nonzero"/><path fill="#545454" d="M 33.550781 65.320312 L 33.550781 65.300781 C 33.464844 65.25 33.46875 65.394531 33.550781 65.320312 Z M 33.550781 65.320312 " fill-opacity="1" fill-rule="nonzero"/><g fill="#606060" fill-opacity="1"><g transform="translate(129.541647, 49.708247)"><g><path d="M 16 -27.859375 C 17.375 -27.859375 18.507812 -27.738281 19.40625 -27.5 C 20.300781 -27.257812 21.265625 -26.929688 22.296875 -26.515625 C 22.410156 -26.460938 22.679688 -26.347656 23.109375 -26.171875 C 23.546875 -26.003906 23.9375 -25.921875 24.28125 -25.921875 C 25.289062 -25.921875 25.914062 -26.554688 26.15625 -27.828125 L 26.953125 -27.828125 L 26.953125 -18.6875 L 26.15625 -18.6875 C 25.945312 -20.195312 25.410156 -21.515625 24.546875 -22.640625 C 23.679688 -23.765625 22.640625 -24.625 21.421875 -25.21875 C 20.210938 -25.8125 18.972656 -26.109375 17.703125 -26.109375 C 15.898438 -26.109375 14.332031 -25.570312 13 -24.5 C 11.664062 -23.4375 10.644531 -21.953125 9.9375 -20.046875 C 9.238281 -18.140625 8.890625 -15.984375 8.890625 -13.578125 C 8.890625 -9.679688 9.65625 -6.628906 11.1875 -4.421875 C 12.726562 -2.210938 14.847656 -1.109375 17.546875 -1.109375 C 19.265625 -1.109375 20.8125 -1.519531 22.1875 -2.34375 C 23.5625 -3.164062 24.960938 -4.410156 26.390625 -6.078125 L 26.390625 -3.890625 C 24.910156 -2.328125 23.367188 -1.191406 21.765625 -0.484375 C 20.171875 0.210938 18.335938 0.5625 16.265625 0.5625 C 13.359375 0.5625 10.8125 -0.046875 8.625 -1.265625 C 6.445312 -2.484375 4.769531 -4.132812 3.59375 -6.21875 C 2.414062 -8.3125 1.828125 -10.628906 1.828125 -13.171875 C 1.828125 -15.796875 2.46875 -18.234375 3.75 -20.484375 C 5.03125 -22.734375 6.753906 -24.523438 8.921875 -25.859375 C 11.097656 -27.191406 13.457031 -27.859375 16 -27.859375 Z M 16 -27.859375 "/></g></g></g><g fill="#606060" fill-opacity="1"><g transform="translate(161.65366, 49.708247)"><g><path d="M 5.046875 -5.4375 L 14.25 -27.703125 L 14.640625 -27.703125 L 23.8125 -5.359375 C 24.414062 -3.847656 25.015625 -2.695312 25.609375 -1.90625 C 26.210938 -1.113281 26.988281 -0.71875 27.9375 -0.71875 L 27.9375 0 L 15.203125 0 L 15.203125 -0.71875 C 16.472656 -0.738281 17.316406 -0.832031 17.734375 -1 C 18.160156 -1.175781 18.375 -1.570312 18.375 -2.1875 C 18.375 -2.363281 18.328125 -2.570312 18.234375 -2.8125 C 18.140625 -3.050781 18.066406 -3.25 18.015625 -3.40625 L 16.3125 -7.703125 L 7.578125 -7.703125 L 6.34375 -4.71875 C 5.976562 -3.976562 5.796875 -3.332031 5.796875 -2.78125 C 5.796875 -1.957031 6.097656 -1.40625 6.703125 -1.125 C 7.316406 -0.851562 8.175781 -0.71875 9.28125 -0.71875 L 9.28125 0 L 0.5625 0 L 0.5625 -0.71875 C 1.457031 -0.789062 2.257812 -1.195312 2.96875 -1.9375 C 3.6875 -2.6875 4.378906 -3.851562 5.046875 -5.4375 Z M 15.71875 -9.171875 L 11.953125 -18.296875 L 8.171875 -9.171875 Z M 15.71875 -9.171875 "/></g></g></g><g fill="#606060" fill-opacity="1"><g transform="translate(193.765672, 49.708247)"><g><path d="M 25.515625 -19.890625 C 25.515625 -18.503906 25.101562 -17.25 24.28125 -16.125 C 23.46875 -15.007812 22.257812 -14.117188 20.65625 -13.453125 C 19.050781 -12.796875 17.140625 -12.46875 14.921875 -12.46875 L 10.953125 -12.46875 L 10.953125 -4.125 C 10.953125 -3.144531 11.078125 -2.414062 11.328125 -1.9375 C 11.578125 -1.46875 11.945312 -1.148438 12.4375 -0.984375 C 12.925781 -0.828125 13.632812 -0.738281 14.5625 -0.71875 L 14.5625 0 L 0.71875 0 L 0.71875 -0.71875 C 1.71875 -0.738281 2.484375 -0.820312 3.015625 -0.96875 C 3.546875 -1.113281 3.941406 -1.425781 4.203125 -1.90625 C 4.472656 -2.382812 4.609375 -3.125 4.609375 -4.125 L 4.609375 -23.375 C 4.609375 -24.644531 4.289062 -25.488281 3.65625 -25.90625 C 3.019531 -26.332031 2.039062 -26.546875 0.71875 -26.546875 L 0.71875 -27.265625 L 15.4375 -27.265625 C 17.082031 -27.265625 18.675781 -26.984375 20.21875 -26.421875 C 21.769531 -25.867188 23.039062 -25.035156 24.03125 -23.921875 C 25.019531 -22.816406 25.515625 -21.472656 25.515625 -19.890625 Z M 18.6875 -19.765625 C 18.6875 -21.453125 18.421875 -22.734375 17.890625 -23.609375 C 17.367188 -24.484375 16.675781 -25.066406 15.8125 -25.359375 C 14.957031 -25.648438 13.878906 -25.796875 12.578125 -25.796875 L 10.953125 -25.796875 L 10.953125 -13.9375 L 13.53125 -13.9375 C 15.007812 -13.9375 16.238281 -14.394531 17.21875 -15.3125 C 18.195312 -16.238281 18.6875 -17.722656 18.6875 -19.765625 Z M 18.6875 -19.765625 "/></g></g></g><g fill="#606060" fill-opacity="1"><g transform="translate(223.813638, 49.708247)"><g><path d="M 25.359375 -20.125 L 24.640625 -20.125 C 24.460938 -22 23.875 -23.410156 22.875 -24.359375 C 21.882812 -25.316406 20.753906 -25.796875 19.484375 -25.796875 L 16.390625 -25.796875 L 16.390625 -4.28125 C 16.390625 -3.300781 16.519531 -2.5625 16.78125 -2.0625 C 17.050781 -1.5625 17.460938 -1.21875 18.015625 -1.03125 C 18.566406 -0.84375 19.347656 -0.738281 20.359375 -0.71875 L 20.359375 0 L 6.078125 0 L 6.078125 -0.71875 C 7.078125 -0.71875 7.847656 -0.789062 8.390625 -0.9375 C 8.929688 -1.082031 9.34375 -1.40625 9.625 -1.90625 C 9.90625 -2.40625 10.046875 -3.171875 10.046875 -4.203125 L 10.046875 -25.796875 L 6.625 -25.796875 C 5.4375 -25.796875 4.378906 -25.269531 3.453125 -24.21875 C 2.523438 -23.175781 1.96875 -21.8125 1.78125 -20.125 L 1.078125 -20.125 L 1.078125 -27.265625 L 25.359375 -27.265625 Z M 25.359375 -20.125 "/></g></g></g><g fill="#606060" fill-opacity="1"><g transform="translate(253.861604, 49.708247)"><g><path d="M 14.046875 -26.546875 C 12.878906 -26.546875 12.03125 -26.320312 11.5 -25.875 C 10.976562 -25.425781 10.71875 -24.59375 10.71875 -23.375 L 10.71875 -7.1875 C 10.71875 -5.519531 11.242188 -4.109375 12.296875 -2.953125 C 13.359375 -1.804688 15 -1.234375 17.21875 -1.234375 C 19.8125 -1.234375 21.769531 -2.019531 23.09375 -3.59375 C 24.414062 -5.164062 25.078125 -7.128906 25.078125 -9.484375 L 25.078125 -23.09375 C 25.078125 -24.3125 24.8125 -25.191406 24.28125 -25.734375 C 23.757812 -26.273438 22.890625 -26.546875 21.671875 -26.546875 L 21.671875 -27.265625 L 30.046875 -27.265625 L 30.046875 -26.546875 C 28.828125 -26.523438 27.9375 -26.253906 27.375 -25.734375 C 26.820312 -25.222656 26.546875 -24.25 26.546875 -22.8125 L 26.546875 -9.640625 C 26.546875 -6.335938 25.59375 -3.8125 23.6875 -2.0625 C 21.78125 -0.3125 19.046875 0.5625 15.484375 0.5625 C 12.960938 0.5625 10.875 0.160156 9.21875 -0.640625 C 7.570312 -1.453125 6.347656 -2.53125 5.546875 -3.875 C 4.753906 -5.226562 4.359375 -6.753906 4.359375 -8.453125 L 4.359375 -23.53125 C 4.359375 -24.726562 4.066406 -25.523438 3.484375 -25.921875 C 2.910156 -26.316406 1.9375 -26.523438 0.5625 -26.546875 L 0.5625 -27.265625 L 14.046875 -27.265625 Z M 14.046875 -26.546875 "/></g></g></g><g fill="#606060" fill-opacity="1"><g transform="translate(288.037659, 49.708247)"><g><path d="M 24.640625 -19.71875 C 24.640625 -18.050781 24.101562 -16.613281 23.03125 -15.40625 C 21.96875 -14.207031 20.519531 -13.382812 18.6875 -12.9375 L 24.046875 -4.171875 C 24.734375 -3.023438 25.375 -2.164062 25.96875 -1.59375 C 26.570312 -1.03125 27.175781 -0.738281 27.78125 -0.71875 L 27.78125 0 L 19.71875 0 L 12.140625 -12.421875 L 10.90625 -12.421875 L 10.90625 -4.125 C 10.90625 -3.09375 11.046875 -2.335938 11.328125 -1.859375 C 11.609375 -1.390625 12.007812 -1.085938 12.53125 -0.953125 C 13.0625 -0.816406 13.859375 -0.738281 14.921875 -0.71875 L 14.921875 0 L 0.75 0 L 0.75 -0.71875 C 1.757812 -0.738281 2.519531 -0.820312 3.03125 -0.96875 C 3.550781 -1.113281 3.9375 -1.429688 4.1875 -1.921875 C 4.4375 -2.410156 4.5625 -3.144531 4.5625 -4.125 L 4.5625 -23.5 C 4.5625 -24.6875 4.265625 -25.488281 3.671875 -25.90625 C 3.078125 -26.332031 2.101562 -26.546875 0.75 -26.546875 L 0.75 -27.265625 L 14.765625 -27.265625 C 17.703125 -27.265625 20.082031 -26.601562 21.90625 -25.28125 C 23.726562 -23.957031 24.640625 -22.101562 24.640625 -19.71875 Z M 13.0625 -13.890625 C 14.382812 -13.890625 15.570312 -14.304688 16.625 -15.140625 C 17.6875 -15.972656 18.21875 -17.539062 18.21875 -19.84375 C 18.21875 -23.8125 16.300781 -25.796875 12.46875 -25.796875 L 10.90625 -25.796875 L 10.90625 -13.890625 Z M 13.0625 -13.890625 "/></g></g></g><g fill="#606060" fill-opacity="1"><g transform="translate(320.149666, 49.708247)"><g><path d="M 23.6875 -19.484375 L 22.984375 -19.484375 C 22.609375 -21.546875 21.863281 -23.113281 20.75 -24.1875 C 19.644531 -25.257812 18.191406 -25.796875 16.390625 -25.796875 L 11.03125 -25.796875 L 11.03125 -14.640625 L 11.859375 -14.640625 C 12.867188 -14.640625 13.695312 -14.796875 14.34375 -15.109375 C 14.988281 -15.429688 15.535156 -16.046875 15.984375 -16.953125 C 16.441406 -17.867188 16.773438 -19.175781 16.984375 -20.875 L 17.703125 -20.875 L 17.703125 -7.03125 L 16.984375 -7.03125 C 16.691406 -9.4375 16.128906 -11.0625 15.296875 -11.90625 C 14.460938 -12.75 13.375 -13.171875 12.03125 -13.171875 L 11.03125 -13.171875 L 11.03125 -4.40625 C 11.03125 -3.269531 11.203125 -2.492188 11.546875 -2.078125 C 11.890625 -1.671875 12.550781 -1.46875 13.53125 -1.46875 L 16.390625 -1.46875 C 18.722656 -1.46875 20.550781 -2.09375 21.875 -3.34375 C 23.195312 -4.601562 24.203125 -6.289062 24.890625 -8.40625 L 25.59375 -8.40625 L 24.375 0 L 0.71875 0 L 0.71875 -0.71875 L 1.625 -0.71875 C 2.550781 -0.71875 3.234375 -0.851562 3.671875 -1.125 C 4.109375 -1.40625 4.382812 -1.769531 4.5 -2.21875 C 4.625 -2.664062 4.6875 -3.273438 4.6875 -4.046875 L 4.6875 -23.296875 C 4.6875 -24.585938 4.382812 -25.445312 3.78125 -25.875 C 3.1875 -26.300781 2.164062 -26.523438 0.71875 -26.546875 L 0.71875 -27.265625 L 23.6875 -27.265625 Z M 23.6875 -19.484375 "/></g></g></g><g fill="#ffc107" fill-opacity="1"><g transform="translate(82.961899, 49.708247)"><g><path d="M 29.203125 -13.453125 C 29.203125 -10.648438 28.597656 -8.226562 27.390625 -6.1875 C 26.191406 -4.15625 24.554688 -2.613281 22.484375 -1.5625 C 20.410156 -0.519531 18.101562 0 15.5625 0 L 0.671875 0 L 0.671875 -0.71875 C 1.648438 -0.71875 2.390625 -0.789062 2.890625 -0.9375 C 3.398438 -1.082031 3.78125 -1.390625 4.03125 -1.859375 C 4.28125 -2.335938 4.40625 -3.09375 4.40625 -4.125 L 4.40625 -23.09375 C 4.40625 -24.125 4.269531 -24.882812 4 -25.375 C 3.738281 -25.863281 3.359375 -26.179688 2.859375 -26.328125 C 2.359375 -26.472656 1.628906 -26.546875 0.671875 -26.546875 L 0.671875 -27.265625 L 14.921875 -27.265625 C 17.515625 -27.265625 19.894531 -26.738281 22.0625 -25.6875 C 24.238281 -24.644531 25.972656 -23.085938 27.265625 -21.015625 C 28.554688 -18.941406 29.203125 -16.421875 29.203125 -13.453125 Z M 13.8125 -1.390625 C 19.363281 -1.390625 22.140625 -5.34375 22.140625 -13.25 C 22.140625 -17.675781 21.335938 -20.882812 19.734375 -22.875 C 18.140625 -24.875 16.125 -25.875 13.6875 -25.875 L 10.75 -25.875 L 10.75 -4.046875 C 10.75 -3.273438 10.832031 -2.703125 11 -2.328125 C 11.175781 -1.960938 11.476562 -1.710938 11.90625 -1.578125 C 12.332031 -1.453125 12.96875 -1.390625 13.8125 -1.390625 Z M 13.8125 -1.390625 "/></g></g></g><g fill="#ffc107" fill-opacity="1"><g transform="translate(115.024421, 45.38355)"><g><path d="M 12.296875 -7.140625 L 0.953125 -7.140625 L 0.953125 -11.265625 L 12.296875 -11.265625 Z M 12.296875 -7.140625 "/></g></g></g><g fill="#606060" fill-opacity="1"><g transform="translate(118.945798, 83.839987)"><g><path d="M 9.328125 -14.1875 C 7.972656 -14.1875 6.925781 -13.675781 6.1875 -12.65625 C 5.445312 -11.644531 5.078125 -10.234375 5.078125 -8.421875 C 5.078125 -4.640625 6.492188 -2.75 9.328125 -2.75 C 10.515625 -2.75 11.953125 -3.046875 13.640625 -3.640625 L 13.640625 -0.640625 C 12.253906 -0.0546875 10.703125 0.234375 8.984375 0.234375 C 6.523438 0.234375 4.640625 -0.507812 3.328125 -2 C 2.023438 -3.5 1.375 -5.644531 1.375 -8.4375 C 1.375 -10.195312 1.691406 -11.738281 2.328125 -13.0625 C 2.972656 -14.394531 3.894531 -15.410156 5.09375 -16.109375 C 6.300781 -16.816406 7.710938 -17.171875 9.328125 -17.171875 C 10.972656 -17.171875 12.625 -16.773438 14.28125 -15.984375 L 13.125 -13.0625 C 12.488281 -13.363281 11.847656 -13.625 11.203125 -13.84375 C 10.566406 -14.070312 9.941406 -14.1875 9.328125 -14.1875 Z M 9.328125 -14.1875 "/></g></g></g><g fill="#606060" fill-opacity="1"><g transform="translate(137.614967, 83.839987)"><g><path d="M 4.671875 -6.5 C 4.671875 -5.21875 4.878906 -4.25 5.296875 -3.59375 C 5.722656 -2.9375 6.410156 -2.609375 7.359375 -2.609375 C 8.296875 -2.609375 8.96875 -2.929688 9.375 -3.578125 C 9.789062 -4.234375 10 -5.207031 10 -6.5 C 10 -7.78125 9.789062 -8.738281 9.375 -9.375 C 8.957031 -10.019531 8.273438 -10.34375 7.328125 -10.34375 C 6.390625 -10.34375 5.710938 -10.023438 5.296875 -9.390625 C 4.878906 -8.753906 4.671875 -7.789062 4.671875 -6.5 Z M 13.625 -6.5 C 13.625 -4.382812 13.066406 -2.734375 11.953125 -1.546875 C 10.835938 -0.359375 9.289062 0.234375 7.3125 0.234375 C 6.0625 0.234375 4.960938 -0.0351562 4.015625 -0.578125 C 3.066406 -1.128906 2.335938 -1.910156 1.828125 -2.921875 C 1.316406 -3.941406 1.0625 -5.132812 1.0625 -6.5 C 1.0625 -8.613281 1.613281 -10.253906 2.71875 -11.421875 C 3.820312 -12.597656 5.375 -13.1875 7.375 -13.1875 C 8.613281 -13.1875 9.707031 -12.914062 10.65625 -12.375 C 11.613281 -11.832031 12.347656 -11.054688 12.859375 -10.046875 C 13.367188 -9.035156 13.625 -7.851562 13.625 -6.5 Z M 13.625 -6.5 "/></g></g></g><g fill="#606060" fill-opacity="1"><g transform="translate(155.855714, 83.839987)"><g><path d="M 13.8125 0 L 10.265625 0 L 10.265625 -7.5625 C 10.265625 -8.5 10.097656 -9.195312 9.765625 -9.65625 C 9.441406 -10.125 8.914062 -10.359375 8.1875 -10.359375 C 7.195312 -10.359375 6.484375 -10.03125 6.046875 -9.375 C 5.609375 -8.71875 5.390625 -7.625 5.390625 -6.09375 L 5.390625 0 L 1.859375 0 L 1.859375 -12.953125 L 4.546875 -12.953125 L 5.03125 -11.296875 L 5.21875 -11.296875 C 5.613281 -11.921875 6.15625 -12.390625 6.84375 -12.703125 C 7.539062 -13.023438 8.328125 -13.1875 9.203125 -13.1875 C 10.710938 -13.1875 11.859375 -12.78125 12.640625 -11.96875 C 13.421875 -11.15625 13.8125 -9.976562 13.8125 -8.4375 Z M 13.8125 0 "/></g></g></g><g fill="#606060" fill-opacity="1"><g transform="translate(174.999611, 83.839987)"><g><path d="M 10.890625 -3.84375 C 10.890625 -2.519531 10.425781 -1.507812 9.5 -0.8125 C 8.582031 -0.113281 7.203125 0.234375 5.359375 0.234375 C 4.421875 0.234375 3.617188 0.164062 2.953125 0.03125 C 2.285156 -0.09375 1.664062 -0.273438 1.09375 -0.515625 L 1.09375 -3.4375 C 1.75 -3.125 2.488281 -2.863281 3.3125 -2.65625 C 4.132812 -2.445312 4.859375 -2.34375 5.484375 -2.34375 C 6.765625 -2.34375 7.40625 -2.71875 7.40625 -3.46875 C 7.40625 -3.738281 7.316406 -3.960938 7.140625 -4.140625 C 6.972656 -4.316406 6.679688 -4.515625 6.265625 -4.734375 C 5.847656 -4.953125 5.289062 -5.207031 4.59375 -5.5 C 3.601562 -5.914062 2.875 -6.300781 2.40625 -6.65625 C 1.9375 -7.007812 1.59375 -7.414062 1.375 -7.875 C 1.164062 -8.332031 1.0625 -8.898438 1.0625 -9.578125 C 1.0625 -10.722656 1.503906 -11.609375 2.390625 -12.234375 C 3.285156 -12.867188 4.554688 -13.1875 6.203125 -13.1875 C 7.753906 -13.1875 9.269531 -12.847656 10.75 -12.171875 L 9.6875 -9.625 C 9.03125 -9.90625 8.421875 -10.132812 7.859375 -10.3125 C 7.296875 -10.488281 6.722656 -10.578125 6.140625 -10.578125 C 5.097656 -10.578125 4.578125 -10.296875 4.578125 -9.734375 C 4.578125 -9.410156 4.742188 -9.132812 5.078125 -8.90625 C 5.410156 -8.675781 6.144531 -8.332031 7.28125 -7.875 C 8.289062 -7.46875 9.03125 -7.085938 9.5 -6.734375 C 9.976562 -6.378906 10.328125 -5.96875 10.546875 -5.5 C 10.773438 -5.039062 10.890625 -4.488281 10.890625 -3.84375 Z M 10.890625 -3.84375 "/></g></g></g><g fill="#606060" fill-opacity="1"><g transform="translate(190.345641, 83.839987)"><g><path d="M 7.3125 -2.578125 C 7.925781 -2.578125 8.664062 -2.710938 9.53125 -2.984375 L 9.53125 -0.359375 C 8.65625 0.0351562 7.570312 0.234375 6.28125 0.234375 C 4.875 0.234375 3.847656 -0.117188 3.203125 -0.828125 C 2.554688 -1.546875 2.234375 -2.617188 2.234375 -4.046875 L 2.234375 -10.296875 L 0.546875 -10.296875 L 0.546875 -11.796875 L 2.484375 -12.96875 L 3.515625 -15.703125 L 5.765625 -15.703125 L 5.765625 -12.953125 L 9.390625 -12.953125 L 9.390625 -10.296875 L 5.765625 -10.296875 L 5.765625 -4.046875 C 5.765625 -3.546875 5.90625 -3.175781 6.1875 -2.9375 C 6.46875 -2.695312 6.84375 -2.578125 7.3125 -2.578125 Z M 7.3125 -2.578125 "/></g></g></g><g fill="#606060" fill-opacity="1"><g transform="translate(204.198004, 83.839987)"><g><path d="M 9.078125 -13.1875 C 9.554688 -13.1875 9.953125 -13.15625 10.265625 -13.09375 L 10 -9.78125 C 9.71875 -9.851562 9.375 -9.890625 8.96875 -9.890625 C 7.832031 -9.890625 6.953125 -9.597656 6.328125 -9.015625 C 5.703125 -8.441406 5.390625 -7.632812 5.390625 -6.59375 L 5.390625 0 L 1.859375 0 L 1.859375 -12.953125 L 4.53125 -12.953125 L 5.046875 -10.765625 L 5.21875 -10.765625 C 5.625 -11.492188 6.164062 -12.078125 6.84375 -12.515625 C 7.53125 -12.960938 8.273438 -13.1875 9.078125 -13.1875 Z M 9.078125 -13.1875 "/></g></g></g><g fill="#606060" fill-opacity="1"><g transform="translate(218.525094, 83.839987)"><g><path d="M 11.03125 0 L 10.546875 -1.65625 L 10.359375 -1.65625 C 9.984375 -1.050781 9.445312 -0.582031 8.75 -0.25 C 8.0625 0.0703125 7.269531 0.234375 6.375 0.234375 C 4.851562 0.234375 3.707031 -0.171875 2.9375 -0.984375 C 2.164062 -1.804688 1.78125 -2.976562 1.78125 -4.5 L 1.78125 -12.953125 L 5.3125 -12.953125 L 5.3125 -5.390625 C 5.3125 -4.453125 5.476562 -3.75 5.8125 -3.28125 C 6.144531 -2.8125 6.675781 -2.578125 7.40625 -2.578125 C 8.394531 -2.578125 9.109375 -2.90625 9.546875 -3.5625 C 9.984375 -4.226562 10.203125 -5.328125 10.203125 -6.859375 L 10.203125 -12.953125 L 13.734375 -12.953125 L 13.734375 0 Z M 11.03125 0 "/></g></g></g><g fill="#606060" fill-opacity="1"><g transform="translate(237.668991, 83.839987)"><g><path d="M 7.109375 0.234375 C 3.078125 0.234375 1.0625 -1.976562 1.0625 -6.40625 C 1.0625 -8.601562 1.609375 -10.28125 2.703125 -11.4375 C 3.804688 -12.601562 5.378906 -13.1875 7.421875 -13.1875 C 8.921875 -13.1875 10.265625 -12.894531 11.453125 -12.3125 L 10.40625 -9.578125 C 9.851562 -9.796875 9.335938 -9.976562 8.859375 -10.125 C 8.378906 -10.269531 7.898438 -10.34375 7.421875 -10.34375 C 5.585938 -10.34375 4.671875 -9.035156 4.671875 -6.421875 C 4.671875 -3.890625 5.585938 -2.625 7.421875 -2.625 C 8.097656 -2.625 8.726562 -2.710938 9.3125 -2.890625 C 9.894531 -3.078125 10.472656 -3.363281 11.046875 -3.75 L 11.046875 -0.734375 C 10.472656 -0.367188 9.894531 -0.117188 9.3125 0.015625 C 8.726562 0.160156 7.992188 0.234375 7.109375 0.234375 Z M 7.109375 0.234375 "/></g></g></g><g fill="#606060" fill-opacity="1"><g transform="translate(253.420287, 83.839987)"><g><path d="M 7.3125 -2.578125 C 7.925781 -2.578125 8.664062 -2.710938 9.53125 -2.984375 L 9.53125 -0.359375 C 8.65625 0.0351562 7.570312 0.234375 6.28125 0.234375 C 4.875 0.234375 3.847656 -0.117188 3.203125 -0.828125 C 2.554688 -1.546875 2.234375 -2.617188 2.234375 -4.046875 L 2.234375 -10.296875 L 0.546875 -10.296875 L 0.546875 -11.796875 L 2.484375 -12.96875 L 3.515625 -15.703125 L 5.765625 -15.703125 L 5.765625 -12.953125 L 9.390625 -12.953125 L 9.390625 -10.296875 L 5.765625 -10.296875 L 5.765625 -4.046875 C 5.765625 -3.546875 5.90625 -3.175781 6.1875 -2.9375 C 6.46875 -2.695312 6.84375 -2.578125 7.3125 -2.578125 Z M 7.3125 -2.578125 "/></g></g></g><g fill="#606060" fill-opacity="1"><g transform="translate(267.272649, 83.839987)"><g><path d="M 1.703125 -16.296875 C 1.703125 -17.441406 2.34375 -18.015625 3.625 -18.015625 C 4.90625 -18.015625 5.546875 -17.441406 5.546875 -16.296875 C 5.546875 -15.742188 5.382812 -15.316406 5.0625 -15.015625 C 4.75 -14.710938 4.269531 -14.5625 3.625 -14.5625 C 2.34375 -14.5625 1.703125 -15.140625 1.703125 -16.296875 Z M 5.390625 0 L 1.859375 0 L 1.859375 -12.953125 L 5.390625 -12.953125 Z M 5.390625 0 "/></g></g></g><g fill="#606060" fill-opacity="1"><g transform="translate(278.068193, 83.839987)"><g><path d="M 4.671875 -6.5 C 4.671875 -5.21875 4.878906 -4.25 5.296875 -3.59375 C 5.722656 -2.9375 6.410156 -2.609375 7.359375 -2.609375 C 8.296875 -2.609375 8.96875 -2.929688 9.375 -3.578125 C 9.789062 -4.234375 10 -5.207031 10 -6.5 C 10 -7.78125 9.789062 -8.738281 9.375 -9.375 C 8.957031 -10.019531 8.273438 -10.34375 7.328125 -10.34375 C 6.390625 -10.34375 5.710938 -10.023438 5.296875 -9.390625 C 4.878906 -8.753906 4.671875 -7.789062 4.671875 -6.5 Z M 13.625 -6.5 C 13.625 -4.382812 13.066406 -2.734375 11.953125 -1.546875 C 10.835938 -0.359375 9.289062 0.234375 7.3125 0.234375 C 6.0625 0.234375 4.960938 -0.0351562 4.015625 -0.578125 C 3.066406 -1.128906 2.335938 -1.910156 1.828125 -2.921875 C 1.316406 -3.941406 1.0625 -5.132812 1.0625 -6.5 C 1.0625 -8.613281 1.613281 -10.253906 2.71875 -11.421875 C 3.820312 -12.597656 5.375 -13.1875 7.375 -13.1875 C 8.613281 -13.1875 9.707031 -12.914062 10.65625 -12.375 C 11.613281 -11.832031 12.347656 -11.054688 12.859375 -10.046875 C 13.367188 -9.035156 13.625 -7.851562 13.625 -6.5 Z M 13.625 -6.5 "/></g></g></g><g fill="#606060" fill-opacity="1"><g transform="translate(296.308939, 83.839987)"><g><path d="M 13.8125 0 L 10.265625 0 L 10.265625 -7.5625 C 10.265625 -8.5 10.097656 -9.195312 9.765625 -9.65625 C 9.441406 -10.125 8.914062 -10.359375 8.1875 -10.359375 C 7.195312 -10.359375 6.484375 -10.03125 6.046875 -9.375 C 5.609375 -8.71875 5.390625 -7.625 5.390625 -6.09375 L 5.390625 0 L 1.859375 0 L 1.859375 -12.953125 L 4.546875 -12.953125 L 5.03125 -11.296875 L 5.21875 -11.296875 C 5.613281 -11.921875 6.15625 -12.390625 6.84375 -12.703125 C 7.539062 -13.023438 8.328125 -13.1875 9.203125 -13.1875 C 10.710938 -13.1875 11.859375 -12.78125 12.640625 -11.96875 C 13.421875 -11.15625 13.8125 -9.976562 13.8125 -8.4375 Z M 13.8125 0 "/></g></g></g></svg>