<svg xmlns="http://www.w3.org/2000/svg" xmlns:xlink="http://www.w3.org/1999/xlink" width="491" zoomAndPan="magnify" viewBox="0 0 368.25 98.249997" height="131" preserveAspectRatio="xMidYMid meet" version="1.0"><defs><g/><clipPath id="2f3b720ea8"><path d="M 5 54 L 15 54 L 15 90.148438 L 5 90.148438 Z M 5 54 " clip-rule="nonzero"/></clipPath><clipPath id="3ecacd4da8"><path d="M 59 52 L 68 52 L 68 90.148438 L 59 90.148438 Z M 59 52 " clip-rule="nonzero"/></clipPath><clipPath id="4187a380e3"><path d="M 22.964844 44.847656 L 50.535156 44.847656 L 50.535156 72.417969 L 22.964844 72.417969 Z M 22.964844 44.847656 " clip-rule="nonzero"/></clipPath><clipPath id="1f80b591d2"><path d="M 36.75 44.847656 C 29.136719 44.847656 22.964844 51.019531 22.964844 58.632812 C 22.964844 66.246094 29.136719 72.417969 36.75 72.417969 C 44.363281 72.417969 50.535156 66.246094 50.535156 58.632812 C 50.535156 51.019531 44.363281 44.847656 36.75 44.847656 Z M 36.75 44.847656 " clip-rule="nonzero"/></clipPath><clipPath id="b988095484"><path d="M 1.023438 21 L 72.476562 21 L 72.476562 48 L 1.023438 48 Z M 1.023438 21 " clip-rule="nonzero"/></clipPath><clipPath id="5ad566e849"><path d="M 13.277344 23.269531 L 21.769531 23.269531 L 21.769531 37.167969 L 13.277344 37.167969 Z M 13.277344 23.269531 " clip-rule="nonzero"/></clipPath></defs><g fill="#606060" fill-opacity="1"><g transform="translate(133.141787, 49.708249)"><g><path d="M 16 -27.859375 C 17.375 -27.859375 18.507812 -27.738281 19.40625 -27.5 C 20.300781 -27.257812 21.265625 -26.929688 22.296875 -26.515625 C 22.410156 -26.460938 22.679688 -26.347656 23.109375 -26.171875 C 23.546875 -26.003906 23.9375 -25.921875 24.28125 -25.921875 C 25.289062 -25.921875 25.914062 -26.554688 26.15625 -27.828125 L 26.953125 -27.828125 L 26.953125 -18.6875 L 26.15625 -18.6875 C 25.945312 -20.195312 25.410156 -21.515625 24.546875 -22.640625 C 23.679688 -23.765625 22.640625 -24.625 21.421875 -25.21875 C 20.210938 -25.8125 18.972656 -26.109375 17.703125 -26.109375 C 15.898438 -26.109375 14.332031 -25.570312 13 -24.5 C 11.664062 -23.4375 10.644531 -21.953125 9.9375 -20.046875 C 9.238281 -18.140625 8.890625 -15.984375 8.890625 -13.578125 C 8.890625 -9.679688 9.65625 -6.628906 11.1875 -4.421875 C 12.726562 -2.210938 14.847656 -1.109375 17.546875 -1.109375 C 19.265625 -1.109375 20.8125 -1.519531 22.1875 -2.34375 C 23.5625 -3.164062 24.960938 -4.410156 26.390625 -6.078125 L 26.390625 -3.890625 C 24.910156 -2.328125 23.367188 -1.191406 21.765625 -0.484375 C 20.171875 0.210938 18.335938 0.5625 16.265625 0.5625 C 13.359375 0.5625 10.8125 -0.046875 8.625 -1.265625 C 6.445312 -2.484375 4.769531 -4.132812 3.59375 -6.21875 C 2.414062 -8.3125 1.828125 -10.628906 1.828125 -13.171875 C 1.828125 -15.796875 2.46875 -18.234375 3.75 -20.484375 C 5.03125 -22.734375 6.753906 -24.523438 8.921875 -25.859375 C 11.097656 -27.191406 13.457031 -27.859375 16 -27.859375 Z M 16 -27.859375 "/></g></g></g><g fill="#606060" fill-opacity="1"><g transform="translate(165.2538, 49.708249)"><g><path d="M 5.046875 -5.4375 L 14.25 -27.703125 L 14.640625 -27.703125 L 23.8125 -5.359375 C 24.414062 -3.847656 25.015625 -2.695312 25.609375 -1.90625 C 26.210938 -1.113281 26.988281 -0.71875 27.9375 -0.71875 L 27.9375 0 L 15.203125 0 L 15.203125 -0.71875 C 16.472656 -0.738281 17.316406 -0.832031 17.734375 -1 C 18.160156 -1.175781 18.375 -1.570312 18.375 -2.1875 C 18.375 -2.363281 18.328125 -2.570312 18.234375 -2.8125 C 18.140625 -3.050781 18.066406 -3.25 18.015625 -3.40625 L 16.3125 -7.703125 L 7.578125 -7.703125 L 6.34375 -4.71875 C 5.976562 -3.976562 5.796875 -3.332031 5.796875 -2.78125 C 5.796875 -1.957031 6.097656 -1.40625 6.703125 -1.125 C 7.316406 -0.851562 8.175781 -0.71875 9.28125 -0.71875 L 9.28125 0 L 0.5625 0 L 0.5625 -0.71875 C 1.457031 -0.789062 2.257812 -1.195312 2.96875 -1.9375 C 3.6875 -2.6875 4.378906 -3.851562 5.046875 -5.4375 Z M 15.71875 -9.171875 L 11.953125 -18.296875 L 8.171875 -9.171875 Z M 15.71875 -9.171875 "/></g></g></g><g fill="#606060" fill-opacity="1"><g transform="translate(197.365813, 49.708249)"><g><path d="M 25.515625 -19.890625 C 25.515625 -18.503906 25.101562 -17.25 24.28125 -16.125 C 23.46875 -15.007812 22.257812 -14.117188 20.65625 -13.453125 C 19.050781 -12.796875 17.140625 -12.46875 14.921875 -12.46875 L 10.953125 -12.46875 L 10.953125 -4.125 C 10.953125 -3.144531 11.078125 -2.414062 11.328125 -1.9375 C 11.578125 -1.46875 11.945312 -1.148438 12.4375 -0.984375 C 12.925781 -0.828125 13.632812 -0.738281 14.5625 -0.71875 L 14.5625 0 L 0.71875 0 L 0.71875 -0.71875 C 1.71875 -0.738281 2.484375 -0.820312 3.015625 -0.96875 C 3.546875 -1.113281 3.941406 -1.425781 4.203125 -1.90625 C 4.472656 -2.382812 4.609375 -3.125 4.609375 -4.125 L 4.609375 -23.375 C 4.609375 -24.644531 4.289062 -25.488281 3.65625 -25.90625 C 3.019531 -26.332031 2.039062 -26.546875 0.71875 -26.546875 L 0.71875 -27.265625 L 15.4375 -27.265625 C 17.082031 -27.265625 18.675781 -26.984375 20.21875 -26.421875 C 21.769531 -25.867188 23.039062 -25.035156 24.03125 -23.921875 C 25.019531 -22.816406 25.515625 -21.472656 25.515625 -19.890625 Z M 18.6875 -19.765625 C 18.6875 -21.453125 18.421875 -22.734375 17.890625 -23.609375 C 17.367188 -24.484375 16.675781 -25.066406 15.8125 -25.359375 C 14.957031 -25.648438 13.878906 -25.796875 12.578125 -25.796875 L 10.953125 -25.796875 L 10.953125 -13.9375 L 13.53125 -13.9375 C 15.007812 -13.9375 16.238281 -14.394531 17.21875 -15.3125 C 18.195312 -16.238281 18.6875 -17.722656 18.6875 -19.765625 Z M 18.6875 -19.765625 "/></g></g></g><g fill="#606060" fill-opacity="1"><g transform="translate(227.413779, 49.708249)"><g><path d="M 25.359375 -20.125 L 24.640625 -20.125 C 24.460938 -22 23.875 -23.410156 22.875 -24.359375 C 21.882812 -25.316406 20.753906 -25.796875 19.484375 -25.796875 L 16.390625 -25.796875 L 16.390625 -4.28125 C 16.390625 -3.300781 16.519531 -2.5625 16.78125 -2.0625 C 17.050781 -1.5625 17.460938 -1.21875 18.015625 -1.03125 C 18.566406 -0.84375 19.347656 -0.738281 20.359375 -0.71875 L 20.359375 0 L 6.078125 0 L 6.078125 -0.71875 C 7.078125 -0.71875 7.847656 -0.789062 8.390625 -0.9375 C 8.929688 -1.082031 9.34375 -1.40625 9.625 -1.90625 C 9.90625 -2.40625 10.046875 -3.171875 10.046875 -4.203125 L 10.046875 -25.796875 L 6.625 -25.796875 C 5.4375 -25.796875 4.378906 -25.269531 3.453125 -24.21875 C 2.523438 -23.175781 1.96875 -21.8125 1.78125 -20.125 L 1.078125 -20.125 L 1.078125 -27.265625 L 25.359375 -27.265625 Z M 25.359375 -20.125 "/></g></g></g><g fill="#606060" fill-opacity="1"><g transform="translate(257.461744, 49.708249)"><g><path d="M 14.046875 -26.546875 C 12.878906 -26.546875 12.03125 -26.320312 11.5 -25.875 C 10.976562 -25.425781 10.71875 -24.59375 10.71875 -23.375 L 10.71875 -7.1875 C 10.71875 -5.519531 11.242188 -4.109375 12.296875 -2.953125 C 13.359375 -1.804688 15 -1.234375 17.21875 -1.234375 C 19.8125 -1.234375 21.769531 -2.019531 23.09375 -3.59375 C 24.414062 -5.164062 25.078125 -7.128906 25.078125 -9.484375 L 25.078125 -23.09375 C 25.078125 -24.3125 24.8125 -25.191406 24.28125 -25.734375 C 23.757812 -26.273438 22.890625 -26.546875 21.671875 -26.546875 L 21.671875 -27.265625 L 30.046875 -27.265625 L 30.046875 -26.546875 C 28.828125 -26.523438 27.9375 -26.253906 27.375 -25.734375 C 26.820312 -25.222656 26.546875 -24.25 26.546875 -22.8125 L 26.546875 -9.640625 C 26.546875 -6.335938 25.59375 -3.8125 23.6875 -2.0625 C 21.78125 -0.3125 19.046875 0.5625 15.484375 0.5625 C 12.960938 0.5625 10.875 0.160156 9.21875 -0.640625 C 7.570312 -1.453125 6.347656 -2.53125 5.546875 -3.875 C 4.753906 -5.226562 4.359375 -6.753906 4.359375 -8.453125 L 4.359375 -23.53125 C 4.359375 -24.726562 4.066406 -25.523438 3.484375 -25.921875 C 2.910156 -26.316406 1.9375 -26.523438 0.5625 -26.546875 L 0.5625 -27.265625 L 14.046875 -27.265625 Z M 14.046875 -26.546875 "/></g></g></g><g fill="#606060" fill-opacity="1"><g transform="translate(291.637799, 49.708249)"><g><path d="M 24.640625 -19.71875 C 24.640625 -18.050781 24.101562 -16.613281 23.03125 -15.40625 C 21.96875 -14.207031 20.519531 -13.382812 18.6875 -12.9375 L 24.046875 -4.171875 C 24.734375 -3.023438 25.375 -2.164062 25.96875 -1.59375 C 26.570312 -1.03125 27.175781 -0.738281 27.78125 -0.71875 L 27.78125 0 L 19.71875 0 L 12.140625 -12.421875 L 10.90625 -12.421875 L 10.90625 -4.125 C 10.90625 -3.09375 11.046875 -2.335938 11.328125 -1.859375 C 11.609375 -1.390625 12.007812 -1.085938 12.53125 -0.953125 C 13.0625 -0.816406 13.859375 -0.738281 14.921875 -0.71875 L 14.921875 0 L 0.75 0 L 0.75 -0.71875 C 1.757812 -0.738281 2.519531 -0.820312 3.03125 -0.96875 C 3.550781 -1.113281 3.9375 -1.429688 4.1875 -1.921875 C 4.4375 -2.410156 4.5625 -3.144531 4.5625 -4.125 L 4.5625 -23.5 C 4.5625 -24.6875 4.265625 -25.488281 3.671875 -25.90625 C 3.078125 -26.332031 2.101562 -26.546875 0.75 -26.546875 L 0.75 -27.265625 L 14.765625 -27.265625 C 17.703125 -27.265625 20.082031 -26.601562 21.90625 -25.28125 C 23.726562 -23.957031 24.640625 -22.101562 24.640625 -19.71875 Z M 13.0625 -13.890625 C 14.382812 -13.890625 15.570312 -14.304688 16.625 -15.140625 C 17.6875 -15.972656 18.21875 -17.539062 18.21875 -19.84375 C 18.21875 -23.8125 16.300781 -25.796875 12.46875 -25.796875 L 10.90625 -25.796875 L 10.90625 -13.890625 Z M 13.0625 -13.890625 "/></g></g></g><g fill="#606060" fill-opacity="1"><g transform="translate(323.749807, 49.708249)"><g><path d="M 23.6875 -19.484375 L 22.984375 -19.484375 C 22.609375 -21.546875 21.863281 -23.113281 20.75 -24.1875 C 19.644531 -25.257812 18.191406 -25.796875 16.390625 -25.796875 L 11.03125 -25.796875 L 11.03125 -14.640625 L 11.859375 -14.640625 C 12.867188 -14.640625 13.695312 -14.796875 14.34375 -15.109375 C 14.988281 -15.429688 15.535156 -16.046875 15.984375 -16.953125 C 16.441406 -17.867188 16.773438 -19.175781 16.984375 -20.875 L 17.703125 -20.875 L 17.703125 -7.03125 L 16.984375 -7.03125 C 16.691406 -9.4375 16.128906 -11.0625 15.296875 -11.90625 C 14.460938 -12.75 13.375 -13.171875 12.03125 -13.171875 L 11.03125 -13.171875 L 11.03125 -4.40625 C 11.03125 -3.269531 11.203125 -2.492188 11.546875 -2.078125 C 11.890625 -1.671875 12.550781 -1.46875 13.53125 -1.46875 L 16.390625 -1.46875 C 18.722656 -1.46875 20.550781 -2.09375 21.875 -3.34375 C 23.195312 -4.601562 24.203125 -6.289062 24.890625 -8.40625 L 25.59375 -8.40625 L 24.375 0 L 0.71875 0 L 0.71875 -0.71875 L 1.625 -0.71875 C 2.550781 -0.71875 3.234375 -0.851562 3.671875 -1.125 C 4.109375 -1.40625 4.382812 -1.769531 4.5 -2.21875 C 4.625 -2.664062 4.6875 -3.273438 4.6875 -4.046875 L 4.6875 -23.296875 C 4.6875 -24.585938 4.382812 -25.445312 3.78125 -25.875 C 3.1875 -26.300781 2.164062 -26.523438 0.71875 -26.546875 L 0.71875 -27.265625 L 23.6875 -27.265625 Z M 23.6875 -19.484375 "/></g></g></g><g fill="#ffc107" fill-opacity="1"><g transform="translate(86.562047, 49.708249)"><g><path d="M 29.203125 -13.453125 C 29.203125 -10.648438 28.597656 -8.226562 27.390625 -6.1875 C 26.191406 -4.15625 24.554688 -2.613281 22.484375 -1.5625 C 20.410156 -0.519531 18.101562 0 15.5625 0 L 0.671875 0 L 0.671875 -0.71875 C 1.648438 -0.71875 2.390625 -0.789062 2.890625 -0.9375 C 3.398438 -1.082031 3.78125 -1.390625 4.03125 -1.859375 C 4.28125 -2.335938 4.40625 -3.09375 4.40625 -4.125 L 4.40625 -23.09375 C 4.40625 -24.125 4.269531 -24.882812 4 -25.375 C 3.738281 -25.863281 3.359375 -26.179688 2.859375 -26.328125 C 2.359375 -26.472656 1.628906 -26.546875 0.671875 -26.546875 L 0.671875 -27.265625 L 14.921875 -27.265625 C 17.515625 -27.265625 19.894531 -26.738281 22.0625 -25.6875 C 24.238281 -24.644531 25.972656 -23.085938 27.265625 -21.015625 C 28.554688 -18.941406 29.203125 -16.421875 29.203125 -13.453125 Z M 13.8125 -1.390625 C 19.363281 -1.390625 22.140625 -5.34375 22.140625 -13.25 C 22.140625 -17.675781 21.335938 -20.882812 19.734375 -22.875 C 18.140625 -24.875 16.125 -25.875 13.6875 -25.875 L 10.75 -25.875 L 10.75 -4.046875 C 10.75 -3.273438 10.832031 -2.703125 11 -2.328125 C 11.175781 -1.960938 11.476562 -1.710938 11.90625 -1.578125 C 12.332031 -1.453125 12.96875 -1.390625 13.8125 -1.390625 Z M 13.8125 -1.390625 "/></g></g></g><g fill="#ffc107" fill-opacity="1"><g transform="translate(118.624576, 45.38355)"><g><path d="M 12.296875 -7.140625 L 0.953125 -7.140625 L 0.953125 -11.265625 L 12.296875 -11.265625 Z M 12.296875 -7.140625 "/></g></g></g><g fill="#606060" fill-opacity="1"><g transform="translate(122.545948, 83.839987)"><g><path d="M 9.328125 -14.1875 C 7.972656 -14.1875 6.925781 -13.675781 6.1875 -12.65625 C 5.445312 -11.644531 5.078125 -10.234375 5.078125 -8.421875 C 5.078125 -4.640625 6.492188 -2.75 9.328125 -2.75 C 10.515625 -2.75 11.953125 -3.046875 13.640625 -3.640625 L 13.640625 -0.640625 C 12.253906 -0.0546875 10.703125 0.234375 8.984375 0.234375 C 6.523438 0.234375 4.640625 -0.507812 3.328125 -2 C 2.023438 -3.5 1.375 -5.644531 1.375 -8.4375 C 1.375 -10.195312 1.691406 -11.738281 2.328125 -13.0625 C 2.972656 -14.394531 3.894531 -15.410156 5.09375 -16.109375 C 6.300781 -16.816406 7.710938 -17.171875 9.328125 -17.171875 C 10.972656 -17.171875 12.625 -16.773438 14.28125 -15.984375 L 13.125 -13.0625 C 12.488281 -13.363281 11.847656 -13.625 11.203125 -13.84375 C 10.566406 -14.070312 9.941406 -14.1875 9.328125 -14.1875 Z M 9.328125 -14.1875 "/></g></g></g><g fill="#606060" fill-opacity="1"><g transform="translate(141.215117, 83.839987)"><g><path d="M 4.671875 -6.5 C 4.671875 -5.21875 4.878906 -4.25 5.296875 -3.59375 C 5.722656 -2.9375 6.410156 -2.609375 7.359375 -2.609375 C 8.296875 -2.609375 8.96875 -2.929688 9.375 -3.578125 C 9.789062 -4.234375 10 -5.207031 10 -6.5 C 10 -7.78125 9.789062 -8.738281 9.375 -9.375 C 8.957031 -10.019531 8.273438 -10.34375 7.328125 -10.34375 C 6.390625 -10.34375 5.710938 -10.023438 5.296875 -9.390625 C 4.878906 -8.753906 4.671875 -7.789062 4.671875 -6.5 Z M 13.625 -6.5 C 13.625 -4.382812 13.066406 -2.734375 11.953125 -1.546875 C 10.835938 -0.359375 9.289062 0.234375 7.3125 0.234375 C 6.0625 0.234375 4.960938 -0.0351562 4.015625 -0.578125 C 3.066406 -1.128906 2.335938 -1.910156 1.828125 -2.921875 C 1.316406 -3.941406 1.0625 -5.132812 1.0625 -6.5 C 1.0625 -8.613281 1.613281 -10.253906 2.71875 -11.421875 C 3.820312 -12.597656 5.375 -13.1875 7.375 -13.1875 C 8.613281 -13.1875 9.707031 -12.914062 10.65625 -12.375 C 11.613281 -11.832031 12.347656 -11.054688 12.859375 -10.046875 C 13.367188 -9.035156 13.625 -7.851562 13.625 -6.5 Z M 13.625 -6.5 "/></g></g></g><g fill="#606060" fill-opacity="1"><g transform="translate(159.455863, 83.839987)"><g><path d="M 13.8125 0 L 10.265625 0 L 10.265625 -7.5625 C 10.265625 -8.5 10.097656 -9.195312 9.765625 -9.65625 C 9.441406 -10.125 8.914062 -10.359375 8.1875 -10.359375 C 7.195312 -10.359375 6.484375 -10.03125 6.046875 -9.375 C 5.609375 -8.71875 5.390625 -7.625 5.390625 -6.09375 L 5.390625 0 L 1.859375 0 L 1.859375 -12.953125 L 4.546875 -12.953125 L 5.03125 -11.296875 L 5.21875 -11.296875 C 5.613281 -11.921875 6.15625 -12.390625 6.84375 -12.703125 C 7.539062 -13.023438 8.328125 -13.1875 9.203125 -13.1875 C 10.710938 -13.1875 11.859375 -12.78125 12.640625 -11.96875 C 13.421875 -11.15625 13.8125 -9.976562 13.8125 -8.4375 Z M 13.8125 0 "/></g></g></g><g fill="#606060" fill-opacity="1"><g transform="translate(178.599761, 83.839987)"><g><path d="M 10.890625 -3.84375 C 10.890625 -2.519531 10.425781 -1.507812 9.5 -0.8125 C 8.582031 -0.113281 7.203125 0.234375 5.359375 0.234375 C 4.421875 0.234375 3.617188 0.164062 2.953125 0.03125 C 2.285156 -0.09375 1.664062 -0.273438 1.09375 -0.515625 L 1.09375 -3.4375 C 1.75 -3.125 2.488281 -2.863281 3.3125 -2.65625 C 4.132812 -2.445312 4.859375 -2.34375 5.484375 -2.34375 C 6.765625 -2.34375 7.40625 -2.71875 7.40625 -3.46875 C 7.40625 -3.738281 7.316406 -3.960938 7.140625 -4.140625 C 6.972656 -4.316406 6.679688 -4.515625 6.265625 -4.734375 C 5.847656 -4.953125 5.289062 -5.207031 4.59375 -5.5 C 3.601562 -5.914062 2.875 -6.300781 2.40625 -6.65625 C 1.9375 -7.007812 1.59375 -7.414062 1.375 -7.875 C 1.164062 -8.332031 1.0625 -8.898438 1.0625 -9.578125 C 1.0625 -10.722656 1.503906 -11.609375 2.390625 -12.234375 C 3.285156 -12.867188 4.554688 -13.1875 6.203125 -13.1875 C 7.753906 -13.1875 9.269531 -12.847656 10.75 -12.171875 L 9.6875 -9.625 C 9.03125 -9.90625 8.421875 -10.132812 7.859375 -10.3125 C 7.296875 -10.488281 6.722656 -10.578125 6.140625 -10.578125 C 5.097656 -10.578125 4.578125 -10.296875 4.578125 -9.734375 C 4.578125 -9.410156 4.742188 -9.132812 5.078125 -8.90625 C 5.410156 -8.675781 6.144531 -8.332031 7.28125 -7.875 C 8.289062 -7.46875 9.03125 -7.085938 9.5 -6.734375 C 9.976562 -6.378906 10.328125 -5.96875 10.546875 -5.5 C 10.773438 -5.039062 10.890625 -4.488281 10.890625 -3.84375 Z M 10.890625 -3.84375 "/></g></g></g><g fill="#606060" fill-opacity="1"><g transform="translate(193.945791, 83.839987)"><g><path d="M 7.3125 -2.578125 C 7.925781 -2.578125 8.664062 -2.710938 9.53125 -2.984375 L 9.53125 -0.359375 C 8.65625 0.0351562 7.570312 0.234375 6.28125 0.234375 C 4.875 0.234375 3.847656 -0.117188 3.203125 -0.828125 C 2.554688 -1.546875 2.234375 -2.617188 2.234375 -4.046875 L 2.234375 -10.296875 L 0.546875 -10.296875 L 0.546875 -11.796875 L 2.484375 -12.96875 L 3.515625 -15.703125 L 5.765625 -15.703125 L 5.765625 -12.953125 L 9.390625 -12.953125 L 9.390625 -10.296875 L 5.765625 -10.296875 L 5.765625 -4.046875 C 5.765625 -3.546875 5.90625 -3.175781 6.1875 -2.9375 C 6.46875 -2.695312 6.84375 -2.578125 7.3125 -2.578125 Z M 7.3125 -2.578125 "/></g></g></g><g fill="#606060" fill-opacity="1"><g transform="translate(207.798154, 83.839987)"><g><path d="M 9.078125 -13.1875 C 9.554688 -13.1875 9.953125 -13.15625 10.265625 -13.09375 L 10 -9.78125 C 9.71875 -9.851562 9.375 -9.890625 8.96875 -9.890625 C 7.832031 -9.890625 6.953125 -9.597656 6.328125 -9.015625 C 5.703125 -8.441406 5.390625 -7.632812 5.390625 -6.59375 L 5.390625 0 L 1.859375 0 L 1.859375 -12.953125 L 4.53125 -12.953125 L 5.046875 -10.765625 L 5.21875 -10.765625 C 5.625 -11.492188 6.164062 -12.078125 6.84375 -12.515625 C 7.53125 -12.960938 8.273438 -13.1875 9.078125 -13.1875 Z M 9.078125 -13.1875 "/></g></g></g><g fill="#606060" fill-opacity="1"><g transform="translate(222.125244, 83.839987)"><g><path d="M 11.03125 0 L 10.546875 -1.65625 L 10.359375 -1.65625 C 9.984375 -1.050781 9.445312 -0.582031 8.75 -0.25 C 8.0625 0.0703125 7.269531 0.234375 6.375 0.234375 C 4.851562 0.234375 3.707031 -0.171875 2.9375 -0.984375 C 2.164062 -1.804688 1.78125 -2.976562 1.78125 -4.5 L 1.78125 -12.953125 L 5.3125 -12.953125 L 5.3125 -5.390625 C 5.3125 -4.453125 5.476562 -3.75 5.8125 -3.28125 C 6.144531 -2.8125 6.675781 -2.578125 7.40625 -2.578125 C 8.394531 -2.578125 9.109375 -2.90625 9.546875 -3.5625 C 9.984375 -4.226562 10.203125 -5.328125 10.203125 -6.859375 L 10.203125 -12.953125 L 13.734375 -12.953125 L 13.734375 0 Z M 11.03125 0 "/></g></g></g><g fill="#606060" fill-opacity="1"><g transform="translate(241.269141, 83.839987)"><g><path d="M 7.109375 0.234375 C 3.078125 0.234375 1.0625 -1.976562 1.0625 -6.40625 C 1.0625 -8.601562 1.609375 -10.28125 2.703125 -11.4375 C 3.804688 -12.601562 5.378906 -13.1875 7.421875 -13.1875 C 8.921875 -13.1875 10.265625 -12.894531 11.453125 -12.3125 L 10.40625 -9.578125 C 9.851562 -9.796875 9.335938 -9.976562 8.859375 -10.125 C 8.378906 -10.269531 7.898438 -10.34375 7.421875 -10.34375 C 5.585938 -10.34375 4.671875 -9.035156 4.671875 -6.421875 C 4.671875 -3.890625 5.585938 -2.625 7.421875 -2.625 C 8.097656 -2.625 8.726562 -2.710938 9.3125 -2.890625 C 9.894531 -3.078125 10.472656 -3.363281 11.046875 -3.75 L 11.046875 -0.734375 C 10.472656 -0.367188 9.894531 -0.117188 9.3125 0.015625 C 8.726562 0.160156 7.992188 0.234375 7.109375 0.234375 Z M 7.109375 0.234375 "/></g></g></g><g fill="#606060" fill-opacity="1"><g transform="translate(257.020437, 83.839987)"><g><path d="M 7.3125 -2.578125 C 7.925781 -2.578125 8.664062 -2.710938 9.53125 -2.984375 L 9.53125 -0.359375 C 8.65625 0.0351562 7.570312 0.234375 6.28125 0.234375 C 4.875 0.234375 3.847656 -0.117188 3.203125 -0.828125 C 2.554688 -1.546875 2.234375 -2.617188 2.234375 -4.046875 L 2.234375 -10.296875 L 0.546875 -10.296875 L 0.546875 -11.796875 L 2.484375 -12.96875 L 3.515625 -15.703125 L 5.765625 -15.703125 L 5.765625 -12.953125 L 9.390625 -12.953125 L 9.390625 -10.296875 L 5.765625 -10.296875 L 5.765625 -4.046875 C 5.765625 -3.546875 5.90625 -3.175781 6.1875 -2.9375 C 6.46875 -2.695312 6.84375 -2.578125 7.3125 -2.578125 Z M 7.3125 -2.578125 "/></g></g></g><g fill="#606060" fill-opacity="1"><g transform="translate(270.872799, 83.839987)"><g><path d="M 1.703125 -16.296875 C 1.703125 -17.441406 2.34375 -18.015625 3.625 -18.015625 C 4.90625 -18.015625 5.546875 -17.441406 5.546875 -16.296875 C 5.546875 -15.742188 5.382812 -15.316406 5.0625 -15.015625 C 4.75 -14.710938 4.269531 -14.5625 3.625 -14.5625 C 2.34375 -14.5625 1.703125 -15.140625 1.703125 -16.296875 Z M 5.390625 0 L 1.859375 0 L 1.859375 -12.953125 L 5.390625 -12.953125 Z M 5.390625 0 "/></g></g></g><g fill="#606060" fill-opacity="1"><g transform="translate(281.668342, 83.839987)"><g><path d="M 4.671875 -6.5 C 4.671875 -5.21875 4.878906 -4.25 5.296875 -3.59375 C 5.722656 -2.9375 6.410156 -2.609375 7.359375 -2.609375 C 8.296875 -2.609375 8.96875 -2.929688 9.375 -3.578125 C 9.789062 -4.234375 10 -5.207031 10 -6.5 C 10 -7.78125 9.789062 -8.738281 9.375 -9.375 C 8.957031 -10.019531 8.273438 -10.34375 7.328125 -10.34375 C 6.390625 -10.34375 5.710938 -10.023438 5.296875 -9.390625 C 4.878906 -8.753906 4.671875 -7.789062 4.671875 -6.5 Z M 13.625 -6.5 C 13.625 -4.382812 13.066406 -2.734375 11.953125 -1.546875 C 10.835938 -0.359375 9.289062 0.234375 7.3125 0.234375 C 6.0625 0.234375 4.960938 -0.0351562 4.015625 -0.578125 C 3.066406 -1.128906 2.335938 -1.910156 1.828125 -2.921875 C 1.316406 -3.941406 1.0625 -5.132812 1.0625 -6.5 C 1.0625 -8.613281 1.613281 -10.253906 2.71875 -11.421875 C 3.820312 -12.597656 5.375 -13.1875 7.375 -13.1875 C 8.613281 -13.1875 9.707031 -12.914062 10.65625 -12.375 C 11.613281 -11.832031 12.347656 -11.054688 12.859375 -10.046875 C 13.367188 -9.035156 13.625 -7.851562 13.625 -6.5 Z M 13.625 -6.5 "/></g></g></g><g fill="#606060" fill-opacity="1"><g transform="translate(299.909089, 83.839987)"><g><path d="M 13.8125 0 L 10.265625 0 L 10.265625 -7.5625 C 10.265625 -8.5 10.097656 -9.195312 9.765625 -9.65625 C 9.441406 -10.125 8.914062 -10.359375 8.1875 -10.359375 C 7.195312 -10.359375 6.484375 -10.03125 6.046875 -9.375 C 5.609375 -8.71875 5.390625 -7.625 5.390625 -6.09375 L 5.390625 0 L 1.859375 0 L 1.859375 -12.953125 L 4.546875 -12.953125 L 5.03125 -11.296875 L 5.21875 -11.296875 C 5.613281 -11.921875 6.15625 -12.390625 6.84375 -12.703125 C 7.539062 -13.023438 8.328125 -13.1875 9.203125 -13.1875 C 10.710938 -13.1875 11.859375 -12.78125 12.640625 -11.96875 C 13.421875 -11.15625 13.8125 -9.976562 13.8125 -8.4375 Z M 13.8125 0 "/></g></g></g><g clip-path="url(#2f3b720ea8)"><path stroke-linecap="butt" transform="matrix(0, 0.142909, -0.142909, 0, 14.229884, 58.632709)" fill="none" stroke-linejoin="miter" d="M 0.000724216 30.008433 L 200.002223 30.008433 " stroke="#545454" stroke-width="60" stroke-opacity="1" stroke-miterlimit="4"/></g><g clip-path="url(#3ecacd4da8)"><path stroke-linecap="butt" transform="matrix(0, 0.142909, -0.142909, 0, 67.844061, 56.425943)" fill="none" stroke-linejoin="miter" d="M -0.00112979 30.014699 L 215.443972 30.014699 " stroke="#545454" stroke-width="60" stroke-opacity="1" stroke-miterlimit="4"/></g><path stroke-linecap="butt" transform="matrix(-0.142909, 0, 0, -0.142909, 65.331631, 60.847805)" fill="none" stroke-linejoin="miter" d="M -0.00280097 15.499309 L 157.193949 15.499309 " stroke="#545454" stroke-width="31" stroke-opacity="1" stroke-miterlimit="4"/><path stroke-linecap="butt" transform="matrix(-0.142909, 0, 0, -0.142909, 59.712791, 87.214518)" fill="none" stroke-linejoin="miter" d="M -0.0143621 30.010245 L 324.929989 30.010245 " stroke="#545454" stroke-width="60" stroke-opacity="1" stroke-miterlimit="4"/><g clip-path="url(#4187a380e3)"><g clip-path="url(#1f80b591d2)"><path fill="#ffc107" d="M 22.964844 44.847656 L 50.535156 44.847656 L 50.535156 72.417969 L 22.964844 72.417969 Z M 22.964844 44.847656 " fill-opacity="1" fill-rule="nonzero"/></g></g><path fill="#545454" d="M 48.523438 62.878906 L 48.402344 62.976562 C 48.441406 63.019531 48.488281 63.042969 48.546875 63.050781 C 48.539062 62.992188 48.535156 62.933594 48.523438 62.878906 Z M 48.523438 62.878906 " fill-opacity="1" fill-rule="nonzero"/><path fill="#545454" d="M 48.410156 63.101562 L 48.484375 63.175781 C 48.367188 63.222656 48.449219 63.308594 48.527344 63.339844 C 48.457031 63.335938 48.414062 63.367188 48.398438 63.429688 L 48.519531 63.546875 L 48.417969 63.535156 C 48.433594 63.589844 48.453125 63.644531 48.484375 63.699219 L 48.40625 63.8125 L 48.511719 63.871094 C 48.566406 63.734375 48.519531 63.582031 48.53125 63.441406 C 48.53125 63.355469 48.558594 63.265625 48.523438 63.183594 L 48.585938 63.105469 L 48.414062 63.105469 Z M 48.410156 63.101562 " fill-opacity="1" fill-rule="nonzero"/><path fill="#545454" d="M 48.609375 63.089844 C 48.605469 63.152344 48.605469 63.214844 48.609375 63.277344 L 48.738281 63.277344 C 48.757812 63.183594 48.699219 63.113281 48.609375 63.089844 Z M 48.609375 63.089844 " fill-opacity="1" fill-rule="nonzero"/><path fill="#545454" d="M 48.617188 63.515625 L 48.738281 63.492188 L 48.738281 63.339844 L 48.601562 63.328125 C 48.609375 63.453125 48.609375 63.578125 48.597656 63.703125 C 48.597656 63.773438 48.601562 63.847656 48.601562 63.917969 L 48.699219 63.882812 C 48.703125 63.832031 48.707031 63.785156 48.714844 63.738281 L 48.613281 63.738281 L 48.617188 63.707031 L 48.714844 63.683594 C 48.816406 63.613281 48.660156 63.558594 48.617188 63.515625 Z M 48.617188 63.515625 " fill-opacity="1" fill-rule="nonzero"/><path fill="#545454" d="M 48.609375 62.714844 C 48.75 62.785156 48.703125 62.605469 48.71875 62.535156 C 48.636719 62.523438 48.574219 62.546875 48.5625 62.644531 L 48.675781 62.625 Z M 48.609375 62.714844 " fill-opacity="1" fill-rule="nonzero"/><path fill="#545454" d="M 48.648438 62.929688 C 48.523438 62.925781 48.652344 63.175781 48.726562 63.050781 C 48.792969 63.003906 48.703125 62.917969 48.648438 62.929688 Z M 48.648438 62.929688 " fill-opacity="1" fill-rule="nonzero"/><path fill="#545454" d="M 48.304688 62.921875 C 48.226562 62.933594 48.242188 63.066406 48.324219 63.035156 C 48.40625 63 48.390625 62.878906 48.304688 62.921875 Z M 48.304688 62.921875 " fill-opacity="1" fill-rule="nonzero"/><path fill="#545454" d="M 48.261719 63.222656 C 48.207031 63.285156 48.320312 63.351562 48.363281 63.289062 C 48.40625 63.230469 48.304688 63.152344 48.261719 63.222656 Z M 48.261719 63.222656 " fill-opacity="1" fill-rule="nonzero"/><path fill="#545454" d="M 48.175781 62.882812 C 48.222656 62.847656 48.226562 62.808594 48.183594 62.769531 C 48.105469 62.800781 48.101562 62.839844 48.175781 62.882812 Z M 48.175781 62.882812 " fill-opacity="1" fill-rule="nonzero"/><path fill="#545454" d="M 48.113281 63.910156 C 48.09375 63.976562 48.121094 64 48.191406 63.976562 C 48.210938 63.902344 48.183594 63.882812 48.113281 63.910156 Z M 48.113281 63.910156 " fill-opacity="1" fill-rule="nonzero"/><path fill="#545454" d="M 48.132812 64.179688 C 48.105469 64.25 48.128906 64.277344 48.195312 64.261719 C 48.21875 64.1875 48.199219 64.160156 48.132812 64.179688 Z M 48.132812 64.179688 " fill-opacity="1" fill-rule="nonzero"/><path fill="#545454" d="M 48.625 62.789062 C 48.574219 62.855469 48.695312 62.894531 48.738281 62.855469 C 48.78125 62.8125 48.664062 62.75 48.625 62.789062 Z M 48.625 62.789062 " fill-opacity="1" fill-rule="nonzero"/><path fill="#545454" d="M 47.867188 64.867188 L 47.867188 64.890625 L 47.992188 64.890625 L 47.992188 64.867188 Z M 47.867188 64.867188 " fill-opacity="1" fill-rule="nonzero"/><path fill="#545454" d="M 48.675781 62.488281 C 48.75 62.460938 48.710938 62.375 48.714844 62.316406 L 48.597656 62.324219 C 48.566406 62.375 48.582031 62.445312 48.636719 62.472656 C 48.648438 62.480469 48.660156 62.488281 48.675781 62.488281 Z M 48.675781 62.488281 " fill-opacity="1" fill-rule="nonzero"/><path fill="#545454" d="M 29.3125 63.5 C 29.304688 63.417969 29.207031 63.46875 29.15625 63.464844 C 29.160156 63.542969 29.167969 63.621094 29.152344 63.699219 L 29.164062 63.707031 C 29.210938 63.644531 29.273438 63.605469 29.335938 63.5625 L 29.175781 63.539062 C 29.21875 63.523438 29.265625 63.511719 29.3125 63.5 Z M 29.3125 63.5 " fill-opacity="1" fill-rule="nonzero"/><path fill="#545454" d="M 34.140625 49.648438 C 34.082031 49.953125 33.914062 50.242188 33.929688 50.558594 C 34.019531 50.78125 34.355469 50.75 34.5 50.59375 C 34.75 50.324219 34.804688 49.910156 35.109375 49.683594 C 35.203125 49.605469 35.324219 49.589844 35.4375 49.566406 C 35.28125 49.414062 35.097656 49.292969 34.894531 49.210938 C 34.753906 49.332031 34.585938 49.421875 34.40625 49.464844 C 34.308594 49.503906 34.15625 49.515625 34.140625 49.648438 Z M 34.140625 49.648438 " fill-opacity="1" fill-rule="nonzero"/><path fill="#545454" d="M 42.988281 63.773438 C 43.007812 63.714844 42.992188 63.675781 42.941406 63.65625 C 42.925781 63.882812 42.925781 64.113281 42.9375 64.339844 L 43 64.34375 C 42.992188 64.152344 42.976562 63.964844 42.988281 63.773438 Z M 42.988281 63.773438 " fill-opacity="1" fill-rule="nonzero"/><path fill="#545454" d="M 34.800781 49.160156 C 34.679688 49.089844 34.554688 49.03125 34.425781 48.984375 C 34.390625 49.128906 34.355469 49.273438 34.320312 49.421875 C 34.492188 49.367188 34.703125 49.320312 34.800781 49.160156 Z M 34.800781 49.160156 " fill-opacity="1" fill-rule="nonzero"/><path fill="#545454" d="M 40.445312 50.039062 C 40.480469 49.519531 40.472656 48.988281 40.347656 48.480469 C 40.167969 47.703125 39.703125 46.980469 39.023438 46.554688 C 38.617188 46.3125 38.175781 46.15625 37.710938 46.082031 C 37.101562 45.988281 36.441406 46.019531 35.882812 46.3125 C 35.328125 46.609375 34.933594 47.050781 34.625 47.558594 C 34.480469 47.804688 34.375 48.070312 34.25 48.324219 C 34.097656 48.300781 33.964844 48.234375 33.816406 48.21875 C 33.757812 48.210938 33.671875 48.230469 33.695312 48.304688 C 33.742188 48.421875 33.859375 48.488281 33.957031 48.558594 C 34.097656 48.648438 34.234375 48.746094 34.382812 48.820312 C 34.960938 49.105469 35.523438 49.425781 36.113281 49.683594 C 36.292969 49.761719 36.464844 49.855469 36.636719 49.941406 C 37.441406 50.296875 38.226562 50.710938 39.011719 51.105469 C 39.242188 51.207031 39.453125 51.339844 39.695312 51.410156 C 40.105469 51.546875 40.519531 51.679688 40.941406 51.800781 C 41.078125 51.832031 41.214844 51.886719 41.363281 51.875 C 41.082031 51.40625 40.691406 51.007812 40.410156 50.539062 C 40.375 50.375 40.4375 50.203125 40.445312 50.039062 Z M 40.265625 50.425781 C 39.902344 50.351562 39.546875 50.234375 39.175781 50.179688 C 39.074219 50.15625 38.949219 50.175781 38.875 50.089844 C 38.949219 50.050781 39.027344 50.03125 39.113281 50.023438 L 39.085938 49.917969 C 39.382812 49.308594 39.339844 48.582031 39.097656 47.960938 C 38.886719 47.398438 38.460938 46.921875 37.917969 46.667969 C 37.492188 46.457031 36.996094 46.378906 36.53125 46.503906 C 35.757812 46.671875 35.140625 47.261719 34.78125 47.945312 C 34.738281 48.058594 34.652344 48.175781 34.683594 48.300781 C 34.757812 48.238281 34.78125 48.121094 34.855469 48.042969 C 35.085938 48.0625 35.265625 48.238281 35.496094 48.28125 C 35.535156 48.382812 35.535156 48.496094 35.550781 48.605469 C 35.566406 48.714844 35.6875 48.703125 35.757812 48.738281 C 36.117188 48.890625 36.46875 49.0625 36.824219 49.222656 C 36.898438 49.113281 36.980469 49.011719 37.058594 48.90625 C 37.34375 49.039062 37.65625 49.136719 37.917969 49.300781 C 37.828125 49.535156 37.742188 49.78125 37.605469 49.996094 L 37.554688 50.011719 C 37.574219 49.804688 37.703125 49.613281 37.773438 49.417969 C 37.527344 49.355469 37.308594 49.210938 37.082031 49.101562 C 37.003906 49.199219 36.953125 49.316406 36.867188 49.40625 C 36.753906 49.285156 36.59375 49.238281 36.449219 49.171875 L 35.460938 48.722656 C 35.421875 48.621094 35.4375 48.515625 35.429688 48.410156 C 35.277344 48.5 35.304688 48.710938 35.257812 48.859375 L 35.191406 48.832031 C 35.214844 48.691406 35.25 48.550781 35.285156 48.414062 C 35.160156 48.34375 35.046875 48.242188 34.90625 48.207031 L 34.855469 48.234375 C 34.78125 48.410156 34.757812 48.621094 34.632812 48.773438 C 34.621094 48.632812 34.691406 48.488281 34.667969 48.355469 L 34.542969 48.347656 C 34.664062 47.898438 34.917969 47.488281 35.226562 47.140625 C 35.691406 46.621094 36.355469 46.328125 37.050781 46.335938 C 37.519531 46.371094 37.964844 46.53125 38.355469 46.792969 C 38.894531 47.160156 39.234375 47.773438 39.359375 48.402344 C 39.4375 48.835938 39.433594 49.296875 39.269531 49.714844 C 39.234375 49.796875 39.203125 49.882812 39.136719 49.945312 C 39.128906 49.980469 39.121094 50.019531 39.113281 50.054688 C 39.320312 50.027344 39.527344 50.097656 39.730469 50.136719 C 39.933594 50.179688 40.132812 50.210938 40.28125 50.347656 Z M 40.265625 50.425781 " fill-opacity="1" fill-rule="nonzero"/><path fill="#545454" d="M 36.976562 50.199219 C 36.839844 50.140625 36.703125 50.09375 36.566406 50.039062 C 36.601562 50.105469 36.632812 50.171875 36.667969 50.242188 C 36.769531 50.21875 36.871094 50.210938 36.976562 50.199219 Z M 36.976562 50.199219 " fill-opacity="1" fill-rule="nonzero"/><path fill="#545454" d="M 39.042969 51.585938 C 38.878906 51.539062 38.734375 51.4375 38.566406 51.414062 C 38.484375 51.398438 38.390625 51.398438 38.324219 51.339844 C 38.609375 51.3125 38.929688 51.363281 39.152344 51.550781 L 39.253906 51.5 L 39.300781 51.390625 C 38.886719 51.15625 38.453125 50.964844 38.03125 50.746094 C 37.726562 50.582031 37.417969 50.429688 37.105469 50.285156 C 36.9375 50.269531 36.769531 50.355469 36.597656 50.339844 C 36.53125 50.214844 36.476562 50.074219 36.371094 49.984375 C 36.203125 49.882812 36.011719 49.824219 35.828125 49.761719 C 35.582031 49.679688 35.28125 49.683594 35.089844 49.875 C 34.867188 50.117188 34.8125 50.476562 34.554688 50.695312 C 34.441406 50.796875 34.277344 50.820312 34.128906 50.828125 C 34.066406 51.234375 33.949219 51.636719 33.738281 51.996094 C 33.394531 52.578125 32.882812 53.113281 32.207031 53.28125 C 32.492188 53.324219 32.761719 53.417969 33.011719 53.558594 C 33.398438 53.777344 33.769531 54.03125 34.089844 54.34375 C 34.175781 54.429688 34.269531 54.507812 34.328125 54.621094 C 34.148438 54.507812 34 54.347656 33.804688 54.25 C 33.875 54.359375 33.96875 54.449219 34.039062 54.554688 C 34.195312 54.769531 34.3125 55.027344 34.546875 55.175781 C 34.832031 55.371094 35.117188 55.582031 35.4375 55.710938 C 35.539062 55.414062 35.777344 55.195312 35.957031 54.941406 C 36.136719 54.691406 36.34375 54.433594 36.527344 54.171875 C 36.742188 54.390625 37.011719 54.546875 37.308594 54.621094 C 37.480469 54.65625 37.6875 54.699219 37.839844 54.582031 C 37.988281 54.464844 37.960938 54.230469 37.945312 54.058594 C 37.921875 54.273438 37.800781 54.5625 37.542969 54.535156 C 37.621094 54.414062 37.742188 54.324219 37.789062 54.183594 C 37.832031 54.042969 37.867188 53.875 38.019531 53.816406 C 38.171875 53.757812 38.269531 53.785156 38.394531 53.75 C 38.191406 53.71875 38.09375 53.527344 37.988281 53.371094 C 38.15625 53.398438 38.269531 53.523438 38.367188 53.652344 C 38.476562 53.664062 38.398438 53.472656 38.433594 53.421875 C 38.527344 53.542969 38.6875 53.390625 38.667969 53.269531 C 38.621094 53.324219 38.582031 53.382812 38.539062 53.4375 C 38.351562 53.308594 38.078125 53.394531 37.886719 53.277344 C 38.085938 53.257812 38.292969 53.265625 38.488281 53.320312 C 38.519531 53.21875 38.546875 53.113281 38.574219 53.011719 C 38.773438 52.972656 38.945312 53.179688 39.148438 53.125 C 39.242188 53.105469 39.34375 53.039062 39.339844 52.933594 C 39.324219 52.753906 39.277344 52.578125 39.222656 52.410156 C 39.242188 52.597656 39.320312 52.777344 39.296875 52.96875 C 39.199219 53.101562 39.011719 53.074219 38.875 53.023438 C 38.738281 52.96875 38.609375 52.980469 38.476562 52.972656 C 38.449219 52.90625 38.398438 52.804688 38.484375 52.761719 C 38.667969 52.683594 38.753906 52.90625 38.914062 52.9375 C 39 52.957031 39.113281 53.027344 39.175781 52.9375 C 39.167969 52.527344 39.078125 52.125 39.042969 51.714844 C 39.175781 51.703125 39.304688 51.675781 39.429688 51.632812 C 39.460938 51.574219 39.476562 51.515625 39.484375 51.453125 C 39.398438 51.523438 39.324219 51.617188 39.21875 51.660156 C 39.164062 51.625 39.105469 51.601562 39.042969 51.585938 Z M 33.773438 52.28125 C 33.972656 51.933594 34.203125 51.609375 34.367188 51.246094 C 34.328125 51.652344 34.066406 52.003906 33.773438 52.28125 Z M 35.664062 50.902344 C 35.667969 51.023438 35.78125 51.097656 35.820312 51.207031 C 35.757812 51.199219 35.667969 51.226562 35.644531 51.144531 C 35.554688 50.925781 35.53125 50.675781 35.613281 50.449219 C 35.675781 50.332031 35.75 50.167969 35.910156 50.203125 C 35.835938 50.335938 35.71875 50.449219 35.671875 50.597656 C 35.648438 50.695312 35.65625 50.796875 35.664062 50.902344 Z M 36.066406 50.890625 C 35.988281 50.816406 35.949219 50.640625 35.808594 50.707031 C 36.023438 50.609375 36.167969 50.300781 36.007812 50.101562 C 35.875 49.957031 35.644531 50.054688 35.574219 50.214844 C 35.449219 50.484375 35.496094 50.792969 35.5 51.082031 C 35.503906 51.296875 35.707031 51.410156 35.820312 51.566406 C 35.777344 51.675781 35.640625 51.605469 35.59375 51.535156 C 35.484375 51.386719 35.382812 51.21875 35.386719 51.03125 C 35.378906 50.773438 35.371094 50.511719 35.410156 50.257812 C 35.441406 50.074219 35.613281 49.925781 35.796875 49.921875 C 35.933594 49.953125 36.097656 50.015625 36.144531 50.164062 C 36.1875 50.3125 36.085938 50.519531 35.980469 50.660156 C 36.039062 50.71875 36.097656 50.777344 36.152344 50.839844 Z M 38.679688 51.859375 C 38.59375 51.746094 38.476562 51.644531 38.421875 51.511719 L 38.625 51.503906 C 38.625 51.574219 38.625 51.640625 38.625 51.710938 L 38.757812 51.652344 L 38.667969 51.628906 L 38.671875 51.5625 C 38.753906 51.589844 38.835938 51.609375 38.917969 51.613281 C 38.773438 51.613281 38.742188 51.765625 38.679688 51.855469 Z M 38.679688 51.859375 " fill-opacity="1" fill-rule="nonzero"/><path fill="#545454" d="M 26.527344 54.894531 C 26.492188 55.503906 26.515625 56.121094 26.507812 56.738281 C 26.5 59.117188 26.523438 61.496094 26.507812 63.875 L 26.800781 63.917969 C 26.792969 60.84375 26.796875 57.765625 26.78125 54.691406 C 26.699219 54.761719 26.613281 54.820312 26.527344 54.894531 Z M 26.527344 54.894531 " fill-opacity="1" fill-rule="nonzero"/><path fill="#545454" d="M 37.152344 58.25 C 37.144531 57.886719 37.167969 57.515625 37.054688 57.164062 C 37.011719 56.992188 36.898438 56.859375 36.839844 56.695312 C 36.8125 56.578125 36.65625 56.585938 36.613281 56.484375 C 36.535156 56.328125 36.5 56.140625 36.359375 56.023438 C 36.410156 56.332031 36.476562 56.644531 36.4375 56.960938 C 36.34375 56.691406 36.332031 56.40625 36.257812 56.128906 C 36.21875 55.78125 36.050781 55.472656 35.949219 55.144531 C 35.8125 55.335938 35.6875 55.535156 35.554688 55.730469 C 35.742188 55.824219 35.96875 55.855469 36.125 56 C 36.046875 56.003906 35.96875 56.003906 35.890625 55.996094 C 35.359375 55.867188 34.898438 55.558594 34.449219 55.257812 C 34.53125 55.410156 34.652344 55.539062 34.722656 55.699219 C 34.863281 55.957031 34.957031 56.242188 35.089844 56.503906 C 35.703125 56.84375 36.128906 57.445312 36.390625 58.082031 C 36.40625 58.007812 36.421875 57.933594 36.445312 57.863281 C 36.585938 57.453125 36.648438 57.023438 36.734375 56.601562 C 36.796875 56.753906 36.773438 56.921875 36.761719 57.078125 C 36.710938 57.429688 36.613281 57.777344 36.488281 58.109375 C 36.441406 58.238281 36.410156 58.367188 36.394531 58.503906 C 36.285156 58.253906 36.21875 57.988281 36.082031 57.75 C 35.828125 57.289062 35.492188 56.832031 34.984375 56.628906 C 34.667969 55.839844 34.285156 55.054688 33.738281 54.390625 C 33.347656 53.9375 32.859375 53.523438 32.257812 53.390625 C 32 53.332031 31.738281 53.390625 31.480469 53.398438 C 31.378906 53.398438 31.285156 53.429688 31.207031 53.488281 C 31.375 53.472656 31.535156 53.4375 31.703125 53.4375 L 31.664062 53.46875 C 31.070312 53.679688 30.453125 53.925781 30.011719 54.398438 C 30.148438 54.335938 30.265625 54.242188 30.398438 54.171875 C 30.835938 53.933594 31.347656 53.785156 31.84375 53.890625 C 32.457031 54.046875 32.945312 54.484375 33.339844 54.957031 C 33.996094 55.777344 34.429688 56.753906 34.695312 57.761719 C 34.929688 58.636719 34.9375 59.550781 34.839844 60.445312 C 34.746094 61.125 34.597656 61.800781 34.328125 62.433594 C 34.460938 62.636719 34.566406 62.855469 34.699219 63.058594 C 34.898438 63.265625 35.152344 63.414062 35.378906 63.589844 C 35.878906 63.972656 36.441406 64.257812 36.964844 64.613281 C 36.953125 64.472656 37.003906 64.34375 37.027344 64.207031 C 37.105469 63.753906 37.1875 63.300781 37.238281 62.847656 C 37.367188 61.824219 37.472656 60.777344 37.316406 59.746094 C 37.265625 59.25 37.144531 58.753906 37.152344 58.25 Z M 36.054688 58.84375 C 35.917969 58.847656 35.832031 58.730469 35.773438 58.628906 C 35.96875 58.652344 36.164062 58.707031 36.359375 58.742188 C 36.457031 58.761719 36.582031 58.78125 36.628906 58.886719 C 36.4375 58.882812 36.246094 58.847656 36.054688 58.84375 Z M 36.054688 58.84375 " fill-opacity="1" fill-rule="nonzero"/><path fill="#545454" d="M 33.585938 57.90625 C 33.640625 57.832031 33.625 57.730469 33.636719 57.644531 C 33.660156 57.175781 33.570312 56.679688 33.296875 56.292969 C 33.394531 56.640625 33.488281 56.988281 33.527344 57.347656 C 33.550781 57.53125 33.550781 57.722656 33.585938 57.90625 Z M 33.585938 57.90625 " fill-opacity="1" fill-rule="nonzero"/><path fill="#545454" d="M 33.453125 58.25 C 33.453125 57.574219 33.351562 56.902344 33.179688 56.25 C 33.074219 55.863281 32.886719 55.496094 32.640625 55.179688 C 32.460938 54.949219 32.222656 54.734375 31.917969 54.707031 C 31.335938 54.65625 30.777344 54.925781 30.351562 55.300781 C 29.929688 55.679688 29.660156 56.269531 29.460938 56.820312 C 29.355469 57.132812 29.25 57.484375 29.375 57.808594 C 29.433594 57.949219 29.539062 58.109375 29.707031 58.117188 C 29.929688 58.105469 30.105469 57.957031 30.300781 57.871094 C 30.160156 58.082031 29.925781 58.195312 29.746094 58.363281 C 29.648438 58.460938 29.46875 58.550781 29.503906 58.714844 C 29.765625 58.65625 30.011719 58.542969 30.277344 58.492188 C 31.035156 58.335938 31.839844 58.375 32.574219 58.621094 C 32.882812 58.714844 33.171875 58.867188 33.425781 59.074219 C 33.382812 58.988281 33.320312 58.910156 33.335938 58.8125 C 33.34375 58.621094 33.464844 58.449219 33.453125 58.25 Z M 33.453125 58.25 " fill-opacity="1" fill-rule="nonzero"/><path fill="#545454" d="M 38.75 65.347656 C 38.921875 65.285156 39.128906 65.285156 39.257812 65.136719 C 38.90625 65.273438 38.453125 65.246094 38.199219 65.558594 C 38.382812 65.496094 38.558594 65.394531 38.75 65.347656 Z M 38.75 65.347656 " fill-opacity="1" fill-rule="nonzero"/><path fill="#545454" d="M 39.433594 64.355469 C 39.378906 64.339844 39.277344 64.335938 39.246094 64.390625 C 39.300781 64.410156 39.410156 64.417969 39.433594 64.355469 Z M 39.433594 64.355469 " fill-opacity="1" fill-rule="nonzero"/><path fill="#545454" d="M 49.871094 55.03125 C 48.960938 51.785156 46.804688 48.914062 43.964844 47.101562 C 41.578125 45.574219 38.695312 44.847656 35.867188 45.0625 C 34.34375 45.171875 32.835938 45.527344 31.4375 46.144531 C 28.976562 47.207031 26.875 49.03125 25.410156 51.265625 C 24.164062 53.164062 23.410156 55.339844 23.210938 57.601562 C 23.023438 59.613281 23.34375 61.664062 24.058594 63.554688 C 25.261719 66.652344 27.632812 69.292969 30.613281 70.777344 C 32.175781 71.554688 33.886719 72.039062 35.628906 72.167969 C 38.609375 72.417969 41.65625 71.652344 44.167969 70.039062 C 46.242188 68.699219 47.964844 66.796875 49.035156 64.566406 C 49.632812 63.335938 50.058594 62.019531 50.25 60.664062 C 50.53125 58.785156 50.375 56.859375 49.871094 55.03125 Z M 28.507812 65.71875 C 28.496094 65.808594 28.527344 65.917969 28.460938 65.996094 C 28.4375 65.300781 28.46875 64.605469 28.457031 63.910156 C 28.464844 63.636719 28.445312 63.363281 28.464844 63.089844 L 28.503906 63.21875 C 28.523438 64.054688 28.472656 64.886719 28.507812 65.71875 Z M 28.550781 65.992188 C 28.542969 65.835938 28.585938 65.683594 28.546875 65.535156 L 28.601562 65.515625 C 28.605469 65.671875 28.675781 65.875 28.550781 65.992188 Z M 36.320312 67.488281 C 36.535156 67.46875 36.75 67.476562 36.964844 67.464844 C 37.457031 67.460938 37.949219 67.375 38.441406 67.421875 C 38.519531 67.433594 38.609375 67.445312 38.636719 67.53125 C 37.867188 67.550781 37.09375 67.523438 36.320312 67.492188 Z M 40.425781 67.621094 L 40.507812 67.484375 C 40.464844 67.390625 40.378906 67.332031 40.316406 67.253906 C 40.039062 66.933594 39.742188 66.59375 39.636719 66.175781 C 39.769531 66.199219 39.808594 66.34375 39.871094 66.441406 C 40.0625 66.800781 40.339844 67.097656 40.621094 67.378906 C 40.695312 67.507812 40.542969 67.621094 40.425781 67.621094 Z M 38.828125 65.875 C 39.015625 65.652344 39.332031 65.570312 39.617188 65.570312 C 39.550781 65.679688 39.503906 65.808594 39.386719 65.871094 C 39.386719 65.835938 39.390625 65.757812 39.390625 65.714844 C 39.199219 65.738281 39.011719 65.800781 38.828125 65.875 Z M 39.511719 65.273438 C 39.65625 65.199219 39.8125 65.160156 39.964844 65.117188 C 39.835938 65.222656 39.675781 65.277344 39.511719 65.273438 Z M 41.113281 67.304688 C 41.148438 67.246094 41.238281 67.171875 41.167969 67.105469 C 40.917969 66.828125 40.707031 66.523438 40.46875 66.242188 C 40.363281 66.113281 40.222656 66 40.195312 65.832031 C 40.34375 65.921875 40.449219 66.058594 40.566406 66.1875 C 40.816406 66.460938 41.039062 66.757812 41.28125 67.035156 C 41.375 67.160156 41.246094 67.304688 41.113281 67.304688 Z M 45.25 66.5 C 45.246094 65.871094 45.230469 65.242188 45.246094 64.617188 L 45.300781 64.570312 C 45.3125 65.214844 45.304688 65.859375 45.308594 66.5 L 45.246094 66.5 Z M 45.6875 66.515625 C 45.613281 66.484375 45.636719 66.394531 45.628906 66.328125 C 45.636719 65.773438 45.628906 65.214844 45.621094 64.660156 L 45.683594 64.699219 C 45.679688 65.304688 45.707031 65.910156 45.6875 66.515625 Z M 45.691406 64.417969 C 45.546875 64.414062 45.402344 64.402344 45.261719 64.382812 C 45.242188 63.550781 45.25 62.71875 45.25 61.890625 L 45.308594 61.894531 C 45.316406 62.707031 45.308594 63.523438 45.316406 64.335938 L 45.65625 64.363281 C 45.628906 63.578125 45.660156 62.796875 45.640625 62.011719 C 45.683594 62.042969 45.703125 62.089844 45.695312 62.136719 C 45.6875 62.898438 45.699219 63.65625 45.691406 64.417969 Z M 45.265625 61.6875 C 45.253906 61.609375 45.246094 61.523438 45.25 61.445312 C 45.257812 60.773438 45.230469 60.109375 45.253906 59.4375 L 45.304688 59.5 C 45.316406 60.203125 45.304688 60.910156 45.316406 61.609375 C 45.390625 61.710938 45.535156 61.675781 45.644531 61.699219 C 45.648438 60.996094 45.648438 60.292969 45.628906 59.59375 L 45.683594 59.589844 C 45.695312 60.308594 45.679688 61.027344 45.707031 61.742188 C 45.558594 61.746094 45.410156 61.730469 45.265625 61.6875 Z M 46.074219 65.808594 C 46.066406 64.953125 46.085938 64.097656 46.066406 63.246094 L 46.117188 63.246094 C 46.117188 64.164062 46.121094 65.082031 46.121094 66 C 46.046875 65.964844 46.085938 65.871094 46.074219 65.808594 Z M 46.273438 65.972656 L 46.222656 65.996094 C 46.222656 65.328125 46.210938 64.660156 46.207031 63.996094 C 46.210938 63.746094 46.167969 63.503906 46.195312 63.257812 C 46.257812 63.484375 46.246094 63.71875 46.253906 63.949219 C 46.257812 64.625 46.292969 65.300781 46.273438 65.972656 Z M 46.523438 65.992188 C 46.527344 64.953125 46.546875 63.910156 46.539062 62.871094 C 46.539062 62.746094 46.53125 62.621094 46.550781 62.496094 L 46.613281 62.472656 C 46.613281 63.320312 46.605469 64.167969 46.625 65.011719 C 46.621094 65.214844 46.617188 65.417969 46.621094 65.621094 L 46.5625 65.683594 C 46.578125 65.703125 46.605469 65.707031 46.628906 65.703125 C 46.597656 65.800781 46.671875 65.988281 46.523438 65.992188 Z M 46.855469 64.132812 L 46.804688 64.082031 C 46.808594 63.457031 46.789062 62.835938 46.8125 62.210938 C 46.886719 62.242188 46.851562 62.332031 46.863281 62.394531 C 46.859375 62.976562 46.875 63.554688 46.855469 64.132812 Z M 47.796875 65.460938 C 47.773438 65.386719 47.871094 65.355469 47.921875 65.386719 C 47.976562 65.417969 47.824219 65.5625 47.796875 65.460938 Z M 47.796875 65.34375 C 47.792969 65.222656 47.964844 65.261719 48.007812 65.324219 Z M 48.445312 64.457031 L 48.414062 64.453125 C 48.414062 64.4375 48.410156 64.40625 48.410156 64.390625 L 48.441406 64.378906 L 48.460938 64.417969 Z M 48.816406 63.65625 C 48.777344 63.746094 48.742188 63.839844 48.714844 63.933594 L 48.53125 63.957031 C 48.578125 63.984375 48.625 64.007812 48.675781 64.027344 C 48.640625 64.054688 48.613281 64.089844 48.597656 64.132812 C 48.566406 64.167969 48.558594 64.222656 48.519531 64.246094 C 48.480469 64.128906 48.53125 64.003906 48.519531 63.882812 L 48.417969 63.960938 L 48.472656 64.023438 C 48.363281 64.085938 48.558594 64.292969 48.332031 64.222656 C 48.339844 64.167969 48.347656 64.109375 48.394531 64.074219 L 48.257812 64.039062 C 48.292969 64.136719 48.269531 64.238281 48.304688 64.335938 C 48.234375 64.3125 48.15625 64.300781 48.082031 64.296875 C 48.101562 64.351562 48.144531 64.390625 48.199219 64.414062 C 48.058594 64.4375 48.140625 64.605469 48.136719 64.699219 L 48.289062 64.683594 C 48.25 64.664062 48.214844 64.644531 48.175781 64.628906 C 48.171875 64.597656 48.171875 64.539062 48.171875 64.507812 L 48.234375 64.507812 C 48.234375 64.464844 48.226562 64.371094 48.222656 64.328125 L 48.316406 64.410156 L 48.378906 64.363281 L 48.3125 64.296875 L 48.40625 64.25 L 48.496094 64.308594 L 48.519531 64.335938 C 48.410156 64.335938 48.355469 64.441406 48.257812 64.476562 L 48.304688 64.597656 C 48.332031 64.558594 48.355469 64.519531 48.371094 64.476562 C 48.421875 64.582031 48.3125 64.664062 48.273438 64.753906 C 48.191406 64.746094 48.101562 64.726562 48.035156 64.789062 C 48.109375 64.804688 48.1875 64.804688 48.261719 64.792969 L 48.234375 64.859375 C 48.140625 64.816406 48.070312 64.839844 48.019531 64.917969 L 48.226562 64.890625 C 48.175781 64.988281 48.042969 64.960938 47.953125 64.960938 L 47.863281 65.03125 L 48.128906 65.039062 C 48.09375 65.09375 48.070312 65.144531 48.046875 65.203125 L 47.808594 65.203125 L 47.816406 65.136719 C 47.898438 65.136719 48.050781 65.199219 48.066406 65.078125 L 47.816406 65.078125 C 47.847656 65 47.84375 64.917969 47.832031 64.835938 L 48.015625 64.84375 L 48.011719 64.78125 L 47.796875 64.761719 C 47.875 64.707031 47.96875 64.738281 48.058594 64.742188 C 48.078125 64.5625 48.054688 64.386719 48.085938 64.207031 C 48.074219 64.167969 48.066406 64.121094 48.0625 64.082031 L 48.1875 64.144531 L 48.21875 64.003906 L 48.054688 64.039062 C 48.109375 63.9375 48.070312 63.816406 48.085938 63.707031 L 48.140625 63.785156 L 48.09375 63.859375 L 48.21875 63.851562 L 48.1875 63.707031 C 48.269531 63.730469 48.265625 63.832031 48.34375 63.867188 C 48.304688 63.90625 48.246094 63.933594 48.25 64.003906 C 48.335938 64.011719 48.382812 63.957031 48.40625 63.886719 C 48.367188 63.820312 48.367188 63.746094 48.367188 63.671875 C 48.300781 63.683594 48.21875 63.703125 48.164062 63.652344 L 48.078125 63.691406 L 48.078125 63.574219 L 48.1875 63.640625 L 48.199219 63.539062 C 48.246094 63.601562 48.316406 63.640625 48.390625 63.644531 L 48.359375 63.476562 L 48.390625 63.324219 C 48.328125 63.34375 48.265625 63.367188 48.238281 63.429688 L 48.332031 63.488281 C 48.28125 63.578125 48.148438 63.480469 48.066406 63.507812 C 48.066406 63.488281 48.070312 63.449219 48.070312 63.429688 L 48.226562 63.457031 L 48.191406 63.34375 C 48.148438 63.347656 48.113281 63.363281 48.078125 63.382812 L 48.0625 63.296875 C 48.132812 63.300781 48.238281 63.320312 48.21875 63.203125 L 48.0625 63.21875 L 48.070312 63.140625 L 48.140625 63.167969 C 48.195312 63.128906 48.265625 63.132812 48.324219 63.160156 L 48.402344 63.160156 L 48.371094 63.0625 C 48.28125 63.125 48.167969 63.082031 48.066406 63.082031 C 48.066406 63.0625 48.066406 63.03125 48.066406 63.011719 C 48.136719 63.046875 48.183594 63.035156 48.207031 62.964844 C 48.183594 62.871094 48.109375 62.945312 48.0625 62.96875 C 48.085938 62.882812 48.085938 62.796875 48.0625 62.710938 C 48.148438 62.710938 48.234375 62.707031 48.316406 62.699219 C 48.269531 62.75 48.242188 62.820312 48.234375 62.890625 C 48.363281 62.921875 48.398438 62.8125 48.355469 62.71875 L 48.410156 62.644531 C 48.300781 62.664062 48.183594 62.664062 48.074219 62.652344 C 48.085938 62.578125 48.085938 62.503906 48.070312 62.433594 L 48.167969 62.476562 L 48.121094 62.59375 C 48.175781 62.582031 48.234375 62.585938 48.289062 62.609375 C 48.367188 62.660156 48.363281 62.546875 48.355469 62.5 C 48.300781 62.550781 48.242188 62.558594 48.179688 62.515625 C 48.207031 62.445312 48.210938 62.367188 48.1875 62.292969 L 48.121094 62.304688 L 48.140625 62.394531 L 48.082031 62.394531 C 48.089844 62.339844 48.074219 62.277344 48.109375 62.230469 L 48.203125 62.257812 C 48.203125 62.183594 48.203125 62.109375 48.207031 62.035156 C 48.320312 62.074219 48.191406 62.261719 48.332031 62.277344 L 48.371094 62.136719 L 48.378906 62.214844 L 48.460938 62.214844 L 48.445312 62.410156 C 48.378906 62.382812 48.347656 62.296875 48.257812 62.304688 L 48.285156 62.484375 C 48.339844 62.472656 48.4375 62.386719 48.46875 62.480469 C 48.496094 62.574219 48.394531 62.664062 48.484375 62.71875 C 48.453125 62.765625 48.421875 62.8125 48.398438 62.863281 L 48.523438 62.859375 C 48.546875 62.714844 48.507812 62.558594 48.53125 62.410156 C 48.496094 62.355469 48.632812 62.277344 48.496094 62.28125 L 48.539062 62.222656 L 48.675781 62.230469 C 48.679688 61.882812 48.664062 61.53125 48.6875 61.1875 C 48.734375 61.085938 48.785156 61.21875 48.769531 61.265625 C 48.792969 62.027344 48.761719 62.792969 48.773438 63.554688 C 48.800781 63.585938 48.851562 63.621094 48.816406 63.65625 Z M 48.136719 62.007812 C 48.144531 62.066406 48.152344 62.128906 48.15625 62.191406 C 48.0625 62.167969 48.089844 62.0625 48.136719 62.007812 Z M 49.4375 62.050781 C 49.394531 61.445312 49.433594 60.835938 49.425781 60.234375 C 49.433594 59.742188 49.410156 59.242188 49.433594 58.753906 C 49.453125 58.796875 49.464844 58.839844 49.464844 58.890625 C 49.460938 59.597656 49.46875 60.304688 49.453125 61.007812 C 49.445312 61.363281 49.496094 61.710938 49.4375 62.050781 Z M 49.683594 60.828125 C 49.640625 61.078125 49.625 61.347656 49.515625 61.582031 C 49.511719 60.628906 49.523438 59.675781 49.511719 58.726562 C 49.253906 58.441406 48.992188 58.15625 48.714844 57.894531 C 48.703125 57.792969 48.730469 57.671875 48.640625 57.601562 C 48.628906 58.792969 48.625 59.988281 48.636719 61.183594 C 48.320312 61.492188 47.953125 61.765625 47.652344 62.089844 C 47.652344 62.652344 47.675781 63.21875 47.648438 63.785156 C 47.527344 63.761719 47.511719 63.882812 47.46875 63.964844 C 47.457031 62.574219 47.476562 61.183594 47.476562 59.796875 L 47.433594 59.789062 C 47.386719 60.324219 47.433594 60.863281 47.410156 61.398438 L 47.390625 61.453125 C 47.378906 60.96875 47.390625 60.484375 47.386719 59.996094 C 47.148438 60.199219 46.945312 60.4375 46.707031 60.644531 C 46.644531 60.6875 46.667969 60.769531 46.664062 60.835938 C 46.660156 61.265625 46.683594 61.699219 46.648438 62.132812 C 46.523438 62.164062 46.394531 62.183594 46.265625 62.214844 C 46.25 62.394531 46.113281 62.527344 45.949219 62.582031 C 45.910156 62.71875 45.917969 62.863281 45.890625 63 C 45.824219 62.785156 45.929688 62.570312 45.914062 62.351562 C 45.90625 61.335938 45.914062 60.316406 45.898438 59.300781 C 45.542969 58.9375 45.148438 58.613281 44.792969 58.246094 C 44.742188 57.410156 44.785156 56.5625 44.757812 55.722656 C 44.304688 55.238281 43.84375 54.761719 43.398438 54.269531 C 43.390625 54.140625 43.410156 54.007812 43.390625 53.875 C 43.351562 53.820312 43.289062 53.789062 43.238281 53.746094 C 43.253906 56.410156 43.238281 59.078125 43.234375 61.746094 L 43.175781 61.828125 C 43.105469 61.78125 43.132812 61.6875 43.128906 61.617188 C 43.132812 61.316406 43.121094 61.011719 43.128906 60.710938 C 43.121094 60.640625 43.160156 60.539062 43.074219 60.5 C 43.128906 60.941406 43.035156 61.390625 43.105469 61.828125 L 43.003906 61.828125 C 43.054688 61.390625 43.007812 60.949219 43.042969 60.511719 C 42.910156 60.410156 42.773438 60.304688 42.632812 60.214844 C 42.488281 60.328125 42.34375 60.4375 42.1875 60.535156 C 42.191406 60.828125 42.179688 61.121094 42.203125 61.410156 C 42.257812 61.433594 42.363281 61.433594 42.347656 61.519531 C 42.371094 62.160156 42.34375 62.800781 42.34375 63.441406 L 42.441406 63.5 C 42.386719 63.511719 42.332031 63.5 42.285156 63.464844 C 42.292969 62.863281 42.300781 62.257812 42.300781 61.65625 C 42.285156 61.609375 42.320312 61.460938 42.238281 61.496094 C 42.210938 62.105469 42.238281 62.71875 42.222656 63.335938 L 42.195312 63.339844 C 42.207031 62.707031 42.1875 62.074219 42.207031 61.441406 C 42.160156 61.347656 42.058594 61.300781 41.972656 61.253906 C 41.890625 61.402344 41.777344 61.53125 41.632812 61.625 C 41.605469 61.941406 41.628906 62.261719 41.625 62.578125 L 41.40625 62.714844 C 41.414062 61.929688 41.402344 61.148438 41.40625 60.363281 C 41.425781 60.207031 41.257812 60.136719 41.171875 60.039062 C 41.03125 59.882812 40.867188 59.742188 40.722656 59.585938 C 40.636719 59.511719 40.699219 59.367188 40.601562 59.300781 C 40.59375 60.433594 40.601562 61.566406 40.601562 62.699219 C 40.617188 62.777344 40.535156 62.777344 40.480469 62.777344 C 40.453125 62.058594 40.472656 61.339844 40.464844 60.621094 C 40.464844 59.605469 40.453125 58.589844 40.472656 57.570312 L 40.417969 57.570312 C 40.417969 57.652344 40.414062 57.734375 40.414062 57.8125 C 40.203125 58.007812 40.019531 58.226562 39.8125 58.421875 C 39.765625 58.480469 39.695312 58.523438 39.664062 58.589844 C 39.664062 60.066406 39.667969 61.546875 39.660156 63.023438 L 39.515625 63.035156 C 39.515625 62.839844 39.527344 62.644531 39.496094 62.453125 L 39.40625 62.429688 C 39.484375 62.910156 39.472656 63.394531 39.472656 63.882812 L 39.28125 63.886719 C 39.304688 63.789062 39.328125 63.695312 39.347656 63.601562 C 39.429688 63.636719 39.382812 63.742188 39.398438 63.8125 L 39.421875 63.8125 C 39.382812 63.542969 39.433594 63.265625 39.402344 62.988281 C 39.386719 63.183594 39.398438 63.382812 39.390625 63.578125 L 39.332031 63.582031 C 39.34375 63.195312 39.355469 62.804688 39.351562 62.417969 C 39.347656 62.359375 39.347656 62.304688 39.34375 62.253906 C 39.085938 62.199219 38.84375 62.09375 38.589844 62.027344 C 38.578125 62.367188 38.582031 62.699219 38.582031 63.039062 C 38.582031 63.109375 38.585938 63.179688 38.5625 63.25 C 38.511719 63.214844 38.464844 63.171875 38.417969 63.132812 C 38.347656 63.261719 38.308594 63.40625 38.242188 63.535156 C 38.027344 63.003906 37.589844 62.574219 37.492188 61.996094 C 37.464844 61.902344 37.570312 61.851562 37.621094 61.792969 C 37.832031 61.609375 38.03125 61.339844 37.980469 61.035156 C 37.929688 60.734375 37.710938 60.46875 37.449219 60.300781 C 37.511719 60.878906 37.476562 61.464844 37.429688 62.042969 C 37.378906 62.753906 37.257812 63.457031 37.144531 64.160156 C 37.117188 64.328125 37.066406 64.492188 37.039062 64.65625 C 37.320312 64.832031 37.597656 65.023438 37.886719 65.1875 C 38.019531 65.066406 38.1875 65.191406 38.3125 65.261719 C 38.53125 65.164062 38.765625 65.125 38.996094 65.058594 L 38.898438 64.980469 L 39.011719 64.929688 L 38.898438 64.878906 C 38.953125 64.859375 39.011719 64.851562 39.042969 64.796875 L 38.898438 64.796875 C 38.960938 64.765625 38.992188 64.714844 38.964844 64.640625 L 39.015625 64.675781 L 38.925781 64.5625 C 39 64.554688 39.078125 64.558594 39.148438 64.582031 C 39.246094 64.585938 39.433594 64.519531 39.460938 64.65625 L 39.503906 64.648438 C 39.480469 64.679688 39.457031 64.714844 39.4375 64.75 C 39.386719 64.703125 39.355469 64.746094 39.324219 64.789062 C 39.382812 64.785156 39.4375 64.8125 39.46875 64.859375 C 39.464844 64.894531 39.460938 64.964844 39.457031 65 C 39.589844 65.042969 39.722656 64.980469 39.855469 64.976562 L 39.839844 64.84375 C 39.886719 64.785156 39.8125 64.703125 39.871094 64.65625 L 39.808594 64.582031 L 40.023438 64.566406 L 39.824219 64.546875 L 39.824219 64.484375 C 39.898438 64.46875 39.972656 64.464844 40.039062 64.433594 L 40.058594 64.425781 L 40.101562 64.40625 L 40.121094 64.398438 L 40.210938 64.390625 C 40.21875 64.300781 40.222656 64.066406 40.070312 64.152344 C 40.097656 64.070312 40.089844 63.984375 40.078125 63.902344 L 40.203125 63.914062 L 40.214844 63.824219 L 40.054688 63.832031 C 40.09375 63.789062 40.132812 63.746094 40.171875 63.707031 L 40.070312 63.742188 L 40.070312 63.65625 C 40.183594 63.628906 40.191406 63.730469 40.210938 63.8125 L 40.230469 63.667969 L 40.273438 63.652344 L 40.253906 63.796875 L 40.378906 63.78125 L 40.367188 63.847656 L 40.230469 63.820312 L 40.214844 63.914062 L 40.410156 63.902344 L 40.316406 63.992188 L 40.378906 64.003906 C 40.378906 64.046875 40.378906 64.089844 40.382812 64.132812 L 40.285156 64.121094 L 40.359375 64.171875 L 40.316406 64.257812 L 40.402344 64.328125 L 40.300781 64.351562 L 40.363281 64.363281 L 40.375 64.410156 L 40.378906 64.429688 L 40.410156 64.546875 L 40.304688 64.519531 L 40.398438 64.574219 C 40.386719 64.699219 40.410156 64.816406 40.410156 64.941406 L 40.34375 64.949219 C 40.347656 64.882812 40.355469 64.816406 40.363281 64.75 L 40.328125 64.746094 C 40.332031 64.816406 40.339844 64.886719 40.347656 64.957031 L 40.191406 64.894531 L 40.164062 64.953125 C 40.351562 64.941406 40.480469 65.101562 40.597656 65.222656 C 40.742188 65.175781 40.898438 65.105469 41.054688 65.148438 C 41.265625 65.207031 41.429688 65.367188 41.640625 65.425781 C 41.855469 65.484375 41.980469 65.625 42.144531 65.734375 C 42.566406 65.847656 43 65.898438 43.429688 65.976562 L 45.066406 66.242188 L 45.097656 66.332031 C 44.605469 66.28125 44.121094 66.175781 43.632812 66.117188 C 43.1875 66.058594 42.753906 65.941406 42.308594 65.921875 C 42.496094 66.019531 42.71875 66.070312 42.863281 66.234375 C 42.964844 66.371094 42.875 66.539062 42.871094 66.691406 C 42.867188 66.84375 42.859375 67.019531 42.746094 67.136719 C 42.691406 66.863281 42.757812 66.585938 42.773438 66.316406 C 42.613281 66.121094 42.304688 66.152344 42.140625 65.953125 C 41.976562 65.753906 41.8125 65.621094 41.578125 65.578125 C 41.835938 65.964844 42.039062 66.394531 42.113281 66.855469 C 42.285156 66.9375 42.429688 67.074219 42.628906 67.082031 C 42.613281 67.175781 42.515625 67.179688 42.441406 67.179688 C 42.320312 67.179688 42.222656 67.097656 42.128906 67.042969 C 42.152344 67.128906 42.007812 67.210938 42 67.085938 C 41.996094 66.964844 41.972656 66.765625 41.902344 66.621094 C 41.835938 66.558594 41.730469 66.550781 41.664062 66.488281 C 41.449219 66.136719 41.066406 65.929688 40.789062 65.625 C 40.570312 65.429688 40.402344 65.128906 40.085938 65.082031 C 39.769531 65.03125 39.464844 65.195312 39.195312 65.34375 C 38.984375 65.441406 38.765625 65.535156 38.609375 65.714844 C 38.457031 65.898438 38.316406 65.949219 38.1875 66.085938 C 38.292969 66.128906 38.398438 66.101562 38.503906 66.078125 C 38.652344 66.042969 38.804688 66.074219 38.949219 66.039062 C 38.859375 66.203125 38.785156 66.390625 38.640625 66.515625 C 38.589844 66.496094 38.546875 66.472656 38.5 66.441406 C 38.5625 66.339844 38.621094 66.246094 38.683594 66.148438 C 38.316406 66.25 37.976562 66.433594 37.648438 66.621094 C 37.6875 66.488281 37.773438 66.363281 37.765625 66.222656 C 37.582031 66.445312 37.328125 66.746094 37.472656 67.050781 C 37.578125 67.066406 37.671875 67.023438 37.769531 67.007812 C 38.070312 66.980469 38.371094 67.054688 38.675781 67.027344 C 38.789062 67.027344 38.871094 66.910156 38.984375 66.914062 C 39.148438 67 39.273438 67.140625 39.410156 67.261719 C 39.550781 67.378906 39.699219 67.511719 39.828125 67.65625 C 39.765625 67.648438 39.695312 67.648438 39.636719 67.609375 C 39.382812 67.4375 39.183594 67.199219 38.949219 67.003906 C 38.945312 67.058594 38.945312 67.117188 38.9375 67.171875 C 38.503906 67.199219 38.050781 66.996094 37.636719 67.203125 C 37.488281 67.269531 37.324219 67.152344 37.300781 67.003906 C 37.28125 66.835938 37.304688 66.667969 37.363281 66.511719 C 37.519531 66.035156 37.890625 65.683594 38.210938 65.320312 C 38.0625 65.277344 37.902344 65.3125 37.785156 65.414062 C 37.550781 65.609375 37.402344 65.886719 37.242188 66.140625 C 37.132812 66.332031 37.023438 66.527344 37.003906 66.746094 C 37.027344 66.878906 37.097656 66.996094 37.203125 67.078125 L 37.234375 66.917969 C 37.222656 67.003906 37.222656 67.085938 37.230469 67.171875 C 37.113281 67.175781 36.996094 67.175781 36.875 67.171875 C 36.65625 67.007812 36.628906 66.683594 36.742188 66.449219 C 36.914062 66.105469 37.113281 65.769531 37.335938 65.457031 C 37.265625 65.445312 37.199219 65.417969 37.144531 65.371094 C 36.820312 65.128906 36.4375 64.972656 36.042969 64.882812 C 35.726562 64.816406 35.417969 64.71875 35.125 64.585938 C 34.632812 64.367188 34.121094 64.195312 33.609375 64.015625 L 33.566406 63.976562 C 33.949219 64.023438 34.3125 64.152344 34.679688 64.261719 C 35.152344 64.433594 35.601562 64.683594 36.105469 64.773438 C 36.5 64.84375 36.863281 65.027344 37.214844 65.222656 C 37.351562 65.300781 37.496094 65.355469 37.65625 65.347656 C 37.5625 65.476562 37.421875 65.570312 37.34375 65.710938 C 37.179688 65.980469 37.027344 66.261719 36.890625 66.546875 C 36.800781 66.734375 36.835938 67.027344 37.050781 67.105469 C 36.957031 66.925781 36.867188 66.726562 36.945312 66.523438 C 37.082031 66.234375 37.234375 65.953125 37.410156 65.6875 C 37.484375 65.566406 37.605469 65.484375 37.667969 65.355469 L 37.777344 65.273438 C 37.628906 65.207031 37.476562 65.144531 37.351562 65.042969 C 37.101562 64.832031 36.808594 64.6875 36.542969 64.507812 C 36.011719 64.183594 35.480469 63.859375 34.984375 63.476562 C 34.824219 63.335938 34.597656 63.253906 34.515625 63.042969 C 34.316406 62.609375 34 62.230469 33.625 61.933594 C 33.460938 61.800781 33.273438 61.6875 33.121094 61.535156 C 33.136719 61.070312 33.230469 60.613281 33.214844 60.148438 C 33.21875 59.882812 33.15625 59.625 33.09375 59.367188 C 33.136719 59.363281 33.179688 59.386719 33.195312 59.429688 C 33.339844 59.691406 33.347656 60 33.347656 60.289062 C 33.808594 60.269531 34.289062 60.058594 34.558594 59.671875 C 34.773438 59.324219 34.765625 58.894531 34.707031 58.503906 C 34.558594 57.507812 34.210938 56.554688 33.695312 55.6875 C 33.316406 55.074219 32.835938 54.472656 32.171875 54.152344 C 31.582031 53.855469 30.855469 54.007812 30.332031 54.371094 C 29.996094 54.59375 29.75 54.921875 29.519531 55.25 C 29.199219 55.71875 28.925781 56.234375 28.835938 56.800781 C 28.746094 57.367188 28.789062 57.976562 28.894531 58.550781 C 28.976562 59 29.113281 59.449219 29.371094 59.832031 C 29.472656 59.976562 29.558594 60.136719 29.707031 60.246094 C 29.609375 59.953125 29.582031 59.640625 29.589844 59.328125 C 29.574219 59.292969 29.597656 59.25 29.636719 59.238281 C 29.640625 59.238281 29.644531 59.238281 29.648438 59.238281 C 29.75 60.1875 30.078125 61.101562 30.496094 61.957031 C 30.695312 62.386719 30.9375 62.804688 31.023438 63.273438 C 31.074219 63.554688 31.1875 63.84375 31.414062 64.027344 C 31.804688 64.238281 32.265625 64.242188 32.691406 64.328125 C 32.757812 64.335938 32.816406 64.375 32.847656 64.4375 C 32.535156 64.449219 32.222656 64.375 31.914062 64.316406 C 31.691406 64.261719 31.457031 64.21875 31.261719 64.089844 C 30.910156 63.707031 30.914062 63.152344 30.699219 62.699219 C 30.410156 62.070312 30.085938 61.460938 29.871094 60.800781 C 29.828125 60.691406 29.800781 60.570312 29.734375 60.472656 C 29.46875 60.207031 29.257812 59.886719 29.117188 59.539062 C 29.101562 59.730469 29.15625 59.917969 29.183594 60.105469 C 29.234375 60.40625 29.246094 60.734375 29.4375 60.992188 C 29.625 61.25 29.757812 61.460938 29.875 61.714844 C 30.050781 62.09375 30.339844 62.421875 30.429688 62.835938 C 30.523438 63.246094 30.46875 63.734375 30.390625 64.171875 C 30.3125 64.609375 30.429688 65.03125 30.292969 65.449219 C 30.234375 65.671875 30.078125 65.886719 29.84375 65.949219 C 29.707031 66.003906 29.511719 65.9375 29.429688 66.089844 C 29.375 66.160156 29.382812 66.292969 29.273438 66.296875 C 29.28125 66.160156 29.339844 66.03125 29.4375 65.933594 C 29.367188 65.863281 29.269531 65.871094 29.183594 65.878906 L 29.167969 65.980469 C 29.167969 65.949219 29.167969 65.898438 29.167969 65.871094 L 29.101562 65.859375 C 29.101562 65.894531 29.101562 65.957031 29.101562 65.992188 L 29.0625 65.984375 L 29.003906 65.957031 C 28.972656 65.980469 28.933594 65.976562 28.902344 65.957031 L 28.835938 66 C 28.839844 65.917969 28.839844 65.835938 28.832031 65.753906 C 28.816406 65.824219 28.800781 65.898438 28.796875 65.972656 L 28.738281 65.976562 C 28.738281 65.960938 28.738281 65.929688 28.742188 65.910156 L 28.648438 65.984375 C 28.644531 65.660156 28.75 65.347656 28.691406 65.023438 C 28.664062 65.199219 28.722656 65.390625 28.640625 65.5625 C 28.582031 65.367188 28.640625 65.160156 28.582031 64.96875 C 28.597656 65.101562 28.585938 65.238281 28.589844 65.375 C 28.605469 65.433594 28.582031 65.492188 28.539062 65.535156 C 28.519531 64.816406 28.570312 64.101562 28.5625 63.386719 C 28.539062 63.28125 28.558594 63.167969 28.609375 63.074219 C 28.652344 63.492188 28.601562 63.917969 28.617188 64.335938 C 28.621094 64.476562 28.597656 64.613281 28.582031 64.746094 C 28.597656 64.6875 28.613281 64.632812 28.632812 64.574219 L 28.710938 64.59375 C 28.609375 64.546875 28.660156 64.421875 28.652344 64.339844 C 28.664062 64.175781 28.636719 64.003906 28.6875 63.847656 C 28.683594 63.648438 28.683594 63.445312 28.664062 63.246094 C 28.675781 63.191406 28.6875 63.132812 28.695312 63.078125 L 28.714844 63.191406 L 28.789062 63.085938 C 28.789062 63.117188 28.789062 63.1875 28.789062 63.21875 C 28.871094 63.21875 28.878906 63.136719 28.910156 63.082031 C 28.914062 63.125 28.917969 63.21875 28.917969 63.265625 C 28.964844 63.226562 28.992188 63.167969 28.992188 63.109375 C 29.027344 63.117188 29.070312 63.121094 29.105469 63.113281 L 29.089844 63.21875 C 29.203125 63.210938 29.171875 63.078125 29.183594 63.003906 C 29.183594 62.253906 29.195312 61.503906 29.167969 60.75 C 28.824219 60.945312 28.484375 61.144531 28.148438 61.351562 C 28.148438 61.628906 28.148438 61.902344 28.152344 62.179688 C 28.074219 62.238281 27.957031 62.269531 27.914062 62.355469 C 27.910156 63.304688 27.902344 64.253906 27.90625 65.207031 C 27.902344 65.460938 27.921875 65.71875 27.898438 65.976562 L 27.835938 66 C 27.824219 64.179688 27.84375 62.359375 27.839844 60.539062 C 27.832031 60.484375 27.847656 60.417969 27.820312 60.363281 C 27.570312 60.074219 27.234375 59.855469 27.015625 59.535156 C 27.003906 60.578125 27.015625 61.617188 27.007812 62.65625 C 27.011719 63.132812 26.988281 63.613281 27.023438 64.089844 C 26.828125 64.035156 26.628906 64.003906 26.425781 63.960938 C 26.425781 61.070312 26.414062 58.183594 26.429688 55.300781 C 25.800781 55.824219 25.191406 56.375 24.566406 56.90625 C 24.546875 57.8125 24.558594 58.726562 24.558594 59.632812 C 24.558594 60.738281 24.558594 61.847656 24.558594 62.957031 C 24.558594 63.160156 24.574219 63.363281 24.605469 63.566406 C 24.414062 62.949219 24.183594 62.339844 24.050781 61.707031 C 23.578125 59.796875 23.582031 57.777344 24.023438 55.863281 C 24.503906 53.714844 25.550781 51.703125 27.003906 50.050781 C 28.566406 48.253906 30.621094 46.886719 32.894531 46.164062 C 34.90625 45.53125 37.074219 45.390625 39.148438 45.773438 C 40.867188 46.089844 42.53125 46.753906 43.976562 47.742188 C 45.34375 48.660156 46.519531 49.824219 47.457031 51.179688 C 48.46875 52.636719 49.210938 54.296875 49.570312 56.035156 C 49.898438 57.617188 49.9375 59.238281 49.683594 60.828125 Z M 43.058594 64.265625 L 43.027344 64.351562 C 43.191406 64.285156 43.371094 64.3125 43.539062 64.308594 C 44.046875 64.316406 44.558594 64.300781 45.066406 64.3125 C 44.503906 64.351562 43.9375 64.316406 43.371094 64.335938 L 43.292969 64.464844 C 43.171875 64.453125 43.054688 64.449219 42.933594 64.457031 C 42.867188 64.167969 42.902344 63.863281 42.902344 63.566406 C 42.9375 63.585938 42.976562 63.59375 43.015625 63.589844 C 43.011719 63.308594 43.035156 63.03125 43.015625 62.75 L 42.96875 62.757812 C 42.960938 62.984375 42.980469 63.210938 42.964844 63.441406 C 42.945312 63.199219 42.945312 62.960938 42.960938 62.71875 L 42.988281 62.691406 L 43.019531 62.664062 C 42.960938 62.65625 42.90625 62.625 42.875 62.578125 C 43.621094 62.566406 44.367188 62.527344 45.113281 62.5 L 45.082031 62.582031 C 44.902344 62.609375 44.722656 62.601562 44.535156 62.609375 C 44.046875 62.613281 43.554688 62.664062 43.0625 62.648438 C 43.046875 63.1875 43.039062 63.726562 43.058594 64.265625 Z M 44.636719 55.859375 L 44.695312 55.8125 C 44.71875 56.710938 44.691406 57.609375 44.722656 58.507812 C 44.726562 59.453125 44.738281 60.398438 44.71875 61.34375 L 44.644531 61.398438 C 44.636719 59.550781 44.652344 57.707031 44.636719 55.859375 Z M 45.097656 61.644531 C 44.757812 61.726562 44.398438 61.703125 44.054688 61.746094 C 43.859375 61.773438 43.652344 61.761719 43.464844 61.824219 C 43.421875 62.015625 43.15625 61.980469 43.03125 61.902344 C 43.167969 61.851562 43.300781 61.792969 43.449219 61.78125 C 43.992188 61.710938 44.546875 61.691406 45.09375 61.644531 Z M 45.046875 62.246094 L 45.046875 62.332031 C 44.847656 62.3125 44.648438 62.351562 44.449219 62.375 C 44.632812 62.277344 44.851562 62.308594 45.046875 62.246094 Z M 43.417969 62.292969 C 43.230469 62.304688 43.039062 62.316406 42.851562 62.320312 C 43.027344 62.257812 43.230469 62.265625 43.417969 62.292969 Z M 42.660156 64.757812 C 42.808594 64.714844 42.964844 64.738281 43.113281 64.753906 C 42.964844 64.769531 42.808594 64.773438 42.660156 64.757812 Z M 43.289062 64.835938 C 43.09375 64.851562 42.894531 64.855469 42.699219 64.84375 C 42.886719 64.796875 43.09375 64.835938 43.289062 64.835938 Z M 45.039062 65.113281 L 45.023438 65.1875 C 44.324219 65.183594 43.628906 65.109375 42.929688 65.089844 C 42.84375 65.082031 42.738281 65.101562 42.679688 65.027344 C 43.46875 65.023438 44.253906 65.109375 45.039062 65.113281 Z M 44.394531 64.953125 C 44.59375 64.890625 44.804688 64.929688 45.011719 64.910156 L 45 64.96875 C 44.796875 64.9375 44.59375 64.957031 44.394531 64.953125 Z M 41.921875 65.113281 L 41.855469 65.144531 C 41.859375 64.515625 41.859375 63.882812 41.855469 63.25 L 41.921875 63.28125 C 41.9375 63.890625 41.910156 64.503906 41.921875 65.113281 Z M 41.625 63.328125 C 41.667969 63.34375 41.699219 63.386719 41.699219 63.4375 C 41.71875 63.996094 41.683594 64.558594 41.710938 65.117188 L 41.628906 65.117188 C 41.636719 64.523438 41.621094 63.925781 41.625 63.328125 Z M 41.472656 65.035156 L 41.523438 65.128906 C 41.449219 65.121094 41.417969 65.058594 41.425781 64.992188 C 41.441406 64.339844 41.40625 63.683594 41.433594 63.035156 C 41.523438 63.074219 41.476562 63.1875 41.488281 63.261719 C 41.492188 63.761719 41.472656 64.265625 41.492188 64.765625 L 41.511719 64.78125 L 41.558594 64.757812 C 41.570312 64.414062 41.546875 64.074219 41.574219 63.734375 C 41.582031 64.136719 41.601562 64.542969 41.570312 64.941406 C 41.566406 64.976562 41.558594 65.007812 41.535156 65.039062 C 41.535156 64.976562 41.527344 64.917969 41.503906 64.859375 C 41.429688 64.878906 41.484375 64.980469 41.472656 65.035156 Z M 41.304688 60.238281 L 41.355469 60.289062 C 41.34375 61.105469 41.382812 61.925781 41.367188 62.742188 L 41.316406 62.6875 C 41.320312 61.871094 41.300781 61.054688 41.304688 60.238281 Z M 40.820312 64.824219 C 40.898438 64.832031 40.992188 64.828125 40.953125 64.71875 L 40.84375 64.765625 C 40.847656 64.695312 40.933594 64.703125 40.980469 64.679688 C 40.980469 64.746094 40.980469 64.816406 40.980469 64.882812 L 40.75 64.871094 C 40.792969 64.707031 40.757812 64.542969 40.753906 64.375 C 40.863281 64.335938 40.667969 64.148438 40.828125 64.1875 C 40.847656 64.246094 40.84375 64.308594 40.851562 64.367188 C 40.902344 64.363281 40.972656 64.328125 40.980469 64.40625 L 40.835938 64.414062 L 40.824219 64.457031 L 40.984375 64.464844 C 40.992188 64.542969 40.996094 64.773438 40.875 64.632812 L 40.867188 64.621094 L 40.84375 64.515625 L 40.789062 64.535156 C 40.855469 64.621094 40.820312 64.730469 40.820312 64.824219 Z M 40.738281 63.707031 L 40.867188 63.671875 L 40.777344 63.632812 C 40.796875 63.605469 40.820312 63.578125 40.847656 63.5625 L 40.734375 63.5625 C 40.738281 63.515625 40.753906 63.421875 40.757812 63.375 L 40.867188 63.375 L 40.742188 63.359375 L 40.742188 63.296875 L 40.871094 63.296875 C 40.8125 63.300781 40.757812 63.269531 40.722656 63.222656 C 40.804688 63.203125 40.894531 63.175781 40.980469 63.210938 C 40.96875 63.296875 40.960938 63.382812 40.953125 63.464844 C 40.945312 63.546875 40.953125 63.667969 40.960938 63.769531 L 40.796875 63.761719 C 40.824219 63.847656 40.933594 63.757812 40.96875 63.832031 C 41.007812 63.910156 40.839844 63.941406 40.960938 63.972656 C 40.945312 64.09375 40.984375 64.222656 40.9375 64.335938 L 40.882812 64.328125 C 40.859375 64.226562 40.886719 64.121094 40.890625 64.023438 L 40.839844 64.132812 L 40.84375 64.167969 L 40.8125 64.1875 L 40.769531 64.136719 L 40.734375 64.148438 C 40.75 64.003906 40.75 63.855469 40.738281 63.707031 Z M 40.738281 63.046875 L 40.824219 62.992188 L 40.816406 63.136719 L 40.855469 63.136719 C 40.847656 63.019531 40.820312 62.902344 40.863281 62.792969 L 40.898438 62.792969 L 40.886719 62.933594 L 40.988281 62.886719 L 40.988281 62.976562 L 40.890625 62.957031 L 40.898438 63.039062 L 40.992188 63.015625 L 40.980469 63.085938 L 40.878906 63.117188 L 40.992188 63.132812 L 40.992188 63.164062 C 40.902344 63.160156 40.816406 63.160156 40.726562 63.164062 L 40.800781 63.113281 Z M 40.769531 62.863281 C 40.710938 62.855469 40.746094 62.757812 40.792969 62.757812 C 40.839844 62.757812 40.828125 62.871094 40.769531 62.863281 Z M 40.75 62.917969 C 40.867188 62.828125 40.769531 63.066406 40.75 62.917969 Z M 40.945312 62.789062 C 41.085938 62.804688 40.875 62.921875 40.945312 62.789062 Z M 40.375 63.78125 L 40.34375 63.78125 C 40.347656 63.507812 40.347656 63.230469 40.347656 62.960938 C 40.347656 62.859375 40.324219 62.753906 40.359375 62.65625 C 40.402344 63.027344 40.367188 63.40625 40.375 63.78125 Z M 40.230469 63.601562 C 40.246094 63.414062 40.238281 63.222656 40.214844 63.039062 L 40.195312 63.011719 C 40.183594 63.203125 40.246094 63.421875 40.167969 63.597656 C 40.160156 63.394531 40.179688 63.1875 40.179688 62.984375 L 40.167969 62.960938 C 40.160156 62.851562 40.160156 62.738281 40.210938 62.636719 C 40.355469 62.683594 40.308594 62.84375 40.3125 62.957031 C 40.308594 63.167969 40.3125 63.382812 40.308594 63.597656 L 40.234375 63.597656 Z M 39.914062 64.324219 C 39.984375 64.308594 40.125 64.277344 40.167969 64.339844 C 40.105469 64.375 39.949219 64.390625 39.914062 64.324219 Z M 39.917969 64.421875 C 40.050781 64.355469 39.921875 64.5625 39.917969 64.421875 Z M 39.878906 64.238281 C 39.964844 64.21875 40.070312 64.183594 40.15625 64.214844 C 40.125 64.292969 39.925781 64.277344 39.878906 64.238281 Z M 40.03125 64.164062 C 39.972656 64.199219 39.902344 64.210938 39.835938 64.195312 L 39.882812 64.101562 C 39.78125 63.976562 39.925781 63.84375 40.0625 63.875 C 40.058594 63.96875 40.105469 64.082031 40.03125 64.164062 Z M 39.882812 63.78125 C 39.945312 63.757812 39.964844 63.777344 39.933594 63.839844 C 39.871094 63.863281 39.855469 63.839844 39.882812 63.78125 Z M 39.90625 63.691406 C 40.019531 63.628906 40.089844 63.761719 40.015625 63.847656 C 39.992188 63.824219 39.976562 63.789062 39.96875 63.757812 C 39.953125 63.726562 39.828125 63.722656 39.90625 63.691406 Z M 39.839844 63.632812 C 39.886719 63.582031 39.953125 63.601562 40.011719 63.589844 L 40.039062 63.492188 L 40.054688 63.605469 C 40.136719 63.578125 40.191406 63.597656 40.214844 63.660156 C 40.089844 63.640625 39.964844 63.632812 39.839844 63.632812 Z M 39.878906 63.496094 C 39.941406 63.46875 39.957031 63.488281 39.929688 63.550781 C 39.871094 63.578125 39.851562 63.554688 39.878906 63.496094 Z M 39.476562 63.992188 C 39.433594 64.136719 39.457031 64.292969 39.46875 64.441406 C 39.417969 64.398438 39.339844 64.40625 39.355469 64.484375 L 39.4375 64.546875 L 39.183594 64.546875 C 39.195312 64.496094 39.203125 64.441406 39.210938 64.386719 C 39.128906 64.414062 39.050781 64.449219 38.972656 64.476562 C 38.984375 64.347656 38.984375 64.21875 38.972656 64.089844 L 39.242188 64.101562 L 39.21875 64.023438 C 39.117188 64.027344 39.011719 64.035156 38.914062 64.023438 C 39.003906 63.96875 39.113281 63.960938 39.21875 63.984375 C 39.246094 63.769531 39.191406 63.546875 39.242188 63.335938 C 39.246094 63.535156 39.265625 63.734375 39.277344 63.929688 L 39.480469 63.917969 L 39.472656 63.964844 C 39.394531 63.96875 39.3125 63.96875 39.234375 63.957031 L 39.226562 64.023438 C 39.3125 64.015625 39.394531 64.007812 39.476562 63.992188 Z M 39.109375 64.539062 C 39.078125 64.570312 38.96875 64.582031 38.972656 64.519531 C 38.976562 64.457031 39.117188 64.472656 39.109375 64.539062 Z M 33.589844 59.269531 L 33.527344 59.316406 C 33.285156 59.058594 32.960938 58.894531 32.632812 58.777344 C 31.683594 58.445312 30.601562 58.4375 29.664062 58.828125 C 29.570312 58.855469 29.4375 58.890625 29.375 58.792969 C 29.167969 58.515625 29.148438 58.148438 29.132812 57.816406 C 29.101562 57.171875 29.328125 56.539062 29.660156 56 C 29.832031 55.695312 30.027344 55.390625 30.296875 55.164062 C 30.742188 54.789062 31.320312 54.527344 31.910156 54.574219 C 32.253906 54.597656 32.535156 54.835938 32.738281 55.09375 C 32.945312 55.351562 33.066406 55.59375 33.230469 55.84375 C 33.617188 56.449219 33.808594 57.191406 33.722656 57.90625 C 33.6875 58.183594 33.566406 58.4375 33.476562 58.699219 C 33.421875 58.898438 33.511719 59.089844 33.589844 59.269531 Z M 33.589844 59.269531 " fill-opacity="1" fill-rule="nonzero"/><path fill="#545454" d="M 39.425781 64.167969 L 39.332031 64.144531 C 39.3125 64.121094 39.308594 63.988281 39.277344 64.074219 C 39.277344 64.109375 39.277344 64.175781 39.277344 64.210938 C 39.316406 64.238281 39.410156 64.214844 39.425781 64.167969 Z M 39.425781 64.167969 " fill-opacity="1" fill-rule="nonzero"/><path fill="#545454" d="M 39.359375 64.257812 C 39.367188 64.40625 39.488281 64.183594 39.359375 64.257812 Z M 39.359375 64.257812 " fill-opacity="1" fill-rule="nonzero"/><path fill="#545454" d="M 39.109375 64.144531 L 39.109375 64.179688 L 39.175781 64.179688 L 39.175781 64.144531 Z M 39.109375 64.144531 " fill-opacity="1" fill-rule="nonzero"/><path fill="#545454" d="M 39.109375 64.230469 C 39.117188 64.367188 39.25 64.167969 39.109375 64.230469 Z M 39.109375 64.230469 " fill-opacity="1" fill-rule="nonzero"/><path fill="#545454" d="M 34.785156 59.503906 C 34.542969 60.058594 33.929688 60.386719 33.339844 60.40625 C 33.339844 60.777344 33.277344 61.144531 33.246094 61.519531 C 33.644531 61.71875 33.972656 62.03125 34.277344 62.355469 C 34.320312 62.117188 34.410156 61.894531 34.46875 61.660156 C 34.660156 60.957031 34.75 60.230469 34.785156 59.503906 Z M 34.785156 59.503906 " fill-opacity="1" fill-rule="nonzero"/><path fill="#545454" d="M 29.171875 64.59375 L 29.179688 64.578125 L 29.164062 64.59375 Z M 29.171875 64.59375 " fill-opacity="1" fill-rule="nonzero"/><path fill="#545454" d="M 39.4375 64.859375 C 39.382812 64.835938 39.324219 64.839844 39.277344 64.863281 L 39.265625 64.882812 C 39.3125 64.90625 39.40625 64.925781 39.4375 64.859375 Z M 39.4375 64.859375 " fill-opacity="1" fill-rule="nonzero"/><path fill="#545454" d="M 29.300781 65.464844 L 29.320312 65.398438 L 29.1875 65.382812 C 29.199219 65.433594 29.246094 65.46875 29.300781 65.464844 Z M 29.300781 65.464844 " fill-opacity="1" fill-rule="nonzero"/><path fill="#545454" d="M 29.480469 63.535156 C 29.460938 63.601562 29.445312 63.667969 29.421875 63.734375 L 29.496094 63.765625 L 29.332031 63.792969 L 29.457031 63.816406 L 29.46875 63.871094 C 29.355469 63.863281 29.246094 63.871094 29.136719 63.890625 C 29.253906 63.917969 29.398438 63.871094 29.5 63.957031 C 29.386719 63.964844 29.277344 63.964844 29.164062 63.96875 L 29.246094 64.011719 L 29.3125 64 L 29.460938 63.980469 L 29.457031 64.070312 C 29.46875 64.222656 29.472656 64.371094 29.460938 64.523438 L 29.460938 64.546875 C 29.472656 64.832031 29.496094 65.128906 29.425781 65.402344 C 29.425781 65.484375 29.410156 65.570312 29.4375 65.652344 L 29.484375 65.738281 L 29.355469 65.734375 L 29.382812 65.773438 L 29.457031 65.800781 L 29.496094 65.886719 C 29.660156 65.859375 29.855469 65.878906 29.984375 65.746094 C 30.167969 65.5625 30.222656 65.285156 30.234375 65.03125 C 30.230469 64.703125 30.210938 64.367188 30.269531 64.039062 C 30.34375 63.632812 30.339844 63.210938 30.296875 62.796875 L 30.253906 62.796875 C 30.273438 63.144531 30.261719 63.492188 30.261719 63.839844 L 30.21875 63.785156 C 30.195312 63.460938 30.21875 63.140625 30.203125 62.816406 L 30.25 62.742188 C 30.210938 62.460938 30.011719 62.246094 29.871094 62.007812 C 29.78125 61.828125 29.546875 61.875 29.382812 61.835938 C 29.375 62.386719 29.375 62.933594 29.375 63.488281 Z M 29.480469 63.535156 " fill-opacity="1" fill-rule="nonzero"/><path fill="#545454" d="M 28.820312 64.222656 C 28.765625 64.238281 28.773438 64.328125 28.792969 64.371094 C 28.859375 64.378906 28.859375 64.253906 28.820312 64.222656 Z M 28.820312 64.222656 " fill-opacity="1" fill-rule="nonzero"/><path fill="#545454" d="M 29.390625 65.617188 L 29.371094 65.613281 L 29.382812 65.640625 Z M 29.390625 65.617188 " fill-opacity="1" fill-rule="nonzero"/><path fill="#545454" d="M 28.816406 65.085938 C 28.824219 65.179688 28.824219 65.269531 28.816406 65.363281 C 28.90625 65.332031 28.90625 65.121094 28.816406 65.085938 Z M 28.816406 65.085938 " fill-opacity="1" fill-rule="nonzero"/><path fill="#545454" d="M 28.816406 64.457031 L 28.757812 64.519531 C 28.792969 64.589844 28.886719 64.484375 28.816406 64.457031 Z M 28.816406 64.457031 " fill-opacity="1" fill-rule="nonzero"/><path fill="#545454" d="M 28.863281 64.546875 L 28.867188 64.617188 C 28.902344 64.632812 28.945312 64.613281 28.957031 64.578125 C 28.960938 64.570312 28.960938 64.566406 28.964844 64.5625 C 28.972656 64.496094 28.878906 64.492188 28.863281 64.546875 Z M 28.863281 64.546875 " fill-opacity="1" fill-rule="nonzero"/><path fill="#545454" d="M 40.957031 65.636719 C 41.097656 65.574219 41.25 65.542969 41.394531 65.496094 C 41.308594 65.433594 41.222656 65.359375 41.117188 65.328125 C 41.011719 65.300781 40.824219 65.339844 40.679688 65.347656 C 40.75 65.464844 40.847656 65.554688 40.957031 65.636719 Z M 40.957031 65.636719 " fill-opacity="1" fill-rule="nonzero"/><path fill="#545454" d="M 40.304688 64.09375 L 40.253906 64.058594 C 40.253906 64.074219 40.25 64.113281 40.25 64.132812 L 40.273438 64.125 Z M 40.304688 64.09375 " fill-opacity="1" fill-rule="nonzero"/><path fill="#545454" d="M 29.359375 65.023438 L 29.386719 65.03125 L 29.371094 64.996094 Z M 29.359375 65.023438 " fill-opacity="1" fill-rule="nonzero"/><path fill="#545454" d="M 40.246094 64.835938 C 40.289062 64.789062 40.277344 64.765625 40.210938 64.761719 C 40.167969 64.804688 40.175781 64.828125 40.246094 64.835938 Z M 40.246094 64.835938 " fill-opacity="1" fill-rule="nonzero"/><path fill="#545454" d="M 40.15625 64.050781 C 40.089844 64.179688 40.304688 64.058594 40.15625 64.050781 Z M 40.15625 64.050781 " fill-opacity="1" fill-rule="nonzero"/><path fill="#545454" d="M 29.148438 63.4375 C 29.203125 63.425781 29.253906 63.414062 29.3125 63.410156 C 29.308594 63.351562 29.3125 63.296875 29.328125 63.242188 L 29.183594 63.289062 C 29.164062 63.335938 29.160156 63.386719 29.148438 63.4375 Z M 29.148438 63.4375 " fill-opacity="1" fill-rule="nonzero"/><path fill="#545454" d="M 41.050781 65.6875 C 41.238281 65.882812 41.464844 66.035156 41.644531 66.234375 C 41.710938 66.3125 41.75 66.433594 41.871094 66.425781 C 41.769531 66.164062 41.652344 65.886719 41.457031 65.675781 C 41.320312 65.660156 41.183594 65.667969 41.050781 65.6875 Z M 41.050781 65.6875 " fill-opacity="1" fill-rule="nonzero"/><path fill="#545454" d="M 29.300781 63.203125 L 29.300781 63.175781 C 29.175781 63.101562 29.179688 63.308594 29.300781 63.203125 Z M 29.300781 63.203125 " fill-opacity="1" fill-rule="nonzero"/><g clip-path="url(#b988095484)"><path fill="#545454" d="M 1.011719 44.214844 C 2.953125 47.214844 6.964844 48.078125 9.96875 46.132812 C 19.152344 40.191406 36.738281 28.816406 36.738281 28.816406 C 36.738281 28.816406 54.324219 40.191406 63.503906 46.132812 C 66.507812 48.078125 70.519531 47.214844 72.460938 44.214844 C 72.460938 44.210938 72.460938 44.210938 72.460938 44.210938 C 72.460938 44.210938 38.496094 22.238281 38.496094 22.238281 C 37.425781 21.546875 36.046875 21.546875 34.976562 22.238281 C 34.976562 22.238281 1.011719 44.210938 1.011719 44.210938 C 1.011719 44.210938 1.011719 44.210938 1.011719 44.214844 Z M 1.011719 44.214844 " fill-opacity="1" fill-rule="evenodd"/></g><g clip-path="url(#5ad566e849)"><path fill="#545454" d="M 13.277344 23.269531 L 21.769531 23.269531 L 21.769531 37.164062 L 13.277344 37.164062 Z M 13.277344 23.269531 " fill-opacity="1" fill-rule="nonzero"/></g></svg>