<svg xmlns="http://www.w3.org/2000/svg" xmlns:xlink="http://www.w3.org/1999/xlink" width="398" zoomAndPan="magnify" viewBox="0 0 298.5 98.249997" height="131" preserveAspectRatio="xMidYMid meet" version="1.0"><defs><g/></defs><g fill="#606060" fill-opacity="1"><g transform="translate(63.61899, 49.708247)"><g><path d="M 16 -27.859375 C 17.375 -27.859375 18.507812 -27.738281 19.40625 -27.5 C 20.300781 -27.257812 21.265625 -26.929688 22.296875 -26.515625 C 22.410156 -26.460938 22.679688 -26.347656 23.109375 -26.171875 C 23.546875 -26.003906 23.9375 -25.921875 24.28125 -25.921875 C 25.289062 -25.921875 25.914062 -26.554688 26.15625 -27.828125 L 26.953125 -27.828125 L 26.953125 -18.6875 L 26.15625 -18.6875 C 25.945312 -20.195312 25.410156 -21.515625 24.546875 -22.640625 C 23.679688 -23.765625 22.640625 -24.625 21.421875 -25.21875 C 20.210938 -25.8125 18.972656 -26.109375 17.703125 -26.109375 C 15.898438 -26.109375 14.332031 -25.570312 13 -24.5 C 11.664062 -23.4375 10.644531 -21.953125 9.9375 -20.046875 C 9.238281 -18.140625 8.890625 -15.984375 8.890625 -13.578125 C 8.890625 -9.679688 9.65625 -6.628906 11.1875 -4.421875 C 12.726562 -2.210938 14.847656 -1.109375 17.546875 -1.109375 C 19.265625 -1.109375 20.8125 -1.519531 22.1875 -2.34375 C 23.5625 -3.164062 24.960938 -4.410156 26.390625 -6.078125 L 26.390625 -3.890625 C 24.910156 -2.328125 23.367188 -1.191406 21.765625 -0.484375 C 20.171875 0.210938 18.335938 0.5625 16.265625 0.5625 C 13.359375 0.5625 10.8125 -0.046875 8.625 -1.265625 C 6.445312 -2.484375 4.769531 -4.132812 3.59375 -6.21875 C 2.414062 -8.3125 1.828125 -10.628906 1.828125 -13.171875 C 1.828125 -15.796875 2.46875 -18.234375 3.75 -20.484375 C 5.03125 -22.734375 6.753906 -24.523438 8.921875 -25.859375 C 11.097656 -27.191406 13.457031 -27.859375 16 -27.859375 Z M 16 -27.859375 "/></g></g></g><g fill="#606060" fill-opacity="1"><g transform="translate(95.731003, 49.708247)"><g><path d="M 5.046875 -5.4375 L 14.25 -27.703125 L 14.640625 -27.703125 L 23.8125 -5.359375 C 24.414062 -3.847656 25.015625 -2.695312 25.609375 -1.90625 C 26.210938 -1.113281 26.988281 -0.71875 27.9375 -0.71875 L 27.9375 0 L 15.203125 0 L 15.203125 -0.71875 C 16.472656 -0.738281 17.316406 -0.832031 17.734375 -1 C 18.160156 -1.175781 18.375 -1.570312 18.375 -2.1875 C 18.375 -2.363281 18.328125 -2.570312 18.234375 -2.8125 C 18.140625 -3.050781 18.066406 -3.25 18.015625 -3.40625 L 16.3125 -7.703125 L 7.578125 -7.703125 L 6.34375 -4.71875 C 5.976562 -3.976562 5.796875 -3.332031 5.796875 -2.78125 C 5.796875 -1.957031 6.097656 -1.40625 6.703125 -1.125 C 7.316406 -0.851562 8.175781 -0.71875 9.28125 -0.71875 L 9.28125 0 L 0.5625 0 L 0.5625 -0.71875 C 1.457031 -0.789062 2.257812 -1.195312 2.96875 -1.9375 C 3.6875 -2.6875 4.378906 -3.851562 5.046875 -5.4375 Z M 15.71875 -9.171875 L 11.953125 -18.296875 L 8.171875 -9.171875 Z M 15.71875 -9.171875 "/></g></g></g><g fill="#606060" fill-opacity="1"><g transform="translate(127.843016, 49.708247)"><g><path d="M 25.515625 -19.890625 C 25.515625 -18.503906 25.101562 -17.25 24.28125 -16.125 C 23.46875 -15.007812 22.257812 -14.117188 20.65625 -13.453125 C 19.050781 -12.796875 17.140625 -12.46875 14.921875 -12.46875 L 10.953125 -12.46875 L 10.953125 -4.125 C 10.953125 -3.144531 11.078125 -2.414062 11.328125 -1.9375 C 11.578125 -1.46875 11.945312 -1.148438 12.4375 -0.984375 C 12.925781 -0.828125 13.632812 -0.738281 14.5625 -0.71875 L 14.5625 0 L 0.71875 0 L 0.71875 -0.71875 C 1.71875 -0.738281 2.484375 -0.820312 3.015625 -0.96875 C 3.546875 -1.113281 3.941406 -1.425781 4.203125 -1.90625 C 4.472656 -2.382812 4.609375 -3.125 4.609375 -4.125 L 4.609375 -23.375 C 4.609375 -24.644531 4.289062 -25.488281 3.65625 -25.90625 C 3.019531 -26.332031 2.039062 -26.546875 0.71875 -26.546875 L 0.71875 -27.265625 L 15.4375 -27.265625 C 17.082031 -27.265625 18.675781 -26.984375 20.21875 -26.421875 C 21.769531 -25.867188 23.039062 -25.035156 24.03125 -23.921875 C 25.019531 -22.816406 25.515625 -21.472656 25.515625 -19.890625 Z M 18.6875 -19.765625 C 18.6875 -21.453125 18.421875 -22.734375 17.890625 -23.609375 C 17.367188 -24.484375 16.675781 -25.066406 15.8125 -25.359375 C 14.957031 -25.648438 13.878906 -25.796875 12.578125 -25.796875 L 10.953125 -25.796875 L 10.953125 -13.9375 L 13.53125 -13.9375 C 15.007812 -13.9375 16.238281 -14.394531 17.21875 -15.3125 C 18.195312 -16.238281 18.6875 -17.722656 18.6875 -19.765625 Z M 18.6875 -19.765625 "/></g></g></g><g fill="#606060" fill-opacity="1"><g transform="translate(157.890982, 49.708247)"><g><path d="M 25.359375 -20.125 L 24.640625 -20.125 C 24.460938 -22 23.875 -23.410156 22.875 -24.359375 C 21.882812 -25.316406 20.753906 -25.796875 19.484375 -25.796875 L 16.390625 -25.796875 L 16.390625 -4.28125 C 16.390625 -3.300781 16.519531 -2.5625 16.78125 -2.0625 C 17.050781 -1.5625 17.460938 -1.21875 18.015625 -1.03125 C 18.566406 -0.84375 19.347656 -0.738281 20.359375 -0.71875 L 20.359375 0 L 6.078125 0 L 6.078125 -0.71875 C 7.078125 -0.71875 7.847656 -0.789062 8.390625 -0.9375 C 8.929688 -1.082031 9.34375 -1.40625 9.625 -1.90625 C 9.90625 -2.40625 10.046875 -3.171875 10.046875 -4.203125 L 10.046875 -25.796875 L 6.625 -25.796875 C 5.4375 -25.796875 4.378906 -25.269531 3.453125 -24.21875 C 2.523438 -23.175781 1.96875 -21.8125 1.78125 -20.125 L 1.078125 -20.125 L 1.078125 -27.265625 L 25.359375 -27.265625 Z M 25.359375 -20.125 "/></g></g></g><g fill="#606060" fill-opacity="1"><g transform="translate(187.938947, 49.708247)"><g><path d="M 14.046875 -26.546875 C 12.878906 -26.546875 12.03125 -26.320312 11.5 -25.875 C 10.976562 -25.425781 10.71875 -24.59375 10.71875 -23.375 L 10.71875 -7.1875 C 10.71875 -5.519531 11.242188 -4.109375 12.296875 -2.953125 C 13.359375 -1.804688 15 -1.234375 17.21875 -1.234375 C 19.8125 -1.234375 21.769531 -2.019531 23.09375 -3.59375 C 24.414062 -5.164062 25.078125 -7.128906 25.078125 -9.484375 L 25.078125 -23.09375 C 25.078125 -24.3125 24.8125 -25.191406 24.28125 -25.734375 C 23.757812 -26.273438 22.890625 -26.546875 21.671875 -26.546875 L 21.671875 -27.265625 L 30.046875 -27.265625 L 30.046875 -26.546875 C 28.828125 -26.523438 27.9375 -26.253906 27.375 -25.734375 C 26.820312 -25.222656 26.546875 -24.25 26.546875 -22.8125 L 26.546875 -9.640625 C 26.546875 -6.335938 25.59375 -3.8125 23.6875 -2.0625 C 21.78125 -0.3125 19.046875 0.5625 15.484375 0.5625 C 12.960938 0.5625 10.875 0.160156 9.21875 -0.640625 C 7.570312 -1.453125 6.347656 -2.53125 5.546875 -3.875 C 4.753906 -5.226562 4.359375 -6.753906 4.359375 -8.453125 L 4.359375 -23.53125 C 4.359375 -24.726562 4.066406 -25.523438 3.484375 -25.921875 C 2.910156 -26.316406 1.9375 -26.523438 0.5625 -26.546875 L 0.5625 -27.265625 L 14.046875 -27.265625 Z M 14.046875 -26.546875 "/></g></g></g><g fill="#606060" fill-opacity="1"><g transform="translate(222.115002, 49.708247)"><g><path d="M 24.640625 -19.71875 C 24.640625 -18.050781 24.101562 -16.613281 23.03125 -15.40625 C 21.96875 -14.207031 20.519531 -13.382812 18.6875 -12.9375 L 24.046875 -4.171875 C 24.734375 -3.023438 25.375 -2.164062 25.96875 -1.59375 C 26.570312 -1.03125 27.175781 -0.738281 27.78125 -0.71875 L 27.78125 0 L 19.71875 0 L 12.140625 -12.421875 L 10.90625 -12.421875 L 10.90625 -4.125 C 10.90625 -3.09375 11.046875 -2.335938 11.328125 -1.859375 C 11.609375 -1.390625 12.007812 -1.085938 12.53125 -0.953125 C 13.0625 -0.816406 13.859375 -0.738281 14.921875 -0.71875 L 14.921875 0 L 0.75 0 L 0.75 -0.71875 C 1.757812 -0.738281 2.519531 -0.820312 3.03125 -0.96875 C 3.550781 -1.113281 3.9375 -1.429688 4.1875 -1.921875 C 4.4375 -2.410156 4.5625 -3.144531 4.5625 -4.125 L 4.5625 -23.5 C 4.5625 -24.6875 4.265625 -25.488281 3.671875 -25.90625 C 3.078125 -26.332031 2.101562 -26.546875 0.75 -26.546875 L 0.75 -27.265625 L 14.765625 -27.265625 C 17.703125 -27.265625 20.082031 -26.601562 21.90625 -25.28125 C 23.726562 -23.957031 24.640625 -22.101562 24.640625 -19.71875 Z M 13.0625 -13.890625 C 14.382812 -13.890625 15.570312 -14.304688 16.625 -15.140625 C 17.6875 -15.972656 18.21875 -17.539062 18.21875 -19.84375 C 18.21875 -23.8125 16.300781 -25.796875 12.46875 -25.796875 L 10.90625 -25.796875 L 10.90625 -13.890625 Z M 13.0625 -13.890625 "/></g></g></g><g fill="#606060" fill-opacity="1"><g transform="translate(254.22701, 49.708247)"><g><path d="M 23.6875 -19.484375 L 22.984375 -19.484375 C 22.609375 -21.546875 21.863281 -23.113281 20.75 -24.1875 C 19.644531 -25.257812 18.191406 -25.796875 16.390625 -25.796875 L 11.03125 -25.796875 L 11.03125 -14.640625 L 11.859375 -14.640625 C 12.867188 -14.640625 13.695312 -14.796875 14.34375 -15.109375 C 14.988281 -15.429688 15.535156 -16.046875 15.984375 -16.953125 C 16.441406 -17.867188 16.773438 -19.175781 16.984375 -20.875 L 17.703125 -20.875 L 17.703125 -7.03125 L 16.984375 -7.03125 C 16.691406 -9.4375 16.128906 -11.0625 15.296875 -11.90625 C 14.460938 -12.75 13.375 -13.171875 12.03125 -13.171875 L 11.03125 -13.171875 L 11.03125 -4.40625 C 11.03125 -3.269531 11.203125 -2.492188 11.546875 -2.078125 C 11.890625 -1.671875 12.550781 -1.46875 13.53125 -1.46875 L 16.390625 -1.46875 C 18.722656 -1.46875 20.550781 -2.09375 21.875 -3.34375 C 23.195312 -4.601562 24.203125 -6.289062 24.890625 -8.40625 L 25.59375 -8.40625 L 24.375 0 L 0.71875 0 L 0.71875 -0.71875 L 1.625 -0.71875 C 2.550781 -0.71875 3.234375 -0.851562 3.671875 -1.125 C 4.109375 -1.40625 4.382812 -1.769531 4.5 -2.21875 C 4.625 -2.664062 4.6875 -3.273438 4.6875 -4.046875 L 4.6875 -23.296875 C 4.6875 -24.585938 4.382812 -25.445312 3.78125 -25.875 C 3.1875 -26.300781 2.164062 -26.523438 0.71875 -26.546875 L 0.71875 -27.265625 L 23.6875 -27.265625 Z M 23.6875 -19.484375 "/></g></g></g><g fill="#ffc107" fill-opacity="1"><g transform="translate(17.039235, 49.708247)"><g><path d="M 29.203125 -13.453125 C 29.203125 -10.648438 28.597656 -8.226562 27.390625 -6.1875 C 26.191406 -4.15625 24.554688 -2.613281 22.484375 -1.5625 C 20.410156 -0.519531 18.101562 0 15.5625 0 L 0.671875 0 L 0.671875 -0.71875 C 1.648438 -0.71875 2.390625 -0.789062 2.890625 -0.9375 C 3.398438 -1.082031 3.78125 -1.390625 4.03125 -1.859375 C 4.28125 -2.335938 4.40625 -3.09375 4.40625 -4.125 L 4.40625 -23.09375 C 4.40625 -24.125 4.269531 -24.882812 4 -25.375 C 3.738281 -25.863281 3.359375 -26.179688 2.859375 -26.328125 C 2.359375 -26.472656 1.628906 -26.546875 0.671875 -26.546875 L 0.671875 -27.265625 L 14.921875 -27.265625 C 17.515625 -27.265625 19.894531 -26.738281 22.0625 -25.6875 C 24.238281 -24.644531 25.972656 -23.085938 27.265625 -21.015625 C 28.554688 -18.941406 29.203125 -16.421875 29.203125 -13.453125 Z M 13.8125 -1.390625 C 19.363281 -1.390625 22.140625 -5.34375 22.140625 -13.25 C 22.140625 -17.675781 21.335938 -20.882812 19.734375 -22.875 C 18.140625 -24.875 16.125 -25.875 13.6875 -25.875 L 10.75 -25.875 L 10.75 -4.046875 C 10.75 -3.273438 10.832031 -2.703125 11 -2.328125 C 11.175781 -1.960938 11.476562 -1.710938 11.90625 -1.578125 C 12.332031 -1.453125 12.96875 -1.390625 13.8125 -1.390625 Z M 13.8125 -1.390625 "/></g></g></g><g fill="#ffc107" fill-opacity="1"><g transform="translate(49.101762, 45.38355)"><g><path d="M 12.296875 -7.140625 L 0.953125 -7.140625 L 0.953125 -11.265625 L 12.296875 -11.265625 Z M 12.296875 -7.140625 "/></g></g></g><g fill="#606060" fill-opacity="1"><g transform="translate(53.023129, 83.839987)"><g><path d="M 9.328125 -14.1875 C 7.972656 -14.1875 6.925781 -13.675781 6.1875 -12.65625 C 5.445312 -11.644531 5.078125 -10.234375 5.078125 -8.421875 C 5.078125 -4.640625 6.492188 -2.75 9.328125 -2.75 C 10.515625 -2.75 11.953125 -3.046875 13.640625 -3.640625 L 13.640625 -0.640625 C 12.253906 -0.0546875 10.703125 0.234375 8.984375 0.234375 C 6.523438 0.234375 4.640625 -0.507812 3.328125 -2 C 2.023438 -3.5 1.375 -5.644531 1.375 -8.4375 C 1.375 -10.195312 1.691406 -11.738281 2.328125 -13.0625 C 2.972656 -14.394531 3.894531 -15.410156 5.09375 -16.109375 C 6.300781 -16.816406 7.710938 -17.171875 9.328125 -17.171875 C 10.972656 -17.171875 12.625 -16.773438 14.28125 -15.984375 L 13.125 -13.0625 C 12.488281 -13.363281 11.847656 -13.625 11.203125 -13.84375 C 10.566406 -14.070312 9.941406 -14.1875 9.328125 -14.1875 Z M 9.328125 -14.1875 "/></g></g></g><g fill="#606060" fill-opacity="1"><g transform="translate(71.692299, 83.839987)"><g><path d="M 4.671875 -6.5 C 4.671875 -5.21875 4.878906 -4.25 5.296875 -3.59375 C 5.722656 -2.9375 6.410156 -2.609375 7.359375 -2.609375 C 8.296875 -2.609375 8.96875 -2.929688 9.375 -3.578125 C 9.789062 -4.234375 10 -5.207031 10 -6.5 C 10 -7.78125 9.789062 -8.738281 9.375 -9.375 C 8.957031 -10.019531 8.273438 -10.34375 7.328125 -10.34375 C 6.390625 -10.34375 5.710938 -10.023438 5.296875 -9.390625 C 4.878906 -8.753906 4.671875 -7.789062 4.671875 -6.5 Z M 13.625 -6.5 C 13.625 -4.382812 13.066406 -2.734375 11.953125 -1.546875 C 10.835938 -0.359375 9.289062 0.234375 7.3125 0.234375 C 6.0625 0.234375 4.960938 -0.0351562 4.015625 -0.578125 C 3.066406 -1.128906 2.335938 -1.910156 1.828125 -2.921875 C 1.316406 -3.941406 1.0625 -5.132812 1.0625 -6.5 C 1.0625 -8.613281 1.613281 -10.253906 2.71875 -11.421875 C 3.820312 -12.597656 5.375 -13.1875 7.375 -13.1875 C 8.613281 -13.1875 9.707031 -12.914062 10.65625 -12.375 C 11.613281 -11.832031 12.347656 -11.054688 12.859375 -10.046875 C 13.367188 -9.035156 13.625 -7.851562 13.625 -6.5 Z M 13.625 -6.5 "/></g></g></g><g fill="#606060" fill-opacity="1"><g transform="translate(89.933045, 83.839987)"><g><path d="M 13.8125 0 L 10.265625 0 L 10.265625 -7.5625 C 10.265625 -8.5 10.097656 -9.195312 9.765625 -9.65625 C 9.441406 -10.125 8.914062 -10.359375 8.1875 -10.359375 C 7.195312 -10.359375 6.484375 -10.03125 6.046875 -9.375 C 5.609375 -8.71875 5.390625 -7.625 5.390625 -6.09375 L 5.390625 0 L 1.859375 0 L 1.859375 -12.953125 L 4.546875 -12.953125 L 5.03125 -11.296875 L 5.21875 -11.296875 C 5.613281 -11.921875 6.15625 -12.390625 6.84375 -12.703125 C 7.539062 -13.023438 8.328125 -13.1875 9.203125 -13.1875 C 10.710938 -13.1875 11.859375 -12.78125 12.640625 -11.96875 C 13.421875 -11.15625 13.8125 -9.976562 13.8125 -8.4375 Z M 13.8125 0 "/></g></g></g><g fill="#606060" fill-opacity="1"><g transform="translate(109.076942, 83.839987)"><g><path d="M 10.890625 -3.84375 C 10.890625 -2.519531 10.425781 -1.507812 9.5 -0.8125 C 8.582031 -0.113281 7.203125 0.234375 5.359375 0.234375 C 4.421875 0.234375 3.617188 0.164062 2.953125 0.03125 C 2.285156 -0.09375 1.664062 -0.273438 1.09375 -0.515625 L 1.09375 -3.4375 C 1.75 -3.125 2.488281 -2.863281 3.3125 -2.65625 C 4.132812 -2.445312 4.859375 -2.34375 5.484375 -2.34375 C 6.765625 -2.34375 7.40625 -2.71875 7.40625 -3.46875 C 7.40625 -3.738281 7.316406 -3.960938 7.140625 -4.140625 C 6.972656 -4.316406 6.679688 -4.515625 6.265625 -4.734375 C 5.847656 -4.953125 5.289062 -5.207031 4.59375 -5.5 C 3.601562 -5.914062 2.875 -6.300781 2.40625 -6.65625 C 1.9375 -7.007812 1.59375 -7.414062 1.375 -7.875 C 1.164062 -8.332031 1.0625 -8.898438 1.0625 -9.578125 C 1.0625 -10.722656 1.503906 -11.609375 2.390625 -12.234375 C 3.285156 -12.867188 4.554688 -13.1875 6.203125 -13.1875 C 7.753906 -13.1875 9.269531 -12.847656 10.75 -12.171875 L 9.6875 -9.625 C 9.03125 -9.90625 8.421875 -10.132812 7.859375 -10.3125 C 7.296875 -10.488281 6.722656 -10.578125 6.140625 -10.578125 C 5.097656 -10.578125 4.578125 -10.296875 4.578125 -9.734375 C 4.578125 -9.410156 4.742188 -9.132812 5.078125 -8.90625 C 5.410156 -8.675781 6.144531 -8.332031 7.28125 -7.875 C 8.289062 -7.46875 9.03125 -7.085938 9.5 -6.734375 C 9.976562 -6.378906 10.328125 -5.96875 10.546875 -5.5 C 10.773438 -5.039062 10.890625 -4.488281 10.890625 -3.84375 Z M 10.890625 -3.84375 "/></g></g></g><g fill="#606060" fill-opacity="1"><g transform="translate(124.422973, 83.839987)"><g><path d="M 7.3125 -2.578125 C 7.925781 -2.578125 8.664062 -2.710938 9.53125 -2.984375 L 9.53125 -0.359375 C 8.65625 0.0351562 7.570312 0.234375 6.28125 0.234375 C 4.875 0.234375 3.847656 -0.117188 3.203125 -0.828125 C 2.554688 -1.546875 2.234375 -2.617188 2.234375 -4.046875 L 2.234375 -10.296875 L 0.546875 -10.296875 L 0.546875 -11.796875 L 2.484375 -12.96875 L 3.515625 -15.703125 L 5.765625 -15.703125 L 5.765625 -12.953125 L 9.390625 -12.953125 L 9.390625 -10.296875 L 5.765625 -10.296875 L 5.765625 -4.046875 C 5.765625 -3.546875 5.90625 -3.175781 6.1875 -2.9375 C 6.46875 -2.695312 6.84375 -2.578125 7.3125 -2.578125 Z M 7.3125 -2.578125 "/></g></g></g><g fill="#606060" fill-opacity="1"><g transform="translate(138.275335, 83.839987)"><g><path d="M 9.078125 -13.1875 C 9.554688 -13.1875 9.953125 -13.15625 10.265625 -13.09375 L 10 -9.78125 C 9.71875 -9.851562 9.375 -9.890625 8.96875 -9.890625 C 7.832031 -9.890625 6.953125 -9.597656 6.328125 -9.015625 C 5.703125 -8.441406 5.390625 -7.632812 5.390625 -6.59375 L 5.390625 0 L 1.859375 0 L 1.859375 -12.953125 L 4.53125 -12.953125 L 5.046875 -10.765625 L 5.21875 -10.765625 C 5.625 -11.492188 6.164062 -12.078125 6.84375 -12.515625 C 7.53125 -12.960938 8.273438 -13.1875 9.078125 -13.1875 Z M 9.078125 -13.1875 "/></g></g></g><g fill="#606060" fill-opacity="1"><g transform="translate(152.602425, 83.839987)"><g><path d="M 11.03125 0 L 10.546875 -1.65625 L 10.359375 -1.65625 C 9.984375 -1.050781 9.445312 -0.582031 8.75 -0.25 C 8.0625 0.0703125 7.269531 0.234375 6.375 0.234375 C 4.851562 0.234375 3.707031 -0.171875 2.9375 -0.984375 C 2.164062 -1.804688 1.78125 -2.976562 1.78125 -4.5 L 1.78125 -12.953125 L 5.3125 -12.953125 L 5.3125 -5.390625 C 5.3125 -4.453125 5.476562 -3.75 5.8125 -3.28125 C 6.144531 -2.8125 6.675781 -2.578125 7.40625 -2.578125 C 8.394531 -2.578125 9.109375 -2.90625 9.546875 -3.5625 C 9.984375 -4.226562 10.203125 -5.328125 10.203125 -6.859375 L 10.203125 -12.953125 L 13.734375 -12.953125 L 13.734375 0 Z M 11.03125 0 "/></g></g></g><g fill="#606060" fill-opacity="1"><g transform="translate(171.746322, 83.839987)"><g><path d="M 7.109375 0.234375 C 3.078125 0.234375 1.0625 -1.976562 1.0625 -6.40625 C 1.0625 -8.601562 1.609375 -10.28125 2.703125 -11.4375 C 3.804688 -12.601562 5.378906 -13.1875 7.421875 -13.1875 C 8.921875 -13.1875 10.265625 -12.894531 11.453125 -12.3125 L 10.40625 -9.578125 C 9.851562 -9.796875 9.335938 -9.976562 8.859375 -10.125 C 8.378906 -10.269531 7.898438 -10.34375 7.421875 -10.34375 C 5.585938 -10.34375 4.671875 -9.035156 4.671875 -6.421875 C 4.671875 -3.890625 5.585938 -2.625 7.421875 -2.625 C 8.097656 -2.625 8.726562 -2.710938 9.3125 -2.890625 C 9.894531 -3.078125 10.472656 -3.363281 11.046875 -3.75 L 11.046875 -0.734375 C 10.472656 -0.367188 9.894531 -0.117188 9.3125 0.015625 C 8.726562 0.160156 7.992188 0.234375 7.109375 0.234375 Z M 7.109375 0.234375 "/></g></g></g><g fill="#606060" fill-opacity="1"><g transform="translate(187.497618, 83.839987)"><g><path d="M 7.3125 -2.578125 C 7.925781 -2.578125 8.664062 -2.710938 9.53125 -2.984375 L 9.53125 -0.359375 C 8.65625 0.0351562 7.570312 0.234375 6.28125 0.234375 C 4.875 0.234375 3.847656 -0.117188 3.203125 -0.828125 C 2.554688 -1.546875 2.234375 -2.617188 2.234375 -4.046875 L 2.234375 -10.296875 L 0.546875 -10.296875 L 0.546875 -11.796875 L 2.484375 -12.96875 L 3.515625 -15.703125 L 5.765625 -15.703125 L 5.765625 -12.953125 L 9.390625 -12.953125 L 9.390625 -10.296875 L 5.765625 -10.296875 L 5.765625 -4.046875 C 5.765625 -3.546875 5.90625 -3.175781 6.1875 -2.9375 C 6.46875 -2.695312 6.84375 -2.578125 7.3125 -2.578125 Z M 7.3125 -2.578125 "/></g></g></g><g fill="#606060" fill-opacity="1"><g transform="translate(201.349981, 83.839987)"><g><path d="M 1.703125 -16.296875 C 1.703125 -17.441406 2.34375 -18.015625 3.625 -18.015625 C 4.90625 -18.015625 5.546875 -17.441406 5.546875 -16.296875 C 5.546875 -15.742188 5.382812 -15.316406 5.0625 -15.015625 C 4.75 -14.710938 4.269531 -14.5625 3.625 -14.5625 C 2.34375 -14.5625 1.703125 -15.140625 1.703125 -16.296875 Z M 5.390625 0 L 1.859375 0 L 1.859375 -12.953125 L 5.390625 -12.953125 Z M 5.390625 0 "/></g></g></g><g fill="#606060" fill-opacity="1"><g transform="translate(212.145524, 83.839987)"><g><path d="M 4.671875 -6.5 C 4.671875 -5.21875 4.878906 -4.25 5.296875 -3.59375 C 5.722656 -2.9375 6.410156 -2.609375 7.359375 -2.609375 C 8.296875 -2.609375 8.96875 -2.929688 9.375 -3.578125 C 9.789062 -4.234375 10 -5.207031 10 -6.5 C 10 -7.78125 9.789062 -8.738281 9.375 -9.375 C 8.957031 -10.019531 8.273438 -10.34375 7.328125 -10.34375 C 6.390625 -10.34375 5.710938 -10.023438 5.296875 -9.390625 C 4.878906 -8.753906 4.671875 -7.789062 4.671875 -6.5 Z M 13.625 -6.5 C 13.625 -4.382812 13.066406 -2.734375 11.953125 -1.546875 C 10.835938 -0.359375 9.289062 0.234375 7.3125 0.234375 C 6.0625 0.234375 4.960938 -0.0351562 4.015625 -0.578125 C 3.066406 -1.128906 2.335938 -1.910156 1.828125 -2.921875 C 1.316406 -3.941406 1.0625 -5.132812 1.0625 -6.5 C 1.0625 -8.613281 1.613281 -10.253906 2.71875 -11.421875 C 3.820312 -12.597656 5.375 -13.1875 7.375 -13.1875 C 8.613281 -13.1875 9.707031 -12.914062 10.65625 -12.375 C 11.613281 -11.832031 12.347656 -11.054688 12.859375 -10.046875 C 13.367188 -9.035156 13.625 -7.851562 13.625 -6.5 Z M 13.625 -6.5 "/></g></g></g><g fill="#606060" fill-opacity="1"><g transform="translate(230.38627, 83.839987)"><g><path d="M 13.8125 0 L 10.265625 0 L 10.265625 -7.5625 C 10.265625 -8.5 10.097656 -9.195312 9.765625 -9.65625 C 9.441406 -10.125 8.914062 -10.359375 8.1875 -10.359375 C 7.195312 -10.359375 6.484375 -10.03125 6.046875 -9.375 C 5.609375 -8.71875 5.390625 -7.625 5.390625 -6.09375 L 5.390625 0 L 1.859375 0 L 1.859375 -12.953125 L 4.546875 -12.953125 L 5.03125 -11.296875 L 5.21875 -11.296875 C 5.613281 -11.921875 6.15625 -12.390625 6.84375 -12.703125 C 7.539062 -13.023438 8.328125 -13.1875 9.203125 -13.1875 C 10.710938 -13.1875 11.859375 -12.78125 12.640625 -11.96875 C 13.421875 -11.15625 13.8125 -9.976562 13.8125 -8.4375 Z M 13.8125 0 "/></g></g></g></svg>