<svg xmlns="http://www.w3.org/2000/svg" xmlns:xlink="http://www.w3.org/1999/xlink" width="300" zoomAndPan="magnify" viewBox="0 0 224.87999 225" height="300" preserveAspectRatio="xMidYMid meet" version="1.0"><defs><clipPath id="14af316844"><path d="M 0 0.0585938 L 224.761719 0.0585938 L 224.761719 224.9375 L 0 224.9375 Z M 0 0.0585938 " clip-rule="nonzero"/></clipPath><clipPath id="11497cb8d1"><path d="M 78.121094 88.402344 L 148 88.402344 L 148 142.371094 L 78.121094 142.371094 Z M 78.121094 88.402344 " clip-rule="nonzero"/></clipPath><clipPath id="1364a5c2bf"><path d="M 76.433594 83 L 146.894531 83 L 146.894531 136.421875 L 76.433594 136.421875 Z M 76.433594 83 " clip-rule="nonzero"/></clipPath></defs><g clip-path="url(#14af316844)"><path fill="#ffffff" d="M 0 0.0585938 L 224.878906 0.0585938 L 224.878906 224.941406 L 0 224.941406 Z M 0 0.0585938 " fill-opacity="1" fill-rule="nonzero"/><path fill="#ffffff" d="M 0 0.0585938 L 224.878906 0.0585938 L 224.878906 224.941406 L 0 224.941406 Z M 0 0.0585938 " fill-opacity="1" fill-rule="nonzero"/></g><g clip-path="url(#11497cb8d1)"><path fill="#a6a6a6" d="M 146.230469 90.613281 C 144.019531 88.402344 140.433594 88.402344 138.222656 90.613281 L 102.300781 126.53125 L 88.34375 112.578125 C 86.132812 110.367188 82.550781 110.367188 80.335938 112.578125 C 78.125 114.789062 78.125 118.375 80.335938 120.585938 L 98.296875 138.542969 L 102.300781 142.550781 L 106.304688 138.542969 L 146.230469 98.621094 C 148.441406 96.410156 148.441406 92.824219 146.230469 90.613281 " fill-opacity="1" fill-rule="nonzero"/></g><g clip-path="url(#1364a5c2bf)"><path fill="#545454" d="M 144.539062 84.660156 C 142.328125 82.449219 138.742188 82.449219 136.53125 84.660156 L 100.613281 120.582031 L 86.65625 106.625 C 84.445312 104.414062 80.859375 104.414062 78.648438 106.625 C 76.4375 108.835938 76.4375 112.421875 78.648438 114.632812 L 100.613281 136.597656 L 144.539062 92.671875 C 146.75 90.457031 146.75 86.875 144.539062 84.660156 " fill-opacity="1" fill-rule="nonzero"/></g></svg>