<svg xmlns="http://www.w3.org/2000/svg" xmlns:xlink="http://www.w3.org/1999/xlink" width="300" zoomAndPan="magnify" viewBox="0 0 224.87999 225" height="300" preserveAspectRatio="xMidYMid meet" version="1.0"><defs><clipPath id="04242f2e69"><path d="M 0 0.0585938 L 224.761719 0.0585938 L 224.761719 224.9375 L 0 224.9375 Z M 0 0.0585938 " clip-rule="nonzero"/></clipPath><clipPath id="2217823158"><path d="M 82 108 L 139 108 L 139 142.503906 L 82 142.503906 Z M 82 108 " clip-rule="nonzero"/></clipPath><clipPath id="6e9b1fed10"><path d="M 127 82.535156 L 138 82.535156 L 138 94 L 127 94 Z M 127 82.535156 " clip-rule="nonzero"/></clipPath><clipPath id="c6ed6d3869"><path d="M 94 82.535156 L 106 82.535156 L 106 94 L 94 94 Z M 94 82.535156 " clip-rule="nonzero"/></clipPath><clipPath id="3a16a45507"><path d="M 124.382812 94.15625 L 142.660156 94.15625 L 142.660156 104.757812 L 124.382812 104.757812 Z M 124.382812 94.15625 " clip-rule="nonzero"/></clipPath></defs><g clip-path="url(#04242f2e69)"><path fill="#ffffff" d="M 0 0.0585938 L 224.878906 0.0585938 L 224.878906 224.941406 L 0 224.941406 Z M 0 0.0585938 " fill-opacity="1" fill-rule="nonzero"/><path fill="#ffffff" d="M 0 0.0585938 L 224.878906 0.0585938 L 224.878906 224.941406 L 0 224.941406 Z M 0 0.0585938 " fill-opacity="1" fill-rule="nonzero"/></g><g clip-path="url(#2217823158)"><path fill="#545454" d="M 135.503906 114.492188 L 133.839844 116.539062 L 131.105469 119.914062 L 130.992188 120.050781 L 128.769531 122.785156 L 124.957031 127.488281 C 124.6875 127.820312 124.285156 128.007812 123.863281 128.007812 L 108.3125 128.007812 C 106.429688 128.007812 104.625 128.757812 103.292969 130.089844 L 103.039062 130.34375 L 94.441406 121.746094 C 94.445312 121.746094 94.445312 121.742188 94.445312 121.742188 C 94.507812 121.621094 94.574219 121.5 94.640625 121.378906 C 94.664062 121.34375 94.683594 121.304688 94.707031 121.269531 C 94.757812 121.183594 94.808594 121.097656 94.863281 121.011719 C 94.886719 120.976562 94.910156 120.9375 94.933594 120.898438 C 95 120.796875 95.070312 120.691406 95.140625 120.589844 C 95.144531 120.585938 95.148438 120.578125 95.152344 120.574219 C 95.15625 120.566406 95.160156 120.5625 95.167969 120.554688 C 95.246094 120.441406 95.328125 120.328125 95.414062 120.21875 C 95.441406 120.1875 95.464844 120.15625 95.492188 120.121094 C 95.554688 120.042969 95.621094 119.964844 95.683594 119.886719 C 95.714844 119.851562 95.742188 119.820312 95.769531 119.785156 C 95.847656 119.695312 95.929688 119.605469 96.007812 119.519531 C 96.023438 119.503906 96.039062 119.488281 96.050781 119.472656 C 96.148438 119.371094 96.246094 119.273438 96.34375 119.175781 C 96.375 119.148438 96.402344 119.121094 96.429688 119.09375 C 96.503906 119.023438 96.582031 118.949219 96.660156 118.882812 C 96.691406 118.851562 96.722656 118.820312 96.757812 118.792969 C 96.84375 118.714844 96.933594 118.640625 97.023438 118.566406 C 97.039062 118.550781 97.058594 118.535156 97.078125 118.519531 C 97.1875 118.429688 97.300781 118.34375 97.414062 118.257812 C 97.441406 118.238281 97.46875 118.21875 97.496094 118.199219 C 97.585938 118.132812 97.675781 118.070312 97.765625 118.007812 C 97.796875 117.984375 97.832031 117.960938 97.867188 117.9375 C 97.964844 117.875 98.0625 117.808594 98.160156 117.746094 C 98.183594 117.734375 98.207031 117.71875 98.226562 117.707031 C 98.347656 117.628906 98.472656 117.558594 98.597656 117.488281 C 98.621094 117.476562 98.648438 117.460938 98.671875 117.449219 C 98.773438 117.390625 98.875 117.339844 98.980469 117.285156 C 99.015625 117.265625 99.050781 117.25 99.082031 117.230469 C 99.191406 117.179688 99.296875 117.128906 99.40625 117.078125 C 99.429688 117.070312 99.453125 117.058594 99.476562 117.046875 C 99.609375 116.988281 99.742188 116.929688 99.878906 116.875 C 99.882812 116.875 99.886719 116.871094 99.890625 116.871094 C 99.9375 116.851562 99.988281 116.835938 100.035156 116.816406 C 100.101562 116.792969 100.164062 116.765625 100.230469 116.742188 C 100.320312 116.710938 100.410156 116.679688 100.5 116.648438 C 100.542969 116.636719 100.585938 116.625 100.628906 116.609375 C 100.695312 116.589844 100.757812 116.570312 100.828125 116.546875 L 100.964844 116.511719 C 101.027344 116.492188 101.089844 116.476562 101.15625 116.457031 C 101.203125 116.445312 101.25 116.433594 101.296875 116.421875 C 101.359375 116.40625 101.425781 116.390625 101.492188 116.378906 C 101.535156 116.367188 101.585938 116.355469 101.632812 116.347656 C 101.699219 116.332031 101.761719 116.320312 101.828125 116.308594 C 101.875 116.300781 101.921875 116.289062 101.96875 116.28125 C 102.035156 116.269531 102.105469 116.257812 102.171875 116.25 C 102.21875 116.242188 102.261719 116.234375 102.308594 116.230469 C 102.328125 116.226562 102.34375 116.222656 102.363281 116.21875 C 102.414062 116.214844 102.460938 116.210938 102.511719 116.203125 C 102.558594 116.195312 102.609375 116.191406 102.65625 116.1875 C 102.722656 116.179688 102.792969 116.171875 102.859375 116.167969 C 102.910156 116.164062 102.957031 116.160156 103.003906 116.15625 C 103.078125 116.148438 103.152344 116.144531 103.230469 116.144531 C 103.269531 116.140625 103.3125 116.136719 103.355469 116.136719 C 103.460938 116.132812 103.570312 116.128906 103.679688 116.128906 C 103.6875 116.128906 103.695312 116.128906 103.703125 116.128906 C 105.214844 116.128906 106.753906 116.472656 108.226562 117.238281 C 108.339844 117.296875 108.457031 117.351562 108.570312 117.402344 C 108.578125 117.402344 108.582031 117.40625 108.585938 117.410156 C 108.589844 117.410156 108.589844 117.410156 108.59375 117.410156 C 108.835938 117.515625 109.085938 117.605469 109.34375 117.679688 C 109.980469 117.867188 110.644531 117.953125 111.316406 117.953125 L 121.292969 117.953125 C 121.34375 117.953125 121.398438 117.957031 121.449219 117.960938 C 121.464844 117.960938 121.480469 117.964844 121.496094 117.964844 C 121.546875 117.972656 121.601562 117.976562 121.652344 117.988281 C 121.65625 117.988281 121.660156 117.988281 121.664062 117.988281 C 121.714844 118 121.761719 118.011719 121.808594 118.023438 C 121.824219 118.027344 121.839844 118.03125 121.851562 118.035156 C 121.902344 118.050781 121.953125 118.066406 122.003906 118.082031 C 122.007812 118.082031 122.007812 118.085938 122.011719 118.085938 C 122.058594 118.105469 122.105469 118.125 122.148438 118.144531 C 122.164062 118.152344 122.175781 118.15625 122.1875 118.164062 C 122.234375 118.183594 122.28125 118.210938 122.324219 118.234375 C 122.328125 118.238281 122.332031 118.238281 122.335938 118.242188 C 122.378906 118.265625 122.417969 118.292969 122.457031 118.320312 C 122.46875 118.328125 122.480469 118.335938 122.492188 118.34375 C 122.535156 118.375 122.574219 118.40625 122.613281 118.441406 C 122.617188 118.445312 122.621094 118.445312 122.625 118.449219 C 122.660156 118.480469 122.695312 118.515625 122.726562 118.546875 C 122.738281 118.558594 122.75 118.566406 122.757812 118.578125 C 122.792969 118.613281 122.828125 118.652344 122.859375 118.691406 C 122.863281 118.695312 122.867188 118.703125 122.871094 118.707031 C 122.890625 118.730469 122.910156 118.757812 122.929688 118.78125 C 122.9375 118.792969 122.945312 118.804688 122.953125 118.816406 C 122.960938 118.828125 122.96875 118.839844 122.976562 118.851562 C 123.003906 118.894531 123.03125 118.941406 123.058594 118.984375 C 123.058594 118.988281 123.0625 118.992188 123.0625 118.996094 C 123.085938 119.039062 123.105469 119.082031 123.125 119.128906 C 123.132812 119.140625 123.136719 119.152344 123.140625 119.164062 C 123.160156 119.214844 123.179688 119.261719 123.195312 119.316406 C 123.210938 119.367188 123.226562 119.417969 123.234375 119.472656 C 123.238281 119.484375 123.242188 119.496094 123.242188 119.507812 C 123.253906 119.5625 123.261719 119.617188 123.265625 119.675781 C 123.28125 119.800781 123.277344 119.925781 123.265625 120.050781 C 123.222656 120.503906 123.019531 120.914062 122.710938 121.21875 C 122.367188 121.558594 121.894531 121.769531 121.371094 121.769531 L 111.664062 121.769531 C 111.371094 121.769531 111.101562 121.871094 110.890625 122.046875 C 110.667969 122.230469 110.511719 122.488281 110.464844 122.785156 C 110.453125 122.851562 110.449219 122.914062 110.449219 122.980469 C 110.449219 123.027344 110.453125 123.070312 110.457031 123.117188 C 110.457031 123.128906 110.460938 123.140625 110.460938 123.15625 C 110.46875 123.1875 110.472656 123.214844 110.476562 123.246094 C 110.480469 123.261719 110.484375 123.277344 110.488281 123.292969 C 110.496094 123.316406 110.503906 123.34375 110.511719 123.371094 C 110.519531 123.386719 110.523438 123.402344 110.53125 123.417969 C 110.539062 123.441406 110.550781 123.46875 110.5625 123.492188 C 110.570312 123.507812 110.574219 123.519531 110.582031 123.535156 C 110.59375 123.558594 110.609375 123.585938 110.625 123.609375 C 110.632812 123.621094 110.636719 123.632812 110.644531 123.644531 C 110.664062 123.671875 110.683594 123.699219 110.703125 123.722656 C 110.710938 123.730469 110.714844 123.738281 110.71875 123.746094 C 110.746094 123.78125 110.777344 123.8125 110.808594 123.84375 C 110.808594 123.84375 110.808594 123.84375 110.8125 123.84375 C 110.839844 123.875 110.871094 123.902344 110.902344 123.925781 C 110.921875 123.941406 110.941406 123.957031 110.960938 123.972656 C 110.96875 123.976562 110.976562 123.984375 110.988281 123.988281 C 111.015625 124.007812 111.046875 124.027344 111.078125 124.046875 C 111.089844 124.050781 111.097656 124.054688 111.109375 124.0625 C 111.132812 124.074219 111.152344 124.085938 111.175781 124.09375 C 111.191406 124.097656 111.203125 124.105469 111.214844 124.109375 C 111.238281 124.117188 111.257812 124.125 111.28125 124.132812 C 111.296875 124.136719 111.308594 124.140625 111.324219 124.148438 C 111.34375 124.152344 111.367188 124.160156 111.390625 124.164062 C 111.40625 124.167969 111.417969 124.171875 111.433594 124.171875 C 111.457031 124.179688 111.484375 124.179688 111.507812 124.183594 C 111.519531 124.1875 111.535156 124.1875 111.546875 124.191406 C 111.582031 124.191406 111.621094 124.195312 111.65625 124.195312 L 121.292969 124.195312 C 121.4375 124.195312 121.582031 124.191406 121.722656 124.179688 C 122.027344 124.152344 122.328125 124.101562 122.621094 124.011719 C 122.75 123.972656 122.878906 123.925781 123 123.875 C 123.011719 123.871094 123.023438 123.867188 123.035156 123.859375 C 123.085938 123.839844 123.132812 123.820312 123.179688 123.796875 C 123.199219 123.789062 123.214844 123.78125 123.230469 123.773438 C 123.273438 123.753906 123.316406 123.734375 123.355469 123.710938 C 123.375 123.703125 123.394531 123.691406 123.414062 123.679688 C 123.449219 123.660156 123.488281 123.640625 123.523438 123.621094 C 123.546875 123.609375 123.566406 123.59375 123.585938 123.585938 C 123.621094 123.5625 123.65625 123.542969 123.6875 123.523438 C 123.710938 123.507812 123.730469 123.496094 123.753906 123.480469 C 123.785156 123.460938 123.816406 123.4375 123.847656 123.417969 C 123.867188 123.402344 123.890625 123.386719 123.910156 123.371094 C 123.941406 123.351562 123.96875 123.328125 124 123.308594 C 124.019531 123.292969 124.039062 123.273438 124.0625 123.257812 C 124.089844 123.234375 124.117188 123.214844 124.144531 123.191406 C 124.164062 123.171875 124.1875 123.15625 124.207031 123.136719 C 124.234375 123.113281 124.257812 123.09375 124.285156 123.070312 C 124.304688 123.050781 124.324219 123.03125 124.347656 123.011719 C 124.371094 122.988281 124.394531 122.964844 124.417969 122.945312 C 124.4375 122.921875 124.457031 122.902344 124.476562 122.882812 C 124.5 122.859375 124.523438 122.835938 124.546875 122.8125 C 124.554688 122.804688 124.558594 122.796875 124.566406 122.785156 C 124.582031 122.773438 124.59375 122.757812 124.605469 122.746094 C 124.625 122.722656 124.644531 122.699219 124.667969 122.675781 C 124.6875 122.652344 124.703125 122.628906 124.722656 122.605469 C 124.742188 122.582031 124.761719 122.558594 124.78125 122.535156 C 124.800781 122.511719 124.820312 122.484375 124.835938 122.460938 C 124.855469 122.4375 124.875 122.414062 124.890625 122.390625 C 124.90625 122.363281 124.925781 122.339844 124.941406 122.3125 C 124.957031 122.289062 124.976562 122.265625 124.992188 122.238281 C 125.011719 122.214844 125.027344 122.1875 125.042969 122.160156 C 125.058594 122.136719 125.074219 122.113281 125.089844 122.085938 C 125.105469 122.058594 125.121094 122.035156 125.136719 122.003906 C 125.148438 121.980469 125.164062 121.957031 125.179688 121.929688 C 125.191406 121.902344 125.207031 121.875 125.222656 121.847656 C 125.234375 121.820312 125.246094 121.796875 125.261719 121.769531 C 125.273438 121.742188 125.285156 121.714844 125.300781 121.683594 C 125.3125 121.65625 125.324219 121.632812 125.335938 121.605469 C 125.347656 121.578125 125.359375 121.550781 125.371094 121.519531 C 125.382812 121.492188 125.394531 121.464844 125.40625 121.441406 C 125.417969 121.410156 125.425781 121.378906 125.4375 121.351562 C 125.445312 121.324219 125.457031 121.296875 125.464844 121.269531 C 125.476562 121.242188 125.484375 121.210938 125.496094 121.179688 C 125.503906 121.152344 125.511719 121.128906 125.519531 121.101562 C 125.53125 121.070312 125.539062 121.039062 125.546875 121.007812 C 125.554688 120.980469 125.5625 120.953125 125.570312 120.925781 C 125.578125 120.894531 125.582031 120.863281 125.589844 120.832031 C 125.597656 120.804688 125.605469 120.777344 125.609375 120.75 C 125.617188 120.71875 125.621094 120.6875 125.628906 120.65625 C 125.632812 120.628906 125.640625 120.601562 125.644531 120.574219 C 125.648438 120.542969 125.652344 120.511719 125.65625 120.480469 C 125.660156 120.453125 125.667969 120.425781 125.667969 120.394531 C 125.671875 120.363281 125.675781 120.332031 125.679688 120.300781 C 125.683594 120.273438 125.683594 120.246094 125.6875 120.214844 C 125.691406 120.183594 125.691406 120.152344 125.695312 120.121094 C 125.695312 120.089844 125.699219 120.0625 125.699219 120.035156 C 125.699219 120.003906 125.699219 119.972656 125.703125 119.941406 C 125.703125 119.910156 125.703125 119.882812 125.703125 119.851562 C 125.703125 119.820312 125.703125 119.789062 125.703125 119.757812 C 125.699219 119.726562 125.699219 119.699219 125.699219 119.671875 C 125.695312 119.636719 125.695312 119.605469 125.695312 119.574219 C 125.691406 119.53125 125.6875 119.488281 125.683594 119.445312 C 125.675781 119.359375 125.664062 119.277344 125.652344 119.199219 C 125.628906 119.0625 125.601562 118.925781 125.566406 118.792969 L 128.941406 115.53125 L 131.105469 113.441406 L 132.808594 111.796875 C 132.984375 111.621094 133.183594 111.488281 133.398438 111.394531 C 133.433594 111.378906 133.46875 111.363281 133.503906 111.351562 C 133.539062 111.339844 133.578125 111.328125 133.613281 111.316406 C 133.792969 111.265625 133.976562 111.238281 134.160156 111.238281 C 134.171875 111.238281 134.1875 111.238281 134.203125 111.242188 C 134.308594 111.242188 134.417969 111.25 134.519531 111.273438 C 134.53125 111.273438 134.539062 111.277344 134.546875 111.277344 C 134.808594 111.335938 135.058594 111.445312 135.28125 111.609375 C 135.359375 111.667969 135.433594 111.726562 135.503906 111.796875 C 135.878906 112.167969 136.0625 112.65625 136.0625 113.140625 C 136.0625 113.628906 135.878906 114.121094 135.503906 114.492188 Z M 102.109375 133.882812 C 102.097656 133.949219 102.078125 134.015625 102.058594 134.078125 C 102.035156 134.140625 102.011719 134.203125 101.980469 134.265625 C 101.933594 134.363281 101.875 134.460938 101.800781 134.554688 C 101.761719 134.609375 101.714844 134.660156 101.664062 134.710938 L 96.847656 139.527344 L 84.886719 127.566406 L 89.703125 122.75 C 89.929688 122.523438 90.207031 122.378906 90.5 122.3125 C 90.515625 122.308594 90.53125 122.304688 90.546875 122.300781 C 90.558594 122.296875 90.570312 122.296875 90.585938 122.296875 C 90.675781 122.28125 90.765625 122.269531 90.859375 122.269531 C 91.167969 122.269531 91.484375 122.359375 91.753906 122.539062 C 91.847656 122.597656 91.933594 122.667969 92.011719 122.75 L 101.664062 132.402344 C 101.804688 132.542969 101.914062 132.699219 101.992188 132.867188 C 102.027344 132.941406 102.054688 133.015625 102.074219 133.089844 C 102.121094 133.242188 102.144531 133.398438 102.144531 133.554688 C 102.144531 133.664062 102.132812 133.777344 102.109375 133.882812 Z M 137.210938 110.074219 C 136.40625 109.261719 135.316406 108.8125 134.160156 108.8125 C 134.050781 108.8125 133.945312 108.816406 133.839844 108.824219 C 132.875 108.890625 131.96875 109.277344 131.25 109.929688 C 131.203125 109.972656 131.15625 110.015625 131.109375 110.0625 L 131.105469 110.070312 L 127.214844 113.828125 L 124.265625 116.675781 C 123.476562 115.964844 122.421875 115.527344 121.289062 115.527344 L 111.269531 115.527344 C 110.734375 115.527344 110.21875 115.433594 109.753906 115.261719 C 109.609375 115.207031 109.46875 115.148438 109.339844 115.078125 C 107.578125 114.167969 105.679688 113.703125 103.703125 113.703125 C 102.738281 113.703125 101.777344 113.816406 100.84375 114.03125 C 100.0625 114.214844 99.300781 114.46875 98.566406 114.789062 C 98.335938 114.890625 98.113281 114.996094 97.890625 115.109375 C 96.910156 115.609375 95.988281 116.230469 95.152344 116.964844 C 94.871094 117.210938 94.601562 117.472656 94.339844 117.742188 C 93.617188 118.5 93.011719 119.328125 92.515625 120.203125 C 92 119.96875 91.441406 119.84375 90.859375 119.84375 C 89.773438 119.84375 88.753906 120.265625 87.988281 121.03125 L 82.574219 126.445312 C 81.957031 127.0625 81.957031 128.066406 82.574219 128.683594 L 95.730469 141.839844 C 96.347656 142.457031 97.351562 142.457031 97.96875 141.839844 L 103.382812 136.429688 C 104.46875 135.339844 104.808594 133.789062 104.40625 132.410156 L 104.757812 132.058594 C 105.796875 131.019531 107.203125 130.4375 108.671875 130.4375 L 123.867188 130.4375 C 125.019531 130.4375 126.113281 129.917969 126.839844 129.019531 L 131.894531 122.785156 L 133.839844 120.390625 L 137.320312 116.101562 C 138.078125 115.296875 138.488281 114.253906 138.488281 113.140625 C 138.488281 111.976562 138.035156 110.886719 137.210938 110.074219 " fill-opacity="1" fill-rule="nonzero"/></g><path fill="#545454" d="M 91.03125 125.234375 C 90.265625 125.234375 89.644531 125.855469 89.644531 126.621094 C 89.644531 127.386719 90.265625 128.007812 91.03125 128.007812 C 91.796875 128.007812 92.417969 127.386719 92.417969 126.621094 C 92.417969 125.855469 91.796875 125.234375 91.03125 125.234375 " fill-opacity="1" fill-rule="nonzero"/><g clip-path="url(#6e9b1fed10)"><path fill="#545454" d="M 137.914062 87.796875 C 137.914062 90.707031 135.554688 93.0625 132.648438 93.0625 C 129.742188 93.0625 127.386719 90.707031 127.386719 87.796875 C 127.386719 84.890625 129.742188 82.535156 132.648438 82.535156 C 135.554688 82.535156 137.914062 84.890625 137.914062 87.796875 " fill-opacity="1" fill-rule="nonzero"/></g><g clip-path="url(#c6ed6d3869)"><path fill="#545454" d="M 105.433594 87.796875 C 105.433594 90.707031 103.078125 93.0625 100.167969 93.0625 C 97.261719 93.0625 94.90625 90.707031 94.90625 87.796875 C 94.90625 84.890625 97.261719 82.535156 100.167969 82.535156 C 103.078125 82.535156 105.433594 84.890625 105.433594 87.796875 " fill-opacity="1" fill-rule="nonzero"/></g><g clip-path="url(#3a16a45507)"><path fill="#545454" d="M 135.527344 94.269531 L 129.773438 94.269531 C 127.96875 94.269531 126.308594 94.925781 125.023438 96.007812 C 124.265625 96.648438 124.328125 97.832031 125.152344 98.382812 C 125.691406 98.746094 126.203125 99.164062 126.675781 99.636719 C 127.8125 100.777344 128.644531 102.140625 129.121094 103.628906 C 129.316406 104.242188 129.886719 104.65625 130.53125 104.65625 L 139.917969 104.65625 C 141.566406 104.65625 142.914062 103.308594 142.914062 101.660156 C 142.914062 97.59375 139.589844 94.269531 135.527344 94.269531 " fill-opacity="1" fill-rule="nonzero"/></g><path fill="#545454" d="M 107.667969 98.382812 C 108.492188 97.832031 108.554688 96.648438 107.796875 96.007812 C 106.511719 94.925781 104.851562 94.269531 103.046875 94.269531 L 97.292969 94.269531 C 93.230469 94.269531 89.902344 97.59375 89.902344 101.660156 C 89.902344 103.308594 91.253906 104.65625 92.902344 104.65625 L 102.289062 104.65625 C 102.933594 104.65625 103.503906 104.242188 103.699219 103.628906 C 104.175781 102.140625 105.003906 100.777344 106.144531 99.636719 C 106.617188 99.164062 107.125 98.746094 107.667969 98.382812 " fill-opacity="1" fill-rule="nonzero"/><path fill="#545454" d="M 119.652344 98.328125 L 113.167969 98.328125 C 108.585938 98.328125 104.835938 102.074219 104.835938 106.65625 C 104.835938 108.515625 106.355469 110.035156 108.214844 110.035156 L 124.605469 110.035156 C 126.464844 110.035156 127.984375 108.515625 127.984375 106.65625 C 127.984375 102.074219 124.234375 98.328125 119.652344 98.328125 " fill-opacity="1" fill-rule="nonzero"/><path fill="#545454" d="M 122.34375 91.03125 C 122.34375 94.308594 119.6875 96.964844 116.410156 96.964844 C 113.132812 96.964844 110.476562 94.308594 110.476562 91.03125 C 110.476562 87.753906 113.132812 85.097656 116.410156 85.097656 C 119.6875 85.097656 122.34375 87.753906 122.34375 91.03125 " fill-opacity="1" fill-rule="nonzero"/></svg>