<svg xmlns="http://www.w3.org/2000/svg" xmlns:xlink="http://www.w3.org/1999/xlink" width="300" zoomAndPan="magnify" viewBox="0 0 224.87999 225" height="300" preserveAspectRatio="xMidYMid meet" version="1.0"><defs><clipPath id="6271bfea60"><path d="M 0 0.0585938 L 224.761719 0.0585938 L 224.761719 224.9375 L 0 224.9375 Z M 0 0.0585938 " clip-rule="nonzero"/></clipPath><clipPath id="07afff99eb"><path d="M 88.183594 82.976562 L 136.160156 82.976562 L 136.160156 142.945312 L 88.183594 142.945312 Z M 88.183594 82.976562 " clip-rule="nonzero"/></clipPath></defs><g clip-path="url(#6271bfea60)"><path fill="#ffffff" d="M 0 0.0585938 L 224.878906 0.0585938 L 224.878906 224.941406 L 0 224.941406 Z M 0 0.0585938 " fill-opacity="1" fill-rule="nonzero"/><path fill="#ffffff" d="M 0 0.0585938 L 224.878906 0.0585938 L 224.878906 224.941406 L 0 224.941406 Z M 0 0.0585938 " fill-opacity="1" fill-rule="nonzero"/></g><g clip-path="url(#07afff99eb)"><path fill="#545454" d="M 127.1875 125.335938 L 118.925781 123.503906 L 118.925781 121.496094 C 120.289062 120.707031 121.476562 119.710938 122.488281 118.507812 L 125.648438 118.507812 C 126.03125 118.507812 126.398438 118.433594 126.753906 118.289062 C 127.105469 118.140625 127.417969 117.933594 127.6875 117.664062 C 127.957031 117.394531 128.167969 117.082031 128.3125 116.726562 C 128.457031 116.375 128.53125 116.007812 128.53125 115.625 L 128.53125 114.664062 C 128.914062 114.664062 129.28125 114.589844 129.632812 114.445312 C 129.988281 114.300781 130.300781 114.089844 130.570312 113.820312 C 130.839844 113.550781 131.046875 113.238281 131.195312 112.886719 C 131.339844 112.53125 131.414062 112.164062 131.414062 111.78125 L 131.414062 106.019531 C 131.414062 105.410156 131.234375 104.855469 130.882812 104.359375 C 130.53125 103.863281 130.066406 103.511719 129.492188 103.308594 L 129.492188 100.253906 C 129.492188 99.6875 129.464844 99.125 129.410156 98.558594 C 129.355469 97.996094 129.269531 97.4375 129.160156 96.882812 C 129.050781 96.324219 128.914062 95.777344 128.746094 95.234375 C 128.582031 94.691406 128.394531 94.160156 128.175781 93.636719 C 127.960938 93.113281 127.71875 92.601562 127.449219 92.105469 C 127.183594 91.605469 126.894531 91.117188 126.578125 90.648438 C 126.265625 90.175781 125.925781 89.722656 125.566406 89.285156 C 125.207031 88.847656 124.828125 88.429688 124.429688 88.027344 C 124.027344 87.628906 123.609375 87.246094 123.171875 86.886719 C 122.734375 86.527344 122.277344 86.191406 121.808594 85.878906 C 121.335938 85.5625 120.851562 85.273438 120.351562 85.003906 C 119.851562 84.738281 119.339844 84.496094 118.816406 84.277344 C 118.292969 84.0625 117.761719 83.871094 117.21875 83.707031 C 116.679688 83.542969 116.128906 83.40625 115.574219 83.296875 C 115.019531 83.183594 114.460938 83.101562 113.894531 83.046875 C 113.332031 82.992188 112.765625 82.964844 112.199219 82.964844 C 111.632812 82.964844 111.070312 82.992188 110.503906 83.046875 C 109.941406 83.101562 109.382812 83.183594 108.828125 83.296875 C 108.273438 83.40625 107.722656 83.542969 107.179688 83.707031 C 106.640625 83.871094 106.105469 84.0625 105.582031 84.277344 C 105.058594 84.496094 104.546875 84.738281 104.050781 85.003906 C 103.550781 85.273438 103.066406 85.5625 102.59375 85.878906 C 102.121094 86.191406 101.667969 86.527344 101.230469 86.886719 C 100.792969 87.246094 100.375 87.628906 99.972656 88.027344 C 99.574219 88.429688 99.191406 88.847656 98.832031 89.285156 C 98.472656 89.722656 98.136719 90.175781 97.824219 90.648438 C 97.507812 91.117188 97.21875 91.605469 96.949219 92.105469 C 96.683594 92.601562 96.441406 93.113281 96.226562 93.636719 C 96.007812 94.160156 95.816406 94.691406 95.652344 95.234375 C 95.488281 95.777344 95.351562 96.324219 95.242188 96.882812 C 95.128906 97.4375 95.046875 97.996094 94.992188 98.558594 C 94.9375 99.125 94.910156 99.6875 94.910156 100.253906 L 94.910156 103.308594 C 94.335938 103.511719 93.871094 103.863281 93.519531 104.359375 C 93.167969 104.855469 92.988281 105.410156 92.988281 106.019531 L 92.988281 111.78125 C 92.988281 112.164062 93.0625 112.53125 93.207031 112.886719 C 93.351562 113.238281 93.5625 113.550781 93.832031 113.820312 C 94.101562 114.089844 94.414062 114.300781 94.765625 114.445312 C 95.121094 114.589844 95.488281 114.664062 95.871094 114.664062 L 99.65625 114.664062 C 100.207031 116.101562 100.984375 117.40625 101.980469 118.578125 C 102.980469 119.75 104.144531 120.722656 105.476562 121.496094 L 105.476562 123.503906 L 97.214844 125.335938 C 96.578125 125.476562 95.957031 125.667969 95.351562 125.910156 C 94.75 126.15625 94.167969 126.449219 93.613281 126.792969 C 93.0625 127.132812 92.539062 127.523438 92.050781 127.953125 C 91.5625 128.386719 91.117188 128.855469 90.707031 129.363281 C 90.300781 129.871094 89.9375 130.410156 89.621094 130.980469 C 89.304688 131.550781 89.039062 132.144531 88.824219 132.757812 C 88.609375 133.375 88.449219 134.003906 88.339844 134.644531 C 88.234375 135.289062 88.179688 135.933594 88.183594 136.585938 L 88.183594 141.5625 C 88.183594 141.828125 88.277344 142.054688 88.464844 142.242188 C 88.652344 142.429688 88.878906 142.523438 89.144531 142.523438 L 135.257812 142.523438 C 135.523438 142.523438 135.75 142.429688 135.9375 142.242188 C 136.125 142.054688 136.21875 141.828125 136.21875 141.5625 L 136.21875 136.585938 C 136.21875 135.933594 136.167969 135.289062 136.058594 134.644531 C 135.953125 134.003906 135.792969 133.375 135.578125 132.757812 C 135.359375 132.144531 135.097656 131.550781 134.78125 130.980469 C 134.464844 130.410156 134.101562 129.871094 133.695312 129.363281 C 133.285156 128.855469 132.839844 128.386719 132.351562 127.953125 C 131.863281 127.523438 131.339844 127.132812 130.785156 126.792969 C 130.230469 126.449219 129.652344 126.15625 129.046875 125.910156 C 128.445312 125.667969 127.824219 125.476562 127.1875 125.335938 Z M 120.328125 125.78125 L 116.6875 131.609375 L 113.746094 129.84375 L 118.273438 125.328125 Z M 126.609375 115.625 C 126.609375 115.890625 126.515625 116.117188 126.328125 116.304688 C 126.140625 116.492188 125.914062 116.585938 125.648438 116.585938 L 123.835938 116.585938 C 124.207031 115.972656 124.527344 115.332031 124.792969 114.664062 L 126.609375 114.664062 Z M 123.730469 103.136719 L 120.683594 103.136719 C 119.910156 103.136719 119.148438 103.039062 118.402344 102.84375 C 117.65625 102.648438 116.945312 102.359375 116.269531 101.980469 C 115.597656 101.601562 114.984375 101.140625 114.429688 100.605469 C 113.875 100.066406 113.398438 99.464844 112.996094 98.804688 C 112.910156 98.660156 112.792969 98.542969 112.648438 98.460938 C 112.5 98.375 112.339844 98.332031 112.171875 98.332031 C 112.003906 98.332031 111.84375 98.375 111.695312 98.460938 C 111.550781 98.542969 111.433594 98.660156 111.34375 98.804688 C 110.945312 99.464844 110.46875 100.066406 109.914062 100.605469 C 109.359375 101.140625 108.746094 101.601562 108.074219 101.980469 C 107.398438 102.359375 106.6875 102.648438 105.941406 102.84375 C 105.195312 103.039062 104.433594 103.136719 103.660156 103.136719 L 100.671875 103.136719 L 100.671875 100.253906 C 100.671875 99.496094 100.746094 98.75 100.894531 98.007812 C 101.042969 97.261719 101.261719 96.542969 101.550781 95.84375 C 101.839844 95.144531 102.195312 94.480469 102.617188 93.851562 C 103.035156 93.222656 103.515625 92.636719 104.050781 92.101562 C 104.585938 91.566406 105.167969 91.089844 105.796875 90.667969 C 106.425781 90.25 107.089844 89.894531 107.789062 89.605469 C 108.488281 89.316406 109.210938 89.097656 109.953125 88.949219 C 110.695312 88.800781 111.445312 88.726562 112.199219 88.726562 C 112.957031 88.726562 113.707031 88.800781 114.449219 88.949219 C 115.191406 89.097656 115.914062 89.316406 116.613281 89.605469 C 117.3125 89.894531 117.976562 90.25 118.605469 90.667969 C 119.234375 91.089844 119.816406 91.566406 120.351562 92.101562 C 120.886719 92.636719 121.367188 93.222656 121.785156 93.851562 C 122.207031 94.480469 122.5625 95.144531 122.851562 95.84375 C 123.140625 96.542969 123.359375 97.261719 123.507812 98.007812 C 123.65625 98.75 123.730469 99.496094 123.730469 100.253906 Z M 129.492188 111.78125 C 129.492188 112.046875 129.398438 112.273438 129.210938 112.460938 C 129.023438 112.648438 128.796875 112.742188 128.53125 112.742188 L 125.332031 112.742188 C 125.542969 111.792969 125.648438 110.832031 125.648438 109.863281 L 125.648438 105.058594 L 128.53125 105.058594 C 128.796875 105.058594 129.023438 105.152344 129.210938 105.339844 C 129.398438 105.527344 129.492188 105.753906 129.492188 106.019531 Z M 112.199219 84.882812 C 113.210938 84.882812 114.210938 84.984375 115.199219 85.179688 C 116.1875 85.375 117.148438 85.667969 118.082031 86.054688 C 119.015625 86.441406 119.902344 86.914062 120.738281 87.476562 C 121.578125 88.035156 122.355469 88.671875 123.070312 89.386719 C 123.78125 90.101562 124.421875 90.875 124.980469 91.714844 C 125.542969 92.554688 126.015625 93.441406 126.402344 94.371094 C 126.789062 95.304688 127.078125 96.265625 127.277344 97.257812 C 127.472656 98.246094 127.570312 99.246094 127.570312 100.253906 L 127.570312 103.136719 L 125.648438 103.136719 L 125.648438 100.253906 C 125.648438 99.371094 125.5625 98.496094 125.390625 97.632812 C 125.21875 96.765625 124.964844 95.925781 124.625 95.109375 C 124.289062 94.292969 123.875 93.515625 123.382812 92.78125 C 122.894531 92.046875 122.335938 91.371094 121.710938 90.746094 C 121.085938 90.121094 120.40625 89.5625 119.671875 89.070312 C 118.9375 88.582031 118.164062 88.167969 117.347656 87.828125 C 116.53125 87.492188 115.691406 87.238281 114.824219 87.0625 C 113.957031 86.890625 113.082031 86.804688 112.199219 86.804688 C 111.316406 86.804688 110.441406 86.890625 109.578125 87.0625 C 108.710938 87.238281 107.871094 87.492188 107.054688 87.828125 C 106.238281 88.167969 105.464844 88.582031 104.730469 89.070312 C 103.996094 89.5625 103.316406 90.121094 102.691406 90.746094 C 102.066406 91.371094 101.507812 92.046875 101.019531 92.78125 C 100.527344 93.515625 100.113281 94.292969 99.773438 95.109375 C 99.4375 95.925781 99.183594 96.765625 99.011719 97.632812 C 98.835938 98.496094 98.75 99.371094 98.75 100.253906 L 98.75 103.136719 L 96.832031 103.136719 L 96.832031 100.253906 C 96.832031 99.246094 96.929688 98.246094 97.125 97.257812 C 97.324219 96.265625 97.613281 95.304688 98 94.371094 C 98.386719 93.441406 98.859375 92.554688 99.421875 91.714844 C 99.980469 90.875 100.617188 90.101562 101.332031 89.386719 C 102.046875 88.671875 102.820312 88.035156 103.660156 87.476562 C 104.5 86.914062 105.386719 86.441406 106.320312 86.054688 C 107.25 85.667969 108.210938 85.375 109.203125 85.179688 C 110.191406 84.984375 111.191406 84.882812 112.199219 84.882812 Z M 95.871094 112.742188 C 95.605469 112.742188 95.378906 112.648438 95.191406 112.460938 C 95.003906 112.273438 94.910156 112.046875 94.910156 111.78125 L 94.910156 106.019531 C 94.910156 105.753906 95.003906 105.527344 95.191406 105.339844 C 95.378906 105.152344 95.605469 105.058594 95.871094 105.058594 L 98.75 105.058594 L 98.75 109.863281 C 98.753906 110.832031 98.859375 111.792969 99.070312 112.742188 Z M 100.671875 109.863281 L 100.671875 105.058594 L 103.71875 105.058594 C 105.367188 105.054688 106.933594 104.691406 108.421875 103.976562 C 109.90625 103.261719 111.167969 102.261719 112.199219 100.976562 C 113.234375 102.261719 114.492188 103.261719 115.980469 103.976562 C 117.464844 104.691406 119.035156 105.054688 120.683594 105.058594 L 123.730469 105.058594 L 123.730469 109.863281 C 123.722656 112.335938 122.996094 114.578125 121.546875 116.585938 L 114.910156 116.585938 C 114.835938 116.375 114.734375 116.171875 114.613281 115.984375 C 114.492188 115.792969 114.347656 115.621094 114.1875 115.464844 C 114.023438 115.308594 113.84375 115.175781 113.652344 115.0625 C 113.457031 114.945312 113.25 114.855469 113.035156 114.789062 C 112.820312 114.726562 112.601562 114.683594 112.375 114.671875 C 112.152344 114.65625 111.925781 114.667969 111.707031 114.707031 C 111.484375 114.746094 111.269531 114.808594 111.0625 114.894531 C 110.855469 114.984375 110.660156 115.097656 110.480469 115.230469 C 110.296875 115.363281 110.132812 115.515625 109.988281 115.6875 C 109.84375 115.863281 109.71875 116.046875 109.617188 116.25 C 109.519531 116.449219 109.441406 116.660156 109.390625 116.878906 C 109.335938 117.097656 109.3125 117.320312 109.3125 117.546875 C 109.3125 117.773438 109.335938 117.996094 109.390625 118.214844 C 109.441406 118.433594 109.519531 118.644531 109.617188 118.84375 C 109.71875 119.046875 109.84375 119.230469 109.988281 119.40625 C 110.132812 119.578125 110.296875 119.730469 110.480469 119.863281 C 110.660156 119.996094 110.855469 120.109375 111.0625 120.199219 C 111.269531 120.285156 111.484375 120.347656 111.707031 120.386719 C 111.925781 120.425781 112.152344 120.4375 112.375 120.421875 C 112.601562 120.410156 112.820312 120.367188 113.035156 120.300781 C 113.25 120.238281 113.457031 120.148438 113.652344 120.03125 C 113.84375 119.917969 114.023438 119.785156 114.1875 119.628906 C 114.347656 119.472656 114.492188 119.300781 114.613281 119.109375 C 114.734375 118.921875 114.835938 118.71875 114.910156 118.507812 L 119.800781 118.507812 C 118.96875 119.238281 118.050781 119.835938 117.042969 120.300781 C 116.039062 120.765625 114.992188 121.078125 113.894531 121.242188 C 112.800781 121.402344 111.707031 121.410156 110.609375 121.257812 C 109.511719 121.101562 108.460938 120.800781 107.453125 120.34375 C 106.445312 119.886719 105.519531 119.296875 104.679688 118.578125 C 103.84375 117.855469 103.121094 117.027344 102.519531 116.097656 C 101.917969 115.167969 101.460938 114.175781 101.148438 113.113281 C 100.832031 112.050781 100.675781 110.96875 100.671875 109.863281 Z M 113.160156 117.546875 C 113.160156 117.8125 113.066406 118.039062 112.878906 118.226562 C 112.691406 118.414062 112.464844 118.507812 112.199219 118.507812 C 111.933594 118.507812 111.707031 118.414062 111.519531 118.226562 C 111.332031 118.039062 111.238281 117.8125 111.238281 117.546875 C 111.238281 117.28125 111.332031 117.054688 111.519531 116.867188 C 111.707031 116.679688 111.933594 116.585938 112.199219 116.585938 C 112.464844 116.585938 112.691406 116.679688 112.878906 116.867188 C 113.066406 117.054688 113.160156 117.28125 113.160156 117.546875 Z M 112.199219 123.3125 C 113.859375 123.308594 115.457031 123.007812 117.003906 122.40625 L 117.003906 123.878906 L 112.199219 128.679688 L 107.398438 123.878906 L 107.398438 122.40625 C 108.941406 123.007812 110.542969 123.308594 112.199219 123.3125 Z M 106.128906 125.328125 L 110.652344 129.84375 L 107.714844 131.609375 L 104.074219 125.78125 Z M 90.105469 136.585938 C 90.105469 136.042969 90.152344 135.507812 90.242188 134.972656 C 90.332031 134.4375 90.46875 133.914062 90.648438 133.402344 C 90.828125 132.890625 91.050781 132.398438 91.316406 131.921875 C 91.578125 131.449219 91.878906 131 92.21875 130.578125 C 92.558594 130.152344 92.929688 129.761719 93.335938 129.402344 C 93.742188 129.042969 94.175781 128.71875 94.636719 128.433594 C 95.097656 128.144531 95.578125 127.898438 96.078125 127.695312 C 96.582031 127.488281 97.097656 127.328125 97.628906 127.210938 L 102.085938 126.25 L 106.582031 133.457031 C 106.777344 133.746094 107.046875 133.886719 107.398438 133.878906 C 107.574219 133.878906 107.734375 133.832031 107.886719 133.742188 L 111.238281 131.734375 L 111.238281 140.601562 L 97.789062 140.601562 L 97.789062 135.800781 L 95.871094 135.800781 L 95.871094 140.601562 L 90.105469 140.601562 Z M 134.296875 140.601562 L 128.53125 140.601562 L 128.53125 135.800781 L 126.609375 135.800781 L 126.609375 140.601562 L 113.160156 140.601562 L 113.160156 131.734375 L 116.515625 133.742188 C 116.664062 133.832031 116.828125 133.878906 117.003906 133.878906 C 117.359375 133.878906 117.632812 133.726562 117.820312 133.425781 L 122.316406 126.191406 L 126.773438 127.152344 C 127.304688 127.273438 127.824219 127.433594 128.328125 127.640625 C 128.832031 127.847656 129.316406 128.09375 129.777344 128.382812 C 130.238281 128.671875 130.675781 128.996094 131.082031 129.359375 C 131.488281 129.722656 131.859375 130.117188 132.199219 130.542969 C 132.539062 130.96875 132.839844 131.417969 133.105469 131.898438 C 133.367188 132.375 133.585938 132.871094 133.765625 133.386719 C 133.945312 133.898438 134.078125 134.425781 134.167969 134.964844 C 134.257812 135.5 134.300781 136.042969 134.296875 136.585938 Z M 134.296875 140.601562 " fill-opacity="1" fill-rule="nonzero"/></g></svg>